<svg version="1.1" xmlns="http://www.w3.org/2000/svg" width="1200" height="800"><defs><clipPath id="DLBeGEvccUTm"><path fill="none" stroke="none" d="M 102.5 5.5 L 766.5 5.5 L 766.5 739.5 L 102.5 739.5 L 102.5 5.5"/></clipPath><clipPath id="VBfHsSxhEGEQ"><path fill="none" stroke="none" d="M 102.5 5.5 L 766.5 5.5 L 766.5 739.5 L 102.5 739.5 L 102.5 5.5"/></clipPath><clipPath id="GlpgdOKNKwET"><path fill="none" stroke="none" d="M 102.5 5.5 L 766.5 5.5 L 766.5 739.5 L 102.5 739.5 L 102.5 5.5"/></clipPath><clipPath id="TWOkQngxTOht"><path fill="none" stroke="none" d="M 102.5 5.5 L 766.5 5.5 L 766.5 739.5 L 102.5 739.5 L 102.5 5.5"/></clipPath><clipPath id="lzMnJIJxJpdL"><path fill="none" stroke="none" d="M 102.5 5.5 L 766.5 5.5 L 766.5 739.5 L 102.5 739.5 L 102.5 5.5"/></clipPath><clipPath id="DlBtvUTFWIlX"><path fill="none" stroke="none" d="M 102.5 5.5 L 766.5 5.5 L 766.5 739.5 L 102.5 739.5 L 102.5 5.5"/></clipPath><clipPath id="CXicnLAGLGVf"><path fill="none" stroke="none" d="M 102.5 5.5 L 766.5 5.5 L 766.5 739.5 L 102.5 739.5 L 102.5 5.5"/></clipPath><clipPath id="mzzJoulnOmMB"><path fill="none" stroke="none" d="M 102.5 5.5 L 766.5 5.5 L 766.5 739.5 L 102.5 739.5 L 102.5 5.5"/></clipPath><clipPath id="rJFefTdMzJgy"><path fill="none" stroke="none" d="M 102.5 5.5 L 766.5 5.5 L 766.5 739.5 L 102.5 739.5 L 102.5 5.5"/></clipPath><clipPath id="IMDiqXBXKtED"><path fill="none" stroke="none" d="M 102.5 5.5 L 766.5 5.5 L 766.5 739.5 L 102.5 739.5 L 102.5 5.5"/></clipPath><clipPath id="rWtlqXebwCpG"><path fill="none" stroke="none" d="M 102.5 5.5 L 766.5 5.5 L 766.5 739.5 L 102.5 739.5 L 102.5 5.5"/></clipPath><clipPath id="vqxEHVRyNTTz"><path fill="none" stroke="none" d="M 102.5 5.5 L 766.5 5.5 L 766.5 739.5 L 102.5 739.5 L 102.5 5.5"/></clipPath><clipPath id="fvUdKKMWJURe"><path fill="none" stroke="none" d="M 102.5 5.5 L 766.5 5.5 L 766.5 739.5 L 102.5 739.5 L 102.5 5.5"/></clipPath><clipPath id="calxesuInJvx"><path fill="none" stroke="none" d="M 102.5 5.5 L 766.5 5.5 L 766.5 739.5 L 102.5 739.5 L 102.5 5.5"/></clipPath><clipPath id="nERMzXowVqxV"><path fill="none" stroke="none" d="M 102.5 5.5 L 766.5 5.5 L 766.5 739.5 L 102.5 739.5 L 102.5 5.5"/></clipPath></defs><path fill="rgb(255,255,255)" stroke="none" paint-order="stroke" d="M 0.5 0.5 L 1200.5 0.5 L 1200.5 800.5 L 0.5 800.5 L 0.5 0.5" fill-opacity="1"/><rect fill="#FFFFFF" stroke="none" x="102" y="5" width="664" height="734" transform="matrix(1, 0, 0, 1, 0.5, 0.5)"/><path fill="rgb(255,255,255)" stroke="none" paint-order="stroke" d="M 102.5 5.5 L 766.5 5.5 L 766.5 739.5 L 102.5 739.5 L 102.5 5.5" fill-opacity="1"/><path fill="none" stroke="rgb(229,229,229)" paint-order="fill" d="M 102.5 5.5 L 766.5 5.5 L 766.5 739.5 L 102.5 739.5 L 102.5 5.5" stroke-opacity="1" stroke-linejoin="bevel" stroke-miterlimit="10" stroke-dasharray=""/><path fill="none" stroke="rgb(229,229,229)" paint-order="fill" d="M 132.5 739.5 L 132.5 5.5 M 255.5 739.5 L 255.5 5.5 M 379.5 739.5 L 379.5 5.5 M 502.5 739.5 L 502.5 5.5 M 625.5 739.5 L 625.5 5.5 M 748.5 739.5 L 748.5 5.5" stroke-opacity="1" stroke-linejoin="bevel" stroke-miterlimit="10" stroke-dasharray="" clip-path="url(#DLBeGEvccUTm)"/><path fill="none" stroke="rgb(229,229,229)" paint-order="fill" d="M 102.5 686.5 L 766.5 686.5 M 102.5 555.5 L 766.5 555.5 M 102.5 424.5 L 766.5 424.5 M 102.5 293.5 L 766.5 293.5 M 102.5 162.5 L 766.5 162.5 M 102.5 32.5 L 766.5 32.5" stroke-opacity="1" stroke-linejoin="bevel" stroke-miterlimit="10" stroke-dasharray="" clip-path="url(#VBfHsSxhEGEQ)"/><path fill="none" stroke="rgb(31,119,180)" paint-order="fill" d="M 132.68182373046875 102.16596984863281 L 145.0009307861328 108.92191314697266 L 157.32003784179688 113.18690490722656 L 169.63914489746094 101.13766479492188 L 181.958251953125 98.45569610595703 L 194.27735900878906 95.70830535888672 L 206.5964813232422 94.21687316894531 L 218.91558837890625 125.95569610595703 L 231.2346954345703 97.60530853271484 L 243.55380249023438 126.30892944335938 L 255.87290954589844 108.3593521118164 L 268.1920166015625 171.95474243164062 L 280.5111389160156 92.51611328125 L 292.8302307128906 100.07795715332031 L 305.14935302734375 111.39456176757812 L 317.4684753417969 94.85792541503906 L 329.7875671386719 93.1048355102539 L 342.106689453125 104.06820678710938 L 354.42578125 99.22757720947266 L 366.7449035644531 98.79584503173828 L 379.0639953613281 139.14312744140625 L 391.38311767578125 103.76730346679688 L 403.7022399902344 101.73947143554688 L 416.0213317871094 102.89075469970703 L 428.3404541015625 109.86387634277344 L 440.6595458984375 94.55702209472656 L 452.9786682128906 102.87767028808594 L 465.2977600097656 102.8253402709961 L 477.61688232421875 100.35269165039062 L 489.9360046386719 105.11483001708984 L 502.2550964355469 105.52039337158203 L 514.57421875 107.58747100830078 L 526.893310546875 110.25635528564453 L 539.21240234375 112.79441833496094 L 551.5315551757812 114.20735931396484 L 563.8506469726562 120.19927215576172 L 576.1697387695312 118.22377014160156 L 588.4888916015625 121.49446868896484 L 600.8079833984375 126.02111053466797 L 613.1270751953125 128.57225036621094 L 625.4461669921875 133.8707733154297 L 637.7653198242188 133.72686767578125 L 650.0844116210938 130.35150146484375 L 662.4035034179688 135.8201141357422 L 674.72265625 138.6983184814453 L 687.041748046875 137.95260620117188 L 699.36083984375 142.61007690429688 L 711.6799926757812 144.02301025390625 L 723.9990844726562 147.05821228027344 L 736.3181762695312 144.59864807128906" stroke-opacity="1" stroke-linejoin="bevel" stroke-miterlimit="10" stroke-width="3" stroke-dasharray="" clip-path="url(#GlpgdOKNKwET)"/><path fill="none" stroke="rgb(174,199,232)" paint-order="fill" d="M 132.68182373046875 100.22187042236328 L 145.0009307861328 109.8900375366211 L 157.32003784179688 116.23519134521484 L 169.63914489746094 101.13766479492188 L 181.958251953125 98.28561401367188 L 194.27735900878906 95.70830535888672 L 206.5964813232422 94.21687316894531 L 218.91558837890625 125.95569610595703 L 231.2346954345703 98.49494171142578 L 243.55380249023438 126.30892944335938 L 255.87290954589844 107.7706298828125 L 268.1920166015625 171.95474243164062 L 280.5111389160156 92.31986999511719 L 292.8302307128906 100.07795715332031 L 305.14935302734375 111.39456176757812 L 317.4684753417969 94.85792541503906 L 329.7875671386719 93.1048355102539 L 342.106689453125 103.7149658203125 L 354.42578125 106.67167663574219 L 366.7449035644531 98.79584503173828 L 379.0639953613281 139.14312744140625 L 391.38311767578125 103.76730346679688 L 403.7022399902344 101.73947143554688 L 416.0213317871094 102.89075469970703 L 428.3404541015625 109.86387634277344 L 440.6595458984375 94.55702209472656 L 452.9786682128906 102.87767028808594 L 465.2977600097656 102.8253402709961 L 477.61688232421875 100.35269165039062 L 489.9360046386719 105.11483001708984 L 502.2550964355469 105.52039337158203 L 514.57421875 107.58747100830078 L 526.893310546875 110.25635528564453 L 539.21240234375 112.79441833496094 L 551.5315551757812 114.20735931396484 L 563.8506469726562 120.19927215576172 L 576.1697387695312 118.22377014160156 L 588.4888916015625 121.49446868896484 L 600.8079833984375 126.02111053466797 L 613.1270751953125 128.57225036621094 L 625.4461669921875 133.8707733154297 L 637.7653198242188 133.72686767578125 L 650.0844116210938 130.35150146484375 L 662.4035034179688 135.8201141357422 L 674.72265625 138.6983184814453 L 687.041748046875 137.95260620117188 L 699.36083984375 142.61007690429688 L 711.6799926757812 144.02301025390625 L 723.9990844726562 147.05821228027344 L 736.3181762695312 144.59864807128906" stroke-opacity="1" stroke-linejoin="bevel" stroke-miterlimit="10" stroke-width="3" stroke-dasharray="" clip-path="url(#TWOkQngxTOht)"/><path fill="none" stroke="rgb(255,127,14)" paint-order="fill" d="M 132.68182373046875 102.1973648071289 L 145.0009307861328 49.57843017578125 L 157.32003784179688 64.51111602783203 L 169.63914489746094 38.8636360168457 L 181.958251953125 48.1131591796875 L 194.27735900878906 57.36268615722656 L 206.5964813232422 63.367679595947266 L 218.91558837890625 64.30963897705078 L 231.2346954345703 67.9335708618164 L 243.55380249023438 70.5762939453125 L 255.87290954589844 73.21900939941406 L 268.1920166015625 75.86173248291016 L 280.5111389160156 75.86173248291016 L 292.8302307128906 80.37528991699219 L 305.14935302734375 81.51349639892578 L 317.4684753417969 83.34508514404297 L 329.7875671386719 83.7898941040039 L 342.106689453125 86.30178833007812 L 354.42578125 83.7898941040039 L 366.7449035644531 90.31820678710938 L 379.0639953613281 89.91263580322266 L 391.38311767578125 89.8995590209961 L 403.7022399902344 90.40978240966797 L 416.0213317871094 92.0058822631836 L 428.3404541015625 89.69023132324219 L 440.6595458984375 92.33295440673828 L 452.9786682128906 94.5308609008789 L 465.2977600097656 96.10079193115234 L 477.61688232421875 92.03205108642578 L 489.9360046386719 92.24137115478516 L 502.2550964355469 94.88409423828125 L 514.57421875 97.19974517822266 L 526.893310546875 97.50064849853516 L 539.21240234375 97.50064849853516 L 551.5315551757812 94.98875427246094 L 563.8506469726562 96.48019409179688 L 576.1697387695312 97.80155181884766 L 588.4888916015625 99.80321502685547 L 600.8079833984375 101.12458038330078 L 613.1270751953125 101.12458038330078 L 625.4461669921875 100.1695327758789 L 637.7653198242188 101.49089813232422 L 650.0844116210938 98.70426177978516 L 662.4035034179688 100.4835205078125 L 674.72265625 103.89812469482422 L 687.041748046875 103.89812469482422 L 699.36083984375 103.89812469482422 L 711.6799926757812 103.75421905517578 L 723.9990844726562 103.75421905517578 L 736.3181762695312 102.65526580810547" stroke-opacity="1" stroke-linejoin="bevel" stroke-miterlimit="10" stroke-width="3" stroke-dasharray="" clip-path="url(#lzMnJIJxJpdL)"/><path fill="none" stroke="rgb(255,187,120)" paint-order="fill" d="M 132.68182373046875 100.24149322509766 L 145.0009307861328 42.15003204345703 L 157.32003784179688 60.486854553222656 L 169.63914489746094 38.8636360168457 L 181.958251953125 48.1131591796875 L 194.27735900878906 57.36268615722656 L 206.5964813232422 63.367679595947266 L 218.91558837890625 64.30963897705078 L 231.2346954345703 67.9335708618164 L 243.55380249023438 70.5762939453125 L 255.87290954589844 73.21900939941406 L 268.1920166015625 75.86173248291016 L 280.5111389160156 75.86173248291016 L 292.8302307128906 80.37528991699219 L 305.14935302734375 81.51480102539062 L 317.4684753417969 83.34508514404297 L 329.7875671386719 83.7898941040039 L 342.106689453125 86.30178833007812 L 354.42578125 83.7898941040039 L 366.7449035644531 90.31820678710938 L 379.0639953613281 89.91263580322266 L 391.38311767578125 89.8995590209961 L 403.7022399902344 90.40978240966797 L 416.0213317871094 92.0058822631836 L 428.3404541015625 89.69023132324219 L 440.6595458984375 92.33295440673828 L 452.9786682128906 94.5308609008789 L 465.2977600097656 96.10079193115234 L 477.61688232421875 92.03205108642578 L 489.9360046386719 92.24137115478516 L 502.2550964355469 94.88409423828125 L 514.57421875 97.19974517822266 L 526.893310546875 97.50064849853516 L 539.21240234375 97.50064849853516 L 551.5315551757812 94.98875427246094 L 563.8506469726562 96.48019409179688 L 576.1697387695312 97.80155181884766 L 588.4888916015625 99.80321502685547 L 600.8079833984375 101.12458038330078 L 613.1270751953125 101.12458038330078 L 625.4461669921875 100.1695327758789 L 637.7653198242188 101.49089813232422 L 650.0844116210938 98.70426177978516 L 662.4035034179688 100.4835205078125 L 674.72265625 103.89812469482422 L 687.041748046875 103.89812469482422 L 699.36083984375 103.89812469482422 L 711.6799926757812 103.75421905517578 L 723.9990844726562 103.75421905517578 L 736.3181762695312 102.65526580810547" stroke-opacity="1" stroke-linejoin="bevel" stroke-miterlimit="10" stroke-width="3" stroke-dasharray="" clip-path="url(#DlBtvUTFWIlX)"/><path fill="none" stroke="rgb(44,160,44)" paint-order="fill" d="M 132.68182373046875 102.1973648071289 L 145.0009307861328 691.9559326171875 L 157.32003784179688 666.0468139648438 L 169.63914489746094 668.4592895507812 L 181.958251953125 681.8429565429688 L 194.27735900878906 688.8239135742188 L 206.5964813232422 690.7156982421875 L 218.91558837890625 686.3826904296875 L 231.2346954345703 684.2763671875 L 243.55380249023438 686.395751953125 L 255.87290954589844 689.33935546875 L 268.1920166015625 694.2323608398438 L 280.5111389160156 689.5748901367188 L 292.8302307128906 690.6476440429688 L 305.14935302734375 691.4195556640625 L 317.4684753417969 696.3909912109375 L 329.7875671386719 689.9542846679688 L 342.106689453125 696.5218505859375 L 354.42578125 694.7556762695312 L 366.7449035644531 693.0025634765625 L 379.0639953613281 692.793212890625 L 391.38311767578125 694.0360717773438 L 403.7022399902344 694.9649658203125 L 416.0213317871094 696.8096313476562 L 428.3404541015625 698.876708984375 L 440.6595458984375 697.6207885742188 L 452.9786682128906 695.8546142578125 L 465.2977600097656 696.090087890625 L 477.61688232421875 702.173583984375 L 489.9360046386719 701.6895141601562 L 502.2550964355469 699.98876953125 L 514.57421875 697.7921752929688 L 526.893310546875 695.8807983398438 L 539.21240234375 695.5667724609375 L 551.5315551757812 700.4990234375 L 563.8506469726562 702.7308959960938 L 576.1697387695312 703.1940307617188 L 588.4888916015625 704.960205078125 L 600.8079833984375 703.9659423828125 L 613.1270751953125 697.7254638671875 L 625.4461669921875 700.3681640625 L 637.7653198242188 698.9813842773438 L 650.0844116210938 699.478515625 L 662.4035034179688 698.5274047851562 L 674.72265625 701.3297729492188 L 687.041748046875 702.173583984375 L 699.36083984375 706.1363525390625 L 711.6799926757812 702.6445922851562 L 723.9990844726562 702.7623291015625 L 736.3181762695312 701.5848388671875" stroke-opacity="1" stroke-linejoin="bevel" stroke-miterlimit="10" stroke-width="3" stroke-dasharray="" clip-path="url(#CXicnLAGLGVf)"/><path fill="none" stroke="rgb(152,223,138)" paint-order="fill" d="M 132.68182373046875 100.22187042236328 L 145.0009307861328 678.2177124023438 L 157.32003784179688 654.2906494140625 L 169.63914489746094 660.7142944335938 L 181.958251953125 675.1968994140625 L 194.27735900878906 682.4447631835938 L 206.5964813232422 686.2518310546875 L 218.91558837890625 680.2730102539062 L 231.2346954345703 679.998291015625 L 243.55380249023438 680.9533081054688 L 255.87290954589844 683.0596313476562 L 268.1920166015625 688.9599609375 L 280.5111389160156 685.9378662109375 L 292.8302307128906 684.5498046875 L 305.14935302734375 686.913818359375 L 317.4684753417969 692.0475463867188 L 329.7875671386719 685.7154541015625 L 342.106689453125 691.785888671875 L 354.42578125 691.9297485351562 L 366.7449035644531 690.22900390625 L 379.0639953613281 690.2918090820312 L 391.38311767578125 691.9821166992188 L 403.7022399902344 690.7968139648438 L 416.0213317871094 693.0692749023438 L 428.3404541015625 694.97412109375 L 440.6595458984375 694.2794189453125 L 452.9786682128906 692.6624145507812 L 465.2977600097656 692.0056762695312 L 477.61688232421875 699.4916381835938 L 489.9360046386719 698.27490234375 L 502.2550964355469 697.3460693359375 L 514.57421875 694.7059326171875 L 526.893310546875 693.5389404296875 L 539.21240234375 693.46044921875 L 551.5315551757812 697.1105346679688 L 563.8506469726562 699.897216796875 L 576.1697387695312 697.4114379882812 L 588.4888916015625 701.1911010742188 L 600.8079833984375 701.1531372070312 L 613.1270751953125 695.23974609375 L 625.4461669921875 697.7515869140625 L 637.7653198242188 697.2413940429688 L 650.0844116210938 697.0582275390625 L 662.4035034179688 696.443359375 L 674.72265625 699.5570068359375 L 687.041748046875 699.8710327148438 L 699.36083984375 704.1883544921875 L 711.6799926757812 701.4409790039062 L 723.9990844726562 701.6110229492188 L 736.3181762695312 700.4859008789062" stroke-opacity="1" stroke-linejoin="bevel" stroke-miterlimit="10" stroke-width="3" stroke-dasharray="" clip-path="url(#mzzJoulnOmMB)"/><path fill="none" stroke="rgb(214,39,40)" paint-order="fill" d="M 132.68182373046875 102.1973648071289 L 145.0009307861328 166.66929626464844 L 157.32003784179688 225.59413146972656 L 169.63914489746094 273.6471862792969 L 181.958251953125 301.552734375 L 194.27735900878906 299.7342529296875 L 206.5964813232422 322.432861328125 L 218.91558837890625 329.53680419921875 L 231.2346954345703 338.7863464355469 L 243.55380249023438 326.4662780761719 L 255.87290954589844 341.2066345214844 L 268.1920166015625 330.0470275878906 L 280.5111389160156 328.39862060546875 L 292.8302307128906 322.7076110839844 L 305.14935302734375 338.85174560546875 L 317.4684753417969 329.1835632324219 L 329.7875671386719 335.3324890136719 L 342.106689453125 336.28753662109375 L 354.42578125 324.94476318359375 L 366.7449035644531 325.9128723144531 L 379.0639953613281 324.3822021484375 L 391.38311767578125 339.8852844238281 L 403.7022399902344 327.58746337890625 L 416.0213317871094 333.8410339355469 L 428.3404541015625 334.2989501953125 L 440.6595458984375 337.8443603515625 L 452.9786682128906 325.55963134765625 L 465.2977600097656 329.6938171386719 L 477.61688232421875 338.655517578125 L 489.9360046386719 339.0872497558594 L 502.2550964355469 337.0986633300781 L 514.57421875 326.3184509277344 L 526.893310546875 331.2768249511719 L 539.21240234375 334.1026916503906 L 551.5315551757812 335.69879150390625 L 563.8506469726562 329.7461242675781 L 576.1697387695312 337.9621276855469 L 588.4888916015625 329.72259521484375 L 600.8079833984375 337.4924621582031 L 613.1270751953125 346.7799072265625 L 625.4461669921875 354.10626220703125 L 637.7653198242188 344.8279724121094 L 650.0844116210938 350.42999267578125 L 662.4035034179688 338.0667724609375 L 674.72265625 344.5872497558594 L 687.041748046875 365.11151123046875 L 699.36083984375 346.0211181640625 L 711.6799926757812 391.1959533691406 L 723.9990844726562 394.9507141113281 L 736.3181762695312 411.775146484375" stroke-opacity="1" stroke-linejoin="bevel" stroke-miterlimit="10" stroke-width="3" stroke-dasharray="" clip-path="url(#rJFefTdMzJgy)"/><path fill="none" stroke="rgb(255,152,150)" paint-order="fill" d="M 132.68182373046875 100.22187042236328 L 145.0009307861328 163.93499755859375 L 157.32003784179688 225.5548858642578 L 169.63914489746094 276.4848327636719 L 181.958251953125 302.05120849609375 L 194.27735900878906 299.7342529296875 L 206.5964813232422 322.432861328125 L 218.91558837890625 329.53680419921875 L 231.2346954345703 338.7863464355469 L 243.55380249023438 327.22900390625 L 255.87290954589844 340.3431701660156 L 268.1920166015625 330.0470275878906 L 280.5111389160156 328.39862060546875 L 292.8302307128906 322.7076110839844 L 305.14935302734375 338.85174560546875 L 317.4684753417969 329.1835632324219 L 329.7875671386719 335.2487487792969 L 342.106689453125 336.28753662109375 L 354.42578125 324.94476318359375 L 366.7449035644531 325.9128723144531 L 379.0639953613281 325.0023193359375 L 391.38311767578125 339.8852844238281 L 403.7022399902344 327.58746337890625 L 416.0213317871094 333.8410339355469 L 428.3404541015625 334.2989501953125 L 440.6595458984375 337.8443603515625 L 452.9786682128906 325.55963134765625 L 465.2977600097656 329.6938171386719 L 477.61688232421875 338.655517578125 L 489.9360046386719 337.81689453125 L 502.2550964355469 335.6046142578125 L 514.57421875 326.4466552734375 L 526.893310546875 328.2808532714844 L 539.21240234375 332.12982177734375 L 551.5315551757812 333.5793762207031 L 563.8506469726562 329.7461242675781 L 576.1697387695312 336.7794494628906 L 588.4888916015625 329.7474365234375 L 600.8079833984375 337.4924621582031 L 613.1270751953125 346.0132751464844 L 625.4461669921875 352.992919921875 L 637.7653198242188 344.17120361328125 L 650.0844116210938 347.76373291015625 L 662.4035034179688 337.87054443359375 L 674.72265625 344.3177185058594 L 687.041748046875 365.4895935058594 L 699.36083984375 348.12481689453125 L 711.6799926757812 389.50433349609375 L 723.9990844726562 395.1103210449219 L 736.3181762695312 411.775146484375" stroke-opacity="1" stroke-linejoin="bevel" stroke-miterlimit="10" stroke-width="3" stroke-dasharray="" clip-path="url(#IMDiqXBXKtED)"/><path fill="none" stroke="rgb(148,103,189)" paint-order="fill" d="M 132.68182373046875 102.16596984863281 L 145.0009307861328 87.9057388305664 L 157.32003784179688 65.8455581665039 L 169.63914489746094 84.98566436767578 L 181.958251953125 99.78490447998047 L 194.27735900878906 111.6418228149414 L 206.5964813232422 125.1131591796875 L 218.91558837890625 131.12339782714844 L 231.2346954345703 142.67286682128906 L 243.55380249023438 145.9854278564453 L 255.87290954589844 153.2594451904297 L 268.1920166015625 159.5574951171875 L 280.5111389160156 165.1333770751953 L 292.8302307128906 171.562255859375 L 305.14935302734375 175.7722930908203 L 317.4684753417969 183.1038818359375 L 329.7875671386719 185.97032165527344 L 342.106689453125 192.15455627441406 L 354.42578125 194.96734619140625 L 366.7449035644531 200.84152221679688 L 379.0639953613281 206.63719177246094 L 391.38311767578125 207.5189666748047 L 403.7022399902344 212.48257446289062 L 416.0213317871094 215.0467987060547 L 428.3404541015625 218.9742431640625 L 440.6595458984375 220.75482177734375 L 452.9786682128906 225.67263793945312 L 465.2977600097656 229.63148498535156 L 477.61688232421875 229.42477416992188 L 489.9360046386719 234.07962036132812 L 502.2550964355469 235.20997619628906 L 514.57421875 242.71163940429688 L 526.893310546875 244.5929412841797 L 539.21240234375 242.76658630371094 L 551.5315551757812 248.46022033691406 L 563.8506469726562 250.761474609375 L 576.1697387695312 250.84390258789062 L 588.4888916015625 254.9911346435547 L 600.8079833984375 257.2204284667969 L 613.1270751953125 259.16717529296875 L 625.4461669921875 261.4043273925781 L 637.7653198242188 264.0287170410156 L 650.0844116210938 266.3155822753906 L 662.4035034179688 270.0154113769531 L 674.72265625 274.0396728515625 L 687.041748046875 273.41168212890625 L 699.36083984375 280.395263671875 L 711.6799926757812 284.071533203125 L 723.9990844726562 283.00921630859375 L 736.3181762695312 285.45831298828125" stroke-opacity="1" stroke-linejoin="bevel" stroke-miterlimit="10" stroke-width="3" stroke-dasharray="" clip-path="url(#rWtlqXebwCpG)"/><path fill="none" stroke="rgb(197,176,213)" paint-order="fill" d="M 132.68182373046875 100.24149322509766 L 145.0009307861328 87.9057388305664 L 157.32003784179688 65.8455581665039 L 169.63914489746094 82.52086639404297 L 181.958251953125 97.72306060791016 L 194.27735900878906 110.37410736083984 L 206.5964813232422 123.2606430053711 L 218.91558837890625 130.3384246826172 L 231.2346954345703 141.58961486816406 L 243.55380249023438 144.79489135742188 L 255.87290954589844 152.6968994140625 L 268.1920166015625 158.49256896972656 L 280.5111389160156 164.81153869628906 L 292.8302307128906 171.10435485839844 L 305.14935302734375 175.2123565673828 L 317.4684753417969 183.2059326171875 L 329.7875671386719 185.9402313232422 L 342.106689453125 192.5208740234375 L 354.42578125 195.05892944335938 L 366.7449035644531 201.35174560546875 L 379.0639953613281 206.63719177246094 L 391.38311767578125 207.9585418701172 L 403.7022399902344 213.24398803710938 L 416.0213317871094 216.1483612060547 L 428.3404541015625 218.9742431640625 L 440.6595458984375 221.17214965820312 L 452.9786682128906 226.43142700195312 L 465.2977600097656 230.6440887451172 L 477.61688232421875 229.4666290283203 L 489.9360046386719 234.50350952148438 L 502.2550964355469 235.3538818359375 L 514.57421875 243.15122985839844 L 526.893310546875 245.5977020263672 L 539.21240234375 243.28204345703125 L 551.5315551757812 249.31321716308594 L 563.8506469726562 251.0270538330078 L 576.1697387695312 251.0270538330078 L 588.4888916015625 254.9911346435547 L 600.8079833984375 258.00018310546875 L 613.1270751953125 259.2691955566406 L 625.4461669921875 261.91192626953125 L 637.7653198242188 264.39764404296875 L 650.0844116210938 266.8310546875 L 662.4035034179688 270.7951354980469 L 674.72265625 274.6676330566406 L 687.041748046875 273.4640197753906 L 699.36083984375 281.2744445800781 L 711.6799926757812 284.29656982421875 L 723.9990844726562 283.0667724609375 L 736.3181762695312 285.7095031738281" stroke-opacity="1" stroke-linejoin="bevel" stroke-miterlimit="10" stroke-width="3" stroke-dasharray="" clip-path="url(#vqxEHVRyNTTz)"/><path fill="none" stroke="rgb(140,86,75)" paint-order="fill" d="M 132.68182373046875 102.1973648071289 L 145.0009307861328 67.4364242553711 L 157.32003784179688 81.84056091308594 L 169.63914489746094 91.56106567382812 L 181.958251953125 96.951171875 L 194.27735900878906 111.32914733886719 L 206.5964813232422 119.1134033203125 L 218.91558837890625 124.1633529663086 L 231.2346954345703 132.49708557128906 L 243.55380249023438 136.1210174560547 L 255.87290954589844 143.7090301513672 L 268.1920166015625 148.40574645996094 L 280.5111389160156 156.6871337890625 L 292.8302307128906 154.89480590820312 L 305.14935302734375 162.15574645996094 L 317.4684753417969 159.9578399658203 L 329.7875671386719 162.78372192382812 L 342.106689453125 164.14431762695312 L 354.42578125 169.32510375976562 L 366.7449035644531 166.28990173339844 L 379.0639953613281 174.0872344970703 L 391.38311767578125 172.4649658203125 L 403.7022399902344 175.87957763671875 L 416.0213317871094 183.29751586914062 L 428.3404541015625 178.2213897705078 L 440.6595458984375 183.29751586914062 L 452.9786682128906 174.9376220703125 L 465.2977600097656 183.16668701171875 L 477.61688232421875 180.877197265625 L 489.9360046386719 179.60816955566406 L 502.2550964355469 184.9066925048828 L 514.57421875 178.9671173095703 L 526.893310546875 178.3260498046875 L 539.21240234375 178.70545959472656 L 551.5315551757812 188.80535888671875 L 563.8506469726562 186.82986450195312 L 576.1697387695312 188.85769653320312 L 588.4888916015625 187.6671600341797 L 600.8079833984375 183.15359497070312 L 613.1270751953125 187.22235107421875 L 625.4461669921875 183.3105926513672 L 637.7653198242188 195.05892944335938 L 650.0844116210938 189.32867431640625 L 662.4035034179688 189.4725799560547 L 674.72265625 194.7449493408203 L 687.041748046875 191.8144073486328 L 699.36083984375 191.95831298828125 L 711.6799926757812 191.98448181152344 L 723.9990844726562 187.9157257080078 L 736.3181762695312 182.56488037109375" stroke-opacity="1" stroke-linejoin="bevel" stroke-miterlimit="10" stroke-width="3" stroke-dasharray="" clip-path="url(#fvUdKKMWJURe)"/><path fill="none" stroke="rgb(196,156,148)" paint-order="fill" d="M 132.68182373046875 100.22187042236328 L 145.0009307861328 67.4364242553711 L 157.32003784179688 81.84056091308594 L 169.63914489746094 91.56106567382812 L 181.958251953125 96.951171875 L 194.27735900878906 111.32914733886719 L 206.5964813232422 119.1134033203125 L 218.91558837890625 124.1633529663086 L 231.2346954345703 132.49708557128906 L 243.55380249023438 136.1210174560547 L 255.87290954589844 143.7090301513672 L 268.1920166015625 148.40574645996094 L 280.5111389160156 156.6871337890625 L 292.8302307128906 154.89480590820312 L 305.14935302734375 162.15574645996094 L 317.4684753417969 159.9578399658203 L 329.7875671386719 162.78372192382812 L 342.106689453125 164.14431762695312 L 354.42578125 169.32510375976562 L 366.7449035644531 166.28990173339844 L 379.0639953613281 174.0872344970703 L 391.38311767578125 172.4649658203125 L 403.7022399902344 175.87957763671875 L 416.0213317871094 183.29751586914062 L 428.3404541015625 178.2213897705078 L 440.6595458984375 183.29751586914062 L 452.9786682128906 174.9376220703125 L 465.2977600097656 183.16668701171875 L 477.61688232421875 180.877197265625 L 489.9360046386719 179.60816955566406 L 502.2550964355469 184.9066925048828 L 514.57421875 178.9671173095703 L 526.893310546875 178.3260498046875 L 539.21240234375 178.70545959472656 L 551.5315551757812 188.80535888671875 L 563.8506469726562 185.90359497070312 L 576.1697387695312 188.85769653320312 L 588.4888916015625 187.6671600341797 L 600.8079833984375 183.15359497070312 L 613.1270751953125 187.13600158691406 L 625.4461669921875 183.3105926513672 L 637.7653198242188 195.05892944335938 L 650.0844116210938 189.32867431640625 L 662.4035034179688 189.4725799560547 L 674.72265625 194.7449493408203 L 687.041748046875 191.8144073486328 L 699.36083984375 191.95831298828125 L 711.6799926757812 190.35435485839844 L 723.9990844726562 187.9157257080078 L 736.3181762695312 182.56488037109375" stroke-opacity="1" stroke-linejoin="bevel" stroke-miterlimit="10" stroke-width="3" stroke-dasharray="" clip-path="url(#calxesuInJvx)"/><path fill="none" stroke="rgb(0,0,0)" paint-order="fill" d="M 102.5 739.5 L 766.5 739.5" stroke-opacity="1" stroke-linejoin="bevel" stroke-miterlimit="10" stroke-dasharray=""/><path fill="none" stroke="rgb(0,0,0)" paint-order="fill" d="M 132.5 745.5 L 132.5 737.5 M 255.5 745.5 L 255.5 737.5 M 379.5 745.5 L 379.5 737.5 M 502.5 745.5 L 502.5 737.5 M 625.5 745.5 L 625.5 737.5 M 748.5 745.5 L 748.5 737.5" stroke-opacity="1" stroke-linejoin="bevel" stroke-miterlimit="10" stroke-dasharray=""/><path fill="none" stroke="rgb(0,0,0)" paint-order="fill" d="M 108.5 743.5 L 108.5 739.5 M 132.5 743.5 L 132.5 739.5 M 157.5 743.5 L 157.5 739.5 M 181.5 743.5 L 181.5 739.5 M 206.5 743.5 L 206.5 739.5 M 231.5 743.5 L 231.5 739.5 M 255.5 743.5 L 255.5 739.5 M 280.5 743.5 L 280.5 739.5 M 305.5 743.5 L 305.5 739.5 M 329.5 743.5 L 329.5 739.5 M 354.5 743.5 L 354.5 739.5 M 379.5 743.5 L 379.5 739.5 M 403.5 743.5 L 403.5 739.5 M 428.5 743.5 L 428.5 739.5 M 452.5 743.5 L 452.5 739.5 M 477.5 743.5 L 477.5 739.5 M 502.5 743.5 L 502.5 739.5 M 526.5 743.5 L 526.5 739.5 M 551.5 743.5 L 551.5 739.5 M 576.5 743.5 L 576.5 739.5 M 600.5 743.5 L 600.5 739.5 M 625.5 743.5 L 625.5 739.5 M 650.5 743.5 L 650.5 739.5 M 674.5 743.5 L 674.5 739.5 M 699.5 743.5 L 699.5 739.5 M 723.5 743.5 L 723.5 739.5 M 748.5 743.5 L 748.5 739.5" stroke-opacity="1" stroke-linejoin="bevel" stroke-miterlimit="10" stroke-dasharray=""/><text fill="rgb(68,68,68)" stroke="none" font-family="helvetica" font-size="20px" font-style="normal" font-weight="normal" text-decoration="normal" x="126.62349033355713" y="765" text-anchor="start" dominant-baseline="alphabetic" transform="matrix(1, 0, 0, 1, 0.5, 0.5)" fill-opacity="1">0</text><text fill="rgb(68,68,68)" stroke="none" font-family="helvetica" font-size="20px" font-style="normal" font-weight="normal" text-decoration="normal" x="241.47290992736816" y="765" text-anchor="start" dominant-baseline="alphabetic" transform="matrix(1, 0, 0, 1, 0.5, 0.5)" fill-opacity="1">0.2</text><text fill="rgb(68,68,68)" stroke="none" font-family="helvetica" font-size="20px" font-style="normal" font-weight="normal" text-decoration="normal" x="364.66399574279785" y="765" text-anchor="start" dominant-baseline="alphabetic" transform="matrix(1, 0, 0, 1, 0.5, 0.5)" fill-opacity="1">0.4</text><text fill="rgb(68,68,68)" stroke="none" font-family="helvetica" font-size="20px" font-style="normal" font-weight="normal" text-decoration="normal" x="487.8550968170166" y="765" text-anchor="start" dominant-baseline="alphabetic" transform="matrix(1, 0, 0, 1, 0.5, 0.5)" fill-opacity="1">0.6</text><text fill="rgb(68,68,68)" stroke="none" font-family="helvetica" font-size="20px" font-style="normal" font-weight="normal" text-decoration="normal" x="611.0461673736572" y="765" text-anchor="start" dominant-baseline="alphabetic" transform="matrix(1, 0, 0, 1, 0.5, 0.5)" fill-opacity="1">0.8</text><text fill="rgb(68,68,68)" stroke="none" font-family="helvetica" font-size="20px" font-style="normal" font-weight="normal" text-decoration="normal" x="742.5789346694946" y="765" text-anchor="start" dominant-baseline="alphabetic" transform="matrix(1, 0, 0, 1, 0.5, 0.5)" fill-opacity="1">1</text><text fill="rgb(68,68,68)" stroke="none" font-family="helvetica" font-size="20px" font-style="italic" font-weight="normal" text-decoration="normal" x="338.79166412353516" y="793" text-anchor="start" dominant-baseline="alphabetic" transform="matrix(1, 0, 0, 1, 0.5, 0.5)" fill-opacity="1">Energy Share Budget</text><path fill="none" stroke="rgb(0,0,0)" paint-order="fill" d="M 102.5 739.5 L 102.5 5.5" stroke-opacity="1" stroke-linejoin="bevel" stroke-miterlimit="10" stroke-dasharray=""/><path fill="none" stroke="rgb(0,0,0)" paint-order="fill" d="M 96.5 686.5 L 104.5 686.5 M 96.5 555.5 L 104.5 555.5 M 96.5 424.5 L 104.5 424.5 M 96.5 293.5 L 104.5 293.5 M 96.5 162.5 L 104.5 162.5 M 96.5 32.5 L 104.5 32.5" stroke-opacity="1" stroke-linejoin="bevel" stroke-miterlimit="10" stroke-dasharray=""/><path fill="none" stroke="rgb(0,0,0)" paint-order="fill" d="M 98.5 712.5 L 102.5 712.5 M 98.5 738.5 L 102.5 738.5 M 98.5 686.5 L 102.5 686.5 M 98.5 660.5 L 102.5 660.5 M 98.5 633.5 L 102.5 633.5 M 98.5 607.5 L 102.5 607.5 M 98.5 581.5 L 102.5 581.5 M 98.5 555.5 L 102.5 555.5 M 98.5 529.5 L 102.5 529.5 M 98.5 503.5 L 102.5 503.5 M 98.5 476.5 L 102.5 476.5 M 98.5 450.5 L 102.5 450.5 M 98.5 424.5 L 102.5 424.5 M 98.5 398.5 L 102.5 398.5 M 98.5 372.5 L 102.5 372.5 M 98.5 346.5 L 102.5 346.5 M 98.5 319.5 L 102.5 319.5 M 98.5 293.5 L 102.5 293.5 M 98.5 267.5 L 102.5 267.5 M 98.5 241.5 L 102.5 241.5 M 98.5 215.5 L 102.5 215.5 M 98.5 189.5 L 102.5 189.5 M 98.5 162.5 L 102.5 162.5 M 98.5 136.5 L 102.5 136.5 M 98.5 110.5 L 102.5 110.5 M 98.5 84.5 L 102.5 84.5 M 98.5 58.5 L 102.5 58.5 M 98.5 32.5 L 102.5 32.5 M 98.5 5.5 L 102.5 5.5" stroke-opacity="1" stroke-linejoin="bevel" stroke-miterlimit="10" stroke-dasharray=""/><text fill="rgb(68,68,68)" stroke="none" font-family="helvetica" font-size="20px" font-style="normal" font-weight="normal" text-decoration="normal" x="35.41666793823242" y="693.30419921875" text-anchor="start" dominant-baseline="alphabetic" transform="matrix(1, 0, 0, 1, 0.5, 0.5)" fill-opacity="1">10000</text><text fill="rgb(68,68,68)" stroke="none" font-family="helvetica" font-size="20px" font-style="normal" font-weight="normal" text-decoration="normal" x="35.41666793823242" y="562.4763793945312" text-anchor="start" dominant-baseline="alphabetic" transform="matrix(1, 0, 0, 1, 0.5, 0.5)" fill-opacity="1">15000</text><text fill="rgb(68,68,68)" stroke="none" font-family="helvetica" font-size="20px" font-style="normal" font-weight="normal" text-decoration="normal" x="35.41666793823242" y="431.64862060546875" text-anchor="start" dominant-baseline="alphabetic" transform="matrix(1, 0, 0, 1, 0.5, 0.5)" fill-opacity="1">20000</text><text fill="rgb(68,68,68)" stroke="none" font-family="helvetica" font-size="20px" font-style="normal" font-weight="normal" text-decoration="normal" x="35.41666793823242" y="300.8208312988281" text-anchor="start" dominant-baseline="alphabetic" transform="matrix(1, 0, 0, 1, 0.5, 0.5)" fill-opacity="1">25000</text><text fill="rgb(68,68,68)" stroke="none" font-family="helvetica" font-size="20px" font-style="normal" font-weight="normal" text-decoration="normal" x="35.41666793823242" y="169.9930419921875" text-anchor="start" dominant-baseline="alphabetic" transform="matrix(1, 0, 0, 1, 0.5, 0.5)" fill-opacity="1">30000</text><text fill="rgb(68,68,68)" stroke="none" font-family="helvetica" font-size="20px" font-style="normal" font-weight="normal" text-decoration="normal" x="35.41666793823242" y="39.16525459289551" text-anchor="start" dominant-baseline="alphabetic" transform="matrix(1, 0, 0, 1, 0.5, 0.5)" fill-opacity="1">35000</text><text fill="rgb(68,68,68)" stroke="none" font-family="helvetica" font-size="20px" font-style="italic" font-weight="normal" text-decoration="normal" x="-113.84999465942383" y="368" text-anchor="start" dominant-baseline="alphabetic" transform="matrix(6.123233995736766e-17, -1, 1, 6.123233995736766e-17, -344.0833320617676, 399.9166679382324)" fill-opacity="1">Total Number of Serviced Users</text><path fill="rgb(255,255,255)" stroke="rgb(229,229,229)" paint-order="fill" d="M 776.0166625976562 15.5 L 1190.5 15.5 L 1190.5 320.5 L 776.0166625976562 320.5 L 776.0166625976562 15.5" fill-opacity="0.9490196078431372" stroke-opacity="0.5019607843137255" stroke-linejoin="bevel" stroke-miterlimit="10" stroke-dasharray=""/><text fill="rgb(68,68,68)" stroke="none" font-family="helvetica" font-size="18px" font-style="normal" font-weight="normal" text-decoration="normal" x="810.5166625976562" y="35.5" text-anchor="start" dominant-baseline="central" transform="matrix(1, 0, 0, 1, 0.5, 0.5)" fill-opacity="1">No Policy - Epsilon Greedy</text><path fill="none" stroke="rgb(31,119,180)" paint-order="fill" d="M 786.0166625976562 35.5 L 806.0166625976562 35.5" stroke-opacity="1" stroke-linejoin="bevel" stroke-miterlimit="10" stroke-width="3" stroke-dasharray=""/><text fill="rgb(68,68,68)" stroke="none" font-family="helvetica" font-size="18px" font-style="normal" font-weight="normal" text-decoration="normal" x="810.5166625976562" y="59.5" text-anchor="start" dominant-baseline="central" transform="matrix(1, 0, 0, 1, 0.5, 0.5)" fill-opacity="1">Cheapest Users - Epsilon Greedy</text><path fill="none" stroke="rgb(174,199,232)" paint-order="fill" d="M 786.0166625976562 59.5 L 806.0166625976562 59.5" stroke-opacity="1" stroke-linejoin="bevel" stroke-miterlimit="10" stroke-width="3" stroke-dasharray=""/><text fill="rgb(68,68,68)" stroke="none" font-family="helvetica" font-size="18px" font-style="normal" font-weight="normal" text-decoration="normal" x="810.5166625976562" y="83.5" text-anchor="start" dominant-baseline="central" transform="matrix(1, 0, 0, 1, 0.5, 0.5)" fill-opacity="1">No Policy - UCB1</text><path fill="none" stroke="rgb(255,127,14)" paint-order="fill" d="M 786.0166625976562 83.5 L 806.0166625976562 83.5" stroke-opacity="1" stroke-linejoin="bevel" stroke-miterlimit="10" stroke-width="3" stroke-dasharray=""/><text fill="rgb(68,68,68)" stroke="none" font-family="helvetica" font-size="18px" font-style="normal" font-weight="normal" text-decoration="normal" x="810.5166625976562" y="107.5" text-anchor="start" dominant-baseline="central" transform="matrix(1, 0, 0, 1, 0.5, 0.5)" fill-opacity="1">Cheapest Users - UCB1</text><path fill="none" stroke="rgb(255,187,120)" paint-order="fill" d="M 786.0166625976562 107.5 L 806.0166625976562 107.5" stroke-opacity="1" stroke-linejoin="bevel" stroke-miterlimit="10" stroke-width="3" stroke-dasharray=""/><text fill="rgb(68,68,68)" stroke="none" font-family="helvetica" font-size="18px" font-style="normal" font-weight="normal" text-decoration="normal" x="810.5166625976562" y="131.5" text-anchor="start" dominant-baseline="central" transform="matrix(1, 0, 0, 1, 0.5, 0.5)" fill-opacity="1">No Transmission Policy - Shared Evenly</text><path fill="none" stroke="rgb(44,160,44)" paint-order="fill" d="M 786.0166625976562 131.5 L 806.0166625976562 131.5" stroke-opacity="1" stroke-linejoin="bevel" stroke-miterlimit="10" stroke-width="3" stroke-dasharray=""/><text fill="rgb(68,68,68)" stroke="none" font-family="helvetica" font-size="18px" font-style="normal" font-weight="normal" text-decoration="normal" x="810.5166625976562" y="155.5" text-anchor="start" dominant-baseline="central" transform="matrix(1, 0, 0, 1, 0.5, 0.5)" fill-opacity="1">Cheapest Users - Shared Evenly</text><path fill="none" stroke="rgb(152,223,138)" paint-order="fill" d="M 786.0166625976562 155.5 L 806.0166625976562 155.5" stroke-opacity="1" stroke-linejoin="bevel" stroke-miterlimit="10" stroke-width="3" stroke-dasharray=""/><text fill="rgb(68,68,68)" stroke="none" font-family="helvetica" font-size="18px" font-style="normal" font-weight="normal" text-decoration="normal" x="810.5166625976562" y="179.5" text-anchor="start" dominant-baseline="central" transform="matrix(1, 0, 0, 1, 0.5, 0.5)" fill-opacity="1">No Transmission Policy - AP Energy Arrival</text><path fill="none" stroke="rgb(214,39,40)" paint-order="fill" d="M 786.0166625976562 179.5 L 806.0166625976562 179.5" stroke-opacity="1" stroke-linejoin="bevel" stroke-miterlimit="10" stroke-width="3" stroke-dasharray=""/><text fill="rgb(68,68,68)" stroke="none" font-family="helvetica" font-size="18px" font-style="normal" font-weight="normal" text-decoration="normal" x="810.5166625976562" y="203.5" text-anchor="start" dominant-baseline="central" transform="matrix(1, 0, 0, 1, 0.5, 0.5)" fill-opacity="1">Cheapest Users - AP Energy Arrival</text><path fill="none" stroke="rgb(255,152,150)" paint-order="fill" d="M 786.0166625976562 203.5 L 806.0166625976562 203.5" stroke-opacity="1" stroke-linejoin="bevel" stroke-miterlimit="10" stroke-width="3" stroke-dasharray=""/><text fill="rgb(68,68,68)" stroke="none" font-family="helvetica" font-size="18px" font-style="normal" font-weight="normal" text-decoration="normal" x="810.5166625976562" y="227.5" text-anchor="start" dominant-baseline="central" transform="matrix(1, 0, 0, 1, 0.5, 0.5)" fill-opacity="1">No Transmission Policy - AP Energy Use</text><path fill="none" stroke="rgb(148,103,189)" paint-order="fill" d="M 786.0166625976562 227.5 L 806.0166625976562 227.5" stroke-opacity="1" stroke-linejoin="bevel" stroke-miterlimit="10" stroke-width="3" stroke-dasharray=""/><text fill="rgb(68,68,68)" stroke="none" font-family="helvetica" font-size="18px" font-style="normal" font-weight="normal" text-decoration="normal" x="810.5166625976562" y="251.5" text-anchor="start" dominant-baseline="central" transform="matrix(1, 0, 0, 1, 0.5, 0.5)" fill-opacity="1">Cheapest Users - AP Energy Use</text><path fill="none" stroke="rgb(197,176,213)" paint-order="fill" d="M 786.0166625976562 251.5 L 806.0166625976562 251.5" stroke-opacity="1" stroke-linejoin="bevel" stroke-miterlimit="10" stroke-width="3" stroke-dasharray=""/><text fill="rgb(68,68,68)" stroke="none" font-family="helvetica" font-size="18px" font-style="normal" font-weight="normal" text-decoration="normal" x="810.5166625976562" y="275.5" text-anchor="start" dominant-baseline="central" transform="matrix(1, 0, 0, 1, 0.5, 0.5)" fill-opacity="1">No Transmission Policy - AP Energy Efficiency</text><path fill="none" stroke="rgb(140,86,75)" paint-order="fill" d="M 786.0166625976562 275.5 L 806.0166625976562 275.5" stroke-opacity="1" stroke-linejoin="bevel" stroke-miterlimit="10" stroke-width="3" stroke-dasharray=""/><text fill="rgb(68,68,68)" stroke="none" font-family="helvetica" font-size="18px" font-style="normal" font-weight="normal" text-decoration="normal" x="810.5166625976562" y="299.5" text-anchor="start" dominant-baseline="central" transform="matrix(1, 0, 0, 1, 0.5, 0.5)" fill-opacity="1">Cheapest Users - AP Energy Efficiency</text><path fill="none" stroke="rgb(196,156,148)" paint-order="fill" d="M 786.0166625976562 299.5 L 806.0166625976562 299.5" stroke-opacity="1" stroke-linejoin="bevel" stroke-miterlimit="10" stroke-width="3" stroke-dasharray=""/><path fill="rgb(255,255,255)" stroke="rgb(229,229,229)" paint-order="fill" d="M 776.0166625976562 15.5 L 1190.5 15.5 L 1190.5 320.5 L 776.0166625976562 320.5 L 776.0166625976562 15.5" fill-opacity="0.9490196078431372" stroke-opacity="0.5019607843137255" stroke-linejoin="bevel" stroke-miterlimit="10" stroke-dasharray=""/><text fill="rgb(68,68,68)" stroke="none" font-family="helvetica" font-size="18px" font-style="normal" font-weight="normal" text-decoration="normal" x="810.5166625976562" y="35.5" text-anchor="start" dominant-baseline="central" transform="matrix(1, 0, 0, 1, 0.5, 0.5)" fill-opacity="1">No Policy - Epsilon Greedy</text><path fill="none" stroke="rgb(31,119,180)" paint-order="fill" d="M 786.0166625976562 35.5 L 806.0166625976562 35.5" stroke-opacity="1" stroke-linejoin="bevel" stroke-miterlimit="10" stroke-width="3" stroke-dasharray=""/><text fill="rgb(68,68,68)" stroke="none" font-family="helvetica" font-size="18px" font-style="normal" font-weight="normal" text-decoration="normal" x="810.5166625976562" y="59.5" text-anchor="start" dominant-baseline="central" transform="matrix(1, 0, 0, 1, 0.5, 0.5)" fill-opacity="1">Cheapest Users - Epsilon Greedy</text><path fill="none" stroke="rgb(174,199,232)" paint-order="fill" d="M 786.0166625976562 59.5 L 806.0166625976562 59.5" stroke-opacity="1" stroke-linejoin="bevel" stroke-miterlimit="10" stroke-width="3" stroke-dasharray=""/><text fill="rgb(68,68,68)" stroke="none" font-family="helvetica" font-size="18px" font-style="normal" font-weight="normal" text-decoration="normal" x="810.5166625976562" y="83.5" text-anchor="start" dominant-baseline="central" transform="matrix(1, 0, 0, 1, 0.5, 0.5)" fill-opacity="1">No Policy - UCB1</text><path fill="none" stroke="rgb(255,127,14)" paint-order="fill" d="M 786.0166625976562 83.5 L 806.0166625976562 83.5" stroke-opacity="1" stroke-linejoin="bevel" stroke-miterlimit="10" stroke-width="3" stroke-dasharray=""/><text fill="rgb(68,68,68)" stroke="none" font-family="helvetica" font-size="18px" font-style="normal" font-weight="normal" text-decoration="normal" x="810.5166625976562" y="107.5" text-anchor="start" dominant-baseline="central" transform="matrix(1, 0, 0, 1, 0.5, 0.5)" fill-opacity="1">Cheapest Users - UCB1</text><path fill="none" stroke="rgb(255,187,120)" paint-order="fill" d="M 786.0166625976562 107.5 L 806.0166625976562 107.5" stroke-opacity="1" stroke-linejoin="bevel" stroke-miterlimit="10" stroke-width="3" stroke-dasharray=""/><text fill="rgb(68,68,68)" stroke="none" font-family="helvetica" font-size="18px" font-style="normal" font-weight="normal" text-decoration="normal" x="810.5166625976562" y="131.5" text-anchor="start" dominant-baseline="central" transform="matrix(1, 0, 0, 1, 0.5, 0.5)" fill-opacity="1">No Transmission Policy - Shared Evenly</text><path fill="none" stroke="rgb(44,160,44)" paint-order="fill" d="M 786.0166625976562 131.5 L 806.0166625976562 131.5" stroke-opacity="1" stroke-linejoin="bevel" stroke-miterlimit="10" stroke-width="3" stroke-dasharray=""/><text fill="rgb(68,68,68)" stroke="none" font-family="helvetica" font-size="18px" font-style="normal" font-weight="normal" text-decoration="normal" x="810.5166625976562" y="155.5" text-anchor="start" dominant-baseline="central" transform="matrix(1, 0, 0, 1, 0.5, 0.5)" fill-opacity="1">Cheapest Users - Shared Evenly</text><path fill="none" stroke="rgb(152,223,138)" paint-order="fill" d="M 786.0166625976562 155.5 L 806.0166625976562 155.5" stroke-opacity="1" stroke-linejoin="bevel" stroke-miterlimit="10" stroke-width="3" stroke-dasharray=""/><text fill="rgb(68,68,68)" stroke="none" font-family="helvetica" font-size="18px" font-style="normal" font-weight="normal" text-decoration="normal" x="810.5166625976562" y="179.5" text-anchor="start" dominant-baseline="central" transform="matrix(1, 0, 0, 1, 0.5, 0.5)" fill-opacity="1">No Transmission Policy - AP Energy Arrival</text><path fill="none" stroke="rgb(214,39,40)" paint-order="fill" d="M 786.0166625976562 179.5 L 806.0166625976562 179.5" stroke-opacity="1" stroke-linejoin="bevel" stroke-miterlimit="10" stroke-width="3" stroke-dasharray=""/><text fill="rgb(68,68,68)" stroke="none" font-family="helvetica" font-size="18px" font-style="normal" font-weight="normal" text-decoration="normal" x="810.5166625976562" y="203.5" text-anchor="start" dominant-baseline="central" transform="matrix(1, 0, 0, 1, 0.5, 0.5)" fill-opacity="1">Cheapest Users - AP Energy Arrival</text><path fill="none" stroke="rgb(255,152,150)" paint-order="fill" d="M 786.0166625976562 203.5 L 806.0166625976562 203.5" stroke-opacity="1" stroke-linejoin="bevel" stroke-miterlimit="10" stroke-width="3" stroke-dasharray=""/><text fill="rgb(68,68,68)" stroke="none" font-family="helvetica" font-size="18px" font-style="normal" font-weight="normal" text-decoration="normal" x="810.5166625976562" y="227.5" text-anchor="start" dominant-baseline="central" transform="matrix(1, 0, 0, 1, 0.5, 0.5)" fill-opacity="1">No Transmission Policy - AP Energy Use</text><path fill="none" stroke="rgb(148,103,189)" paint-order="fill" d="M 786.0166625976562 227.5 L 806.0166625976562 227.5" stroke-opacity="1" stroke-linejoin="bevel" stroke-miterlimit="10" stroke-width="3" stroke-dasharray=""/><text fill="rgb(68,68,68)" stroke="none" font-family="helvetica" font-size="18px" font-style="normal" font-weight="normal" text-decoration="normal" x="810.5166625976562" y="251.5" text-anchor="start" dominant-baseline="central" transform="matrix(1, 0, 0, 1, 0.5, 0.5)" fill-opacity="1">Cheapest Users - AP Energy Use</text><path fill="none" stroke="rgb(197,176,213)" paint-order="fill" d="M 786.0166625976562 251.5 L 806.0166625976562 251.5" stroke-opacity="1" stroke-linejoin="bevel" stroke-miterlimit="10" stroke-width="3" stroke-dasharray=""/><text fill="rgb(68,68,68)" stroke="none" font-family="helvetica" font-size="18px" font-style="normal" font-weight="normal" text-decoration="normal" x="810.5166625976562" y="275.5" text-anchor="start" dominant-baseline="central" transform="matrix(1, 0, 0, 1, 0.5, 0.5)" fill-opacity="1">No Transmission Policy - AP Energy Efficiency</text><path fill="none" stroke="rgb(140,86,75)" paint-order="fill" d="M 786.0166625976562 275.5 L 806.0166625976562 275.5" stroke-opacity="1" stroke-linejoin="bevel" stroke-miterlimit="10" stroke-width="3" stroke-dasharray=""/><text fill="rgb(68,68,68)" stroke="none" font-family="helvetica" font-size="18px" font-style="normal" font-weight="normal" text-decoration="normal" x="810.5166625976562" y="299.5" text-anchor="start" dominant-baseline="central" transform="matrix(1, 0, 0, 1, 0.5, 0.5)" fill-opacity="1">Cheapest Users - AP Energy Efficiency</text><path fill="none" stroke="rgb(196,156,148)" paint-order="fill" d="M 786.0166625976562 299.5 L 806.0166625976562 299.5" stroke-opacity="1" stroke-linejoin="bevel" stroke-miterlimit="10" stroke-width="3" stroke-dasharray=""/></svg>