<svg version="1.1" xmlns="http://www.w3.org/2000/svg" width="1200" height="800"><defs><clipPath id="PAsuScBnETHh"><path fill="none" stroke="none" d="M 102.5 5.5 L 867.5 5.5 L 867.5 739.5 L 102.5 739.5 L 102.5 5.5"/></clipPath><clipPath id="ZHGmTOTHRGTT"><path fill="none" stroke="none" d="M 102.5 5.5 L 867.5 5.5 L 867.5 739.5 L 102.5 739.5 L 102.5 5.5"/></clipPath><clipPath id="EXCJienmTTeF"><path fill="none" stroke="none" d="M 102.5 5.5 L 867.5 5.5 L 867.5 739.5 L 102.5 739.5 L 102.5 5.5"/></clipPath><clipPath id="MaTqwOmJWrCB"><path fill="none" stroke="none" d="M 102.5 5.5 L 867.5 5.5 L 867.5 739.5 L 102.5 739.5 L 102.5 5.5"/></clipPath><clipPath id="zmPeKCwIeoTX"><path fill="none" stroke="none" d="M 102.5 5.5 L 867.5 5.5 L 867.5 739.5 L 102.5 739.5 L 102.5 5.5"/></clipPath><clipPath id="BEXwofkmdAcP"><path fill="none" stroke="none" d="M 102.5 5.5 L 867.5 5.5 L 867.5 739.5 L 102.5 739.5 L 102.5 5.5"/></clipPath><clipPath id="VTWvHcRlZHai"><path fill="none" stroke="none" d="M 102.5 5.5 L 867.5 5.5 L 867.5 739.5 L 102.5 739.5 L 102.5 5.5"/></clipPath></defs><path fill="rgb(255,255,255)" stroke="none" paint-order="stroke" d="M 0.5 0.5 L 1200.5 0.5 L 1200.5 800.5 L 0.5 800.5 L 0.5 0.5" fill-opacity="1"/><rect fill="#FFFFFF" stroke="none" x="102" y="5" width="765" height="734" transform="matrix(1, 0, 0, 1, 0.5, 0.5)"/><path fill="rgb(255,255,255)" stroke="none" paint-order="stroke" d="M 102.5 5.5 L 867.5 5.5 L 867.5 739.5 L 102.5 739.5 L 102.5 5.5" fill-opacity="1"/><path fill="none" stroke="rgb(229,229,229)" paint-order="fill" d="M 102.5 5.5 L 867.5 5.5 L 867.5 739.5 L 102.5 739.5 L 102.5 5.5" stroke-opacity="1" stroke-linejoin="bevel" stroke-miterlimit="10" stroke-dasharray=""/><path fill="none" stroke="rgb(229,229,229)" paint-order="fill" d="M 118.5 739.5 L 118.5 5.5 M 301.5 739.5 L 301.5 5.5 M 485.5 739.5 L 485.5 5.5 M 668.5 739.5 L 668.5 5.5 M 851.5 739.5 L 851.5 5.5" stroke-opacity="1" stroke-linejoin="bevel" stroke-miterlimit="10" stroke-dasharray="" clip-path="url(#PAsuScBnETHh)"/><path fill="none" stroke="rgb(229,229,229)" paint-order="fill" d="M 102.5 694.5 L 867.5 694.5 M 102.5 555.5 L 867.5 555.5 M 102.5 416.5 L 867.5 416.5 M 102.5 277.5 L 867.5 277.5 M 102.5 138.5 L 867.5 138.5" stroke-opacity="1" stroke-linejoin="bevel" stroke-miterlimit="10" stroke-dasharray="" clip-path="url(#ZHGmTOTHRGTT)"/><path fill="none" stroke="rgb(31,119,180)" paint-order="fill" d="M 137.27272033691406 260.3027648925781 L 173.87559509277344 89.3124008178711 L 210.4784698486328 65.18321990966797 L 247.0813446044922 86.01637268066406 L 283.6842041015625 122.82901763916016 L 320.2870788574219 100.65033721923828 L 356.88995361328125 40.74112319946289 L 393.4928283691406 45.956363677978516 L 430.095703125 337.3492736816406 L 466.6985778808594 56.42161560058594 L 503.3014221191406 61.68553161621094 L 539.904296875 59.93321228027344 L 576.5072021484375 59.93321228027344 L 613.1100463867188 63.44480514526367 L 649.712890625 58.87625503540039 L 686.3157958984375 59.93321228027344 L 722.9186401367188 38.8636360168457 L 759.5215454101562 42.3752326965332 L 796.1243896484375 38.8636360168457 L 832.727294921875 38.8636360168457" stroke-opacity="1" stroke-linejoin="bevel" stroke-miterlimit="10" stroke-width="3" stroke-dasharray="" clip-path="url(#EXCJienmTTeF)"/><path fill="none" stroke="rgb(174,199,232)" paint-order="fill" d="M 137.27272033691406 277.1097717285156 L 173.87559509277344 89.3124008178711 L 210.4784698486328 65.18321990966797 L 247.0813446044922 84.20146942138672 L 283.6842041015625 122.82901763916016 L 320.2870788574219 100.29917907714844 L 356.88995361328125 40.74112319946289 L 393.4928283691406 45.956363677978516 L 430.095703125 337.3492736816406 L 466.6985778808594 56.42161560058594 L 503.3014221191406 63.44480514526367 L 539.904296875 59.93321228027344 L 576.5072021484375 59.93321228027344 L 613.1100463867188 63.44480514526367 L 649.712890625 59.40473175048828 L 686.3157958984375 59.93321228027344 L 722.9186401367188 38.8636360168457 L 759.5215454101562 42.3752326965332 L 796.1243896484375 38.8636360168457 L 832.727294921875 38.8636360168457" stroke-opacity="1" stroke-linejoin="bevel" stroke-miterlimit="10" stroke-width="3" stroke-dasharray="" clip-path="url(#MaTqwOmJWrCB)"/><path fill="none" stroke="rgb(255,127,14)" paint-order="fill" d="M 137.27272033691406 706.1363525390625 L 173.87559509277344 56.49114990234375 L 210.4784698486328 38.93317413330078 L 247.0813446044922 38.93317413330078 L 283.6842041015625 38.93317413330078 L 320.2870788574219 38.93317413330078 L 356.88995361328125 38.93317413330078 L 393.4928283691406 38.93317413330078 L 430.095703125 38.93317413330078 L 466.6985778808594 38.93317413330078 L 503.3014221191406 38.93317413330078 L 539.904296875 38.93317413330078 L 576.5072021484375 38.93317413330078 L 613.1100463867188 38.93317413330078 L 649.712890625 38.93317413330078 L 686.3157958984375 38.93317413330078 L 722.9186401367188 38.93317413330078 L 759.5215454101562 38.93317413330078 L 796.1243896484375 38.93317413330078 L 832.727294921875 38.93317413330078" stroke-opacity="1" stroke-linejoin="bevel" stroke-miterlimit="10" stroke-width="3" stroke-dasharray="" clip-path="url(#zmPeKCwIeoTX)"/><path fill="none" stroke="rgb(255,187,120)" paint-order="fill" d="M 137.27272033691406 706.1363525390625 L 173.87559509277344 56.49114990234375 L 210.4784698486328 38.93317413330078 L 247.0813446044922 38.93317413330078 L 283.6842041015625 38.93317413330078 L 320.2870788574219 38.93317413330078 L 356.88995361328125 38.93317413330078 L 393.4928283691406 38.93317413330078 L 430.095703125 38.93317413330078 L 466.6985778808594 38.93317413330078 L 503.3014221191406 38.93317413330078 L 539.904296875 38.93317413330078 L 576.5072021484375 38.93317413330078 L 613.1100463867188 38.93317413330078 L 649.712890625 38.93317413330078 L 686.3157958984375 38.93317413330078 L 722.9186401367188 38.93317413330078 L 759.5215454101562 38.93317413330078 L 796.1243896484375 38.93317413330078 L 832.727294921875 38.93317413330078" stroke-opacity="1" stroke-linejoin="bevel" stroke-miterlimit="10" stroke-width="3" stroke-dasharray="" clip-path="url(#BEXwofkmdAcP)"/><path fill="none" stroke="rgb(0,0,0)" paint-order="fill" d="M 102.5 739.5 L 867.5 739.5" stroke-opacity="1" stroke-linejoin="bevel" stroke-miterlimit="10" stroke-dasharray=""/><path fill="none" stroke="rgb(0,0,0)" paint-order="fill" d="M 118.5 745.5 L 118.5 737.5 M 301.5 745.5 L 301.5 737.5 M 485.5 745.5 L 485.5 737.5 M 668.5 745.5 L 668.5 737.5 M 851.5 745.5 L 851.5 737.5" stroke-opacity="1" stroke-linejoin="bevel" stroke-miterlimit="10" stroke-dasharray=""/><path fill="none" stroke="rgb(0,0,0)" paint-order="fill" d="M 118.5 743.5 L 118.5 739.5 M 155.5 743.5 L 155.5 739.5 M 192.5 743.5 L 192.5 739.5 M 228.5 743.5 L 228.5 739.5 M 265.5 743.5 L 265.5 739.5 M 301.5 743.5 L 301.5 739.5 M 338.5 743.5 L 338.5 739.5 M 375.5 743.5 L 375.5 739.5 M 411.5 743.5 L 411.5 739.5 M 448.5 743.5 L 448.5 739.5 M 485.5 743.5 L 485.5 739.5 M 521.5 743.5 L 521.5 739.5 M 558.5 743.5 L 558.5 739.5 M 594.5 743.5 L 594.5 739.5 M 631.5 743.5 L 631.5 739.5 M 668.5 743.5 L 668.5 739.5 M 704.5 743.5 L 704.5 739.5 M 741.5 743.5 L 741.5 739.5 M 777.5 743.5 L 777.5 739.5 M 814.5 743.5 L 814.5 739.5 M 851.5 743.5 L 851.5 739.5" stroke-opacity="1" stroke-linejoin="bevel" stroke-miterlimit="10" stroke-dasharray=""/><text fill="rgb(68,68,68)" stroke="none" font-family="helvetica" font-size="20px" font-style="normal" font-weight="normal" text-decoration="normal" x="112.91295719146729" y="765" text-anchor="start" dominant-baseline="alphabetic" transform="matrix(1, 0, 0, 1, 0.5, 0.5)" fill-opacity="1">0</text><text fill="rgb(68,68,68)" stroke="none" font-family="helvetica" font-size="20px" font-style="normal" font-weight="normal" text-decoration="normal" x="290.368989944458" y="765" text-anchor="start" dominant-baseline="alphabetic" transform="matrix(1, 0, 0, 1, 0.5, 0.5)" fill-opacity="1">10</text><text fill="rgb(68,68,68)" stroke="none" font-family="helvetica" font-size="20px" font-style="normal" font-weight="normal" text-decoration="normal" x="473.38333320617676" y="765" text-anchor="start" dominant-baseline="alphabetic" transform="matrix(1, 0, 0, 1, 0.5, 0.5)" fill-opacity="1">20</text><text fill="rgb(68,68,68)" stroke="none" font-family="helvetica" font-size="20px" font-style="normal" font-weight="normal" text-decoration="normal" x="656.3976764678955" y="765" text-anchor="start" dominant-baseline="alphabetic" transform="matrix(1, 0, 0, 1, 0.5, 0.5)" fill-opacity="1">30</text><text fill="rgb(68,68,68)" stroke="none" font-family="helvetica" font-size="20px" font-style="normal" font-weight="normal" text-decoration="normal" x="839.4120197296143" y="765" text-anchor="start" dominant-baseline="alphabetic" transform="matrix(1, 0, 0, 1, 0.5, 0.5)" fill-opacity="1">40</text><text fill="rgb(68,68,68)" stroke="none" font-family="helvetica" font-size="20px" font-style="italic" font-weight="normal" text-decoration="normal" x="416.66666412353516" y="793" text-anchor="start" dominant-baseline="alphabetic" transform="matrix(1, 0, 0, 1, 0.5, 0.5)" fill-opacity="1">Dataframe Size</text><path fill="none" stroke="rgb(0,0,0)" paint-order="fill" d="M 102.5 739.5 L 102.5 5.5" stroke-opacity="1" stroke-linejoin="bevel" stroke-miterlimit="10" stroke-dasharray=""/><path fill="none" stroke="rgb(0,0,0)" paint-order="fill" d="M 96.5 694.5 L 104.5 694.5 M 96.5 555.5 L 104.5 555.5 M 96.5 416.5 L 104.5 416.5 M 96.5 277.5 L 104.5 277.5 M 96.5 138.5 L 104.5 138.5" stroke-opacity="1" stroke-linejoin="bevel" stroke-miterlimit="10" stroke-dasharray=""/><path fill="none" stroke="rgb(0,0,0)" paint-order="fill" d="M 98.5 722.5 L 102.5 722.5 M 98.5 694.5 L 102.5 694.5 M 98.5 666.5 L 102.5 666.5 M 98.5 639.5 L 102.5 639.5 M 98.5 611.5 L 102.5 611.5 M 98.5 583.5 L 102.5 583.5 M 98.5 555.5 L 102.5 555.5 M 98.5 527.5 L 102.5 527.5 M 98.5 500.5 L 102.5 500.5 M 98.5 472.5 L 102.5 472.5 M 98.5 444.5 L 102.5 444.5 M 98.5 416.5 L 102.5 416.5 M 98.5 388.5 L 102.5 388.5 M 98.5 360.5 L 102.5 360.5 M 98.5 333.5 L 102.5 333.5 M 98.5 305.5 L 102.5 305.5 M 98.5 277.5 L 102.5 277.5 M 98.5 249.5 L 102.5 249.5 M 98.5 221.5 L 102.5 221.5 M 98.5 194.5 L 102.5 194.5 M 98.5 166.5 L 102.5 166.5 M 98.5 138.5 L 102.5 138.5 M 98.5 110.5 L 102.5 110.5 M 98.5 82.5 L 102.5 82.5 M 98.5 54.5 L 102.5 54.5 M 98.5 27.5 L 102.5 27.5" stroke-opacity="1" stroke-linejoin="bevel" stroke-miterlimit="10" stroke-dasharray=""/><text fill="rgb(68,68,68)" stroke="none" font-family="helvetica" font-size="20px" font-style="normal" font-weight="normal" text-decoration="normal" x="35.41666793823242" y="701.7323608398438" text-anchor="start" dominant-baseline="alphabetic" transform="matrix(1, 0, 0, 1, 0.5, 0.5)" fill-opacity="1">24000</text><text fill="rgb(68,68,68)" stroke="none" font-family="helvetica" font-size="20px" font-style="normal" font-weight="normal" text-decoration="normal" x="35.41666793823242" y="562.6592407226562" text-anchor="start" dominant-baseline="alphabetic" transform="matrix(1, 0, 0, 1, 0.5, 0.5)" fill-opacity="1">26000</text><text fill="rgb(68,68,68)" stroke="none" font-family="helvetica" font-size="20px" font-style="normal" font-weight="normal" text-decoration="normal" x="35.41666793823242" y="423.586181640625" text-anchor="start" dominant-baseline="alphabetic" transform="matrix(1, 0, 0, 1, 0.5, 0.5)" fill-opacity="1">28000</text><text fill="rgb(68,68,68)" stroke="none" font-family="helvetica" font-size="20px" font-style="normal" font-weight="normal" text-decoration="normal" x="35.41666793823242" y="284.5130615234375" text-anchor="start" dominant-baseline="alphabetic" transform="matrix(1, 0, 0, 1, 0.5, 0.5)" fill-opacity="1">30000</text><text fill="rgb(68,68,68)" stroke="none" font-family="helvetica" font-size="20px" font-style="normal" font-weight="normal" text-decoration="normal" x="35.41666793823242" y="145.43997192382812" text-anchor="start" dominant-baseline="alphabetic" transform="matrix(1, 0, 0, 1, 0.5, 0.5)" fill-opacity="1">32000</text><text fill="rgb(68,68,68)" stroke="none" font-family="helvetica" font-size="20px" font-style="italic" font-weight="normal" text-decoration="normal" x="-113.84999465942383" y="368" text-anchor="start" dominant-baseline="alphabetic" transform="matrix(6.123233995736766e-17, -1, 1, 6.123233995736766e-17, -344.0833320617676, 399.9166679382324)" fill-opacity="1">Total Number of Serviced Users</text><path fill="rgb(255,255,255)" stroke="rgb(229,229,229)" paint-order="fill" d="M 877.8500061035156 15.5 L 1190.5 15.5 L 1190.5 128.5 L 877.8500061035156 128.5 L 877.8500061035156 15.5" fill-opacity="0.9490196078431372" stroke-opacity="0.5019607843137255" stroke-linejoin="bevel" stroke-miterlimit="10" stroke-dasharray=""/><text fill="rgb(68,68,68)" stroke="none" font-family="helvetica" font-size="18px" font-style="normal" font-weight="normal" text-decoration="normal" x="912.3500061035156" y="35.5" text-anchor="start" dominant-baseline="central" transform="matrix(1, 0, 0, 1, 0.5, 0.5)" fill-opacity="1">No Policy - Epsilon Greedy</text><path fill="none" stroke="rgb(31,119,180)" paint-order="fill" d="M 887.8500061035156 35.5 L 907.8500061035156 35.5" stroke-opacity="1" stroke-linejoin="bevel" stroke-miterlimit="10" stroke-width="3" stroke-dasharray=""/><text fill="rgb(68,68,68)" stroke="none" font-family="helvetica" font-size="18px" font-style="normal" font-weight="normal" text-decoration="normal" x="912.3500061035156" y="59.5" text-anchor="start" dominant-baseline="central" transform="matrix(1, 0, 0, 1, 0.5, 0.5)" fill-opacity="1">Cheapest Users - Epsilon Greedy</text><path fill="none" stroke="rgb(174,199,232)" paint-order="fill" d="M 887.8500061035156 59.5 L 907.8500061035156 59.5" stroke-opacity="1" stroke-linejoin="bevel" stroke-miterlimit="10" stroke-width="3" stroke-dasharray=""/><text fill="rgb(68,68,68)" stroke="none" font-family="helvetica" font-size="18px" font-style="normal" font-weight="normal" text-decoration="normal" x="912.3500061035156" y="83.5" text-anchor="start" dominant-baseline="central" transform="matrix(1, 0, 0, 1, 0.5, 0.5)" fill-opacity="1">No Policy - UCB1</text><path fill="none" stroke="rgb(255,127,14)" paint-order="fill" d="M 887.8500061035156 83.5 L 907.8500061035156 83.5" stroke-opacity="1" stroke-linejoin="bevel" stroke-miterlimit="10" stroke-width="3" stroke-dasharray=""/><text fill="rgb(68,68,68)" stroke="none" font-family="helvetica" font-size="18px" font-style="normal" font-weight="normal" text-decoration="normal" x="912.3500061035156" y="107.5" text-anchor="start" dominant-baseline="central" transform="matrix(1, 0, 0, 1, 0.5, 0.5)" fill-opacity="1">Cheapest Users - UCB1</text><path fill="none" stroke="rgb(255,187,120)" paint-order="fill" d="M 887.8500061035156 107.5 L 907.8500061035156 107.5" stroke-opacity="1" stroke-linejoin="bevel" stroke-miterlimit="10" stroke-width="3" stroke-dasharray=""/><path fill="rgb(255,255,255)" stroke="rgb(229,229,229)" paint-order="fill" d="M 877.8500061035156 15.5 L 1190.5 15.5 L 1190.5 128.5 L 877.8500061035156 128.5 L 877.8500061035156 15.5" fill-opacity="0.9490196078431372" stroke-opacity="0.5019607843137255" stroke-linejoin="bevel" stroke-miterlimit="10" stroke-dasharray=""/><text fill="rgb(68,68,68)" stroke="none" font-family="helvetica" font-size="18px" font-style="normal" font-weight="normal" text-decoration="normal" x="912.3500061035156" y="35.5" text-anchor="start" dominant-baseline="central" transform="matrix(1, 0, 0, 1, 0.5, 0.5)" fill-opacity="1">No Policy - Epsilon Greedy</text><path fill="none" stroke="rgb(31,119,180)" paint-order="fill" d="M 887.8500061035156 35.5 L 907.8500061035156 35.5" stroke-opacity="1" stroke-linejoin="bevel" stroke-miterlimit="10" stroke-width="3" stroke-dasharray=""/><text fill="rgb(68,68,68)" stroke="none" font-family="helvetica" font-size="18px" font-style="normal" font-weight="normal" text-decoration="normal" x="912.3500061035156" y="59.5" text-anchor="start" dominant-baseline="central" transform="matrix(1, 0, 0, 1, 0.5, 0.5)" fill-opacity="1">Cheapest Users - Epsilon Greedy</text><path fill="none" stroke="rgb(174,199,232)" paint-order="fill" d="M 887.8500061035156 59.5 L 907.8500061035156 59.5" stroke-opacity="1" stroke-linejoin="bevel" stroke-miterlimit="10" stroke-width="3" stroke-dasharray=""/><text fill="rgb(68,68,68)" stroke="none" font-family="helvetica" font-size="18px" font-style="normal" font-weight="normal" text-decoration="normal" x="912.3500061035156" y="83.5" text-anchor="start" dominant-baseline="central" transform="matrix(1, 0, 0, 1, 0.5, 0.5)" fill-opacity="1">No Policy - UCB1</text><path fill="none" stroke="rgb(255,127,14)" paint-order="fill" d="M 887.8500061035156 83.5 L 907.8500061035156 83.5" stroke-opacity="1" stroke-linejoin="bevel" stroke-miterlimit="10" stroke-width="3" stroke-dasharray=""/><text fill="rgb(68,68,68)" stroke="none" font-family="helvetica" font-size="18px" font-style="normal" font-weight="normal" text-decoration="normal" x="912.3500061035156" y="107.5" text-anchor="start" dominant-baseline="central" transform="matrix(1, 0, 0, 1, 0.5, 0.5)" fill-opacity="1">Cheapest Users - UCB1</text><path fill="none" stroke="rgb(255,187,120)" paint-order="fill" d="M 887.8500061035156 107.5 L 907.8500061035156 107.5" stroke-opacity="1" stroke-linejoin="bevel" stroke-miterlimit="10" stroke-width="3" stroke-dasharray=""/></svg>