<svg version="1.1" xmlns="http://www.w3.org/2000/svg" width="1200" height="800"><defs><clipPath id="NVdJWfnbUHrc"><path fill="none" stroke="none" d="M 102.5 5.5 L 766.5 5.5 L 766.5 739.5 L 102.5 739.5 L 102.5 5.5"/></clipPath><clipPath id="LCUbTBwPHGSw"><path fill="none" stroke="none" d="M 102.5 5.5 L 766.5 5.5 L 766.5 739.5 L 102.5 739.5 L 102.5 5.5"/></clipPath><clipPath id="vDiXyTnHrAOD"><path fill="none" stroke="none" d="M 102.5 5.5 L 766.5 5.5 L 766.5 739.5 L 102.5 739.5 L 102.5 5.5"/></clipPath><clipPath id="xaguRTXMKcAX"><path fill="none" stroke="none" d="M 102.5 5.5 L 766.5 5.5 L 766.5 739.5 L 102.5 739.5 L 102.5 5.5"/></clipPath><clipPath id="muLkIWZlgvqt"><path fill="none" stroke="none" d="M 102.5 5.5 L 766.5 5.5 L 766.5 739.5 L 102.5 739.5 L 102.5 5.5"/></clipPath><clipPath id="HiHVFqXWmOTc"><path fill="none" stroke="none" d="M 102.5 5.5 L 766.5 5.5 L 766.5 739.5 L 102.5 739.5 L 102.5 5.5"/></clipPath><clipPath id="gVQKFSFBVtus"><path fill="none" stroke="none" d="M 102.5 5.5 L 766.5 5.5 L 766.5 739.5 L 102.5 739.5 L 102.5 5.5"/></clipPath><clipPath id="NiDldffazWRZ"><path fill="none" stroke="none" d="M 102.5 5.5 L 766.5 5.5 L 766.5 739.5 L 102.5 739.5 L 102.5 5.5"/></clipPath><clipPath id="orzWmHFDffTh"><path fill="none" stroke="none" d="M 102.5 5.5 L 766.5 5.5 L 766.5 739.5 L 102.5 739.5 L 102.5 5.5"/></clipPath><clipPath id="wThFqxznhzTC"><path fill="none" stroke="none" d="M 102.5 5.5 L 766.5 5.5 L 766.5 739.5 L 102.5 739.5 L 102.5 5.5"/></clipPath><clipPath id="smEKhCVpTMtC"><path fill="none" stroke="none" d="M 102.5 5.5 L 766.5 5.5 L 766.5 739.5 L 102.5 739.5 L 102.5 5.5"/></clipPath><clipPath id="ImlidhPdAvTu"><path fill="none" stroke="none" d="M 102.5 5.5 L 766.5 5.5 L 766.5 739.5 L 102.5 739.5 L 102.5 5.5"/></clipPath><clipPath id="knHVEBPMOTOH"><path fill="none" stroke="none" d="M 102.5 5.5 L 766.5 5.5 L 766.5 739.5 L 102.5 739.5 L 102.5 5.5"/></clipPath><clipPath id="UsKNGsLMkGFC"><path fill="none" stroke="none" d="M 102.5 5.5 L 766.5 5.5 L 766.5 739.5 L 102.5 739.5 L 102.5 5.5"/></clipPath><clipPath id="TmoHGyCTCUgy"><path fill="none" stroke="none" d="M 102.5 5.5 L 766.5 5.5 L 766.5 739.5 L 102.5 739.5 L 102.5 5.5"/></clipPath></defs><path fill="rgb(255,255,255)" stroke="none" paint-order="stroke" d="M 0.5 0.5 L 1200.5 0.5 L 1200.5 800.5 L 0.5 800.5 L 0.5 0.5" fill-opacity="1"/><rect fill="#FFFFFF" stroke="none" x="102" y="5" width="664" height="734" transform="matrix(1, 0, 0, 1, 0.5, 0.5)"/><path fill="rgb(255,255,255)" stroke="none" paint-order="stroke" d="M 102.5 5.5 L 766.5 5.5 L 766.5 739.5 L 102.5 739.5 L 102.5 5.5" fill-opacity="1"/><path fill="none" stroke="rgb(229,229,229)" paint-order="fill" d="M 102.5 5.5 L 766.5 5.5 L 766.5 739.5 L 102.5 739.5 L 102.5 5.5" stroke-opacity="1" stroke-linejoin="bevel" stroke-miterlimit="10" stroke-dasharray=""/><path fill="none" stroke="rgb(229,229,229)" paint-order="fill" d="M 193.5 739.5 L 193.5 5.5 M 313.5 739.5 L 313.5 5.5 M 434.5 739.5 L 434.5 5.5 M 555.5 739.5 L 555.5 5.5 M 675.5 739.5 L 675.5 5.5" stroke-opacity="1" stroke-linejoin="bevel" stroke-miterlimit="10" stroke-dasharray="" clip-path="url(#NVdJWfnbUHrc)"/><path fill="none" stroke="rgb(229,229,229)" paint-order="fill" d="M 102.5 667.5 L 766.5 667.5 M 102.5 495.5 L 766.5 495.5 M 102.5 323.5 L 766.5 323.5 M 102.5 151.5 L 766.5 151.5" stroke-opacity="1" stroke-linejoin="bevel" stroke-miterlimit="10" stroke-dasharray="" clip-path="url(#LCUbTBwPHGSw)"/><path fill="none" stroke="rgb(31,119,180)" paint-order="fill" d="M 132.68182373046875 354.25225830078125 L 193.0454559326172 335.86517333984375 L 253.40908813476562 241.7714385986328 L 313.7727355957031 199.23233032226562 L 374.1363525390625 172.1272735595703 L 434.5 165.38970947265625 L 494.8636474609375 165.38970947265625 L 555.227294921875 165.38970947265625 L 615.5908813476562 172.75502014160156 L 675.9545288085938 165.38970947265625 L 736.3181762695312 158.02439880371094" stroke-opacity="1" stroke-linejoin="bevel" stroke-miterlimit="10" stroke-width="3" stroke-dasharray="" clip-path="url(#vDiXyTnHrAOD)"/><path fill="none" stroke="rgb(174,199,232)" paint-order="fill" d="M 132.68182373046875 354.25225830078125 L 193.0454559326172 350.3601989746094 L 253.40908813476562 240.49530029296875 L 313.7727355957031 205.72137451171875 L 374.1363525390625 184.03733825683594 L 434.5 168.90252685546875 L 494.8636474609375 153.20877075195312 L 555.227294921875 168.90252685546875 L 615.5908813476562 161.05564880371094 L 675.9545288085938 168.90252685546875 L 736.3181762695312 168.90252685546875" stroke-opacity="1" stroke-linejoin="bevel" stroke-miterlimit="10" stroke-width="3" stroke-dasharray="" clip-path="url(#xaguRTXMKcAX)"/><path fill="none" stroke="rgb(255,127,14)" paint-order="fill" d="M 132.68182373046875 347.3298034667969 L 193.0454559326172 285.5264892578125 L 253.40908813476562 231.67755126953125 L 313.7727355957031 176.09156799316406 L 374.1363525390625 122.24263000488281 L 434.5 66.65663146972656 L 494.8636474609375 38.8636360168457 L 555.227294921875 38.8636360168457 L 615.5908813476562 38.8636360168457 L 675.9545288085938 38.8636360168457 L 736.3181762695312 38.8636360168457" stroke-opacity="1" stroke-linejoin="bevel" stroke-miterlimit="10" stroke-width="3" stroke-dasharray="" clip-path="url(#muLkIWZlgvqt)"/><path fill="none" stroke="rgb(255,187,120)" paint-order="fill" d="M 132.68182373046875 347.3298034667969 L 193.0454559326172 285.5264892578125 L 253.40908813476562 231.67755126953125 L 313.7727355957031 176.09156799316406 L 374.1363525390625 122.24263000488281 L 434.5 66.65663146972656 L 494.8636474609375 38.8636360168457 L 555.227294921875 38.8636360168457 L 615.5908813476562 38.8636360168457 L 675.9545288085938 38.8636360168457 L 736.3181762695312 38.8636360168457" stroke-opacity="1" stroke-linejoin="bevel" stroke-miterlimit="10" stroke-width="3" stroke-dasharray="" clip-path="url(#HiHVFqXWmOTc)"/><path fill="none" stroke="rgb(44,160,44)" paint-order="fill" d="M 132.68182373046875 706.1363525390625 L 193.0454559326172 674.9036254882812 L 253.40908813476562 670.105224609375 L 313.7727355957031 670.105224609375 L 374.1363525390625 670.105224609375 L 434.5 670.105224609375 L 494.8636474609375 670.105224609375 L 555.227294921875 670.105224609375 L 615.5908813476562 670.105224609375 L 675.9545288085938 670.105224609375 L 736.3181762695312 670.105224609375" stroke-opacity="1" stroke-linejoin="bevel" stroke-miterlimit="10" stroke-width="3" stroke-dasharray="" clip-path="url(#gVQKFSFBVtus)"/><path fill="none" stroke="rgb(152,223,138)" paint-order="fill" d="M 132.68182373046875 702.2752685546875 L 193.0454559326172 671.7821044921875 L 253.40908813476562 667.1986694335938 L 313.7727355957031 667.1986694335938 L 374.1363525390625 667.1986694335938 L 434.5 667.1986694335938 L 494.8636474609375 667.1986694335938 L 555.227294921875 667.1986694335938 L 615.5908813476562 667.1986694335938 L 675.9545288085938 667.1986694335938 L 736.3181762695312 667.1986694335938" stroke-opacity="1" stroke-linejoin="bevel" stroke-miterlimit="10" stroke-width="3" stroke-dasharray="" clip-path="url(#NiDldffazWRZ)"/><path fill="none" stroke="rgb(214,39,40)" paint-order="fill" d="M 132.68182373046875 451.7771301269531 L 193.0454559326172 428.6621398925781 L 253.40908813476562 399.708251953125 L 313.7727355957031 382.8621826171875 L 374.1363525390625 383.1373596191406 L 434.5 383.1373596191406 L 494.8636474609375 383.1373596191406 L 555.227294921875 383.1373596191406 L 615.5908813476562 383.1373596191406 L 675.9545288085938 383.1373596191406 L 736.3181762695312 383.1373596191406" stroke-opacity="1" stroke-linejoin="bevel" stroke-miterlimit="10" stroke-width="3" stroke-dasharray="" clip-path="url(#orzWmHFDffTh)"/><path fill="none" stroke="rgb(255,152,150)" paint-order="fill" d="M 132.68182373046875 451.7771301269531 L 193.0454559326172 428.6621398925781 L 253.40908813476562 399.708251953125 L 313.7727355957031 382.8621826171875 L 374.1363525390625 383.1373596191406 L 434.5 383.1373596191406 L 494.8636474609375 383.1373596191406 L 555.227294921875 383.1373596191406 L 615.5908813476562 383.1373596191406 L 675.9545288085938 383.1373596191406 L 736.3181762695312 383.1373596191406" stroke-opacity="1" stroke-linejoin="bevel" stroke-miterlimit="10" stroke-width="3" stroke-dasharray="" clip-path="url(#wThFqxznhzTC)"/><path fill="none" stroke="rgb(148,103,189)" paint-order="fill" d="M 132.68182373046875 367.1942138671875 L 193.0454559326172 328.3424987792969 L 253.40908813476562 301.1256408691406 L 313.7727355957031 278.0622863769531 L 374.1363525390625 260.0467224121094 L 434.5 258.33544921875 L 494.8636474609375 258.33544921875 L 555.227294921875 258.33544921875 L 615.5908813476562 258.33544921875 L 675.9545288085938 258.33544921875 L 736.3181762695312 258.33544921875" stroke-opacity="1" stroke-linejoin="bevel" stroke-miterlimit="10" stroke-width="3" stroke-dasharray="" clip-path="url(#smEKhCVpTMtC)"/><path fill="none" stroke="rgb(197,176,213)" paint-order="fill" d="M 132.68182373046875 367.1942138671875 L 193.0454559326172 328.8257751464844 L 253.40908813476562 302.0509338378906 L 313.7727355957031 278.58856201171875 L 374.1363525390625 260.0467224121094 L 434.5 258.33544921875 L 494.8636474609375 258.4266052246094 L 555.227294921875 258.33544921875 L 615.5908813476562 258.3810119628906 L 675.9545288085938 258.4266052246094 L 736.3181762695312 258.4266052246094" stroke-opacity="1" stroke-linejoin="bevel" stroke-miterlimit="10" stroke-width="3" stroke-dasharray="" clip-path="url(#ImlidhPdAvTu)"/><path fill="none" stroke="rgb(140,86,75)" paint-order="fill" d="M 132.68182373046875 343.21759033203125 L 193.0454559326172 315.94830322265625 L 253.40908813476562 297.32476806640625 L 313.7727355957031 281.63958740234375 L 374.1363525390625 272.49853515625 L 434.5 266.2605895996094 L 494.8636474609375 266.2605895996094 L 555.227294921875 266.6939697265625 L 615.5908813476562 266.2605895996094 L 675.9545288085938 266.2605895996094 L 736.3181762695312 266.6939697265625" stroke-opacity="1" stroke-linejoin="bevel" stroke-miterlimit="10" stroke-width="3" stroke-dasharray="" clip-path="url(#knHVEBPMOTOH)"/><path fill="none" stroke="rgb(196,156,148)" paint-order="fill" d="M 132.68182373046875 343.3603515625 L 193.0454559326172 315.9715270996094 L 253.40908813476562 297.0925598144531 L 313.7727355957031 282.0592346191406 L 374.1363525390625 271.7073974609375 L 434.5 266.6939697265625 L 494.8636474609375 266.6939697265625 L 555.227294921875 266.2605895996094 L 615.5908813476562 266.2605895996094 L 675.9545288085938 266.2605895996094 L 736.3181762695312 266.6939697265625" stroke-opacity="1" stroke-linejoin="bevel" stroke-miterlimit="10" stroke-width="3" stroke-dasharray="" clip-path="url(#UsKNGsLMkGFC)"/><path fill="none" stroke="rgb(0,0,0)" paint-order="fill" d="M 102.5 739.5 L 766.5 739.5" stroke-opacity="1" stroke-linejoin="bevel" stroke-miterlimit="10" stroke-dasharray=""/><path fill="none" stroke="rgb(0,0,0)" paint-order="fill" d="M 193.5 745.5 L 193.5 737.5 M 313.5 745.5 L 313.5 737.5 M 434.5 745.5 L 434.5 737.5 M 555.5 745.5 L 555.5 737.5 M 675.5 745.5 L 675.5 737.5" stroke-opacity="1" stroke-linejoin="bevel" stroke-miterlimit="10" stroke-dasharray=""/><path fill="none" stroke="rgb(0,0,0)" paint-order="fill" d="M 168.5 743.5 L 168.5 739.5 M 144.5 743.5 L 144.5 739.5 M 120.5 743.5 L 120.5 739.5 M 193.5 743.5 L 193.5 739.5 M 217.5 743.5 L 217.5 739.5 M 241.5 743.5 L 241.5 739.5 M 265.5 743.5 L 265.5 739.5 M 289.5 743.5 L 289.5 739.5 M 313.5 743.5 L 313.5 739.5 M 337.5 743.5 L 337.5 739.5 M 362.5 743.5 L 362.5 739.5 M 386.5 743.5 L 386.5 739.5 M 410.5 743.5 L 410.5 739.5 M 434.5 743.5 L 434.5 739.5 M 458.5 743.5 L 458.5 739.5 M 482.5 743.5 L 482.5 739.5 M 506.5 743.5 L 506.5 739.5 M 531.5 743.5 L 531.5 739.5 M 555.5 743.5 L 555.5 739.5 M 579.5 743.5 L 579.5 739.5 M 603.5 743.5 L 603.5 739.5 M 627.5 743.5 L 627.5 739.5 M 651.5 743.5 L 651.5 739.5 M 675.5 743.5 L 675.5 739.5 M 700.5 743.5 L 700.5 739.5 M 724.5 743.5 L 724.5 739.5 M 748.5 743.5 L 748.5 739.5" stroke-opacity="1" stroke-linejoin="bevel" stroke-miterlimit="10" stroke-dasharray=""/><text fill="rgb(68,68,68)" stroke="none" font-family="helvetica" font-size="20px" font-style="normal" font-weight="normal" text-decoration="normal" x="150.5704574584961" y="765" text-anchor="start" dominant-baseline="alphabetic" transform="matrix(1, 0, 0, 1, 0.5, 0.5)" fill-opacity="1">1.000e+5</text><text fill="rgb(68,68,68)" stroke="none" font-family="helvetica" font-size="20px" font-style="normal" font-weight="normal" text-decoration="normal" x="271.29773712158203" y="765" text-anchor="start" dominant-baseline="alphabetic" transform="matrix(1, 0, 0, 1, 0.5, 0.5)" fill-opacity="1">2.000e+5</text><text fill="rgb(68,68,68)" stroke="none" font-family="helvetica" font-size="20px" font-style="normal" font-weight="normal" text-decoration="normal" x="392.0250015258789" y="765" text-anchor="start" dominant-baseline="alphabetic" transform="matrix(1, 0, 0, 1, 0.5, 0.5)" fill-opacity="1">3.000e+5</text><text fill="rgb(68,68,68)" stroke="none" font-family="helvetica" font-size="20px" font-style="normal" font-weight="normal" text-decoration="normal" x="512.7522964477539" y="765" text-anchor="start" dominant-baseline="alphabetic" transform="matrix(1, 0, 0, 1, 0.5, 0.5)" fill-opacity="1">4.000e+5</text><text fill="rgb(68,68,68)" stroke="none" font-family="helvetica" font-size="20px" font-style="normal" font-weight="normal" text-decoration="normal" x="633.4795303344727" y="765" text-anchor="start" dominant-baseline="alphabetic" transform="matrix(1, 0, 0, 1, 0.5, 0.5)" fill-opacity="1">5.000e+5</text><text fill="rgb(68,68,68)" stroke="none" font-family="helvetica" font-size="20px" font-style="italic" font-weight="normal" text-decoration="normal" x="318.75" y="793" text-anchor="start" dominant-baseline="alphabetic" transform="matrix(1, 0, 0, 1, 0.5, 0.5)" fill-opacity="1">Maximum Energy Storage</text><path fill="none" stroke="rgb(0,0,0)" paint-order="fill" d="M 102.5 739.5 L 102.5 5.5" stroke-opacity="1" stroke-linejoin="bevel" stroke-miterlimit="10" stroke-dasharray=""/><path fill="none" stroke="rgb(0,0,0)" paint-order="fill" d="M 96.5 667.5 L 104.5 667.5 M 96.5 495.5 L 104.5 495.5 M 96.5 323.5 L 104.5 323.5 M 96.5 151.5 L 104.5 151.5" stroke-opacity="1" stroke-linejoin="bevel" stroke-miterlimit="10" stroke-dasharray=""/><path fill="none" stroke="rgb(0,0,0)" paint-order="fill" d="M 98.5 702.5 L 102.5 702.5 M 98.5 736.5 L 102.5 736.5 M 98.5 667.5 L 102.5 667.5 M 98.5 633.5 L 102.5 633.5 M 98.5 598.5 L 102.5 598.5 M 98.5 564.5 L 102.5 564.5 M 98.5 530.5 L 102.5 530.5 M 98.5 495.5 L 102.5 495.5 M 98.5 461.5 L 102.5 461.5 M 98.5 426.5 L 102.5 426.5 M 98.5 392.5 L 102.5 392.5 M 98.5 358.5 L 102.5 358.5 M 98.5 323.5 L 102.5 323.5 M 98.5 289.5 L 102.5 289.5 M 98.5 254.5 L 102.5 254.5 M 98.5 220.5 L 102.5 220.5 M 98.5 186.5 L 102.5 186.5 M 98.5 151.5 L 102.5 151.5 M 98.5 117.5 L 102.5 117.5 M 98.5 82.5 L 102.5 82.5 M 98.5 48.5 L 102.5 48.5 M 98.5 14.5 L 102.5 14.5" stroke-opacity="1" stroke-linejoin="bevel" stroke-miterlimit="10" stroke-dasharray=""/><text fill="rgb(68,68,68)" stroke="none" font-family="helvetica" font-size="20px" font-style="normal" font-weight="normal" text-decoration="normal" x="35.41666793823242" y="674.6630249023438" text-anchor="start" dominant-baseline="alphabetic" transform="matrix(1, 0, 0, 1, 0.5, 0.5)" fill-opacity="1">10000</text><text fill="rgb(68,68,68)" stroke="none" font-family="helvetica" font-size="20px" font-style="normal" font-weight="normal" text-decoration="normal" x="35.41666793823242" y="502.6766357421875" text-anchor="start" dominant-baseline="alphabetic" transform="matrix(1, 0, 0, 1, 0.5, 0.5)" fill-opacity="1">20000</text><text fill="rgb(68,68,68)" stroke="none" font-family="helvetica" font-size="20px" font-style="normal" font-weight="normal" text-decoration="normal" x="35.41666793823242" y="330.6902770996094" text-anchor="start" dominant-baseline="alphabetic" transform="matrix(1, 0, 0, 1, 0.5, 0.5)" fill-opacity="1">30000</text><text fill="rgb(68,68,68)" stroke="none" font-family="helvetica" font-size="20px" font-style="normal" font-weight="normal" text-decoration="normal" x="35.41666793823242" y="158.70388793945312" text-anchor="start" dominant-baseline="alphabetic" transform="matrix(1, 0, 0, 1, 0.5, 0.5)" fill-opacity="1">40000</text><text fill="rgb(68,68,68)" stroke="none" font-family="helvetica" font-size="20px" font-style="italic" font-weight="normal" text-decoration="normal" x="-113.84999465942383" y="368" text-anchor="start" dominant-baseline="alphabetic" transform="matrix(6.123233995736766e-17, -1, 1, 6.123233995736766e-17, -344.0833320617676, 399.9166679382324)" fill-opacity="1">Total Number of Serviced Users</text><path fill="rgb(255,255,255)" stroke="rgb(229,229,229)" paint-order="fill" d="M 776.0166625976562 15.5 L 1190.5 15.5 L 1190.5 320.5 L 776.0166625976562 320.5 L 776.0166625976562 15.5" fill-opacity="0.9490196078431372" stroke-opacity="0.5019607843137255" stroke-linejoin="bevel" stroke-miterlimit="10" stroke-dasharray=""/><text fill="rgb(68,68,68)" stroke="none" font-family="helvetica" font-size="18px" font-style="normal" font-weight="normal" text-decoration="normal" x="810.5166625976562" y="35.5" text-anchor="start" dominant-baseline="central" transform="matrix(1, 0, 0, 1, 0.5, 0.5)" fill-opacity="1">No Policy - Epsilon Greedy</text><path fill="none" stroke="rgb(31,119,180)" paint-order="fill" d="M 786.0166625976562 35.5 L 806.0166625976562 35.5" stroke-opacity="1" stroke-linejoin="bevel" stroke-miterlimit="10" stroke-width="3" stroke-dasharray=""/><text fill="rgb(68,68,68)" stroke="none" font-family="helvetica" font-size="18px" font-style="normal" font-weight="normal" text-decoration="normal" x="810.5166625976562" y="59.5" text-anchor="start" dominant-baseline="central" transform="matrix(1, 0, 0, 1, 0.5, 0.5)" fill-opacity="1">Cheapest Users - Epsilon Greedy</text><path fill="none" stroke="rgb(174,199,232)" paint-order="fill" d="M 786.0166625976562 59.5 L 806.0166625976562 59.5" stroke-opacity="1" stroke-linejoin="bevel" stroke-miterlimit="10" stroke-width="3" stroke-dasharray=""/><text fill="rgb(68,68,68)" stroke="none" font-family="helvetica" font-size="18px" font-style="normal" font-weight="normal" text-decoration="normal" x="810.5166625976562" y="83.5" text-anchor="start" dominant-baseline="central" transform="matrix(1, 0, 0, 1, 0.5, 0.5)" fill-opacity="1">No Policy - UCB1</text><path fill="none" stroke="rgb(255,127,14)" paint-order="fill" d="M 786.0166625976562 83.5 L 806.0166625976562 83.5" stroke-opacity="1" stroke-linejoin="bevel" stroke-miterlimit="10" stroke-width="3" stroke-dasharray=""/><text fill="rgb(68,68,68)" stroke="none" font-family="helvetica" font-size="18px" font-style="normal" font-weight="normal" text-decoration="normal" x="810.5166625976562" y="107.5" text-anchor="start" dominant-baseline="central" transform="matrix(1, 0, 0, 1, 0.5, 0.5)" fill-opacity="1">Cheapest Users - UCB1</text><path fill="none" stroke="rgb(255,187,120)" paint-order="fill" d="M 786.0166625976562 107.5 L 806.0166625976562 107.5" stroke-opacity="1" stroke-linejoin="bevel" stroke-miterlimit="10" stroke-width="3" stroke-dasharray=""/><text fill="rgb(68,68,68)" stroke="none" font-family="helvetica" font-size="18px" font-style="normal" font-weight="normal" text-decoration="normal" x="810.5166625976562" y="131.5" text-anchor="start" dominant-baseline="central" transform="matrix(1, 0, 0, 1, 0.5, 0.5)" fill-opacity="1">No Transmission Policy - Shared Evenly</text><path fill="none" stroke="rgb(44,160,44)" paint-order="fill" d="M 786.0166625976562 131.5 L 806.0166625976562 131.5" stroke-opacity="1" stroke-linejoin="bevel" stroke-miterlimit="10" stroke-width="3" stroke-dasharray=""/><text fill="rgb(68,68,68)" stroke="none" font-family="helvetica" font-size="18px" font-style="normal" font-weight="normal" text-decoration="normal" x="810.5166625976562" y="155.5" text-anchor="start" dominant-baseline="central" transform="matrix(1, 0, 0, 1, 0.5, 0.5)" fill-opacity="1">Cheapest Users - Shared Evenly</text><path fill="none" stroke="rgb(152,223,138)" paint-order="fill" d="M 786.0166625976562 155.5 L 806.0166625976562 155.5" stroke-opacity="1" stroke-linejoin="bevel" stroke-miterlimit="10" stroke-width="3" stroke-dasharray=""/><text fill="rgb(68,68,68)" stroke="none" font-family="helvetica" font-size="18px" font-style="normal" font-weight="normal" text-decoration="normal" x="810.5166625976562" y="179.5" text-anchor="start" dominant-baseline="central" transform="matrix(1, 0, 0, 1, 0.5, 0.5)" fill-opacity="1">No Transmission Policy - AP Energy Arrival</text><path fill="none" stroke="rgb(214,39,40)" paint-order="fill" d="M 786.0166625976562 179.5 L 806.0166625976562 179.5" stroke-opacity="1" stroke-linejoin="bevel" stroke-miterlimit="10" stroke-width="3" stroke-dasharray=""/><text fill="rgb(68,68,68)" stroke="none" font-family="helvetica" font-size="18px" font-style="normal" font-weight="normal" text-decoration="normal" x="810.5166625976562" y="203.5" text-anchor="start" dominant-baseline="central" transform="matrix(1, 0, 0, 1, 0.5, 0.5)" fill-opacity="1">Cheapest Users - AP Energy Arrival</text><path fill="none" stroke="rgb(255,152,150)" paint-order="fill" d="M 786.0166625976562 203.5 L 806.0166625976562 203.5" stroke-opacity="1" stroke-linejoin="bevel" stroke-miterlimit="10" stroke-width="3" stroke-dasharray=""/><text fill="rgb(68,68,68)" stroke="none" font-family="helvetica" font-size="18px" font-style="normal" font-weight="normal" text-decoration="normal" x="810.5166625976562" y="227.5" text-anchor="start" dominant-baseline="central" transform="matrix(1, 0, 0, 1, 0.5, 0.5)" fill-opacity="1">No Transmission Policy - AP Energy Use</text><path fill="none" stroke="rgb(148,103,189)" paint-order="fill" d="M 786.0166625976562 227.5 L 806.0166625976562 227.5" stroke-opacity="1" stroke-linejoin="bevel" stroke-miterlimit="10" stroke-width="3" stroke-dasharray=""/><text fill="rgb(68,68,68)" stroke="none" font-family="helvetica" font-size="18px" font-style="normal" font-weight="normal" text-decoration="normal" x="810.5166625976562" y="251.5" text-anchor="start" dominant-baseline="central" transform="matrix(1, 0, 0, 1, 0.5, 0.5)" fill-opacity="1">Cheapest Users - AP Energy Use</text><path fill="none" stroke="rgb(197,176,213)" paint-order="fill" d="M 786.0166625976562 251.5 L 806.0166625976562 251.5" stroke-opacity="1" stroke-linejoin="bevel" stroke-miterlimit="10" stroke-width="3" stroke-dasharray=""/><text fill="rgb(68,68,68)" stroke="none" font-family="helvetica" font-size="18px" font-style="normal" font-weight="normal" text-decoration="normal" x="810.5166625976562" y="275.5" text-anchor="start" dominant-baseline="central" transform="matrix(1, 0, 0, 1, 0.5, 0.5)" fill-opacity="1">No Transmission Policy - AP Energy Efficiency</text><path fill="none" stroke="rgb(140,86,75)" paint-order="fill" d="M 786.0166625976562 275.5 L 806.0166625976562 275.5" stroke-opacity="1" stroke-linejoin="bevel" stroke-miterlimit="10" stroke-width="3" stroke-dasharray=""/><text fill="rgb(68,68,68)" stroke="none" font-family="helvetica" font-size="18px" font-style="normal" font-weight="normal" text-decoration="normal" x="810.5166625976562" y="299.5" text-anchor="start" dominant-baseline="central" transform="matrix(1, 0, 0, 1, 0.5, 0.5)" fill-opacity="1">Cheapest Users - AP Energy Efficiency</text><path fill="none" stroke="rgb(196,156,148)" paint-order="fill" d="M 786.0166625976562 299.5 L 806.0166625976562 299.5" stroke-opacity="1" stroke-linejoin="bevel" stroke-miterlimit="10" stroke-width="3" stroke-dasharray=""/><path fill="rgb(255,255,255)" stroke="rgb(229,229,229)" paint-order="fill" d="M 776.0166625976562 15.5 L 1190.5 15.5 L 1190.5 320.5 L 776.0166625976562 320.5 L 776.0166625976562 15.5" fill-opacity="0.9490196078431372" stroke-opacity="0.5019607843137255" stroke-linejoin="bevel" stroke-miterlimit="10" stroke-dasharray=""/><text fill="rgb(68,68,68)" stroke="none" font-family="helvetica" font-size="18px" font-style="normal" font-weight="normal" text-decoration="normal" x="810.5166625976562" y="35.5" text-anchor="start" dominant-baseline="central" transform="matrix(1, 0, 0, 1, 0.5, 0.5)" fill-opacity="1">No Policy - Epsilon Greedy</text><path fill="none" stroke="rgb(31,119,180)" paint-order="fill" d="M 786.0166625976562 35.5 L 806.0166625976562 35.5" stroke-opacity="1" stroke-linejoin="bevel" stroke-miterlimit="10" stroke-width="3" stroke-dasharray=""/><text fill="rgb(68,68,68)" stroke="none" font-family="helvetica" font-size="18px" font-style="normal" font-weight="normal" text-decoration="normal" x="810.5166625976562" y="59.5" text-anchor="start" dominant-baseline="central" transform="matrix(1, 0, 0, 1, 0.5, 0.5)" fill-opacity="1">Cheapest Users - Epsilon Greedy</text><path fill="none" stroke="rgb(174,199,232)" paint-order="fill" d="M 786.0166625976562 59.5 L 806.0166625976562 59.5" stroke-opacity="1" stroke-linejoin="bevel" stroke-miterlimit="10" stroke-width="3" stroke-dasharray=""/><text fill="rgb(68,68,68)" stroke="none" font-family="helvetica" font-size="18px" font-style="normal" font-weight="normal" text-decoration="normal" x="810.5166625976562" y="83.5" text-anchor="start" dominant-baseline="central" transform="matrix(1, 0, 0, 1, 0.5, 0.5)" fill-opacity="1">No Policy - UCB1</text><path fill="none" stroke="rgb(255,127,14)" paint-order="fill" d="M 786.0166625976562 83.5 L 806.0166625976562 83.5" stroke-opacity="1" stroke-linejoin="bevel" stroke-miterlimit="10" stroke-width="3" stroke-dasharray=""/><text fill="rgb(68,68,68)" stroke="none" font-family="helvetica" font-size="18px" font-style="normal" font-weight="normal" text-decoration="normal" x="810.5166625976562" y="107.5" text-anchor="start" dominant-baseline="central" transform="matrix(1, 0, 0, 1, 0.5, 0.5)" fill-opacity="1">Cheapest Users - UCB1</text><path fill="none" stroke="rgb(255,187,120)" paint-order="fill" d="M 786.0166625976562 107.5 L 806.0166625976562 107.5" stroke-opacity="1" stroke-linejoin="bevel" stroke-miterlimit="10" stroke-width="3" stroke-dasharray=""/><text fill="rgb(68,68,68)" stroke="none" font-family="helvetica" font-size="18px" font-style="normal" font-weight="normal" text-decoration="normal" x="810.5166625976562" y="131.5" text-anchor="start" dominant-baseline="central" transform="matrix(1, 0, 0, 1, 0.5, 0.5)" fill-opacity="1">No Transmission Policy - Shared Evenly</text><path fill="none" stroke="rgb(44,160,44)" paint-order="fill" d="M 786.0166625976562 131.5 L 806.0166625976562 131.5" stroke-opacity="1" stroke-linejoin="bevel" stroke-miterlimit="10" stroke-width="3" stroke-dasharray=""/><text fill="rgb(68,68,68)" stroke="none" font-family="helvetica" font-size="18px" font-style="normal" font-weight="normal" text-decoration="normal" x="810.5166625976562" y="155.5" text-anchor="start" dominant-baseline="central" transform="matrix(1, 0, 0, 1, 0.5, 0.5)" fill-opacity="1">Cheapest Users - Shared Evenly</text><path fill="none" stroke="rgb(152,223,138)" paint-order="fill" d="M 786.0166625976562 155.5 L 806.0166625976562 155.5" stroke-opacity="1" stroke-linejoin="bevel" stroke-miterlimit="10" stroke-width="3" stroke-dasharray=""/><text fill="rgb(68,68,68)" stroke="none" font-family="helvetica" font-size="18px" font-style="normal" font-weight="normal" text-decoration="normal" x="810.5166625976562" y="179.5" text-anchor="start" dominant-baseline="central" transform="matrix(1, 0, 0, 1, 0.5, 0.5)" fill-opacity="1">No Transmission Policy - AP Energy Arrival</text><path fill="none" stroke="rgb(214,39,40)" paint-order="fill" d="M 786.0166625976562 179.5 L 806.0166625976562 179.5" stroke-opacity="1" stroke-linejoin="bevel" stroke-miterlimit="10" stroke-width="3" stroke-dasharray=""/><text fill="rgb(68,68,68)" stroke="none" font-family="helvetica" font-size="18px" font-style="normal" font-weight="normal" text-decoration="normal" x="810.5166625976562" y="203.5" text-anchor="start" dominant-baseline="central" transform="matrix(1, 0, 0, 1, 0.5, 0.5)" fill-opacity="1">Cheapest Users - AP Energy Arrival</text><path fill="none" stroke="rgb(255,152,150)" paint-order="fill" d="M 786.0166625976562 203.5 L 806.0166625976562 203.5" stroke-opacity="1" stroke-linejoin="bevel" stroke-miterlimit="10" stroke-width="3" stroke-dasharray=""/><text fill="rgb(68,68,68)" stroke="none" font-family="helvetica" font-size="18px" font-style="normal" font-weight="normal" text-decoration="normal" x="810.5166625976562" y="227.5" text-anchor="start" dominant-baseline="central" transform="matrix(1, 0, 0, 1, 0.5, 0.5)" fill-opacity="1">No Transmission Policy - AP Energy Use</text><path fill="none" stroke="rgb(148,103,189)" paint-order="fill" d="M 786.0166625976562 227.5 L 806.0166625976562 227.5" stroke-opacity="1" stroke-linejoin="bevel" stroke-miterlimit="10" stroke-width="3" stroke-dasharray=""/><text fill="rgb(68,68,68)" stroke="none" font-family="helvetica" font-size="18px" font-style="normal" font-weight="normal" text-decoration="normal" x="810.5166625976562" y="251.5" text-anchor="start" dominant-baseline="central" transform="matrix(1, 0, 0, 1, 0.5, 0.5)" fill-opacity="1">Cheapest Users - AP Energy Use</text><path fill="none" stroke="rgb(197,176,213)" paint-order="fill" d="M 786.0166625976562 251.5 L 806.0166625976562 251.5" stroke-opacity="1" stroke-linejoin="bevel" stroke-miterlimit="10" stroke-width="3" stroke-dasharray=""/><text fill="rgb(68,68,68)" stroke="none" font-family="helvetica" font-size="18px" font-style="normal" font-weight="normal" text-decoration="normal" x="810.5166625976562" y="275.5" text-anchor="start" dominant-baseline="central" transform="matrix(1, 0, 0, 1, 0.5, 0.5)" fill-opacity="1">No Transmission Policy - AP Energy Efficiency</text><path fill="none" stroke="rgb(140,86,75)" paint-order="fill" d="M 786.0166625976562 275.5 L 806.0166625976562 275.5" stroke-opacity="1" stroke-linejoin="bevel" stroke-miterlimit="10" stroke-width="3" stroke-dasharray=""/><text fill="rgb(68,68,68)" stroke="none" font-family="helvetica" font-size="18px" font-style="normal" font-weight="normal" text-decoration="normal" x="810.5166625976562" y="299.5" text-anchor="start" dominant-baseline="central" transform="matrix(1, 0, 0, 1, 0.5, 0.5)" fill-opacity="1">Cheapest Users - AP Energy Efficiency</text><path fill="none" stroke="rgb(196,156,148)" paint-order="fill" d="M 786.0166625976562 299.5 L 806.0166625976562 299.5" stroke-opacity="1" stroke-linejoin="bevel" stroke-miterlimit="10" stroke-width="3" stroke-dasharray=""/></svg>