<svg version="1.1" xmlns="http://www.w3.org/2000/svg" width="1200" height="800"><defs><clipPath id="duaTfblikWrw"><path fill="none" stroke="none" d="M 102.5 5.5 L 876.5 5.5 L 876.5 739.5 L 102.5 739.5 L 102.5 5.5"/></clipPath><clipPath id="sIRfiQTELpVn"><path fill="none" stroke="none" d="M 102.5 5.5 L 876.5 5.5 L 876.5 739.5 L 102.5 739.5 L 102.5 5.5"/></clipPath><clipPath id="oDmLSfKCXHHR"><path fill="none" stroke="none" d="M 102.5 5.5 L 876.5 5.5 L 876.5 739.5 L 102.5 739.5 L 102.5 5.5"/></clipPath><clipPath id="pPgcHomHkZyl"><path fill="none" stroke="none" d="M 102.5 5.5 L 876.5 5.5 L 876.5 739.5 L 102.5 739.5 L 102.5 5.5"/></clipPath><clipPath id="rrxMumHwhuyU"><path fill="none" stroke="none" d="M 102.5 5.5 L 876.5 5.5 L 876.5 739.5 L 102.5 739.5 L 102.5 5.5"/></clipPath><clipPath id="fLrfXSBPUPPC"><path fill="none" stroke="none" d="M 102.5 5.5 L 876.5 5.5 L 876.5 739.5 L 102.5 739.5 L 102.5 5.5"/></clipPath><clipPath id="LyNvdQttioPS"><path fill="none" stroke="none" d="M 102.5 5.5 L 876.5 5.5 L 876.5 739.5 L 102.5 739.5 L 102.5 5.5"/></clipPath><clipPath id="LfoAhLzBOwbP"><path fill="none" stroke="none" d="M 102.5 5.5 L 876.5 5.5 L 876.5 739.5 L 102.5 739.5 L 102.5 5.5"/></clipPath></defs><path fill="rgb(255,255,255)" stroke="none" paint-order="stroke" d="M 0.5 0.5 L 1200.5 0.5 L 1200.5 800.5 L 0.5 800.5 L 0.5 0.5" fill-opacity="1"/><rect fill="#FFFFFF" stroke="none" x="102" y="5" width="774" height="734" transform="matrix(1, 0, 0, 1, 0.5, 0.5)"/><path fill="rgb(255,255,255)" stroke="none" paint-order="stroke" d="M 102.5 5.5 L 876.5 5.5 L 876.5 739.5 L 102.5 739.5 L 102.5 5.5" fill-opacity="1"/><path fill="none" stroke="rgb(229,229,229)" paint-order="fill" d="M 102.5 5.5 L 876.5 5.5 L 876.5 739.5 L 102.5 739.5 L 102.5 5.5" stroke-opacity="1" stroke-linejoin="bevel" stroke-miterlimit="10" stroke-dasharray=""/><path fill="none" stroke="rgb(229,229,229)" paint-order="fill" d="M 120.5 739.5 L 120.5 5.5 M 296.5 739.5 L 296.5 5.5 M 471.5 739.5 L 471.5 5.5 M 647.5 739.5 L 647.5 5.5 M 823.5 739.5 L 823.5 5.5" stroke-opacity="1" stroke-linejoin="bevel" stroke-miterlimit="10" stroke-dasharray="" clip-path="url(#duaTfblikWrw)"/><path fill="none" stroke="rgb(229,229,229)" paint-order="fill" d="M 102.5 648.5 L 876.5 648.5 M 102.5 536.5 L 876.5 536.5 M 102.5 425.5 L 876.5 425.5 M 102.5 313.5 L 876.5 313.5 M 102.5 202.5 L 876.5 202.5 M 102.5 90.5 L 876.5 90.5" stroke-opacity="1" stroke-linejoin="bevel" stroke-miterlimit="10" stroke-dasharray="" clip-path="url(#sIRfiQTELpVn)"/><path fill="none" stroke="rgb(31,119,180)" paint-order="fill" d="M 137.68182373046875 244.407958984375 L 489.5 294.2664794921875 L 841.3181762695312 438.45721435546875" stroke-opacity="1" stroke-linejoin="bevel" stroke-miterlimit="10" stroke-width="3" stroke-dasharray="" clip-path="url(#oDmLSfKCXHHR)"/><path fill="none" stroke="rgb(255,127,14)" paint-order="fill" d="M 137.68182373046875 38.8636360168457 L 489.5 211.54095458984375 L 841.3181762695312 484.74444580078125" stroke-opacity="1" stroke-linejoin="bevel" stroke-miterlimit="10" stroke-width="3" stroke-dasharray="" clip-path="url(#pPgcHomHkZyl)"/><path fill="none" stroke="rgb(44,160,44)" paint-order="fill" d="M 137.68182373046875 120.75214385986328 L 489.5 335.2247009277344 L 841.3181762695312 689.5354614257812" stroke-opacity="1" stroke-linejoin="bevel" stroke-miterlimit="10" stroke-width="3" stroke-dasharray="" clip-path="url(#rrxMumHwhuyU)"/><path fill="none" stroke="rgb(214,39,40)" paint-order="fill" d="M 137.68182373046875 52.20016098022461 L 489.5 356.62451171875 L 841.3181762695312 706.1363525390625" stroke-opacity="1" stroke-linejoin="bevel" stroke-miterlimit="10" stroke-width="3" stroke-dasharray="" clip-path="url(#fLrfXSBPUPPC)"/><path fill="none" stroke="rgb(148,103,189)" paint-order="fill" d="M 137.68182373046875 73.23727416992188 L 489.5 398.001220703125 L 841.3181762695312 586.3029174804688" stroke-opacity="1" stroke-linejoin="bevel" stroke-miterlimit="10" stroke-width="3" stroke-dasharray="" clip-path="url(#LyNvdQttioPS)"/><path fill="none" stroke="rgb(0,0,0)" paint-order="fill" d="M 102.5 739.5 L 876.5 739.5" stroke-opacity="1" stroke-linejoin="bevel" stroke-miterlimit="10" stroke-dasharray=""/><path fill="none" stroke="rgb(0,0,0)" paint-order="fill" d="M 120.5 745.5 L 120.5 737.5 M 296.5 745.5 L 296.5 737.5 M 471.5 745.5 L 471.5 737.5 M 647.5 745.5 L 647.5 737.5 M 823.5 745.5 L 823.5 737.5" stroke-opacity="1" stroke-linejoin="bevel" stroke-miterlimit="10" stroke-dasharray=""/><path fill="none" stroke="rgb(0,0,0)" paint-order="fill" d="M 120.5 743.5 L 120.5 739.5 M 155.5 743.5 L 155.5 739.5 M 190.5 743.5 L 190.5 739.5 M 225.5 743.5 L 225.5 739.5 M 260.5 743.5 L 260.5 739.5 M 296.5 743.5 L 296.5 739.5 M 331.5 743.5 L 331.5 739.5 M 366.5 743.5 L 366.5 739.5 M 401.5 743.5 L 401.5 739.5 M 436.5 743.5 L 436.5 739.5 M 471.5 743.5 L 471.5 739.5 M 507.5 743.5 L 507.5 739.5 M 542.5 743.5 L 542.5 739.5 M 577.5 743.5 L 577.5 739.5 M 612.5 743.5 L 612.5 739.5 M 647.5 743.5 L 647.5 739.5 M 683.5 743.5 L 683.5 739.5 M 718.5 743.5 L 718.5 739.5 M 753.5 743.5 L 753.5 739.5 M 788.5 743.5 L 788.5 739.5 M 823.5 743.5 L 823.5 739.5 M 858.5 743.5 L 858.5 739.5" stroke-opacity="1" stroke-linejoin="bevel" stroke-miterlimit="10" stroke-dasharray=""/><text fill="rgb(68,68,68)" stroke="none" font-family="helvetica" font-size="20px" font-style="normal" font-weight="normal" text-decoration="normal" x="114.03257846832275" y="765" text-anchor="start" dominant-baseline="alphabetic" transform="matrix(1, 0, 0, 1, 0.5, 0.5)" fill-opacity="1">0</text><text fill="rgb(68,68,68)" stroke="none" font-family="helvetica" font-size="20px" font-style="normal" font-weight="normal" text-decoration="normal" x="281.6000003814697" y="765" text-anchor="start" dominant-baseline="alphabetic" transform="matrix(1, 0, 0, 1, 0.5, 0.5)" fill-opacity="1">0.1</text><text fill="rgb(68,68,68)" stroke="none" font-family="helvetica" font-size="20px" font-style="normal" font-weight="normal" text-decoration="normal" x="457.50908851623535" y="765" text-anchor="start" dominant-baseline="alphabetic" transform="matrix(1, 0, 0, 1, 0.5, 0.5)" fill-opacity="1">0.2</text><text fill="rgb(68,68,68)" stroke="none" font-family="helvetica" font-size="20px" font-style="normal" font-weight="normal" text-decoration="normal" x="633.418176651001" y="765" text-anchor="start" dominant-baseline="alphabetic" transform="matrix(1, 0, 0, 1, 0.5, 0.5)" fill-opacity="1">0.3</text><text fill="rgb(68,68,68)" stroke="none" font-family="helvetica" font-size="20px" font-style="normal" font-weight="normal" text-decoration="normal" x="809.3272953033447" y="765" text-anchor="start" dominant-baseline="alphabetic" transform="matrix(1, 0, 0, 1, 0.5, 0.5)" fill-opacity="1">0.4</text><text fill="rgb(68,68,68)" stroke="none" font-family="helvetica" font-size="20px" font-style="italic" font-weight="normal" text-decoration="normal" x="456.2249984741211" y="793" text-anchor="start" dominant-baseline="alphabetic" transform="matrix(1, 0, 0, 1, 0.5, 0.5)" fill-opacity="1">Epsilon</text><path fill="none" stroke="rgb(0,0,0)" paint-order="fill" d="M 102.5 739.5 L 102.5 5.5" stroke-opacity="1" stroke-linejoin="bevel" stroke-miterlimit="10" stroke-dasharray=""/><path fill="none" stroke="rgb(0,0,0)" paint-order="fill" d="M 96.5 648.5 L 104.5 648.5 M 96.5 536.5 L 104.5 536.5 M 96.5 425.5 L 104.5 425.5 M 96.5 313.5 L 104.5 313.5 M 96.5 202.5 L 104.5 202.5 M 96.5 90.5 L 104.5 90.5" stroke-opacity="1" stroke-linejoin="bevel" stroke-miterlimit="10" stroke-dasharray=""/><path fill="none" stroke="rgb(0,0,0)" paint-order="fill" d="M 98.5 670.5 L 102.5 670.5 M 98.5 693.5 L 102.5 693.5 M 98.5 715.5 L 102.5 715.5 M 98.5 737.5 L 102.5 737.5 M 98.5 648.5 L 102.5 648.5 M 98.5 626.5 L 102.5 626.5 M 98.5 603.5 L 102.5 603.5 M 98.5 581.5 L 102.5 581.5 M 98.5 559.5 L 102.5 559.5 M 98.5 536.5 L 102.5 536.5 M 98.5 514.5 L 102.5 514.5 M 98.5 492.5 L 102.5 492.5 M 98.5 469.5 L 102.5 469.5 M 98.5 447.5 L 102.5 447.5 M 98.5 425.5 L 102.5 425.5 M 98.5 403.5 L 102.5 403.5 M 98.5 380.5 L 102.5 380.5 M 98.5 358.5 L 102.5 358.5 M 98.5 336.5 L 102.5 336.5 M 98.5 313.5 L 102.5 313.5 M 98.5 291.5 L 102.5 291.5 M 98.5 269.5 L 102.5 269.5 M 98.5 246.5 L 102.5 246.5 M 98.5 224.5 L 102.5 224.5 M 98.5 202.5 L 102.5 202.5 M 98.5 179.5 L 102.5 179.5 M 98.5 157.5 L 102.5 157.5 M 98.5 135.5 L 102.5 135.5 M 98.5 112.5 L 102.5 112.5 M 98.5 90.5 L 102.5 90.5 M 98.5 68.5 L 102.5 68.5 M 98.5 45.5 L 102.5 45.5 M 98.5 23.5 L 102.5 23.5" stroke-opacity="1" stroke-linejoin="bevel" stroke-miterlimit="10" stroke-dasharray=""/><text fill="rgb(68,68,68)" stroke="none" font-family="helvetica" font-size="20px" font-style="normal" font-weight="normal" text-decoration="normal" x="35.41666793823242" y="655.5493774414062" text-anchor="start" dominant-baseline="alphabetic" transform="matrix(1, 0, 0, 1, 0.5, 0.5)" fill-opacity="1">22000</text><text fill="rgb(68,68,68)" stroke="none" font-family="helvetica" font-size="20px" font-style="normal" font-weight="normal" text-decoration="normal" x="35.41666793823242" y="543.9465942382812" text-anchor="start" dominant-baseline="alphabetic" transform="matrix(1, 0, 0, 1, 0.5, 0.5)" fill-opacity="1">24000</text><text fill="rgb(68,68,68)" stroke="none" font-family="helvetica" font-size="20px" font-style="normal" font-weight="normal" text-decoration="normal" x="35.41666793823242" y="432.3439025878906" text-anchor="start" dominant-baseline="alphabetic" transform="matrix(1, 0, 0, 1, 0.5, 0.5)" fill-opacity="1">26000</text><text fill="rgb(68,68,68)" stroke="none" font-family="helvetica" font-size="20px" font-style="normal" font-weight="normal" text-decoration="normal" x="35.41666793823242" y="320.74114990234375" text-anchor="start" dominant-baseline="alphabetic" transform="matrix(1, 0, 0, 1, 0.5, 0.5)" fill-opacity="1">28000</text><text fill="rgb(68,68,68)" stroke="none" font-family="helvetica" font-size="20px" font-style="normal" font-weight="normal" text-decoration="normal" x="35.41666793823242" y="209.138427734375" text-anchor="start" dominant-baseline="alphabetic" transform="matrix(1, 0, 0, 1, 0.5, 0.5)" fill-opacity="1">30000</text><text fill="rgb(68,68,68)" stroke="none" font-family="helvetica" font-size="20px" font-style="normal" font-weight="normal" text-decoration="normal" x="35.41666793823242" y="97.53569793701172" text-anchor="start" dominant-baseline="alphabetic" transform="matrix(1, 0, 0, 1, 0.5, 0.5)" fill-opacity="1">32000</text><text fill="rgb(68,68,68)" stroke="none" font-family="helvetica" font-size="20px" font-style="italic" font-weight="normal" text-decoration="normal" x="-113.84999465942383" y="368" text-anchor="start" dominant-baseline="alphabetic" transform="matrix(6.123233995736766e-17, -1, 1, 6.123233995736766e-17, -344.0833320617676, 399.9166679382324)" fill-opacity="1">Total Number of Serviced Users</text><path fill="rgb(255,255,255)" stroke="rgb(229,229,229)" paint-order="fill" d="M 886.5833435058594 15.5 L 1190.5 15.5 L 1190.5 152.5 L 886.5833435058594 152.5 L 886.5833435058594 15.5" fill-opacity="0.9490196078431372" stroke-opacity="0.5019607843137255" stroke-linejoin="bevel" stroke-miterlimit="10" stroke-dasharray=""/><text fill="rgb(68,68,68)" stroke="none" font-family="helvetica" font-size="18px" font-style="normal" font-weight="normal" text-decoration="normal" x="921.0833435058594" y="35.5" text-anchor="start" dominant-baseline="central" transform="matrix(1, 0, 0, 1, 0.5, 0.5)" fill-opacity="1">Epsilon Greedy - Budget @ 0.01</text><path fill="none" stroke="rgb(31,119,180)" paint-order="fill" d="M 896.5833435058594 35.5 L 916.5833435058594 35.5" stroke-opacity="1" stroke-linejoin="bevel" stroke-miterlimit="10" stroke-width="3" stroke-dasharray=""/><text fill="rgb(68,68,68)" stroke="none" font-family="helvetica" font-size="18px" font-style="normal" font-weight="normal" text-decoration="normal" x="921.0833435058594" y="59.5" text-anchor="start" dominant-baseline="central" transform="matrix(1, 0, 0, 1, 0.5, 0.5)" fill-opacity="1">Epsilon Greedy - Budget @ 0.1</text><path fill="none" stroke="rgb(255,127,14)" paint-order="fill" d="M 896.5833435058594 59.5 L 916.5833435058594 59.5" stroke-opacity="1" stroke-linejoin="bevel" stroke-miterlimit="10" stroke-width="3" stroke-dasharray=""/><text fill="rgb(68,68,68)" stroke="none" font-family="helvetica" font-size="18px" font-style="normal" font-weight="normal" text-decoration="normal" x="921.0833435058594" y="83.5" text-anchor="start" dominant-baseline="central" transform="matrix(1, 0, 0, 1, 0.5, 0.5)" fill-opacity="1">Epsilon Greedy - Budget @ 0.3</text><path fill="none" stroke="rgb(44,160,44)" paint-order="fill" d="M 896.5833435058594 83.5 L 916.5833435058594 83.5" stroke-opacity="1" stroke-linejoin="bevel" stroke-miterlimit="10" stroke-width="3" stroke-dasharray=""/><text fill="rgb(68,68,68)" stroke="none" font-family="helvetica" font-size="18px" font-style="normal" font-weight="normal" text-decoration="normal" x="921.0833435058594" y="107.5" text-anchor="start" dominant-baseline="central" transform="matrix(1, 0, 0, 1, 0.5, 0.5)" fill-opacity="1">Epsilon Greedy - Budget @ 0.6</text><path fill="none" stroke="rgb(214,39,40)" paint-order="fill" d="M 896.5833435058594 107.5 L 916.5833435058594 107.5" stroke-opacity="1" stroke-linejoin="bevel" stroke-miterlimit="10" stroke-width="3" stroke-dasharray=""/><text fill="rgb(68,68,68)" stroke="none" font-family="helvetica" font-size="18px" font-style="normal" font-weight="normal" text-decoration="normal" x="921.0833435058594" y="131.5" text-anchor="start" dominant-baseline="central" transform="matrix(1, 0, 0, 1, 0.5, 0.5)" fill-opacity="1">Epsilon Greedy - Budget @ 0.9</text><path fill="none" stroke="rgb(148,103,189)" paint-order="fill" d="M 896.5833435058594 131.5 L 916.5833435058594 131.5" stroke-opacity="1" stroke-linejoin="bevel" stroke-miterlimit="10" stroke-width="3" stroke-dasharray=""/><path fill="rgb(255,255,255)" stroke="rgb(229,229,229)" paint-order="fill" d="M 886.5833435058594 15.5 L 1190.5 15.5 L 1190.5 152.5 L 886.5833435058594 152.5 L 886.5833435058594 15.5" fill-opacity="0.9490196078431372" stroke-opacity="0.5019607843137255" stroke-linejoin="bevel" stroke-miterlimit="10" stroke-dasharray=""/><text fill="rgb(68,68,68)" stroke="none" font-family="helvetica" font-size="18px" font-style="normal" font-weight="normal" text-decoration="normal" x="921.0833435058594" y="35.5" text-anchor="start" dominant-baseline="central" transform="matrix(1, 0, 0, 1, 0.5, 0.5)" fill-opacity="1">Epsilon Greedy - Budget @ 0.01</text><path fill="none" stroke="rgb(31,119,180)" paint-order="fill" d="M 896.5833435058594 35.5 L 916.5833435058594 35.5" stroke-opacity="1" stroke-linejoin="bevel" stroke-miterlimit="10" stroke-width="3" stroke-dasharray=""/><text fill="rgb(68,68,68)" stroke="none" font-family="helvetica" font-size="18px" font-style="normal" font-weight="normal" text-decoration="normal" x="921.0833435058594" y="59.5" text-anchor="start" dominant-baseline="central" transform="matrix(1, 0, 0, 1, 0.5, 0.5)" fill-opacity="1">Epsilon Greedy - Budget @ 0.1</text><path fill="none" stroke="rgb(255,127,14)" paint-order="fill" d="M 896.5833435058594 59.5 L 916.5833435058594 59.5" stroke-opacity="1" stroke-linejoin="bevel" stroke-miterlimit="10" stroke-width="3" stroke-dasharray=""/><text fill="rgb(68,68,68)" stroke="none" font-family="helvetica" font-size="18px" font-style="normal" font-weight="normal" text-decoration="normal" x="921.0833435058594" y="83.5" text-anchor="start" dominant-baseline="central" transform="matrix(1, 0, 0, 1, 0.5, 0.5)" fill-opacity="1">Epsilon Greedy - Budget @ 0.3</text><path fill="none" stroke="rgb(44,160,44)" paint-order="fill" d="M 896.5833435058594 83.5 L 916.5833435058594 83.5" stroke-opacity="1" stroke-linejoin="bevel" stroke-miterlimit="10" stroke-width="3" stroke-dasharray=""/><text fill="rgb(68,68,68)" stroke="none" font-family="helvetica" font-size="18px" font-style="normal" font-weight="normal" text-decoration="normal" x="921.0833435058594" y="107.5" text-anchor="start" dominant-baseline="central" transform="matrix(1, 0, 0, 1, 0.5, 0.5)" fill-opacity="1">Epsilon Greedy - Budget @ 0.6</text><path fill="none" stroke="rgb(214,39,40)" paint-order="fill" d="M 896.5833435058594 107.5 L 916.5833435058594 107.5" stroke-opacity="1" stroke-linejoin="bevel" stroke-miterlimit="10" stroke-width="3" stroke-dasharray=""/><text fill="rgb(68,68,68)" stroke="none" font-family="helvetica" font-size="18px" font-style="normal" font-weight="normal" text-decoration="normal" x="921.0833435058594" y="131.5" text-anchor="start" dominant-baseline="central" transform="matrix(1, 0, 0, 1, 0.5, 0.5)" fill-opacity="1">Epsilon Greedy - Budget @ 0.9</text><path fill="none" stroke="rgb(148,103,189)" paint-order="fill" d="M 896.5833435058594 131.5 L 916.5833435058594 131.5" stroke-opacity="1" stroke-linejoin="bevel" stroke-miterlimit="10" stroke-width="3" stroke-dasharray=""/></svg>