<svg version="1.1" xmlns="http://www.w3.org/2000/svg" width="1200" height="800"><defs><clipPath id="RUqFWCidXTSd"><path fill="none" stroke="none" d="M 102.5 5.5 L 653.5 5.5 L 653.5 739.5 L 102.5 739.5 L 102.5 5.5"/></clipPath><clipPath id="JNradVRJKQsH"><path fill="none" stroke="none" d="M 102.5 5.5 L 653.5 5.5 L 653.5 739.5 L 102.5 739.5 L 102.5 5.5"/></clipPath><clipPath id="gXNENJzqkDos"><path fill="none" stroke="none" d="M 102.5 5.5 L 653.5 5.5 L 653.5 739.5 L 102.5 739.5 L 102.5 5.5"/></clipPath><clipPath id="ELTGlrJPmics"><path fill="none" stroke="none" d="M 102.5 5.5 L 653.5 5.5 L 653.5 739.5 L 102.5 739.5 L 102.5 5.5"/></clipPath><clipPath id="IMUgrxPaezNe"><path fill="none" stroke="none" d="M 102.5 5.5 L 653.5 5.5 L 653.5 739.5 L 102.5 739.5 L 102.5 5.5"/></clipPath><clipPath id="NsxJHPKqSEUX"><path fill="none" stroke="none" d="M 102.5 5.5 L 653.5 5.5 L 653.5 739.5 L 102.5 739.5 L 102.5 5.5"/></clipPath><clipPath id="uJcOOfDvzwEG"><path fill="none" stroke="none" d="M 102.5 5.5 L 653.5 5.5 L 653.5 739.5 L 102.5 739.5 L 102.5 5.5"/></clipPath><clipPath id="rowCagEIVtmU"><path fill="none" stroke="none" d="M 102.5 5.5 L 653.5 5.5 L 653.5 739.5 L 102.5 739.5 L 102.5 5.5"/></clipPath><clipPath id="EgXxWPxDOBad"><path fill="none" stroke="none" d="M 102.5 5.5 L 653.5 5.5 L 653.5 739.5 L 102.5 739.5 L 102.5 5.5"/></clipPath><clipPath id="XdsLhKiihmxZ"><path fill="none" stroke="none" d="M 102.5 5.5 L 653.5 5.5 L 653.5 739.5 L 102.5 739.5 L 102.5 5.5"/></clipPath><clipPath id="xROUbJCXILER"><path fill="none" stroke="none" d="M 102.5 5.5 L 653.5 5.5 L 653.5 739.5 L 102.5 739.5 L 102.5 5.5"/></clipPath><clipPath id="UTguXwTlqxoy"><path fill="none" stroke="none" d="M 102.5 5.5 L 653.5 5.5 L 653.5 739.5 L 102.5 739.5 L 102.5 5.5"/></clipPath><clipPath id="gazpDJDGSaMo"><path fill="none" stroke="none" d="M 102.5 5.5 L 653.5 5.5 L 653.5 739.5 L 102.5 739.5 L 102.5 5.5"/></clipPath><clipPath id="SyLJxLAGdyqq"><path fill="none" stroke="none" d="M 102.5 5.5 L 653.5 5.5 L 653.5 739.5 L 102.5 739.5 L 102.5 5.5"/></clipPath><clipPath id="RlHzNrhexoTt"><path fill="none" stroke="none" d="M 102.5 5.5 L 653.5 5.5 L 653.5 739.5 L 102.5 739.5 L 102.5 5.5"/></clipPath><clipPath id="wUfPitLQDfIt"><path fill="none" stroke="none" d="M 102.5 5.5 L 653.5 5.5 L 653.5 739.5 L 102.5 739.5 L 102.5 5.5"/></clipPath><clipPath id="SJGycmdKHVAX"><path fill="none" stroke="none" d="M 102.5 5.5 L 653.5 5.5 L 653.5 739.5 L 102.5 739.5 L 102.5 5.5"/></clipPath><clipPath id="ToJgyaAkISfq"><path fill="none" stroke="none" d="M 102.5 5.5 L 653.5 5.5 L 653.5 739.5 L 102.5 739.5 L 102.5 5.5"/></clipPath><clipPath id="yyvZrcimgsmq"><path fill="none" stroke="none" d="M 102.5 5.5 L 653.5 5.5 L 653.5 739.5 L 102.5 739.5 L 102.5 5.5"/></clipPath><clipPath id="ARDNToQTNapp"><path fill="none" stroke="none" d="M 102.5 5.5 L 653.5 5.5 L 653.5 739.5 L 102.5 739.5 L 102.5 5.5"/></clipPath><clipPath id="JcsMAeOrcVeg"><path fill="none" stroke="none" d="M 102.5 5.5 L 653.5 5.5 L 653.5 739.5 L 102.5 739.5 L 102.5 5.5"/></clipPath><clipPath id="xInEuoFJrQvv"><path fill="none" stroke="none" d="M 102.5 5.5 L 653.5 5.5 L 653.5 739.5 L 102.5 739.5 L 102.5 5.5"/></clipPath><clipPath id="TwNcXEJvShse"><path fill="none" stroke="none" d="M 102.5 5.5 L 653.5 5.5 L 653.5 739.5 L 102.5 739.5 L 102.5 5.5"/></clipPath><clipPath id="QEqOewbJdNTq"><path fill="none" stroke="none" d="M 102.5 5.5 L 653.5 5.5 L 653.5 739.5 L 102.5 739.5 L 102.5 5.5"/></clipPath><clipPath id="IXmslXoavcCP"><path fill="none" stroke="none" d="M 102.5 5.5 L 653.5 5.5 L 653.5 739.5 L 102.5 739.5 L 102.5 5.5"/></clipPath><clipPath id="XPfWUfuCxWWW"><path fill="none" stroke="none" d="M 102.5 5.5 L 653.5 5.5 L 653.5 739.5 L 102.5 739.5 L 102.5 5.5"/></clipPath><clipPath id="zowsSceVWrcZ"><path fill="none" stroke="none" d="M 102.5 5.5 L 653.5 5.5 L 653.5 739.5 L 102.5 739.5 L 102.5 5.5"/></clipPath></defs><path fill="rgb(255,255,255)" stroke="none" paint-order="stroke" d="M 0.5 0.5 L 1200.5 0.5 L 1200.5 800.5 L 0.5 800.5 L 0.5 0.5" fill-opacity="1"/><rect fill="#FFFFFF" stroke="none" x="102" y="5" width="551" height="734" transform="matrix(1, 0, 0, 1, 0.5, 0.5)"/><path fill="rgb(255,255,255)" stroke="none" paint-order="stroke" d="M 102.5 5.5 L 653.5 5.5 L 653.5 739.5 L 102.5 739.5 L 102.5 5.5" fill-opacity="1"/><path fill="none" stroke="rgb(229,229,229)" paint-order="fill" d="M 102.5 5.5 L 653.5 5.5 L 653.5 739.5 L 102.5 739.5 L 102.5 5.5" stroke-opacity="1" stroke-linejoin="bevel" stroke-miterlimit="10" stroke-dasharray=""/><path fill="none" stroke="rgb(229,229,229)" paint-order="fill" d="M 186.5 739.5 L 186.5 5.5 M 304.5 739.5 L 304.5 5.5 M 422.5 739.5 L 422.5 5.5 M 540.5 739.5 L 540.5 5.5" stroke-opacity="1" stroke-linejoin="bevel" stroke-miterlimit="10" stroke-dasharray="" clip-path="url(#RUqFWCidXTSd)"/><path fill="none" stroke="rgb(229,229,229)" paint-order="fill" d="M 102.5 680.5 L 653.5 680.5 M 102.5 543.5 L 653.5 543.5 M 102.5 406.5 L 653.5 406.5 M 102.5 270.5 L 653.5 270.5 M 102.5 133.5 L 653.5 133.5" stroke-opacity="1" stroke-linejoin="bevel" stroke-miterlimit="10" stroke-dasharray="" clip-path="url(#JNradVRJKQsH)"/><path fill="none" stroke="rgb(31,119,180)" paint-order="fill" d="M 127.54545593261719 44.95258712768555 L 157.0106964111328 44.95258712768555 L 186.47593688964844 44.95258712768555 L 215.94117736816406 44.95258712768555 L 245.4064178466797 44.95258712768555 L 274.87164306640625 44.95258712768555 L 304.3368835449219 44.95258712768555 L 333.8021240234375 44.95258712768555 L 363.2673645019531 44.95258712768555 L 392.7326354980469 44.95258712768555 L 422.1978759765625 44.95258712768555 L 451.6631164550781 44.95258712768555 L 481.12835693359375 44.95258712768555 L 510.5935974121094 44.95258712768555 L 540.058837890625 44.95258712768555 L 569.5240478515625 44.95258712768555 L 598.9893188476562 44.95258712768555 L 628.4545288085938 44.95258712768555" stroke-opacity="1" stroke-linejoin="bevel" stroke-miterlimit="10" stroke-width="3" stroke-dasharray="" clip-path="url(#gXNENJzqkDos)"/><path fill="none" stroke="rgb(174,199,232)" paint-order="fill" d="M 127.54545593261719 44.95258712768555 L 157.0106964111328 44.95258712768555 L 186.47593688964844 44.95258712768555 L 215.94117736816406 44.95258712768555 L 245.4064178466797 44.95258712768555 L 274.87164306640625 44.95258712768555 L 304.3368835449219 44.95258712768555 L 333.8021240234375 44.95258712768555 L 363.2673645019531 44.95258712768555 L 392.7326354980469 44.95258712768555 L 422.1978759765625 44.95258712768555 L 451.6631164550781 44.95258712768555 L 481.12835693359375 44.95258712768555 L 510.5935974121094 44.95258712768555 L 540.058837890625 44.95258712768555 L 569.5240478515625 44.95258712768555 L 598.9893188476562 44.95258712768555 L 628.4545288085938 44.95258712768555" stroke-opacity="1" stroke-linejoin="bevel" stroke-miterlimit="10" stroke-width="3" stroke-dasharray="" clip-path="url(#ELTGlrJPmics)"/><path fill="none" stroke="rgb(255,127,14)" paint-order="fill" d="M 127.54545593261719 38.8636360168457 L 157.0106964111328 38.8636360168457 L 186.47593688964844 38.8636360168457 L 215.94117736816406 38.8636360168457 L 245.4064178466797 38.8636360168457 L 274.87164306640625 38.8636360168457 L 304.3368835449219 38.8636360168457 L 333.8021240234375 38.8636360168457 L 363.2673645019531 38.8636360168457 L 392.7326354980469 38.8636360168457 L 422.1978759765625 38.8636360168457 L 451.6631164550781 38.8636360168457 L 481.12835693359375 38.8636360168457 L 510.5935974121094 38.8636360168457 L 540.058837890625 38.8636360168457 L 569.5240478515625 38.8636360168457 L 598.9893188476562 38.8636360168457 L 628.4545288085938 38.8636360168457" stroke-opacity="1" stroke-linejoin="bevel" stroke-miterlimit="10" stroke-width="3" stroke-dasharray="" clip-path="url(#IMUgrxPaezNe)"/><path fill="none" stroke="rgb(255,187,120)" paint-order="fill" d="M 127.54545593261719 38.8636360168457 L 157.0106964111328 38.8636360168457 L 186.47593688964844 38.8636360168457 L 215.94117736816406 38.8636360168457 L 245.4064178466797 38.8636360168457 L 274.87164306640625 38.8636360168457 L 304.3368835449219 38.8636360168457 L 333.8021240234375 38.8636360168457 L 363.2673645019531 38.8636360168457 L 392.7326354980469 38.8636360168457 L 422.1978759765625 38.8636360168457 L 451.6631164550781 38.8636360168457 L 481.12835693359375 38.8636360168457 L 510.5935974121094 38.8636360168457 L 540.058837890625 38.8636360168457 L 569.5240478515625 38.8636360168457 L 598.9893188476562 38.8636360168457 L 628.4545288085938 38.8636360168457" stroke-opacity="1" stroke-linejoin="bevel" stroke-miterlimit="10" stroke-width="3" stroke-dasharray="" clip-path="url(#NsxJHPKqSEUX)"/><path fill="none" stroke="rgb(44,160,44)" paint-order="fill" d="M 127.54545593261719 686.3267822265625 L 157.0106964111328 686.3267822265625 L 186.47593688964844 686.3267822265625 L 215.94117736816406 686.3267822265625 L 245.4064178466797 686.3267822265625 L 274.87164306640625 686.3267822265625 L 304.3368835449219 686.3267822265625 L 333.8021240234375 686.3267822265625 L 363.2673645019531 686.3267822265625 L 392.7326354980469 686.3267822265625 L 422.1978759765625 686.3267822265625 L 451.6631164550781 686.3267822265625 L 481.12835693359375 686.3267822265625 L 510.5935974121094 686.3267822265625 L 540.058837890625 686.3267822265625 L 569.5240478515625 686.3267822265625 L 598.9893188476562 686.3267822265625 L 628.4545288085938 686.3267822265625" stroke-opacity="1" stroke-linejoin="bevel" stroke-miterlimit="10" stroke-width="3" stroke-dasharray="" clip-path="url(#uJcOOfDvzwEG)"/><path fill="none" stroke="rgb(152,223,138)" paint-order="fill" d="M 127.54545593261719 679.545654296875 L 157.0106964111328 679.545654296875 L 186.47593688964844 679.545654296875 L 215.94117736816406 679.545654296875 L 245.4064178466797 679.545654296875 L 274.87164306640625 679.545654296875 L 304.3368835449219 679.545654296875 L 333.8021240234375 679.545654296875 L 363.2673645019531 679.545654296875 L 392.7326354980469 679.545654296875 L 422.1978759765625 679.545654296875 L 451.6631164550781 679.545654296875 L 481.12835693359375 679.545654296875 L 510.5935974121094 679.545654296875 L 540.058837890625 679.545654296875 L 569.5240478515625 679.545654296875 L 598.9893188476562 679.545654296875 L 628.4545288085938 679.545654296875" stroke-opacity="1" stroke-linejoin="bevel" stroke-miterlimit="10" stroke-width="3" stroke-dasharray="" clip-path="url(#rowCagEIVtmU)"/><path fill="none" stroke="rgb(214,39,40)" paint-order="fill" d="M 127.54545593261719 288.10931396484375 L 157.0106964111328 288.10931396484375 L 186.47593688964844 288.10931396484375 L 215.94117736816406 288.10931396484375 L 245.4064178466797 288.10931396484375 L 274.87164306640625 288.10931396484375 L 304.3368835449219 288.10931396484375 L 333.8021240234375 288.10931396484375 L 363.2673645019531 288.10931396484375 L 392.7326354980469 288.10931396484375 L 422.1978759765625 288.10931396484375 L 451.6631164550781 288.10931396484375 L 481.12835693359375 288.10931396484375 L 510.5935974121094 288.10931396484375 L 540.058837890625 288.10931396484375 L 569.5240478515625 288.10931396484375 L 598.9893188476562 288.10931396484375 L 628.4545288085938 288.10931396484375" stroke-opacity="1" stroke-linejoin="bevel" stroke-miterlimit="10" stroke-width="3" stroke-dasharray="" clip-path="url(#EgXxWPxDOBad)"/><path fill="none" stroke="rgb(255,152,150)" paint-order="fill" d="M 127.54545593261719 284.196533203125 L 157.0106964111328 284.196533203125 L 186.47593688964844 284.196533203125 L 215.94117736816406 284.196533203125 L 245.4064178466797 284.196533203125 L 274.87164306640625 284.196533203125 L 304.3368835449219 284.196533203125 L 333.8021240234375 284.196533203125 L 363.2673645019531 284.196533203125 L 392.7326354980469 284.196533203125 L 422.1978759765625 284.196533203125 L 451.6631164550781 284.196533203125 L 481.12835693359375 284.196533203125 L 510.5935974121094 284.196533203125 L 540.058837890625 284.196533203125 L 569.5240478515625 284.196533203125 L 598.9893188476562 284.196533203125 L 628.4545288085938 284.196533203125" stroke-opacity="1" stroke-linejoin="bevel" stroke-miterlimit="10" stroke-width="3" stroke-dasharray="" clip-path="url(#XdsLhKiihmxZ)"/><path fill="none" stroke="rgb(148,103,189)" paint-order="fill" d="M 127.54545593261719 130.51193237304688 L 157.0106964111328 130.51193237304688 L 186.47593688964844 130.51193237304688 L 215.94117736816406 130.51193237304688 L 245.4064178466797 130.51193237304688 L 274.87164306640625 130.51193237304688 L 304.3368835449219 130.51193237304688 L 333.8021240234375 130.51193237304688 L 363.2673645019531 130.51193237304688 L 392.7326354980469 130.51193237304688 L 422.1978759765625 130.51193237304688 L 451.6631164550781 130.51193237304688 L 481.12835693359375 130.51193237304688 L 510.5935974121094 130.51193237304688 L 540.058837890625 130.51193237304688 L 569.5240478515625 130.51193237304688 L 598.9893188476562 130.51193237304688 L 628.4545288085938 130.51193237304688" stroke-opacity="1" stroke-linejoin="bevel" stroke-miterlimit="10" stroke-width="3" stroke-dasharray="" clip-path="url(#xROUbJCXILER)"/><path fill="none" stroke="rgb(197,176,213)" paint-order="fill" d="M 127.54545593261719 130.51193237304688 L 157.0106964111328 130.51193237304688 L 186.47593688964844 130.51193237304688 L 215.94117736816406 130.51193237304688 L 245.4064178466797 130.51193237304688 L 274.87164306640625 130.51193237304688 L 304.3368835449219 130.51193237304688 L 333.8021240234375 130.51193237304688 L 363.2673645019531 130.51193237304688 L 392.7326354980469 130.51193237304688 L 422.1978759765625 130.51193237304688 L 451.6631164550781 130.51193237304688 L 481.12835693359375 130.51193237304688 L 510.5935974121094 130.51193237304688 L 540.058837890625 130.51193237304688 L 569.5240478515625 130.51193237304688 L 598.9893188476562 130.51193237304688 L 628.4545288085938 130.51193237304688" stroke-opacity="1" stroke-linejoin="bevel" stroke-miterlimit="10" stroke-width="3" stroke-dasharray="" clip-path="url(#UTguXwTlqxoy)"/><path fill="none" stroke="rgb(140,86,75)" paint-order="fill" d="M 127.54545593261719 113.29766845703125 L 157.0106964111328 113.29766845703125 L 186.47593688964844 113.29766845703125 L 215.94117736816406 113.29766845703125 L 245.4064178466797 113.29766845703125 L 274.87164306640625 113.29766845703125 L 304.3368835449219 113.29766845703125 L 333.8021240234375 113.29766845703125 L 363.2673645019531 113.29766845703125 L 392.7326354980469 113.29766845703125 L 422.1978759765625 113.29766845703125 L 451.6631164550781 113.29766845703125 L 481.12835693359375 113.29766845703125 L 510.5935974121094 113.29766845703125 L 540.058837890625 113.29766845703125 L 569.5240478515625 113.29766845703125 L 598.9893188476562 113.29766845703125 L 628.4545288085938 113.29766845703125" stroke-opacity="1" stroke-linejoin="bevel" stroke-miterlimit="10" stroke-width="3" stroke-dasharray="" clip-path="url(#gazpDJDGSaMo)"/><path fill="none" stroke="rgb(196,156,148)" paint-order="fill" d="M 127.54545593261719 113.71952056884766 L 157.0106964111328 113.71952056884766 L 186.47593688964844 113.71952056884766 L 215.94117736816406 113.71952056884766 L 245.4064178466797 113.71952056884766 L 274.87164306640625 113.71952056884766 L 304.3368835449219 113.71952056884766 L 333.8021240234375 113.71952056884766 L 363.2673645019531 113.71952056884766 L 392.7326354980469 113.71952056884766 L 422.1978759765625 113.71952056884766 L 451.6631164550781 113.71952056884766 L 481.12835693359375 113.71952056884766 L 510.5935974121094 113.71952056884766 L 540.058837890625 113.71952056884766 L 569.5240478515625 113.71952056884766 L 598.9893188476562 113.71952056884766 L 628.4545288085938 113.71952056884766" stroke-opacity="1" stroke-linejoin="bevel" stroke-miterlimit="10" stroke-width="3" stroke-dasharray="" clip-path="url(#SyLJxLAGdyqq)"/><path fill="none" stroke="rgb(31,119,180)" paint-order="fill" d="M 127.54545593261719 591.0060424804688 L 157.0106964111328 549.4619140625 L 186.47593688964844 505.50128173828125 L 215.94117736816406 488.3812255859375 L 245.4064178466797 440.1337890625 L 274.87164306640625 414.22161865234375 L 304.3368835449219 361.3869934082031 L 333.8021240234375 350.51971435546875 L 363.2673645019531 329.49505615234375 L 392.7326354980469 277.41131591796875 L 422.1978759765625 194.3094024658203 L 451.6631164550781 157.51629638671875 L 481.12835693359375 120.14978790283203 L 510.5935974121094 82.0146484375 L 540.058837890625 44.95258712768555 L 569.5240478515625 44.95258712768555 L 598.9893188476562 44.95258712768555 L 628.4545288085938 44.95258712768555" stroke-opacity="1" stroke-linejoin="bevel" stroke-miterlimit="10" stroke-width="3" stroke-dasharray="6" clip-path="url(#RlHzNrhexoTt)"/><path fill="none" stroke="rgb(174,199,232)" paint-order="fill" d="M 127.54545593261719 594.7767944335938 L 157.0106964111328 549.4619140625 L 186.47593688964844 505.50128173828125 L 215.94117736816406 488.3812255859375 L 245.4064178466797 440.1337890625 L 274.87164306640625 414.22161865234375 L 304.3368835449219 367.8581848144531 L 333.8021240234375 333.9593811035156 L 363.2673645019531 329.49505615234375 L 392.7326354980469 277.41131591796875 L 422.1978759765625 194.3094024658203 L 451.6631164550781 157.92041015625 L 481.12835693359375 120.14978790283203 L 510.5935974121094 81.58733367919922 L 540.058837890625 44.95258712768555 L 569.5240478515625 44.95258712768555 L 598.9893188476562 44.95258712768555 L 628.4545288085938 44.95258712768555" stroke-opacity="1" stroke-linejoin="bevel" stroke-miterlimit="10" stroke-width="3" stroke-dasharray="6" clip-path="url(#wUfPitLQDfIt)"/><path fill="none" stroke="rgb(255,127,14)" paint-order="fill" d="M 127.54545593261719 631.8074340820312 L 157.0106964111328 614.8539428710938 L 186.47593688964844 566.8140258789062 L 215.94117736816406 522.1981201171875 L 245.4064178466797 479.2614440917969 L 274.87164306640625 437.8538513183594 L 304.3368835449219 390.8897399902344 L 333.8021240234375 344.8648986816406 L 363.2673645019531 299.7602233886719 L 392.7326354980469 256.2774658203125 L 422.1978759765625 212.79469299316406 L 451.6631164550781 169.3119354248047 L 481.12835693359375 125.82917022705078 L 510.5935974121094 82.34640502929688 L 540.058837890625 38.8636360168457 L 569.5240478515625 38.8636360168457 L 598.9893188476562 38.8636360168457 L 628.4545288085938 38.8636360168457" stroke-opacity="1" stroke-linejoin="bevel" stroke-miterlimit="10" stroke-width="3" stroke-dasharray="6" clip-path="url(#SJGycmdKHVAX)"/><path fill="none" stroke="rgb(255,187,120)" paint-order="fill" d="M 127.54545593261719 631.8074340820312 L 157.0106964111328 614.8539428710938 L 186.47593688964844 566.8140258789062 L 215.94117736816406 522.1981201171875 L 245.4064178466797 478.9829406738281 L 274.87164306640625 437.8538513183594 L 304.3368835449219 390.639892578125 L 333.8021240234375 344.8648986816406 L 363.2673645019531 299.7602233886719 L 392.7326354980469 256.2774658203125 L 422.1978759765625 212.79469299316406 L 451.6631164550781 169.3119354248047 L 481.12835693359375 125.82917022705078 L 510.5935974121094 82.34640502929688 L 540.058837890625 38.8636360168457 L 569.5240478515625 38.8636360168457 L 598.9893188476562 38.8636360168457 L 628.4545288085938 38.8636360168457" stroke-opacity="1" stroke-linejoin="bevel" stroke-miterlimit="10" stroke-width="3" stroke-dasharray="6" clip-path="url(#ToJgyaAkISfq)"/><path fill="none" stroke="rgb(44,160,44)" paint-order="fill" d="M 127.54545593261719 706.1363525390625 L 157.0106964111328 697.3715209960938 L 186.47593688964844 696.1318969726562 L 215.94117736816406 696.303955078125 L 245.4064178466797 694.0922241210938 L 274.87164306640625 692.1932373046875 L 304.3368835449219 690.2914428710938 L 333.8021240234375 690.1221313476562 L 363.2673645019531 689.3139038085938 L 392.7326354980469 688.6531372070312 L 422.1978759765625 687.9978637695312 L 451.6631164550781 687.5609741210938 L 481.12835693359375 686.927490234375 L 510.5935974121094 686.7581787109375 L 540.058837890625 686.3267822265625 L 569.5240478515625 686.3759155273438 L 598.9893188476562 686.3759155273438 L 628.4545288085938 686.3759155273438" stroke-opacity="1" stroke-linejoin="bevel" stroke-miterlimit="10" stroke-width="3" stroke-dasharray="6" clip-path="url(#yyvZrcimgsmq)"/><path fill="none" stroke="rgb(152,223,138)" paint-order="fill" d="M 127.54545593261719 704.18408203125 L 157.0106964111328 695.3209838867188 L 186.47593688964844 693.2881469726562 L 215.94117736816406 691.378173828125 L 245.4064178466797 688.45654296875 L 274.87164306640625 687.2278442382812 L 304.3368835449219 685.816162109375 L 333.8021240234375 685.5376586914062 L 363.2673645019531 684.6229858398438 L 392.7326354980469 683.2809448242188 L 422.1978759765625 682.7471313476562 L 451.6631164550781 681.9389038085938 L 481.12835693359375 681.1552734375 L 510.5935974121094 680.4754028320312 L 540.058837890625 679.3231201171875 L 569.5240478515625 679.3231201171875 L 598.9893188476562 679.7681884765625 L 628.4545288085938 679.3231201171875" stroke-opacity="1" stroke-linejoin="bevel" stroke-miterlimit="10" stroke-width="3" stroke-dasharray="6" clip-path="url(#ARDNToQTNapp)"/><path fill="none" stroke="rgb(214,39,40)" paint-order="fill" d="M 127.54545593261719 669.6162719726562 L 157.0106964111328 640.9053955078125 L 186.47593688964844 612.6422729492188 L 215.94117736816406 582.6835327148438 L 245.4064178466797 553.0797729492188 L 274.87164306640625 527.392822265625 L 304.3368835449219 501.8479309082031 L 333.8021240234375 474.9527587890625 L 363.2673645019531 445.0076904296875 L 392.7326354980469 420.1685791015625 L 422.1978759765625 393.5123596191406 L 451.6631164550781 368.1203308105469 L 481.12835693359375 341.2661437988281 L 510.5935974121094 314.41192626953125 L 540.058837890625 288.10931396484375 L 569.5240478515625 288.10931396484375 L 598.9893188476562 288.10931396484375 L 628.4545288085938 284.196533203125" stroke-opacity="1" stroke-linejoin="bevel" stroke-miterlimit="10" stroke-width="3" stroke-dasharray="6" clip-path="url(#JcsMAeOrcVeg)"/><path fill="none" stroke="rgb(255,152,150)" paint-order="fill" d="M 127.54545593261719 670.3043823242188 L 157.0106964111328 640.113525390625 L 186.47593688964844 612.6422729492188 L 215.94117736816406 581.5722045898438 L 245.4064178466797 553.0797729492188 L 274.87164306640625 528.7376098632812 L 304.3368835449219 500.4321594238281 L 333.8021240234375 474.9527587890625 L 363.2673645019531 448.101318359375 L 392.7326354980469 420.1685791015625 L 422.1978759765625 393.5123596191406 L 451.6631164550781 365.0867614746094 L 481.12835693359375 341.2661437988281 L 510.5935974121094 312.78594970703125 L 540.058837890625 288.10931396484375 L 569.5240478515625 286.1529235839844 L 598.9893188476562 286.1529235839844 L 628.4545288085938 288.10931396484375" stroke-opacity="1" stroke-linejoin="bevel" stroke-miterlimit="10" stroke-width="3" stroke-dasharray="6" clip-path="url(#xInEuoFJrQvv)"/><path fill="none" stroke="rgb(148,103,189)" paint-order="fill" d="M 127.54545593261719 638.9885864257812 L 157.0106964111328 591.8115234375 L 186.47593688964844 550.3956909179688 L 215.94117736816406 509.48504638671875 L 245.4064178466797 469.2611083984375 L 274.87164306640625 435.0660400390625 L 304.3368835449219 401.1208190917969 L 333.8021240234375 367.0936584472656 L 363.2673645019531 333.2139587402344 L 392.7326354980469 299.62371826171875 L 422.1978759765625 265.7248840332031 L 451.6631164550781 231.82608032226562 L 481.12835693359375 199.16964721679688 L 510.5935974121094 165.33909606933594 L 540.058837890625 131.508544921875 L 569.5240478515625 130.51193237304688 L 598.9893188476562 131.508544921875 L 628.4545288085938 131.508544921875" stroke-opacity="1" stroke-linejoin="bevel" stroke-miterlimit="10" stroke-width="3" stroke-dasharray="6" clip-path="url(#TwNcXEJvShse)"/><path fill="none" stroke="rgb(197,176,213)" paint-order="fill" d="M 127.54545593261719 638.7346801757812 L 157.0106964111328 591.8115234375 L 186.47593688964844 550.3765869140625 L 215.94117736816406 509.48504638671875 L 245.4064178466797 469.2679138183594 L 274.87164306640625 435.07421875 L 304.3368835449219 401.153564453125 L 333.8021240234375 367.0936584472656 L 363.2673645019531 333.2139587402344 L 392.7326354980469 299.62371826171875 L 422.1978759765625 265.7248840332031 L 451.6631164550781 231.47113037109375 L 481.12835693359375 199.16964721679688 L 510.5935974121094 164.88856506347656 L 540.058837890625 130.51193237304688 L 569.5240478515625 130.51193237304688 L 598.9893188476562 130.51193237304688 L 628.4545288085938 131.01023864746094" stroke-opacity="1" stroke-linejoin="bevel" stroke-miterlimit="10" stroke-width="3" stroke-dasharray="6" clip-path="url(#QEqOewbJdNTq)"/><path fill="none" stroke="rgb(140,86,75)" paint-order="fill" d="M 127.54545593261719 637.4649658203125 L 157.0106964111328 596.1939086914062 L 186.47593688964844 557.5399780273438 L 215.94117736816406 519.609619140625 L 245.4064178466797 482.8738708496094 L 274.87164306640625 450.3921813964844 L 304.3368835449219 414.0086364746094 L 333.8021240234375 380.661376953125 L 363.2673645019531 345.65673828125 L 392.7326354980469 312.5661315917969 L 422.1978759765625 267.0082092285156 L 451.6631164550781 231.83291625976562 L 481.12835693359375 189.1160430908203 L 510.5935974121094 153.8028564453125 L 540.058837890625 113.71952056884766 L 569.5240478515625 112.87580871582031 L 598.9893188476562 113.29766845703125 L 628.4545288085938 112.87580871582031" stroke-opacity="1" stroke-linejoin="bevel" stroke-miterlimit="10" stroke-width="3" stroke-dasharray="6" clip-path="url(#IXmslXoavcCP)"/><path fill="none" stroke="rgb(196,156,148)" paint-order="fill" d="M 127.54545593261719 637.5496215820312 L 157.0106964111328 596.1557006835938 L 186.47593688964844 557.7680053710938 L 215.94117736816406 519.3133544921875 L 245.4064178466797 482.8765869140625 L 274.87164306640625 450.3143615722656 L 304.3368835449219 414.0086364746094 L 333.8021240234375 380.661376953125 L 363.2673645019531 345.3318176269531 L 392.7326354980469 312.94293212890625 L 422.1978759765625 267.7945861816406 L 451.6631164550781 231.83291625976562 L 481.12835693359375 188.6245574951172 L 510.5935974121094 153.1311492919922 L 540.058837890625 113.71952056884766 L 569.5240478515625 112.87580871582031 L 598.9893188476562 113.29766845703125 L 628.4545288085938 112.87580871582031" stroke-opacity="1" stroke-linejoin="bevel" stroke-miterlimit="10" stroke-width="3" stroke-dasharray="6" clip-path="url(#XPfWUfuCxWWW)"/><path fill="none" stroke="rgb(0,0,0)" paint-order="fill" d="M 102.5 739.5 L 653.5 739.5" stroke-opacity="1" stroke-linejoin="bevel" stroke-miterlimit="10" stroke-dasharray=""/><path fill="none" stroke="rgb(0,0,0)" paint-order="fill" d="M 186.5 745.5 L 186.5 737.5 M 304.5 745.5 L 304.5 737.5 M 422.5 745.5 L 422.5 737.5 M 540.5 745.5 L 540.5 737.5" stroke-opacity="1" stroke-linejoin="bevel" stroke-miterlimit="10" stroke-dasharray=""/><path fill="none" stroke="rgb(0,0,0)" paint-order="fill" d="M 162.5 743.5 L 162.5 739.5 M 139.5 743.5 L 139.5 739.5 M 115.5 743.5 L 115.5 739.5 M 186.5 743.5 L 186.5 739.5 M 210.5 743.5 L 210.5 739.5 M 233.5 743.5 L 233.5 739.5 M 257.5 743.5 L 257.5 739.5 M 280.5 743.5 L 280.5 739.5 M 304.5 743.5 L 304.5 739.5 M 327.5 743.5 L 327.5 739.5 M 351.5 743.5 L 351.5 739.5 M 375.5 743.5 L 375.5 739.5 M 398.5 743.5 L 398.5 739.5 M 422.5 743.5 L 422.5 739.5 M 445.5 743.5 L 445.5 739.5 M 469.5 743.5 L 469.5 739.5 M 492.5 743.5 L 492.5 739.5 M 516.5 743.5 L 516.5 739.5 M 540.5 743.5 L 540.5 739.5 M 563.5 743.5 L 563.5 739.5 M 587.5 743.5 L 587.5 739.5 M 610.5 743.5 L 610.5 739.5 M 634.5 743.5 L 634.5 739.5" stroke-opacity="1" stroke-linejoin="bevel" stroke-miterlimit="10" stroke-dasharray=""/><text fill="rgb(68,68,68)" stroke="none" font-family="helvetica" font-size="20px" font-style="normal" font-weight="normal" text-decoration="normal" x="174.8592700958252" y="765" text-anchor="start" dominant-baseline="alphabetic" transform="matrix(1, 0, 0, 1, 0.5, 0.5)" fill-opacity="1">40</text><text fill="rgb(68,68,68)" stroke="none" font-family="helvetica" font-size="20px" font-style="normal" font-weight="normal" text-decoration="normal" x="292.72021675109863" y="765" text-anchor="start" dominant-baseline="alphabetic" transform="matrix(1, 0, 0, 1, 0.5, 0.5)" fill-opacity="1">60</text><text fill="rgb(68,68,68)" stroke="none" font-family="helvetica" font-size="20px" font-style="normal" font-weight="normal" text-decoration="normal" x="410.58120918273926" y="765" text-anchor="start" dominant-baseline="alphabetic" transform="matrix(1, 0, 0, 1, 0.5, 0.5)" fill-opacity="1">80</text><text fill="rgb(68,68,68)" stroke="none" font-family="helvetica" font-size="20px" font-style="normal" font-weight="normal" text-decoration="normal" x="522.8838386535645" y="765" text-anchor="start" dominant-baseline="alphabetic" transform="matrix(1, 0, 0, 1, 0.5, 0.5)" fill-opacity="1">100</text><text fill="rgb(68,68,68)" stroke="none" font-family="helvetica" font-size="20px" font-style="italic" font-weight="normal" text-decoration="normal" x="277.96666717529297" y="793" text-anchor="start" dominant-baseline="alphabetic" transform="matrix(1, 0, 0, 1, 0.5, 0.5)" fill-opacity="1">Total Number of Users</text><path fill="none" stroke="rgb(0,0,0)" paint-order="fill" d="M 102.5 739.5 L 102.5 5.5" stroke-opacity="1" stroke-linejoin="bevel" stroke-miterlimit="10" stroke-dasharray=""/><path fill="none" stroke="rgb(0,0,0)" paint-order="fill" d="M 96.5 680.5 L 104.5 680.5 M 96.5 543.5 L 104.5 543.5 M 96.5 406.5 L 104.5 406.5 M 96.5 270.5 L 104.5 270.5 M 96.5 133.5 L 104.5 133.5" stroke-opacity="1" stroke-linejoin="bevel" stroke-miterlimit="10" stroke-dasharray=""/><path fill="none" stroke="rgb(0,0,0)" paint-order="fill" d="M 98.5 707.5 L 102.5 707.5 M 98.5 734.5 L 102.5 734.5 M 98.5 680.5 L 102.5 680.5 M 98.5 652.5 L 102.5 652.5 M 98.5 625.5 L 102.5 625.5 M 98.5 598.5 L 102.5 598.5 M 98.5 570.5 L 102.5 570.5 M 98.5 543.5 L 102.5 543.5 M 98.5 516.5 L 102.5 516.5 M 98.5 488.5 L 102.5 488.5 M 98.5 461.5 L 102.5 461.5 M 98.5 434.5 L 102.5 434.5 M 98.5 406.5 L 102.5 406.5 M 98.5 379.5 L 102.5 379.5 M 98.5 352.5 L 102.5 352.5 M 98.5 325.5 L 102.5 325.5 M 98.5 297.5 L 102.5 297.5 M 98.5 270.5 L 102.5 270.5 M 98.5 243.5 L 102.5 243.5 M 98.5 215.5 L 102.5 215.5 M 98.5 188.5 L 102.5 188.5 M 98.5 161.5 L 102.5 161.5 M 98.5 133.5 L 102.5 133.5 M 98.5 106.5 L 102.5 106.5 M 98.5 79.5 L 102.5 79.5 M 98.5 52.5 L 102.5 52.5 M 98.5 24.5 L 102.5 24.5" stroke-opacity="1" stroke-linejoin="bevel" stroke-miterlimit="10" stroke-dasharray=""/><text fill="rgb(68,68,68)" stroke="none" font-family="helvetica" font-size="20px" font-style="normal" font-weight="normal" text-decoration="normal" x="35.41666793823242" y="687.0194091796875" text-anchor="start" dominant-baseline="alphabetic" transform="matrix(1, 0, 0, 1, 0.5, 0.5)" fill-opacity="1">10000</text><text fill="rgb(68,68,68)" stroke="none" font-family="helvetica" font-size="20px" font-style="normal" font-weight="normal" text-decoration="normal" x="35.41666793823242" y="550.4957885742188" text-anchor="start" dominant-baseline="alphabetic" transform="matrix(1, 0, 0, 1, 0.5, 0.5)" fill-opacity="1">15000</text><text fill="rgb(68,68,68)" stroke="none" font-family="helvetica" font-size="20px" font-style="normal" font-weight="normal" text-decoration="normal" x="35.41666793823242" y="413.9721984863281" text-anchor="start" dominant-baseline="alphabetic" transform="matrix(1, 0, 0, 1, 0.5, 0.5)" fill-opacity="1">20000</text><text fill="rgb(68,68,68)" stroke="none" font-family="helvetica" font-size="20px" font-style="normal" font-weight="normal" text-decoration="normal" x="35.41666793823242" y="277.4486083984375" text-anchor="start" dominant-baseline="alphabetic" transform="matrix(1, 0, 0, 1, 0.5, 0.5)" fill-opacity="1">25000</text><text fill="rgb(68,68,68)" stroke="none" font-family="helvetica" font-size="20px" font-style="normal" font-weight="normal" text-decoration="normal" x="35.41666793823242" y="140.92501831054688" text-anchor="start" dominant-baseline="alphabetic" transform="matrix(1, 0, 0, 1, 0.5, 0.5)" fill-opacity="1">30000</text><text fill="rgb(68,68,68)" stroke="none" font-family="helvetica" font-size="20px" font-style="italic" font-weight="normal" text-decoration="normal" x="-113.84999465942383" y="368" text-anchor="start" dominant-baseline="alphabetic" transform="matrix(6.123233995736766e-17, -1, 1, 6.123233995736766e-17, -344.0833320617676, 399.9166679382324)" fill-opacity="1">Total Number of Serviced Users</text><path fill="rgb(255,255,255)" stroke="rgb(229,229,229)" paint-order="fill" d="M 663.9666748046875 15.5 L 1190.5 15.5 L 1190.5 608.5 L 663.9666748046875 608.5 L 663.9666748046875 15.5" fill-opacity="0.9490196078431372" stroke-opacity="0.5019607843137255" stroke-linejoin="bevel" stroke-miterlimit="10" stroke-dasharray=""/><text fill="rgb(68,68,68)" stroke="none" font-family="helvetica" font-size="18px" font-style="normal" font-weight="normal" text-decoration="normal" x="698.4666748046875" y="35.5" text-anchor="start" dominant-baseline="central" transform="matrix(1, 0, 0, 1, 0.5, 0.5)" fill-opacity="1">No Policy - Epsilon Greedy No Balancing</text><path fill="none" stroke="rgb(31,119,180)" paint-order="fill" d="M 673.9666748046875 35.5 L 693.9666748046875 35.5" stroke-opacity="1" stroke-linejoin="bevel" stroke-miterlimit="10" stroke-width="3" stroke-dasharray=""/><text fill="rgb(68,68,68)" stroke="none" font-family="helvetica" font-size="18px" font-style="normal" font-weight="normal" text-decoration="normal" x="698.4666748046875" y="59.5" text-anchor="start" dominant-baseline="central" transform="matrix(1, 0, 0, 1, 0.5, 0.5)" fill-opacity="1">Cheapest Users - Epsilon Greedy No Balancing</text><path fill="none" stroke="rgb(174,199,232)" paint-order="fill" d="M 673.9666748046875 59.5 L 693.9666748046875 59.5" stroke-opacity="1" stroke-linejoin="bevel" stroke-miterlimit="10" stroke-width="3" stroke-dasharray=""/><text fill="rgb(68,68,68)" stroke="none" font-family="helvetica" font-size="18px" font-style="normal" font-weight="normal" text-decoration="normal" x="698.4666748046875" y="83.5" text-anchor="start" dominant-baseline="central" transform="matrix(1, 0, 0, 1, 0.5, 0.5)" fill-opacity="1">No Policy - UCB1 No Balancing</text><path fill="none" stroke="rgb(255,127,14)" paint-order="fill" d="M 673.9666748046875 83.5 L 693.9666748046875 83.5" stroke-opacity="1" stroke-linejoin="bevel" stroke-miterlimit="10" stroke-width="3" stroke-dasharray=""/><text fill="rgb(68,68,68)" stroke="none" font-family="helvetica" font-size="18px" font-style="normal" font-weight="normal" text-decoration="normal" x="698.4666748046875" y="107.5" text-anchor="start" dominant-baseline="central" transform="matrix(1, 0, 0, 1, 0.5, 0.5)" fill-opacity="1">Cheapest Users - UCB1 No Balancing</text><path fill="none" stroke="rgb(255,187,120)" paint-order="fill" d="M 673.9666748046875 107.5 L 693.9666748046875 107.5" stroke-opacity="1" stroke-linejoin="bevel" stroke-miterlimit="10" stroke-width="3" stroke-dasharray=""/><text fill="rgb(68,68,68)" stroke="none" font-family="helvetica" font-size="18px" font-style="normal" font-weight="normal" text-decoration="normal" x="698.4666748046875" y="131.5" text-anchor="start" dominant-baseline="central" transform="matrix(1, 0, 0, 1, 0.5, 0.5)" fill-opacity="1">No Transmission Policy - Shared Evenly No Balancing</text><path fill="none" stroke="rgb(44,160,44)" paint-order="fill" d="M 673.9666748046875 131.5 L 693.9666748046875 131.5" stroke-opacity="1" stroke-linejoin="bevel" stroke-miterlimit="10" stroke-width="3" stroke-dasharray=""/><text fill="rgb(68,68,68)" stroke="none" font-family="helvetica" font-size="18px" font-style="normal" font-weight="normal" text-decoration="normal" x="698.4666748046875" y="155.5" text-anchor="start" dominant-baseline="central" transform="matrix(1, 0, 0, 1, 0.5, 0.5)" fill-opacity="1">Cheapest Users - Shared Evenly No Balancing</text><path fill="none" stroke="rgb(152,223,138)" paint-order="fill" d="M 673.9666748046875 155.5 L 693.9666748046875 155.5" stroke-opacity="1" stroke-linejoin="bevel" stroke-miterlimit="10" stroke-width="3" stroke-dasharray=""/><text fill="rgb(68,68,68)" stroke="none" font-family="helvetica" font-size="18px" font-style="normal" font-weight="normal" text-decoration="normal" x="698.4666748046875" y="179.5" text-anchor="start" dominant-baseline="central" transform="matrix(1, 0, 0, 1, 0.5, 0.5)" fill-opacity="1">No Transmission Policy - AP Energy Arrival No Balancing</text><path fill="none" stroke="rgb(214,39,40)" paint-order="fill" d="M 673.9666748046875 179.5 L 693.9666748046875 179.5" stroke-opacity="1" stroke-linejoin="bevel" stroke-miterlimit="10" stroke-width="3" stroke-dasharray=""/><text fill="rgb(68,68,68)" stroke="none" font-family="helvetica" font-size="18px" font-style="normal" font-weight="normal" text-decoration="normal" x="698.4666748046875" y="203.5" text-anchor="start" dominant-baseline="central" transform="matrix(1, 0, 0, 1, 0.5, 0.5)" fill-opacity="1">Cheapest Users - AP Energy Arrival No Balancing</text><path fill="none" stroke="rgb(255,152,150)" paint-order="fill" d="M 673.9666748046875 203.5 L 693.9666748046875 203.5" stroke-opacity="1" stroke-linejoin="bevel" stroke-miterlimit="10" stroke-width="3" stroke-dasharray=""/><text fill="rgb(68,68,68)" stroke="none" font-family="helvetica" font-size="18px" font-style="normal" font-weight="normal" text-decoration="normal" x="698.4666748046875" y="227.5" text-anchor="start" dominant-baseline="central" transform="matrix(1, 0, 0, 1, 0.5, 0.5)" fill-opacity="1">No Transmission Policy - AP Energy Use No Balancing</text><path fill="none" stroke="rgb(148,103,189)" paint-order="fill" d="M 673.9666748046875 227.5 L 693.9666748046875 227.5" stroke-opacity="1" stroke-linejoin="bevel" stroke-miterlimit="10" stroke-width="3" stroke-dasharray=""/><text fill="rgb(68,68,68)" stroke="none" font-family="helvetica" font-size="18px" font-style="normal" font-weight="normal" text-decoration="normal" x="698.4666748046875" y="251.5" text-anchor="start" dominant-baseline="central" transform="matrix(1, 0, 0, 1, 0.5, 0.5)" fill-opacity="1">Cheapest Users - AP Energy Use No Balancing</text><path fill="none" stroke="rgb(197,176,213)" paint-order="fill" d="M 673.9666748046875 251.5 L 693.9666748046875 251.5" stroke-opacity="1" stroke-linejoin="bevel" stroke-miterlimit="10" stroke-width="3" stroke-dasharray=""/><text fill="rgb(68,68,68)" stroke="none" font-family="helvetica" font-size="18px" font-style="normal" font-weight="normal" text-decoration="normal" x="698.4666748046875" y="275.5" text-anchor="start" dominant-baseline="central" transform="matrix(1, 0, 0, 1, 0.5, 0.5)" fill-opacity="1">No Transmission Policy - AP Energy Efficiency No Balancing</text><path fill="none" stroke="rgb(140,86,75)" paint-order="fill" d="M 673.9666748046875 275.5 L 693.9666748046875 275.5" stroke-opacity="1" stroke-linejoin="bevel" stroke-miterlimit="10" stroke-width="3" stroke-dasharray=""/><text fill="rgb(68,68,68)" stroke="none" font-family="helvetica" font-size="18px" font-style="normal" font-weight="normal" text-decoration="normal" x="698.4666748046875" y="299.5" text-anchor="start" dominant-baseline="central" transform="matrix(1, 0, 0, 1, 0.5, 0.5)" fill-opacity="1">Cheapest Users - AP Energy Efficiency No Balancing</text><path fill="none" stroke="rgb(196,156,148)" paint-order="fill" d="M 673.9666748046875 299.5 L 693.9666748046875 299.5" stroke-opacity="1" stroke-linejoin="bevel" stroke-miterlimit="10" stroke-width="3" stroke-dasharray=""/><text fill="rgb(68,68,68)" stroke="none" font-family="helvetica" font-size="18px" font-style="normal" font-weight="normal" text-decoration="normal" x="698.4666748046875" y="323.5" text-anchor="start" dominant-baseline="central" transform="matrix(1, 0, 0, 1, 0.5, 0.5)" fill-opacity="1">No Policy - Epsilon Greedy</text><path fill="none" stroke="rgb(31,119,180)" paint-order="fill" d="M 673.9666748046875 323.5 L 693.9666748046875 323.5" stroke-opacity="1" stroke-linejoin="bevel" stroke-miterlimit="10" stroke-width="3" stroke-dasharray="6"/><text fill="rgb(68,68,68)" stroke="none" font-family="helvetica" font-size="18px" font-style="normal" font-weight="normal" text-decoration="normal" x="698.4666748046875" y="347.5" text-anchor="start" dominant-baseline="central" transform="matrix(1, 0, 0, 1, 0.5, 0.5)" fill-opacity="1">Cheapest Users - Epsilon Greedy</text><path fill="none" stroke="rgb(174,199,232)" paint-order="fill" d="M 673.9666748046875 347.5 L 693.9666748046875 347.5" stroke-opacity="1" stroke-linejoin="bevel" stroke-miterlimit="10" stroke-width="3" stroke-dasharray="6"/><text fill="rgb(68,68,68)" stroke="none" font-family="helvetica" font-size="18px" font-style="normal" font-weight="normal" text-decoration="normal" x="698.4666748046875" y="371.5" text-anchor="start" dominant-baseline="central" transform="matrix(1, 0, 0, 1, 0.5, 0.5)" fill-opacity="1">No Policy - UCB1</text><path fill="none" stroke="rgb(255,127,14)" paint-order="fill" d="M 673.9666748046875 371.5 L 693.9666748046875 371.5" stroke-opacity="1" stroke-linejoin="bevel" stroke-miterlimit="10" stroke-width="3" stroke-dasharray="6"/><text fill="rgb(68,68,68)" stroke="none" font-family="helvetica" font-size="18px" font-style="normal" font-weight="normal" text-decoration="normal" x="698.4666748046875" y="395.5" text-anchor="start" dominant-baseline="central" transform="matrix(1, 0, 0, 1, 0.5, 0.5)" fill-opacity="1">Cheapest Users - UCB1</text><path fill="none" stroke="rgb(255,187,120)" paint-order="fill" d="M 673.9666748046875 395.5 L 693.9666748046875 395.5" stroke-opacity="1" stroke-linejoin="bevel" stroke-miterlimit="10" stroke-width="3" stroke-dasharray="6"/><text fill="rgb(68,68,68)" stroke="none" font-family="helvetica" font-size="18px" font-style="normal" font-weight="normal" text-decoration="normal" x="698.4666748046875" y="419.5" text-anchor="start" dominant-baseline="central" transform="matrix(1, 0, 0, 1, 0.5, 0.5)" fill-opacity="1">No Transmission Policy - Shared Evenly</text><path fill="none" stroke="rgb(44,160,44)" paint-order="fill" d="M 673.9666748046875 419.5 L 693.9666748046875 419.5" stroke-opacity="1" stroke-linejoin="bevel" stroke-miterlimit="10" stroke-width="3" stroke-dasharray="6"/><text fill="rgb(68,68,68)" stroke="none" font-family="helvetica" font-size="18px" font-style="normal" font-weight="normal" text-decoration="normal" x="698.4666748046875" y="443.5" text-anchor="start" dominant-baseline="central" transform="matrix(1, 0, 0, 1, 0.5, 0.5)" fill-opacity="1">Cheapest Users - Shared Evenly</text><path fill="none" stroke="rgb(152,223,138)" paint-order="fill" d="M 673.9666748046875 443.5 L 693.9666748046875 443.5" stroke-opacity="1" stroke-linejoin="bevel" stroke-miterlimit="10" stroke-width="3" stroke-dasharray="6"/><text fill="rgb(68,68,68)" stroke="none" font-family="helvetica" font-size="18px" font-style="normal" font-weight="normal" text-decoration="normal" x="698.4666748046875" y="467.5" text-anchor="start" dominant-baseline="central" transform="matrix(1, 0, 0, 1, 0.5, 0.5)" fill-opacity="1">No Transmission Policy - AP Energy Arrival</text><path fill="none" stroke="rgb(214,39,40)" paint-order="fill" d="M 673.9666748046875 467.5 L 693.9666748046875 467.5" stroke-opacity="1" stroke-linejoin="bevel" stroke-miterlimit="10" stroke-width="3" stroke-dasharray="6"/><text fill="rgb(68,68,68)" stroke="none" font-family="helvetica" font-size="18px" font-style="normal" font-weight="normal" text-decoration="normal" x="698.4666748046875" y="491.5" text-anchor="start" dominant-baseline="central" transform="matrix(1, 0, 0, 1, 0.5, 0.5)" fill-opacity="1">Cheapest Users - AP Energy Arrival</text><path fill="none" stroke="rgb(255,152,150)" paint-order="fill" d="M 673.9666748046875 491.5 L 693.9666748046875 491.5" stroke-opacity="1" stroke-linejoin="bevel" stroke-miterlimit="10" stroke-width="3" stroke-dasharray="6"/><text fill="rgb(68,68,68)" stroke="none" font-family="helvetica" font-size="18px" font-style="normal" font-weight="normal" text-decoration="normal" x="698.4666748046875" y="515.5" text-anchor="start" dominant-baseline="central" transform="matrix(1, 0, 0, 1, 0.5, 0.5)" fill-opacity="1">No Transmission Policy - AP Energy Use</text><path fill="none" stroke="rgb(148,103,189)" paint-order="fill" d="M 673.9666748046875 515.5 L 693.9666748046875 515.5" stroke-opacity="1" stroke-linejoin="bevel" stroke-miterlimit="10" stroke-width="3" stroke-dasharray="6"/><text fill="rgb(68,68,68)" stroke="none" font-family="helvetica" font-size="18px" font-style="normal" font-weight="normal" text-decoration="normal" x="698.4666748046875" y="539.5" text-anchor="start" dominant-baseline="central" transform="matrix(1, 0, 0, 1, 0.5, 0.5)" fill-opacity="1">Cheapest Users - AP Energy Use</text><path fill="none" stroke="rgb(197,176,213)" paint-order="fill" d="M 673.9666748046875 539.5 L 693.9666748046875 539.5" stroke-opacity="1" stroke-linejoin="bevel" stroke-miterlimit="10" stroke-width="3" stroke-dasharray="6"/><text fill="rgb(68,68,68)" stroke="none" font-family="helvetica" font-size="18px" font-style="normal" font-weight="normal" text-decoration="normal" x="698.4666748046875" y="563.5" text-anchor="start" dominant-baseline="central" transform="matrix(1, 0, 0, 1, 0.5, 0.5)" fill-opacity="1">No Transmission Policy - AP Energy Efficiency</text><path fill="none" stroke="rgb(140,86,75)" paint-order="fill" d="M 673.9666748046875 563.5 L 693.9666748046875 563.5" stroke-opacity="1" stroke-linejoin="bevel" stroke-miterlimit="10" stroke-width="3" stroke-dasharray="6"/><text fill="rgb(68,68,68)" stroke="none" font-family="helvetica" font-size="18px" font-style="normal" font-weight="normal" text-decoration="normal" x="698.4666748046875" y="587.5" text-anchor="start" dominant-baseline="central" transform="matrix(1, 0, 0, 1, 0.5, 0.5)" fill-opacity="1">Cheapest Users - AP Energy Efficiency</text><path fill="none" stroke="rgb(196,156,148)" paint-order="fill" d="M 673.9666748046875 587.5 L 693.9666748046875 587.5" stroke-opacity="1" stroke-linejoin="bevel" stroke-miterlimit="10" stroke-width="3" stroke-dasharray="6"/><path fill="rgb(255,255,255)" stroke="rgb(229,229,229)" paint-order="fill" d="M 663.9666748046875 15.5 L 1190.5 15.5 L 1190.5 608.5 L 663.9666748046875 608.5 L 663.9666748046875 15.5" fill-opacity="0.9490196078431372" stroke-opacity="0.5019607843137255" stroke-linejoin="bevel" stroke-miterlimit="10" stroke-dasharray=""/><text fill="rgb(68,68,68)" stroke="none" font-family="helvetica" font-size="18px" font-style="normal" font-weight="normal" text-decoration="normal" x="698.4666748046875" y="35.5" text-anchor="start" dominant-baseline="central" transform="matrix(1, 0, 0, 1, 0.5, 0.5)" fill-opacity="1">No Policy - Epsilon Greedy No Balancing</text><path fill="none" stroke="rgb(31,119,180)" paint-order="fill" d="M 673.9666748046875 35.5 L 693.9666748046875 35.5" stroke-opacity="1" stroke-linejoin="bevel" stroke-miterlimit="10" stroke-width="3" stroke-dasharray=""/><text fill="rgb(68,68,68)" stroke="none" font-family="helvetica" font-size="18px" font-style="normal" font-weight="normal" text-decoration="normal" x="698.4666748046875" y="59.5" text-anchor="start" dominant-baseline="central" transform="matrix(1, 0, 0, 1, 0.5, 0.5)" fill-opacity="1">Cheapest Users - Epsilon Greedy No Balancing</text><path fill="none" stroke="rgb(174,199,232)" paint-order="fill" d="M 673.9666748046875 59.5 L 693.9666748046875 59.5" stroke-opacity="1" stroke-linejoin="bevel" stroke-miterlimit="10" stroke-width="3" stroke-dasharray=""/><text fill="rgb(68,68,68)" stroke="none" font-family="helvetica" font-size="18px" font-style="normal" font-weight="normal" text-decoration="normal" x="698.4666748046875" y="83.5" text-anchor="start" dominant-baseline="central" transform="matrix(1, 0, 0, 1, 0.5, 0.5)" fill-opacity="1">No Policy - UCB1 No Balancing</text><path fill="none" stroke="rgb(255,127,14)" paint-order="fill" d="M 673.9666748046875 83.5 L 693.9666748046875 83.5" stroke-opacity="1" stroke-linejoin="bevel" stroke-miterlimit="10" stroke-width="3" stroke-dasharray=""/><text fill="rgb(68,68,68)" stroke="none" font-family="helvetica" font-size="18px" font-style="normal" font-weight="normal" text-decoration="normal" x="698.4666748046875" y="107.5" text-anchor="start" dominant-baseline="central" transform="matrix(1, 0, 0, 1, 0.5, 0.5)" fill-opacity="1">Cheapest Users - UCB1 No Balancing</text><path fill="none" stroke="rgb(255,187,120)" paint-order="fill" d="M 673.9666748046875 107.5 L 693.9666748046875 107.5" stroke-opacity="1" stroke-linejoin="bevel" stroke-miterlimit="10" stroke-width="3" stroke-dasharray=""/><text fill="rgb(68,68,68)" stroke="none" font-family="helvetica" font-size="18px" font-style="normal" font-weight="normal" text-decoration="normal" x="698.4666748046875" y="131.5" text-anchor="start" dominant-baseline="central" transform="matrix(1, 0, 0, 1, 0.5, 0.5)" fill-opacity="1">No Transmission Policy - Shared Evenly No Balancing</text><path fill="none" stroke="rgb(44,160,44)" paint-order="fill" d="M 673.9666748046875 131.5 L 693.9666748046875 131.5" stroke-opacity="1" stroke-linejoin="bevel" stroke-miterlimit="10" stroke-width="3" stroke-dasharray=""/><text fill="rgb(68,68,68)" stroke="none" font-family="helvetica" font-size="18px" font-style="normal" font-weight="normal" text-decoration="normal" x="698.4666748046875" y="155.5" text-anchor="start" dominant-baseline="central" transform="matrix(1, 0, 0, 1, 0.5, 0.5)" fill-opacity="1">Cheapest Users - Shared Evenly No Balancing</text><path fill="none" stroke="rgb(152,223,138)" paint-order="fill" d="M 673.9666748046875 155.5 L 693.9666748046875 155.5" stroke-opacity="1" stroke-linejoin="bevel" stroke-miterlimit="10" stroke-width="3" stroke-dasharray=""/><text fill="rgb(68,68,68)" stroke="none" font-family="helvetica" font-size="18px" font-style="normal" font-weight="normal" text-decoration="normal" x="698.4666748046875" y="179.5" text-anchor="start" dominant-baseline="central" transform="matrix(1, 0, 0, 1, 0.5, 0.5)" fill-opacity="1">No Transmission Policy - AP Energy Arrival No Balancing</text><path fill="none" stroke="rgb(214,39,40)" paint-order="fill" d="M 673.9666748046875 179.5 L 693.9666748046875 179.5" stroke-opacity="1" stroke-linejoin="bevel" stroke-miterlimit="10" stroke-width="3" stroke-dasharray=""/><text fill="rgb(68,68,68)" stroke="none" font-family="helvetica" font-size="18px" font-style="normal" font-weight="normal" text-decoration="normal" x="698.4666748046875" y="203.5" text-anchor="start" dominant-baseline="central" transform="matrix(1, 0, 0, 1, 0.5, 0.5)" fill-opacity="1">Cheapest Users - AP Energy Arrival No Balancing</text><path fill="none" stroke="rgb(255,152,150)" paint-order="fill" d="M 673.9666748046875 203.5 L 693.9666748046875 203.5" stroke-opacity="1" stroke-linejoin="bevel" stroke-miterlimit="10" stroke-width="3" stroke-dasharray=""/><text fill="rgb(68,68,68)" stroke="none" font-family="helvetica" font-size="18px" font-style="normal" font-weight="normal" text-decoration="normal" x="698.4666748046875" y="227.5" text-anchor="start" dominant-baseline="central" transform="matrix(1, 0, 0, 1, 0.5, 0.5)" fill-opacity="1">No Transmission Policy - AP Energy Use No Balancing</text><path fill="none" stroke="rgb(148,103,189)" paint-order="fill" d="M 673.9666748046875 227.5 L 693.9666748046875 227.5" stroke-opacity="1" stroke-linejoin="bevel" stroke-miterlimit="10" stroke-width="3" stroke-dasharray=""/><text fill="rgb(68,68,68)" stroke="none" font-family="helvetica" font-size="18px" font-style="normal" font-weight="normal" text-decoration="normal" x="698.4666748046875" y="251.5" text-anchor="start" dominant-baseline="central" transform="matrix(1, 0, 0, 1, 0.5, 0.5)" fill-opacity="1">Cheapest Users - AP Energy Use No Balancing</text><path fill="none" stroke="rgb(197,176,213)" paint-order="fill" d="M 673.9666748046875 251.5 L 693.9666748046875 251.5" stroke-opacity="1" stroke-linejoin="bevel" stroke-miterlimit="10" stroke-width="3" stroke-dasharray=""/><text fill="rgb(68,68,68)" stroke="none" font-family="helvetica" font-size="18px" font-style="normal" font-weight="normal" text-decoration="normal" x="698.4666748046875" y="275.5" text-anchor="start" dominant-baseline="central" transform="matrix(1, 0, 0, 1, 0.5, 0.5)" fill-opacity="1">No Transmission Policy - AP Energy Efficiency No Balancing</text><path fill="none" stroke="rgb(140,86,75)" paint-order="fill" d="M 673.9666748046875 275.5 L 693.9666748046875 275.5" stroke-opacity="1" stroke-linejoin="bevel" stroke-miterlimit="10" stroke-width="3" stroke-dasharray=""/><text fill="rgb(68,68,68)" stroke="none" font-family="helvetica" font-size="18px" font-style="normal" font-weight="normal" text-decoration="normal" x="698.4666748046875" y="299.5" text-anchor="start" dominant-baseline="central" transform="matrix(1, 0, 0, 1, 0.5, 0.5)" fill-opacity="1">Cheapest Users - AP Energy Efficiency No Balancing</text><path fill="none" stroke="rgb(196,156,148)" paint-order="fill" d="M 673.9666748046875 299.5 L 693.9666748046875 299.5" stroke-opacity="1" stroke-linejoin="bevel" stroke-miterlimit="10" stroke-width="3" stroke-dasharray=""/><text fill="rgb(68,68,68)" stroke="none" font-family="helvetica" font-size="18px" font-style="normal" font-weight="normal" text-decoration="normal" x="698.4666748046875" y="323.5" text-anchor="start" dominant-baseline="central" transform="matrix(1, 0, 0, 1, 0.5, 0.5)" fill-opacity="1">No Policy - Epsilon Greedy</text><path fill="none" stroke="rgb(31,119,180)" paint-order="fill" d="M 673.9666748046875 323.5 L 693.9666748046875 323.5" stroke-opacity="1" stroke-linejoin="bevel" stroke-miterlimit="10" stroke-width="3" stroke-dasharray="6"/><text fill="rgb(68,68,68)" stroke="none" font-family="helvetica" font-size="18px" font-style="normal" font-weight="normal" text-decoration="normal" x="698.4666748046875" y="347.5" text-anchor="start" dominant-baseline="central" transform="matrix(1, 0, 0, 1, 0.5, 0.5)" fill-opacity="1">Cheapest Users - Epsilon Greedy</text><path fill="none" stroke="rgb(174,199,232)" paint-order="fill" d="M 673.9666748046875 347.5 L 693.9666748046875 347.5" stroke-opacity="1" stroke-linejoin="bevel" stroke-miterlimit="10" stroke-width="3" stroke-dasharray="6"/><text fill="rgb(68,68,68)" stroke="none" font-family="helvetica" font-size="18px" font-style="normal" font-weight="normal" text-decoration="normal" x="698.4666748046875" y="371.5" text-anchor="start" dominant-baseline="central" transform="matrix(1, 0, 0, 1, 0.5, 0.5)" fill-opacity="1">No Policy - UCB1</text><path fill="none" stroke="rgb(255,127,14)" paint-order="fill" d="M 673.9666748046875 371.5 L 693.9666748046875 371.5" stroke-opacity="1" stroke-linejoin="bevel" stroke-miterlimit="10" stroke-width="3" stroke-dasharray="6"/><text fill="rgb(68,68,68)" stroke="none" font-family="helvetica" font-size="18px" font-style="normal" font-weight="normal" text-decoration="normal" x="698.4666748046875" y="395.5" text-anchor="start" dominant-baseline="central" transform="matrix(1, 0, 0, 1, 0.5, 0.5)" fill-opacity="1">Cheapest Users - UCB1</text><path fill="none" stroke="rgb(255,187,120)" paint-order="fill" d="M 673.9666748046875 395.5 L 693.9666748046875 395.5" stroke-opacity="1" stroke-linejoin="bevel" stroke-miterlimit="10" stroke-width="3" stroke-dasharray="6"/><text fill="rgb(68,68,68)" stroke="none" font-family="helvetica" font-size="18px" font-style="normal" font-weight="normal" text-decoration="normal" x="698.4666748046875" y="419.5" text-anchor="start" dominant-baseline="central" transform="matrix(1, 0, 0, 1, 0.5, 0.5)" fill-opacity="1">No Transmission Policy - Shared Evenly</text><path fill="none" stroke="rgb(44,160,44)" paint-order="fill" d="M 673.9666748046875 419.5 L 693.9666748046875 419.5" stroke-opacity="1" stroke-linejoin="bevel" stroke-miterlimit="10" stroke-width="3" stroke-dasharray="6"/><text fill="rgb(68,68,68)" stroke="none" font-family="helvetica" font-size="18px" font-style="normal" font-weight="normal" text-decoration="normal" x="698.4666748046875" y="443.5" text-anchor="start" dominant-baseline="central" transform="matrix(1, 0, 0, 1, 0.5, 0.5)" fill-opacity="1">Cheapest Users - Shared Evenly</text><path fill="none" stroke="rgb(152,223,138)" paint-order="fill" d="M 673.9666748046875 443.5 L 693.9666748046875 443.5" stroke-opacity="1" stroke-linejoin="bevel" stroke-miterlimit="10" stroke-width="3" stroke-dasharray="6"/><text fill="rgb(68,68,68)" stroke="none" font-family="helvetica" font-size="18px" font-style="normal" font-weight="normal" text-decoration="normal" x="698.4666748046875" y="467.5" text-anchor="start" dominant-baseline="central" transform="matrix(1, 0, 0, 1, 0.5, 0.5)" fill-opacity="1">No Transmission Policy - AP Energy Arrival</text><path fill="none" stroke="rgb(214,39,40)" paint-order="fill" d="M 673.9666748046875 467.5 L 693.9666748046875 467.5" stroke-opacity="1" stroke-linejoin="bevel" stroke-miterlimit="10" stroke-width="3" stroke-dasharray="6"/><text fill="rgb(68,68,68)" stroke="none" font-family="helvetica" font-size="18px" font-style="normal" font-weight="normal" text-decoration="normal" x="698.4666748046875" y="491.5" text-anchor="start" dominant-baseline="central" transform="matrix(1, 0, 0, 1, 0.5, 0.5)" fill-opacity="1">Cheapest Users - AP Energy Arrival</text><path fill="none" stroke="rgb(255,152,150)" paint-order="fill" d="M 673.9666748046875 491.5 L 693.9666748046875 491.5" stroke-opacity="1" stroke-linejoin="bevel" stroke-miterlimit="10" stroke-width="3" stroke-dasharray="6"/><text fill="rgb(68,68,68)" stroke="none" font-family="helvetica" font-size="18px" font-style="normal" font-weight="normal" text-decoration="normal" x="698.4666748046875" y="515.5" text-anchor="start" dominant-baseline="central" transform="matrix(1, 0, 0, 1, 0.5, 0.5)" fill-opacity="1">No Transmission Policy - AP Energy Use</text><path fill="none" stroke="rgb(148,103,189)" paint-order="fill" d="M 673.9666748046875 515.5 L 693.9666748046875 515.5" stroke-opacity="1" stroke-linejoin="bevel" stroke-miterlimit="10" stroke-width="3" stroke-dasharray="6"/><text fill="rgb(68,68,68)" stroke="none" font-family="helvetica" font-size="18px" font-style="normal" font-weight="normal" text-decoration="normal" x="698.4666748046875" y="539.5" text-anchor="start" dominant-baseline="central" transform="matrix(1, 0, 0, 1, 0.5, 0.5)" fill-opacity="1">Cheapest Users - AP Energy Use</text><path fill="none" stroke="rgb(197,176,213)" paint-order="fill" d="M 673.9666748046875 539.5 L 693.9666748046875 539.5" stroke-opacity="1" stroke-linejoin="bevel" stroke-miterlimit="10" stroke-width="3" stroke-dasharray="6"/><text fill="rgb(68,68,68)" stroke="none" font-family="helvetica" font-size="18px" font-style="normal" font-weight="normal" text-decoration="normal" x="698.4666748046875" y="563.5" text-anchor="start" dominant-baseline="central" transform="matrix(1, 0, 0, 1, 0.5, 0.5)" fill-opacity="1">No Transmission Policy - AP Energy Efficiency</text><path fill="none" stroke="rgb(140,86,75)" paint-order="fill" d="M 673.9666748046875 563.5 L 693.9666748046875 563.5" stroke-opacity="1" stroke-linejoin="bevel" stroke-miterlimit="10" stroke-width="3" stroke-dasharray="6"/><text fill="rgb(68,68,68)" stroke="none" font-family="helvetica" font-size="18px" font-style="normal" font-weight="normal" text-decoration="normal" x="698.4666748046875" y="587.5" text-anchor="start" dominant-baseline="central" transform="matrix(1, 0, 0, 1, 0.5, 0.5)" fill-opacity="1">Cheapest Users - AP Energy Efficiency</text><path fill="none" stroke="rgb(196,156,148)" paint-order="fill" d="M 673.9666748046875 587.5 L 693.9666748046875 587.5" stroke-opacity="1" stroke-linejoin="bevel" stroke-miterlimit="10" stroke-width="3" stroke-dasharray="6"/></svg>