<svg version="1.1" xmlns="http://www.w3.org/2000/svg" width="1200" height="800"><defs><clipPath id="hLUfRoyuWSGs"><path fill="none" stroke="none" d="M 102.5 5.5 L 766.5 5.5 L 766.5 739.5 L 102.5 739.5 L 102.5 5.5"/></clipPath><clipPath id="ZOeRfRcSfQVI"><path fill="none" stroke="none" d="M 102.5 5.5 L 766.5 5.5 L 766.5 739.5 L 102.5 739.5 L 102.5 5.5"/></clipPath><clipPath id="KZlXumAICKaP"><path fill="none" stroke="none" d="M 102.5 5.5 L 766.5 5.5 L 766.5 739.5 L 102.5 739.5 L 102.5 5.5"/></clipPath><clipPath id="AsHZClKnhoVT"><path fill="none" stroke="none" d="M 102.5 5.5 L 766.5 5.5 L 766.5 739.5 L 102.5 739.5 L 102.5 5.5"/></clipPath><clipPath id="CiuWsXlbbeJG"><path fill="none" stroke="none" d="M 102.5 5.5 L 766.5 5.5 L 766.5 739.5 L 102.5 739.5 L 102.5 5.5"/></clipPath><clipPath id="SuXXQFTlslhT"><path fill="none" stroke="none" d="M 102.5 5.5 L 766.5 5.5 L 766.5 739.5 L 102.5 739.5 L 102.5 5.5"/></clipPath><clipPath id="IgQnTIttwITp"><path fill="none" stroke="none" d="M 102.5 5.5 L 766.5 5.5 L 766.5 739.5 L 102.5 739.5 L 102.5 5.5"/></clipPath><clipPath id="kicsOrmxmlxv"><path fill="none" stroke="none" d="M 102.5 5.5 L 766.5 5.5 L 766.5 739.5 L 102.5 739.5 L 102.5 5.5"/></clipPath><clipPath id="tbmBiTEniBnD"><path fill="none" stroke="none" d="M 102.5 5.5 L 766.5 5.5 L 766.5 739.5 L 102.5 739.5 L 102.5 5.5"/></clipPath><clipPath id="KIBgKqiZybyv"><path fill="none" stroke="none" d="M 102.5 5.5 L 766.5 5.5 L 766.5 739.5 L 102.5 739.5 L 102.5 5.5"/></clipPath><clipPath id="TVhOyomCGgdE"><path fill="none" stroke="none" d="M 102.5 5.5 L 766.5 5.5 L 766.5 739.5 L 102.5 739.5 L 102.5 5.5"/></clipPath><clipPath id="hOfKOEAsyTgE"><path fill="none" stroke="none" d="M 102.5 5.5 L 766.5 5.5 L 766.5 739.5 L 102.5 739.5 L 102.5 5.5"/></clipPath><clipPath id="TctJhRcKfnqK"><path fill="none" stroke="none" d="M 102.5 5.5 L 766.5 5.5 L 766.5 739.5 L 102.5 739.5 L 102.5 5.5"/></clipPath><clipPath id="XlDQRcwfBWLZ"><path fill="none" stroke="none" d="M 102.5 5.5 L 766.5 5.5 L 766.5 739.5 L 102.5 739.5 L 102.5 5.5"/></clipPath><clipPath id="yMbaWuTtaNTe"><path fill="none" stroke="none" d="M 102.5 5.5 L 766.5 5.5 L 766.5 739.5 L 102.5 739.5 L 102.5 5.5"/></clipPath></defs><path fill="rgb(255,255,255)" stroke="none" paint-order="stroke" d="M 0.5 0.5 L 1200.5 0.5 L 1200.5 800.5 L 0.5 800.5 L 0.5 0.5" fill-opacity="1"/><rect fill="#FFFFFF" stroke="none" x="102" y="5" width="664" height="734" transform="matrix(1, 0, 0, 1, 0.5, 0.5)"/><path fill="rgb(255,255,255)" stroke="none" paint-order="stroke" d="M 102.5 5.5 L 766.5 5.5 L 766.5 739.5 L 102.5 739.5 L 102.5 5.5" fill-opacity="1"/><path fill="none" stroke="rgb(229,229,229)" paint-order="fill" d="M 102.5 5.5 L 766.5 5.5 L 766.5 739.5 L 102.5 739.5 L 102.5 5.5" stroke-opacity="1" stroke-linejoin="bevel" stroke-miterlimit="10" stroke-dasharray=""/><path fill="none" stroke="rgb(229,229,229)" paint-order="fill" d="M 175.5 739.5 L 175.5 5.5 M 262.5 739.5 L 262.5 5.5 M 348.5 739.5 L 348.5 5.5 M 434.5 739.5 L 434.5 5.5 M 520.5 739.5 L 520.5 5.5 M 606.5 739.5 L 606.5 5.5 M 693.5 739.5 L 693.5 5.5" stroke-opacity="1" stroke-linejoin="bevel" stroke-miterlimit="10" stroke-dasharray="" clip-path="url(#hLUfRoyuWSGs)"/><path fill="none" stroke="rgb(229,229,229)" paint-order="fill" d="M 102.5 684.5 L 766.5 684.5 M 102.5 561.5 L 766.5 561.5 M 102.5 439.5 L 766.5 439.5 M 102.5 317.5 L 766.5 317.5 M 102.5 194.5 L 766.5 194.5 M 102.5 72.5 L 766.5 72.5" stroke-opacity="1" stroke-linejoin="bevel" stroke-miterlimit="10" stroke-dasharray="" clip-path="url(#ZOeRfRcSfQVI)"/><path fill="none" stroke="rgb(31,119,180)" paint-order="fill" d="M 132.68182373046875 509.6878967285156 L 175.7987060546875 475.5392150878906 L 218.91558837890625 442.05889892578125 L 262.032470703125 404.3849182128906 L 305.14935302734375 376.4454040527344 L 348.2662353515625 337.1748046875 L 391.38311767578125 306.0677185058594 L 434.5 274.31243896484375 L 477.61688232421875 244.6913299560547 L 520.7337646484375 213.66986083984375 L 563.8506469726562 184.3789520263672 L 606.967529296875 152.29959106445312 L 650.0844116210938 128.87908935546875 L 693.2012939453125 110.94985961914062 L 736.3181762695312 81.08413696289062" stroke-opacity="1" stroke-linejoin="bevel" stroke-miterlimit="10" stroke-width="3" stroke-dasharray="" clip-path="url(#KZlXumAICKaP)"/><path fill="none" stroke="rgb(174,199,232)" paint-order="fill" d="M 132.68182373046875 509.4408264160156 L 175.7987060546875 475.5392150878906 L 218.91558837890625 442.12066650390625 L 262.032470703125 404.3849182128906 L 305.14935302734375 376.4454040527344 L 348.2662353515625 337.0341491699219 L 391.38311767578125 306.0677185058594 L 434.5 274.31243896484375 L 477.61688232421875 244.6913299560547 L 520.7337646484375 213.66986083984375 L 563.8506469726562 184.17103576660156 L 606.967529296875 152.10389709472656 L 650.0844116210938 128.87908935546875 L 693.2012939453125 110.82144927978516 L 736.3181762695312 81.08413696289062" stroke-opacity="1" stroke-linejoin="bevel" stroke-miterlimit="10" stroke-width="3" stroke-dasharray="" clip-path="url(#AsHZClKnhoVT)"/><path fill="none" stroke="rgb(255,127,14)" paint-order="fill" d="M 132.68182373046875 503.67437744140625 L 175.7987060546875 467.2350158691406 L 218.91558837890625 432.0308837890625 L 262.032470703125 397.4443664550781 L 305.14935302734375 362.85784912109375 L 348.2662353515625 328.2713317871094 L 391.38311767578125 296.1552734375 L 434.5 264.0392150878906 L 477.61688232421875 231.9231719970703 L 520.7337646484375 199.18951416015625 L 563.8506469726562 175.1024627685547 L 606.967529296875 139.89833068847656 L 650.0844116210938 116.42891693115234 L 693.2012939453125 83.35892486572266 L 736.3181762695312 59.271881103515625" stroke-opacity="1" stroke-linejoin="bevel" stroke-miterlimit="10" stroke-width="3" stroke-dasharray="" clip-path="url(#CiuWsXlbbeJG)"/><path fill="none" stroke="rgb(255,187,120)" paint-order="fill" d="M 132.68182373046875 503.67437744140625 L 175.7987060546875 467.2350158691406 L 218.91558837890625 432.0308837890625 L 262.032470703125 397.4443664550781 L 305.14935302734375 362.85784912109375 L 348.2662353515625 328.2713317871094 L 391.38311767578125 296.1552734375 L 434.5 264.0392150878906 L 477.61688232421875 231.9231719970703 L 520.7337646484375 199.18951416015625 L 563.8506469726562 175.1024627685547 L 606.967529296875 139.89833068847656 L 650.0844116210938 116.42891693115234 L 693.2012939453125 83.35892486572266 L 736.3181762695312 59.271881103515625" stroke-opacity="1" stroke-linejoin="bevel" stroke-miterlimit="10" stroke-width="3" stroke-dasharray="" clip-path="url(#SuXXQFTlslhT)"/><path fill="none" stroke="rgb(44,160,44)" paint-order="fill" d="M 132.68182373046875 706.1363525390625 L 175.7987060546875 699.2019653320312 L 218.91558837890625 692.18798828125 L 262.032470703125 686.6355590820312 L 305.14935302734375 678.2274169921875 L 348.2662353515625 673.9041137695312 L 391.38311767578125 666.7984619140625 L 434.5 654.0425415039062 L 477.61688232421875 647.4628295898438 L 520.7337646484375 642.7970581054688 L 563.8506469726562 635.9176635742188 L 606.967529296875 625.6566772460938 L 650.0844116210938 619.1380615234375 L 693.2012939453125 618.177978515625 L 736.3181762695312 605.57373046875" stroke-opacity="1" stroke-linejoin="bevel" stroke-miterlimit="10" stroke-width="3" stroke-dasharray="" clip-path="url(#IgQnTIttwITp)"/><path fill="none" stroke="rgb(152,223,138)" paint-order="fill" d="M 132.68182373046875 704.3948364257812 L 175.7987060546875 697.9080200195312 L 218.91558837890625 690.468505859375 L 262.032470703125 684.7784423828125 L 305.14935302734375 677.250244140625 L 348.2662353515625 671.2367553710938 L 391.38311767578125 663.7128295898438 L 434.5 651.5696411132812 L 477.61688232421875 644.7880859375 L 520.7337646484375 640.626220703125 L 563.8506469726562 632.2767944335938 L 606.967529296875 623.736572265625 L 650.0844116210938 616.6566162109375 L 693.2012939453125 614.8318481445312 L 736.3181762695312 602.32421875" stroke-opacity="1" stroke-linejoin="bevel" stroke-miterlimit="10" stroke-width="3" stroke-dasharray="" clip-path="url(#kicsOrmxmlxv)"/><path fill="none" stroke="rgb(214,39,40)" paint-order="fill" d="M 132.68182373046875 597.0848999023438 L 175.7987060546875 564.9688110351562 L 218.91558837890625 542.3958740234375 L 262.032470703125 519.4144287109375 L 305.14935302734375 485.3746032714844 L 348.2662353515625 463.0523376464844 L 391.38311767578125 437.7312927246094 L 434.5 408.5798034667969 L 477.61688232421875 386.388427734375 L 520.7337646484375 367.9112854003906 L 563.8506469726562 327.9227600097656 L 606.967529296875 308.1627197265625 L 650.0844116210938 292.574951171875 L 693.2012939453125 257.9303283691406 L 736.3181762695312 237.29827880859375" stroke-opacity="1" stroke-linejoin="bevel" stroke-miterlimit="10" stroke-width="3" stroke-dasharray="" clip-path="url(#tbmBiTEniBnD)"/><path fill="none" stroke="rgb(255,152,150)" paint-order="fill" d="M 132.68182373046875 597.0848999023438 L 175.7987060546875 564.5603637695312 L 218.91558837890625 542.3958740234375 L 262.032470703125 519.4052734375 L 305.14935302734375 485.3746032714844 L 348.2662353515625 462.96429443359375 L 391.38311767578125 437.8976135253906 L 434.5 408.5798034667969 L 477.61688232421875 386.388427734375 L 520.7337646484375 368.76495361328125 L 563.8506469726562 327.9227600097656 L 606.967529296875 308.9417724609375 L 650.0844116210938 292.42633056640625 L 693.2012939453125 257.9303283691406 L 736.3181762695312 237.30133056640625" stroke-opacity="1" stroke-linejoin="bevel" stroke-miterlimit="10" stroke-width="3" stroke-dasharray="" clip-path="url(#KIBgKqiZybyv)"/><path fill="none" stroke="rgb(148,103,189)" paint-order="fill" d="M 132.68182373046875 539.6080322265625 L 175.7987060546875 503.7862854003906 L 218.91558837890625 469.98431396484375 L 262.032470703125 433.9791259765625 L 305.14935302734375 399.3926086425781 L 348.2662353515625 368.3283386230469 L 391.38311767578125 333.4079284667969 L 434.5 301.4007263183594 L 477.61688232421875 268.9006652832031 L 520.7337646484375 238.25711059570312 L 563.8506469726562 210.8447265625 L 606.967529296875 176.49058532714844 L 650.0844116210938 151.78591918945312 L 693.2012939453125 119.29074096679688 L 736.3181762695312 94.41975402832031" stroke-opacity="1" stroke-linejoin="bevel" stroke-miterlimit="10" stroke-width="3" stroke-dasharray="" clip-path="url(#TVhOyomCGgdE)"/><path fill="none" stroke="rgb(197,176,213)" paint-order="fill" d="M 132.68182373046875 539.4411010742188 L 175.7987060546875 503.6193542480469 L 218.91558837890625 469.65045166015625 L 262.032470703125 433.9791259765625 L 305.14935302734375 399.2238464355469 L 348.2662353515625 368.3283386230469 L 391.38311767578125 333.51678466796875 L 434.5 301.4007263183594 L 477.61688232421875 268.9006652832031 L 520.7337646484375 238.25711059570312 L 563.8506469726562 211.2581024169922 L 606.967529296875 176.49058532714844 L 650.0844116210938 151.78591918945312 L 693.2012939453125 119.29074096679688 L 736.3181762695312 94.25220489501953" stroke-opacity="1" stroke-linejoin="bevel" stroke-miterlimit="10" stroke-width="3" stroke-dasharray="" clip-path="url(#hOfKOEAsyTgE)"/><path fill="none" stroke="rgb(140,86,75)" paint-order="fill" d="M 132.68182373046875 543.3797607421875 L 175.7987060546875 504.9169616699219 L 218.91558837890625 466.9690246582031 L 262.032470703125 430.4715576171875 L 305.14935302734375 392.37255859375 L 348.2662353515625 355.2935791015625 L 391.38311767578125 319.4779357910156 L 434.5 283.162109375 L 477.61688232421875 246.86215209960938 L 520.7337646484375 209.66819763183594 L 563.8506469726562 174.27694702148438 L 606.967529296875 139.81028747558594 L 650.0844116210938 105.11002349853516 L 693.2012939453125 75.28588104248047 L 736.3181762695312 38.8636360168457" stroke-opacity="1" stroke-linejoin="bevel" stroke-miterlimit="10" stroke-width="3" stroke-dasharray="" clip-path="url(#TctJhRcKfnqK)"/><path fill="none" stroke="rgb(196,156,148)" paint-order="fill" d="M 132.68182373046875 543.2091674804688 L 175.7987060546875 504.9169616699219 L 218.91558837890625 466.9690246582031 L 262.032470703125 430.4238586425781 L 305.14935302734375 392.3444519042969 L 348.2662353515625 355.2874450683594 L 391.38311767578125 319.4656982421875 L 434.5 283.0263366699219 L 477.61688232421875 246.60531616210938 L 520.7337646484375 209.4810791015625 L 563.8506469726562 174.27694702148438 L 606.967529296875 139.6904296875 L 650.0844116210938 105.18340301513672 L 693.2012939453125 75.55616760253906 L 736.3181762695312 39.26355743408203" stroke-opacity="1" stroke-linejoin="bevel" stroke-miterlimit="10" stroke-width="3" stroke-dasharray="" clip-path="url(#XlDQRcwfBWLZ)"/><path fill="none" stroke="rgb(0,0,0)" paint-order="fill" d="M 102.5 739.5 L 766.5 739.5" stroke-opacity="1" stroke-linejoin="bevel" stroke-miterlimit="10" stroke-dasharray=""/><path fill="none" stroke="rgb(0,0,0)" paint-order="fill" d="M 175.5 745.5 L 175.5 737.5 M 262.5 745.5 L 262.5 737.5 M 348.5 745.5 L 348.5 737.5 M 434.5 745.5 L 434.5 737.5 M 520.5 745.5 L 520.5 737.5 M 606.5 745.5 L 606.5 737.5 M 693.5 745.5 L 693.5 737.5" stroke-opacity="1" stroke-linejoin="bevel" stroke-miterlimit="10" stroke-dasharray=""/><path fill="none" stroke="rgb(0,0,0)" paint-order="fill" d="M 158.5 743.5 L 158.5 739.5 M 141.5 743.5 L 141.5 739.5 M 124.5 743.5 L 124.5 739.5 M 106.5 743.5 L 106.5 739.5 M 175.5 743.5 L 175.5 739.5 M 193.5 743.5 L 193.5 739.5 M 210.5 743.5 L 210.5 739.5 M 227.5 743.5 L 227.5 739.5 M 244.5 743.5 L 244.5 739.5 M 262.5 743.5 L 262.5 739.5 M 279.5 743.5 L 279.5 739.5 M 296.5 743.5 L 296.5 739.5 M 313.5 743.5 L 313.5 739.5 M 331.5 743.5 L 331.5 739.5 M 348.5 743.5 L 348.5 739.5 M 365.5 743.5 L 365.5 739.5 M 382.5 743.5 L 382.5 739.5 M 400.5 743.5 L 400.5 739.5 M 417.5 743.5 L 417.5 739.5 M 434.5 743.5 L 434.5 739.5 M 451.5 743.5 L 451.5 739.5 M 468.5 743.5 L 468.5 739.5 M 486.5 743.5 L 486.5 739.5 M 503.5 743.5 L 503.5 739.5 M 520.5 743.5 L 520.5 739.5 M 537.5 743.5 L 537.5 739.5 M 555.5 743.5 L 555.5 739.5 M 572.5 743.5 L 572.5 739.5 M 589.5 743.5 L 589.5 739.5 M 606.5 743.5 L 606.5 739.5 M 624.5 743.5 L 624.5 739.5 M 641.5 743.5 L 641.5 739.5 M 658.5 743.5 L 658.5 739.5 M 675.5 743.5 L 675.5 739.5 M 693.5 743.5 L 693.5 739.5 M 710.5 743.5 L 710.5 739.5 M 727.5 743.5 L 727.5 739.5 M 744.5 743.5 L 744.5 739.5 M 762.5 743.5 L 762.5 739.5" stroke-opacity="1" stroke-linejoin="bevel" stroke-miterlimit="10" stroke-dasharray=""/><text fill="rgb(68,68,68)" stroke="none" font-family="helvetica" font-size="20px" font-style="normal" font-weight="normal" text-decoration="normal" x="169.74037265777588" y="765" text-anchor="start" dominant-baseline="alphabetic" transform="matrix(1, 0, 0, 1, 0.5, 0.5)" fill-opacity="1">6</text><text fill="rgb(68,68,68)" stroke="none" font-family="helvetica" font-size="20px" font-style="normal" font-weight="normal" text-decoration="normal" x="255.97413730621338" y="765" text-anchor="start" dominant-baseline="alphabetic" transform="matrix(1, 0, 0, 1, 0.5, 0.5)" fill-opacity="1">8</text><text fill="rgb(68,68,68)" stroke="none" font-family="helvetica" font-size="20px" font-style="normal" font-weight="normal" text-decoration="normal" x="336.64956855773926" y="765" text-anchor="start" dominant-baseline="alphabetic" transform="matrix(1, 0, 0, 1, 0.5, 0.5)" fill-opacity="1">10</text><text fill="rgb(68,68,68)" stroke="none" font-family="helvetica" font-size="20px" font-style="normal" font-weight="normal" text-decoration="normal" x="422.88333320617676" y="765" text-anchor="start" dominant-baseline="alphabetic" transform="matrix(1, 0, 0, 1, 0.5, 0.5)" fill-opacity="1">12</text><text fill="rgb(68,68,68)" stroke="none" font-family="helvetica" font-size="20px" font-style="normal" font-weight="normal" text-decoration="normal" x="509.11709785461426" y="765" text-anchor="start" dominant-baseline="alphabetic" transform="matrix(1, 0, 0, 1, 0.5, 0.5)" fill-opacity="1">14</text><text fill="rgb(68,68,68)" stroke="none" font-family="helvetica" font-size="20px" font-style="normal" font-weight="normal" text-decoration="normal" x="595.3508625030518" y="765" text-anchor="start" dominant-baseline="alphabetic" transform="matrix(1, 0, 0, 1, 0.5, 0.5)" fill-opacity="1">16</text><text fill="rgb(68,68,68)" stroke="none" font-family="helvetica" font-size="20px" font-style="normal" font-weight="normal" text-decoration="normal" x="681.5846271514893" y="765" text-anchor="start" dominant-baseline="alphabetic" transform="matrix(1, 0, 0, 1, 0.5, 0.5)" fill-opacity="1">18</text><text fill="rgb(68,68,68)" stroke="none" font-family="helvetica" font-size="20px" font-style="italic" font-weight="normal" text-decoration="normal" x="361.1333312988281" y="793" text-anchor="start" dominant-baseline="alphabetic" transform="matrix(1, 0, 0, 1, 0.5, 0.5)" fill-opacity="1">Solar Panel Size</text><path fill="none" stroke="rgb(0,0,0)" paint-order="fill" d="M 102.5 739.5 L 102.5 5.5" stroke-opacity="1" stroke-linejoin="bevel" stroke-miterlimit="10" stroke-dasharray=""/><path fill="none" stroke="rgb(0,0,0)" paint-order="fill" d="M 96.5 684.5 L 104.5 684.5 M 96.5 561.5 L 104.5 561.5 M 96.5 439.5 L 104.5 439.5 M 96.5 317.5 L 104.5 317.5 M 96.5 194.5 L 104.5 194.5 M 96.5 72.5 L 104.5 72.5" stroke-opacity="1" stroke-linejoin="bevel" stroke-miterlimit="10" stroke-dasharray=""/><path fill="none" stroke="rgb(0,0,0)" paint-order="fill" d="M 98.5 708.5 L 102.5 708.5 M 98.5 732.5 L 102.5 732.5 M 98.5 684.5 L 102.5 684.5 M 98.5 659.5 L 102.5 659.5 M 98.5 635.5 L 102.5 635.5 M 98.5 610.5 L 102.5 610.5 M 98.5 586.5 L 102.5 586.5 M 98.5 561.5 L 102.5 561.5 M 98.5 537.5 L 102.5 537.5 M 98.5 512.5 L 102.5 512.5 M 98.5 488.5 L 102.5 488.5 M 98.5 463.5 L 102.5 463.5 M 98.5 439.5 L 102.5 439.5 M 98.5 414.5 L 102.5 414.5 M 98.5 390.5 L 102.5 390.5 M 98.5 366.5 L 102.5 366.5 M 98.5 341.5 L 102.5 341.5 M 98.5 317.5 L 102.5 317.5 M 98.5 292.5 L 102.5 292.5 M 98.5 268.5 L 102.5 268.5 M 98.5 243.5 L 102.5 243.5 M 98.5 219.5 L 102.5 219.5 M 98.5 194.5 L 102.5 194.5 M 98.5 170.5 L 102.5 170.5 M 98.5 145.5 L 102.5 145.5 M 98.5 121.5 L 102.5 121.5 M 98.5 96.5 L 102.5 96.5 M 98.5 72.5 L 102.5 72.5 M 98.5 48.5 L 102.5 48.5 M 98.5 23.5 L 102.5 23.5" stroke-opacity="1" stroke-linejoin="bevel" stroke-miterlimit="10" stroke-dasharray=""/><text fill="rgb(68,68,68)" stroke="none" font-family="helvetica" font-size="20px" font-style="normal" font-weight="normal" text-decoration="normal" x="35.41666793823242" y="691.006103515625" text-anchor="start" dominant-baseline="alphabetic" transform="matrix(1, 0, 0, 1, 0.5, 0.5)" fill-opacity="1">10000</text><text fill="rgb(68,68,68)" stroke="none" font-family="helvetica" font-size="20px" font-style="normal" font-weight="normal" text-decoration="normal" x="35.41666793823242" y="568.7058715820312" text-anchor="start" dominant-baseline="alphabetic" transform="matrix(1, 0, 0, 1, 0.5, 0.5)" fill-opacity="1">20000</text><text fill="rgb(68,68,68)" stroke="none" font-family="helvetica" font-size="20px" font-style="normal" font-weight="normal" text-decoration="normal" x="35.41666793823242" y="446.40557861328125" text-anchor="start" dominant-baseline="alphabetic" transform="matrix(1, 0, 0, 1, 0.5, 0.5)" fill-opacity="1">30000</text><text fill="rgb(68,68,68)" stroke="none" font-family="helvetica" font-size="20px" font-style="normal" font-weight="normal" text-decoration="normal" x="35.41666793823242" y="324.1053161621094" text-anchor="start" dominant-baseline="alphabetic" transform="matrix(1, 0, 0, 1, 0.5, 0.5)" fill-opacity="1">40000</text><text fill="rgb(68,68,68)" stroke="none" font-family="helvetica" font-size="20px" font-style="normal" font-weight="normal" text-decoration="normal" x="35.41666793823242" y="201.80503845214844" text-anchor="start" dominant-baseline="alphabetic" transform="matrix(1, 0, 0, 1, 0.5, 0.5)" fill-opacity="1">50000</text><text fill="rgb(68,68,68)" stroke="none" font-family="helvetica" font-size="20px" font-style="normal" font-weight="normal" text-decoration="normal" x="35.41666793823242" y="79.50476837158203" text-anchor="start" dominant-baseline="alphabetic" transform="matrix(1, 0, 0, 1, 0.5, 0.5)" fill-opacity="1">60000</text><text fill="rgb(68,68,68)" stroke="none" font-family="helvetica" font-size="20px" font-style="italic" font-weight="normal" text-decoration="normal" x="-113.84999465942383" y="368" text-anchor="start" dominant-baseline="alphabetic" transform="matrix(6.123233995736766e-17, -1, 1, 6.123233995736766e-17, -344.0833320617676, 399.9166679382324)" fill-opacity="1">Total Number of Serviced Users</text><path fill="rgb(255,255,255)" stroke="rgb(229,229,229)" paint-order="fill" d="M 776.0166625976562 15.5 L 1190.5 15.5 L 1190.5 320.5 L 776.0166625976562 320.5 L 776.0166625976562 15.5" fill-opacity="0.9490196078431372" stroke-opacity="0.5019607843137255" stroke-linejoin="bevel" stroke-miterlimit="10" stroke-dasharray=""/><text fill="rgb(68,68,68)" stroke="none" font-family="helvetica" font-size="18px" font-style="normal" font-weight="normal" text-decoration="normal" x="810.5166625976562" y="35.5" text-anchor="start" dominant-baseline="central" transform="matrix(1, 0, 0, 1, 0.5, 0.5)" fill-opacity="1">No Policy - Epsilon Greedy</text><path fill="none" stroke="rgb(31,119,180)" paint-order="fill" d="M 786.0166625976562 35.5 L 806.0166625976562 35.5" stroke-opacity="1" stroke-linejoin="bevel" stroke-miterlimit="10" stroke-width="3" stroke-dasharray=""/><text fill="rgb(68,68,68)" stroke="none" font-family="helvetica" font-size="18px" font-style="normal" font-weight="normal" text-decoration="normal" x="810.5166625976562" y="59.5" text-anchor="start" dominant-baseline="central" transform="matrix(1, 0, 0, 1, 0.5, 0.5)" fill-opacity="1">Cheapest Users - Epsilon Greedy</text><path fill="none" stroke="rgb(174,199,232)" paint-order="fill" d="M 786.0166625976562 59.5 L 806.0166625976562 59.5" stroke-opacity="1" stroke-linejoin="bevel" stroke-miterlimit="10" stroke-width="3" stroke-dasharray=""/><text fill="rgb(68,68,68)" stroke="none" font-family="helvetica" font-size="18px" font-style="normal" font-weight="normal" text-decoration="normal" x="810.5166625976562" y="83.5" text-anchor="start" dominant-baseline="central" transform="matrix(1, 0, 0, 1, 0.5, 0.5)" fill-opacity="1">No Policy - UCB1</text><path fill="none" stroke="rgb(255,127,14)" paint-order="fill" d="M 786.0166625976562 83.5 L 806.0166625976562 83.5" stroke-opacity="1" stroke-linejoin="bevel" stroke-miterlimit="10" stroke-width="3" stroke-dasharray=""/><text fill="rgb(68,68,68)" stroke="none" font-family="helvetica" font-size="18px" font-style="normal" font-weight="normal" text-decoration="normal" x="810.5166625976562" y="107.5" text-anchor="start" dominant-baseline="central" transform="matrix(1, 0, 0, 1, 0.5, 0.5)" fill-opacity="1">Cheapest Users - UCB1</text><path fill="none" stroke="rgb(255,187,120)" paint-order="fill" d="M 786.0166625976562 107.5 L 806.0166625976562 107.5" stroke-opacity="1" stroke-linejoin="bevel" stroke-miterlimit="10" stroke-width="3" stroke-dasharray=""/><text fill="rgb(68,68,68)" stroke="none" font-family="helvetica" font-size="18px" font-style="normal" font-weight="normal" text-decoration="normal" x="810.5166625976562" y="131.5" text-anchor="start" dominant-baseline="central" transform="matrix(1, 0, 0, 1, 0.5, 0.5)" fill-opacity="1">No Transmission Policy - Shared Evenly</text><path fill="none" stroke="rgb(44,160,44)" paint-order="fill" d="M 786.0166625976562 131.5 L 806.0166625976562 131.5" stroke-opacity="1" stroke-linejoin="bevel" stroke-miterlimit="10" stroke-width="3" stroke-dasharray=""/><text fill="rgb(68,68,68)" stroke="none" font-family="helvetica" font-size="18px" font-style="normal" font-weight="normal" text-decoration="normal" x="810.5166625976562" y="155.5" text-anchor="start" dominant-baseline="central" transform="matrix(1, 0, 0, 1, 0.5, 0.5)" fill-opacity="1">Cheapest Users - Shared Evenly</text><path fill="none" stroke="rgb(152,223,138)" paint-order="fill" d="M 786.0166625976562 155.5 L 806.0166625976562 155.5" stroke-opacity="1" stroke-linejoin="bevel" stroke-miterlimit="10" stroke-width="3" stroke-dasharray=""/><text fill="rgb(68,68,68)" stroke="none" font-family="helvetica" font-size="18px" font-style="normal" font-weight="normal" text-decoration="normal" x="810.5166625976562" y="179.5" text-anchor="start" dominant-baseline="central" transform="matrix(1, 0, 0, 1, 0.5, 0.5)" fill-opacity="1">No Transmission Policy - AP Energy Arrival</text><path fill="none" stroke="rgb(214,39,40)" paint-order="fill" d="M 786.0166625976562 179.5 L 806.0166625976562 179.5" stroke-opacity="1" stroke-linejoin="bevel" stroke-miterlimit="10" stroke-width="3" stroke-dasharray=""/><text fill="rgb(68,68,68)" stroke="none" font-family="helvetica" font-size="18px" font-style="normal" font-weight="normal" text-decoration="normal" x="810.5166625976562" y="203.5" text-anchor="start" dominant-baseline="central" transform="matrix(1, 0, 0, 1, 0.5, 0.5)" fill-opacity="1">Cheapest Users - AP Energy Arrival</text><path fill="none" stroke="rgb(255,152,150)" paint-order="fill" d="M 786.0166625976562 203.5 L 806.0166625976562 203.5" stroke-opacity="1" stroke-linejoin="bevel" stroke-miterlimit="10" stroke-width="3" stroke-dasharray=""/><text fill="rgb(68,68,68)" stroke="none" font-family="helvetica" font-size="18px" font-style="normal" font-weight="normal" text-decoration="normal" x="810.5166625976562" y="227.5" text-anchor="start" dominant-baseline="central" transform="matrix(1, 0, 0, 1, 0.5, 0.5)" fill-opacity="1">No Transmission Policy - AP Energy Use</text><path fill="none" stroke="rgb(148,103,189)" paint-order="fill" d="M 786.0166625976562 227.5 L 806.0166625976562 227.5" stroke-opacity="1" stroke-linejoin="bevel" stroke-miterlimit="10" stroke-width="3" stroke-dasharray=""/><text fill="rgb(68,68,68)" stroke="none" font-family="helvetica" font-size="18px" font-style="normal" font-weight="normal" text-decoration="normal" x="810.5166625976562" y="251.5" text-anchor="start" dominant-baseline="central" transform="matrix(1, 0, 0, 1, 0.5, 0.5)" fill-opacity="1">Cheapest Users - AP Energy Use</text><path fill="none" stroke="rgb(197,176,213)" paint-order="fill" d="M 786.0166625976562 251.5 L 806.0166625976562 251.5" stroke-opacity="1" stroke-linejoin="bevel" stroke-miterlimit="10" stroke-width="3" stroke-dasharray=""/><text fill="rgb(68,68,68)" stroke="none" font-family="helvetica" font-size="18px" font-style="normal" font-weight="normal" text-decoration="normal" x="810.5166625976562" y="275.5" text-anchor="start" dominant-baseline="central" transform="matrix(1, 0, 0, 1, 0.5, 0.5)" fill-opacity="1">No Transmission Policy - AP Energy Efficiency</text><path fill="none" stroke="rgb(140,86,75)" paint-order="fill" d="M 786.0166625976562 275.5 L 806.0166625976562 275.5" stroke-opacity="1" stroke-linejoin="bevel" stroke-miterlimit="10" stroke-width="3" stroke-dasharray=""/><text fill="rgb(68,68,68)" stroke="none" font-family="helvetica" font-size="18px" font-style="normal" font-weight="normal" text-decoration="normal" x="810.5166625976562" y="299.5" text-anchor="start" dominant-baseline="central" transform="matrix(1, 0, 0, 1, 0.5, 0.5)" fill-opacity="1">Cheapest Users - AP Energy Efficiency</text><path fill="none" stroke="rgb(196,156,148)" paint-order="fill" d="M 786.0166625976562 299.5 L 806.0166625976562 299.5" stroke-opacity="1" stroke-linejoin="bevel" stroke-miterlimit="10" stroke-width="3" stroke-dasharray=""/><path fill="rgb(255,255,255)" stroke="rgb(229,229,229)" paint-order="fill" d="M 776.0166625976562 15.5 L 1190.5 15.5 L 1190.5 320.5 L 776.0166625976562 320.5 L 776.0166625976562 15.5" fill-opacity="0.9490196078431372" stroke-opacity="0.5019607843137255" stroke-linejoin="bevel" stroke-miterlimit="10" stroke-dasharray=""/><text fill="rgb(68,68,68)" stroke="none" font-family="helvetica" font-size="18px" font-style="normal" font-weight="normal" text-decoration="normal" x="810.5166625976562" y="35.5" text-anchor="start" dominant-baseline="central" transform="matrix(1, 0, 0, 1, 0.5, 0.5)" fill-opacity="1">No Policy - Epsilon Greedy</text><path fill="none" stroke="rgb(31,119,180)" paint-order="fill" d="M 786.0166625976562 35.5 L 806.0166625976562 35.5" stroke-opacity="1" stroke-linejoin="bevel" stroke-miterlimit="10" stroke-width="3" stroke-dasharray=""/><text fill="rgb(68,68,68)" stroke="none" font-family="helvetica" font-size="18px" font-style="normal" font-weight="normal" text-decoration="normal" x="810.5166625976562" y="59.5" text-anchor="start" dominant-baseline="central" transform="matrix(1, 0, 0, 1, 0.5, 0.5)" fill-opacity="1">Cheapest Users - Epsilon Greedy</text><path fill="none" stroke="rgb(174,199,232)" paint-order="fill" d="M 786.0166625976562 59.5 L 806.0166625976562 59.5" stroke-opacity="1" stroke-linejoin="bevel" stroke-miterlimit="10" stroke-width="3" stroke-dasharray=""/><text fill="rgb(68,68,68)" stroke="none" font-family="helvetica" font-size="18px" font-style="normal" font-weight="normal" text-decoration="normal" x="810.5166625976562" y="83.5" text-anchor="start" dominant-baseline="central" transform="matrix(1, 0, 0, 1, 0.5, 0.5)" fill-opacity="1">No Policy - UCB1</text><path fill="none" stroke="rgb(255,127,14)" paint-order="fill" d="M 786.0166625976562 83.5 L 806.0166625976562 83.5" stroke-opacity="1" stroke-linejoin="bevel" stroke-miterlimit="10" stroke-width="3" stroke-dasharray=""/><text fill="rgb(68,68,68)" stroke="none" font-family="helvetica" font-size="18px" font-style="normal" font-weight="normal" text-decoration="normal" x="810.5166625976562" y="107.5" text-anchor="start" dominant-baseline="central" transform="matrix(1, 0, 0, 1, 0.5, 0.5)" fill-opacity="1">Cheapest Users - UCB1</text><path fill="none" stroke="rgb(255,187,120)" paint-order="fill" d="M 786.0166625976562 107.5 L 806.0166625976562 107.5" stroke-opacity="1" stroke-linejoin="bevel" stroke-miterlimit="10" stroke-width="3" stroke-dasharray=""/><text fill="rgb(68,68,68)" stroke="none" font-family="helvetica" font-size="18px" font-style="normal" font-weight="normal" text-decoration="normal" x="810.5166625976562" y="131.5" text-anchor="start" dominant-baseline="central" transform="matrix(1, 0, 0, 1, 0.5, 0.5)" fill-opacity="1">No Transmission Policy - Shared Evenly</text><path fill="none" stroke="rgb(44,160,44)" paint-order="fill" d="M 786.0166625976562 131.5 L 806.0166625976562 131.5" stroke-opacity="1" stroke-linejoin="bevel" stroke-miterlimit="10" stroke-width="3" stroke-dasharray=""/><text fill="rgb(68,68,68)" stroke="none" font-family="helvetica" font-size="18px" font-style="normal" font-weight="normal" text-decoration="normal" x="810.5166625976562" y="155.5" text-anchor="start" dominant-baseline="central" transform="matrix(1, 0, 0, 1, 0.5, 0.5)" fill-opacity="1">Cheapest Users - Shared Evenly</text><path fill="none" stroke="rgb(152,223,138)" paint-order="fill" d="M 786.0166625976562 155.5 L 806.0166625976562 155.5" stroke-opacity="1" stroke-linejoin="bevel" stroke-miterlimit="10" stroke-width="3" stroke-dasharray=""/><text fill="rgb(68,68,68)" stroke="none" font-family="helvetica" font-size="18px" font-style="normal" font-weight="normal" text-decoration="normal" x="810.5166625976562" y="179.5" text-anchor="start" dominant-baseline="central" transform="matrix(1, 0, 0, 1, 0.5, 0.5)" fill-opacity="1">No Transmission Policy - AP Energy Arrival</text><path fill="none" stroke="rgb(214,39,40)" paint-order="fill" d="M 786.0166625976562 179.5 L 806.0166625976562 179.5" stroke-opacity="1" stroke-linejoin="bevel" stroke-miterlimit="10" stroke-width="3" stroke-dasharray=""/><text fill="rgb(68,68,68)" stroke="none" font-family="helvetica" font-size="18px" font-style="normal" font-weight="normal" text-decoration="normal" x="810.5166625976562" y="203.5" text-anchor="start" dominant-baseline="central" transform="matrix(1, 0, 0, 1, 0.5, 0.5)" fill-opacity="1">Cheapest Users - AP Energy Arrival</text><path fill="none" stroke="rgb(255,152,150)" paint-order="fill" d="M 786.0166625976562 203.5 L 806.0166625976562 203.5" stroke-opacity="1" stroke-linejoin="bevel" stroke-miterlimit="10" stroke-width="3" stroke-dasharray=""/><text fill="rgb(68,68,68)" stroke="none" font-family="helvetica" font-size="18px" font-style="normal" font-weight="normal" text-decoration="normal" x="810.5166625976562" y="227.5" text-anchor="start" dominant-baseline="central" transform="matrix(1, 0, 0, 1, 0.5, 0.5)" fill-opacity="1">No Transmission Policy - AP Energy Use</text><path fill="none" stroke="rgb(148,103,189)" paint-order="fill" d="M 786.0166625976562 227.5 L 806.0166625976562 227.5" stroke-opacity="1" stroke-linejoin="bevel" stroke-miterlimit="10" stroke-width="3" stroke-dasharray=""/><text fill="rgb(68,68,68)" stroke="none" font-family="helvetica" font-size="18px" font-style="normal" font-weight="normal" text-decoration="normal" x="810.5166625976562" y="251.5" text-anchor="start" dominant-baseline="central" transform="matrix(1, 0, 0, 1, 0.5, 0.5)" fill-opacity="1">Cheapest Users - AP Energy Use</text><path fill="none" stroke="rgb(197,176,213)" paint-order="fill" d="M 786.0166625976562 251.5 L 806.0166625976562 251.5" stroke-opacity="1" stroke-linejoin="bevel" stroke-miterlimit="10" stroke-width="3" stroke-dasharray=""/><text fill="rgb(68,68,68)" stroke="none" font-family="helvetica" font-size="18px" font-style="normal" font-weight="normal" text-decoration="normal" x="810.5166625976562" y="275.5" text-anchor="start" dominant-baseline="central" transform="matrix(1, 0, 0, 1, 0.5, 0.5)" fill-opacity="1">No Transmission Policy - AP Energy Efficiency</text><path fill="none" stroke="rgb(140,86,75)" paint-order="fill" d="M 786.0166625976562 275.5 L 806.0166625976562 275.5" stroke-opacity="1" stroke-linejoin="bevel" stroke-miterlimit="10" stroke-width="3" stroke-dasharray=""/><text fill="rgb(68,68,68)" stroke="none" font-family="helvetica" font-size="18px" font-style="normal" font-weight="normal" text-decoration="normal" x="810.5166625976562" y="299.5" text-anchor="start" dominant-baseline="central" transform="matrix(1, 0, 0, 1, 0.5, 0.5)" fill-opacity="1">Cheapest Users - AP Energy Efficiency</text><path fill="none" stroke="rgb(196,156,148)" paint-order="fill" d="M 786.0166625976562 299.5 L 806.0166625976562 299.5" stroke-opacity="1" stroke-linejoin="bevel" stroke-miterlimit="10" stroke-width="3" stroke-dasharray=""/></svg>