<svg version="1.1" xmlns="http://www.w3.org/2000/svg" width="1200" height="800"><defs><clipPath id="cALhmpZPpBGM"><path fill="none" stroke="none" d="M 130.5 5.5 L 766.5 5.5 L 766.5 739.5 L 130.5 739.5 L 130.5 5.5"/></clipPath><clipPath id="FqwAyppGRHyV"><path fill="none" stroke="none" d="M 130.5 5.5 L 766.5 5.5 L 766.5 739.5 L 130.5 739.5 L 130.5 5.5"/></clipPath><clipPath id="xxQzSlmDPccm"><path fill="none" stroke="none" d="M 130.5 5.5 L 766.5 5.5 L 766.5 739.5 L 130.5 739.5 L 130.5 5.5"/></clipPath><clipPath id="KROHVylXWybA"><path fill="none" stroke="none" d="M 130.5 5.5 L 766.5 5.5 L 766.5 739.5 L 130.5 739.5 L 130.5 5.5"/></clipPath><clipPath id="GQRynSfLfplG"><path fill="none" stroke="none" d="M 130.5 5.5 L 766.5 5.5 L 766.5 739.5 L 130.5 739.5 L 130.5 5.5"/></clipPath><clipPath id="zIJEQXfqJFUI"><path fill="none" stroke="none" d="M 130.5 5.5 L 766.5 5.5 L 766.5 739.5 L 130.5 739.5 L 130.5 5.5"/></clipPath><clipPath id="ZVUxeqKHGfbL"><path fill="none" stroke="none" d="M 130.5 5.5 L 766.5 5.5 L 766.5 739.5 L 130.5 739.5 L 130.5 5.5"/></clipPath><clipPath id="PHBuwgqWBubH"><path fill="none" stroke="none" d="M 130.5 5.5 L 766.5 5.5 L 766.5 739.5 L 130.5 739.5 L 130.5 5.5"/></clipPath><clipPath id="ZkSqxmJaoHPd"><path fill="none" stroke="none" d="M 130.5 5.5 L 766.5 5.5 L 766.5 739.5 L 130.5 739.5 L 130.5 5.5"/></clipPath><clipPath id="EwRLcKqPryXB"><path fill="none" stroke="none" d="M 130.5 5.5 L 766.5 5.5 L 766.5 739.5 L 130.5 739.5 L 130.5 5.5"/></clipPath><clipPath id="ILSbuqGvWUAT"><path fill="none" stroke="none" d="M 130.5 5.5 L 766.5 5.5 L 766.5 739.5 L 130.5 739.5 L 130.5 5.5"/></clipPath><clipPath id="hfUDqHXDEWDC"><path fill="none" stroke="none" d="M 130.5 5.5 L 766.5 5.5 L 766.5 739.5 L 130.5 739.5 L 130.5 5.5"/></clipPath><clipPath id="MWmuLxIQKdiu"><path fill="none" stroke="none" d="M 130.5 5.5 L 766.5 5.5 L 766.5 739.5 L 130.5 739.5 L 130.5 5.5"/></clipPath><clipPath id="nkMvfnLtdwKP"><path fill="none" stroke="none" d="M 130.5 5.5 L 766.5 5.5 L 766.5 739.5 L 130.5 739.5 L 130.5 5.5"/></clipPath><clipPath id="BONiUWJvmPzH"><path fill="none" stroke="none" d="M 130.5 5.5 L 766.5 5.5 L 766.5 739.5 L 130.5 739.5 L 130.5 5.5"/></clipPath></defs><path fill="rgb(255,255,255)" stroke="none" paint-order="stroke" d="M 0.5 0.5 L 1200.5 0.5 L 1200.5 800.5 L 0.5 800.5 L 0.5 0.5" fill-opacity="1"/><rect fill="#FFFFFF" stroke="none" x="130" y="5" width="636" height="734" transform="matrix(1, 0, 0, 1, 0.5, 0.5)"/><path fill="rgb(255,255,255)" stroke="none" paint-order="stroke" d="M 130.5 5.5 L 766.5 5.5 L 766.5 739.5 L 130.5 739.5 L 130.5 5.5" fill-opacity="1"/><path fill="none" stroke="rgb(229,229,229)" paint-order="fill" d="M 130.5 5.5 L 766.5 5.5 L 766.5 739.5 L 130.5 739.5 L 130.5 5.5" stroke-opacity="1" stroke-linejoin="bevel" stroke-miterlimit="10" stroke-dasharray=""/><path fill="none" stroke="rgb(229,229,229)" paint-order="fill" d="M 197.5 739.5 L 197.5 5.5 M 275.5 739.5 L 275.5 5.5 M 352.5 739.5 L 352.5 5.5 M 429.5 739.5 L 429.5 5.5 M 506.5 739.5 L 506.5 5.5 M 583.5 739.5 L 583.5 5.5 M 660.5 739.5 L 660.5 5.5 M 737.5 739.5 L 737.5 5.5" stroke-opacity="1" stroke-linejoin="bevel" stroke-miterlimit="10" stroke-dasharray="" clip-path="url(#cALhmpZPpBGM)"/><path fill="none" stroke="rgb(229,229,229)" paint-order="fill" d="M 130.5 721.5 L 766.5 721.5 M 130.5 621.5 L 766.5 621.5 M 130.5 522.5 L 766.5 522.5 M 130.5 422.5 L 766.5 422.5 M 130.5 323.5 L 766.5 323.5 M 130.5 223.5 L 766.5 223.5 M 130.5 123.5 L 766.5 123.5 M 130.5 24.5 L 766.5 24.5" stroke-opacity="1" stroke-linejoin="bevel" stroke-miterlimit="10" stroke-dasharray="" clip-path="url(#FqwAyppGRHyV)"/><path fill="none" stroke="rgb(31,119,180)" paint-order="fill" d="M 159.40908813476562 686.5346069335938 L 352.1363525390625 468.1527099609375 L 544.8636474609375 253.4297637939453 L 737.5908813476562 114.29109191894531" stroke-opacity="1" stroke-linejoin="bevel" stroke-miterlimit="10" stroke-width="3" stroke-dasharray="" clip-path="url(#xxQzSlmDPccm)"/><path fill="none" stroke="rgb(174,199,232)" paint-order="fill" d="M 159.40908813476562 676.4139404296875 L 352.1363525390625 482.55718994140625 L 544.8636474609375 309.5243225097656 L 737.5908813476562 82.47281646728516" stroke-opacity="1" stroke-linejoin="bevel" stroke-miterlimit="10" stroke-width="3" stroke-dasharray="" clip-path="url(#KROHVylXWybA)"/><path fill="none" stroke="rgb(255,127,14)" paint-order="fill" d="M 159.40908813476562 675.0623168945312 L 352.1363525390625 477.7183532714844 L 544.8636474609375 285.6935729980469 L 737.5908813476562 47.289268493652344" stroke-opacity="1" stroke-linejoin="bevel" stroke-miterlimit="10" stroke-width="3" stroke-dasharray="" clip-path="url(#GQRynSfLfplG)"/><path fill="none" stroke="rgb(255,187,120)" paint-order="fill" d="M 159.40908813476562 676.715087890625 L 352.1363525390625 487.8241271972656 L 544.8636474609375 256.6631164550781 L 737.5908813476562 38.8636360168457" stroke-opacity="1" stroke-linejoin="bevel" stroke-miterlimit="10" stroke-width="3" stroke-dasharray="" clip-path="url(#zIJEQXfqJFUI)"/><path fill="none" stroke="rgb(44,160,44)" paint-order="fill" d="M 159.40908813476562 706.1363525390625 L 352.1363525390625 652.1824340820312 L 544.8636474609375 593.297607421875 L 737.5908813476562 535.3660888671875" stroke-opacity="1" stroke-linejoin="bevel" stroke-miterlimit="10" stroke-width="3" stroke-dasharray="" clip-path="url(#ZVUxeqKHGfbL)"/><path fill="none" stroke="rgb(152,223,138)" paint-order="fill" d="M 159.40908813476562 704.435302734375 L 352.1363525390625 652.2631225585938 L 544.8636474609375 575.65283203125 L 737.5908813476562 527.0225830078125" stroke-opacity="1" stroke-linejoin="bevel" stroke-miterlimit="10" stroke-width="3" stroke-dasharray="" clip-path="url(#PHBuwgqWBubH)"/><path fill="none" stroke="rgb(214,39,40)" paint-order="fill" d="M 159.40908813476562 699.5252685546875 L 352.1363525390625 563.8539428710938 L 544.8636474609375 383.2243347167969 L 737.5908813476562 199.14230346679688" stroke-opacity="1" stroke-linejoin="bevel" stroke-miterlimit="10" stroke-width="3" stroke-dasharray="" clip-path="url(#ZkSqxmJaoHPd)"/><path fill="none" stroke="rgb(255,152,150)" paint-order="fill" d="M 159.40908813476562 683.1519165039062 L 352.1363525390625 540.8421630859375 L 544.8636474609375 416.3344421386719 L 737.5908813476562 276.6556396484375" stroke-opacity="1" stroke-linejoin="bevel" stroke-miterlimit="10" stroke-width="3" stroke-dasharray="" clip-path="url(#EwRLcKqPryXB)"/><path fill="none" stroke="rgb(148,103,189)" paint-order="fill" d="M 159.40908813476562 691.5128784179688 L 352.1363525390625 483.9859313964844 L 544.8636474609375 339.224365234375 L 737.5908813476562 137.95753479003906" stroke-opacity="1" stroke-linejoin="bevel" stroke-miterlimit="10" stroke-width="3" stroke-dasharray="" clip-path="url(#ILSbuqGvWUAT)"/><path fill="none" stroke="rgb(197,176,213)" paint-order="fill" d="M 159.40908813476562 694.6195068359375 L 352.1363525390625 476.55816650390625 L 544.8636474609375 308.1727294921875 L 737.5908813476562 89.0390853881836" stroke-opacity="1" stroke-linejoin="bevel" stroke-miterlimit="10" stroke-width="3" stroke-dasharray="" clip-path="url(#hfUDqHXDEWDC)"/><path fill="none" stroke="rgb(140,86,75)" paint-order="fill" d="M 159.40908813476562 670.9254150390625 L 352.1363525390625 484.04815673828125 L 544.8636474609375 309.0513916015625 L 737.5908813476562 172.07325744628906" stroke-opacity="1" stroke-linejoin="bevel" stroke-miterlimit="10" stroke-width="3" stroke-dasharray="" clip-path="url(#MWmuLxIQKdiu)"/><path fill="none" stroke="rgb(196,156,148)" paint-order="fill" d="M 159.40908813476562 687.697021484375 L 352.1363525390625 483.8111877441406 L 544.8636474609375 331.4857177734375 L 737.5908813476562 95.3564453125" stroke-opacity="1" stroke-linejoin="bevel" stroke-miterlimit="10" stroke-width="3" stroke-dasharray="" clip-path="url(#nkMvfnLtdwKP)"/><path fill="none" stroke="rgb(0,0,0)" paint-order="fill" d="M 130.5 739.5 L 766.5 739.5" stroke-opacity="1" stroke-linejoin="bevel" stroke-miterlimit="10" stroke-dasharray=""/><path fill="none" stroke="rgb(0,0,0)" paint-order="fill" d="M 197.5 745.5 L 197.5 737.5 M 275.5 745.5 L 275.5 737.5 M 352.5 745.5 L 352.5 737.5 M 429.5 745.5 L 429.5 737.5 M 506.5 745.5 L 506.5 737.5 M 583.5 745.5 L 583.5 737.5 M 660.5 745.5 L 660.5 737.5 M 737.5 745.5 L 737.5 737.5" stroke-opacity="1" stroke-linejoin="bevel" stroke-miterlimit="10" stroke-dasharray=""/><path fill="none" stroke="rgb(0,0,0)" paint-order="fill" d="M 182.5 743.5 L 182.5 739.5 M 167.5 743.5 L 167.5 739.5 M 151.5 743.5 L 151.5 739.5 M 136.5 743.5 L 136.5 739.5 M 197.5 743.5 L 197.5 739.5 M 213.5 743.5 L 213.5 739.5 M 228.5 743.5 L 228.5 739.5 M 244.5 743.5 L 244.5 739.5 M 259.5 743.5 L 259.5 739.5 M 275.5 743.5 L 275.5 739.5 M 290.5 743.5 L 290.5 739.5 M 305.5 743.5 L 305.5 739.5 M 321.5 743.5 L 321.5 739.5 M 336.5 743.5 L 336.5 739.5 M 352.5 743.5 L 352.5 739.5 M 367.5 743.5 L 367.5 739.5 M 382.5 743.5 L 382.5 739.5 M 398.5 743.5 L 398.5 739.5 M 413.5 743.5 L 413.5 739.5 M 429.5 743.5 L 429.5 739.5 M 444.5 743.5 L 444.5 739.5 M 460.5 743.5 L 460.5 739.5 M 475.5 743.5 L 475.5 739.5 M 490.5 743.5 L 490.5 739.5 M 506.5 743.5 L 506.5 739.5 M 521.5 743.5 L 521.5 739.5 M 537.5 743.5 L 537.5 739.5 M 552.5 743.5 L 552.5 739.5 M 567.5 743.5 L 567.5 739.5 M 583.5 743.5 L 583.5 739.5 M 598.5 743.5 L 598.5 739.5 M 614.5 743.5 L 614.5 739.5 M 629.5 743.5 L 629.5 739.5 M 645.5 743.5 L 645.5 739.5 M 660.5 743.5 L 660.5 739.5 M 675.5 743.5 L 675.5 739.5 M 691.5 743.5 L 691.5 739.5 M 706.5 743.5 L 706.5 739.5 M 722.5 743.5 L 722.5 739.5 M 737.5 743.5 L 737.5 739.5 M 753.5 743.5 L 753.5 739.5" stroke-opacity="1" stroke-linejoin="bevel" stroke-miterlimit="10" stroke-dasharray=""/><text fill="rgb(68,68,68)" stroke="none" font-family="helvetica" font-size="20px" font-style="normal" font-weight="normal" text-decoration="normal" x="177.9962100982666" y="765" text-anchor="start" dominant-baseline="alphabetic" transform="matrix(1, 0, 0, 1, 0.5, 0.5)" fill-opacity="1">0.02</text><text fill="rgb(68,68,68)" stroke="none" font-family="helvetica" font-size="20px" font-style="normal" font-weight="normal" text-decoration="normal" x="255.0871067047119" y="765" text-anchor="start" dominant-baseline="alphabetic" transform="matrix(1, 0, 0, 1, 0.5, 0.5)" fill-opacity="1">0.04</text><text fill="rgb(68,68,68)" stroke="none" font-family="helvetica" font-size="20px" font-style="normal" font-weight="normal" text-decoration="normal" x="332.1780185699463" y="765" text-anchor="start" dominant-baseline="alphabetic" transform="matrix(1, 0, 0, 1, 0.5, 0.5)" fill-opacity="1">0.06</text><text fill="rgb(68,68,68)" stroke="none" font-family="helvetica" font-size="20px" font-style="normal" font-weight="normal" text-decoration="normal" x="409.26893043518066" y="765" text-anchor="start" dominant-baseline="alphabetic" transform="matrix(1, 0, 0, 1, 0.5, 0.5)" fill-opacity="1">0.08</text><text fill="rgb(68,68,68)" stroke="none" font-family="helvetica" font-size="20px" font-style="normal" font-weight="normal" text-decoration="normal" x="491.918176651001" y="765" text-anchor="start" dominant-baseline="alphabetic" transform="matrix(1, 0, 0, 1, 0.5, 0.5)" fill-opacity="1">0.1</text><text fill="rgb(68,68,68)" stroke="none" font-family="helvetica" font-size="20px" font-style="normal" font-weight="normal" text-decoration="normal" x="563.4507846832275" y="765" text-anchor="start" dominant-baseline="alphabetic" transform="matrix(1, 0, 0, 1, 0.5, 0.5)" fill-opacity="1">0.12</text><text fill="rgb(68,68,68)" stroke="none" font-family="helvetica" font-size="20px" font-style="normal" font-weight="normal" text-decoration="normal" x="640.5416660308838" y="765" text-anchor="start" dominant-baseline="alphabetic" transform="matrix(1, 0, 0, 1, 0.5, 0.5)" fill-opacity="1">0.14</text><text fill="rgb(68,68,68)" stroke="none" font-family="helvetica" font-size="20px" font-style="normal" font-weight="normal" text-decoration="normal" x="717.63254737854" y="765" text-anchor="start" dominant-baseline="alphabetic" transform="matrix(1, 0, 0, 1, 0.5, 0.5)" fill-opacity="1">0.16</text><text fill="rgb(68,68,68)" stroke="none" font-family="helvetica" font-size="20px" font-style="italic" font-weight="normal" text-decoration="normal" x="295.7083282470703" y="793" text-anchor="start" dominant-baseline="alphabetic" transform="matrix(1, 0, 0, 1, 0.5, 0.5)" fill-opacity="1">Lambda for Poisson Point Process</text><path fill="none" stroke="rgb(0,0,0)" paint-order="fill" d="M 130.5 739.5 L 130.5 5.5" stroke-opacity="1" stroke-linejoin="bevel" stroke-miterlimit="10" stroke-dasharray=""/><path fill="none" stroke="rgb(0,0,0)" paint-order="fill" d="M 124.5 721.5 L 132.5 721.5 M 124.5 621.5 L 132.5 621.5 M 124.5 522.5 L 132.5 522.5 M 124.5 422.5 L 132.5 422.5 M 124.5 323.5 L 132.5 323.5 M 124.5 223.5 L 132.5 223.5 M 124.5 123.5 L 132.5 123.5 M 124.5 24.5 L 132.5 24.5" stroke-opacity="1" stroke-linejoin="bevel" stroke-miterlimit="10" stroke-dasharray=""/><path fill="none" stroke="rgb(0,0,0)" paint-order="fill" d="M 126.5 721.5 L 130.5 721.5 M 126.5 701.5 L 130.5 701.5 M 126.5 681.5 L 130.5 681.5 M 126.5 661.5 L 130.5 661.5 M 126.5 641.5 L 130.5 641.5 M 126.5 621.5 L 130.5 621.5 M 126.5 601.5 L 130.5 601.5 M 126.5 581.5 L 130.5 581.5 M 126.5 562.5 L 130.5 562.5 M 126.5 542.5 L 130.5 542.5 M 126.5 522.5 L 130.5 522.5 M 126.5 502.5 L 130.5 502.5 M 126.5 482.5 L 130.5 482.5 M 126.5 462.5 L 130.5 462.5 M 126.5 442.5 L 130.5 442.5 M 126.5 422.5 L 130.5 422.5 M 126.5 402.5 L 130.5 402.5 M 126.5 382.5 L 130.5 382.5 M 126.5 362.5 L 130.5 362.5 M 126.5 342.5 L 130.5 342.5 M 126.5 323.5 L 130.5 323.5 M 126.5 303.5 L 130.5 303.5 M 126.5 283.5 L 130.5 283.5 M 126.5 263.5 L 130.5 263.5 M 126.5 243.5 L 130.5 243.5 M 126.5 223.5 L 130.5 223.5 M 126.5 203.5 L 130.5 203.5 M 126.5 183.5 L 130.5 183.5 M 126.5 163.5 L 130.5 163.5 M 126.5 143.5 L 130.5 143.5 M 126.5 123.5 L 130.5 123.5 M 126.5 104.5 L 130.5 104.5 M 126.5 84.5 L 130.5 84.5 M 126.5 64.5 L 130.5 64.5 M 126.5 44.5 L 130.5 44.5 M 126.5 24.5 L 130.5 24.5" stroke-opacity="1" stroke-linejoin="bevel" stroke-miterlimit="10" stroke-dasharray=""/><text fill="rgb(68,68,68)" stroke="none" font-family="helvetica" font-size="20px" font-style="normal" font-weight="normal" text-decoration="normal" x="35.05000305175781" y="728.33984375" text-anchor="start" dominant-baseline="alphabetic" transform="matrix(1, 0, 0, 1, 0.5, 0.5)" fill-opacity="1">0.000e+0</text><text fill="rgb(68,68,68)" stroke="none" font-family="helvetica" font-size="20px" font-style="normal" font-weight="normal" text-decoration="normal" x="35.05000305175781" y="628.7755126953125" text-anchor="start" dominant-baseline="alphabetic" transform="matrix(1, 0, 0, 1, 0.5, 0.5)" fill-opacity="1">2.000e+4</text><text fill="rgb(68,68,68)" stroke="none" font-family="helvetica" font-size="20px" font-style="normal" font-weight="normal" text-decoration="normal" x="35.05000305175781" y="529.211181640625" text-anchor="start" dominant-baseline="alphabetic" transform="matrix(1, 0, 0, 1, 0.5, 0.5)" fill-opacity="1">4.000e+4</text><text fill="rgb(68,68,68)" stroke="none" font-family="helvetica" font-size="20px" font-style="normal" font-weight="normal" text-decoration="normal" x="35.05000305175781" y="429.6468200683594" text-anchor="start" dominant-baseline="alphabetic" transform="matrix(1, 0, 0, 1, 0.5, 0.5)" fill-opacity="1">6.000e+4</text><text fill="rgb(68,68,68)" stroke="none" font-family="helvetica" font-size="20px" font-style="normal" font-weight="normal" text-decoration="normal" x="35.05000305175781" y="330.0824890136719" text-anchor="start" dominant-baseline="alphabetic" transform="matrix(1, 0, 0, 1, 0.5, 0.5)" fill-opacity="1">8.000e+4</text><text fill="rgb(68,68,68)" stroke="none" font-family="helvetica" font-size="20px" font-style="normal" font-weight="normal" text-decoration="normal" x="35.05000305175781" y="230.5181427001953" text-anchor="start" dominant-baseline="alphabetic" transform="matrix(1, 0, 0, 1, 0.5, 0.5)" fill-opacity="1">1.000e+5</text><text fill="rgb(68,68,68)" stroke="none" font-family="helvetica" font-size="20px" font-style="normal" font-weight="normal" text-decoration="normal" x="35.05000305175781" y="130.9538116455078" text-anchor="start" dominant-baseline="alphabetic" transform="matrix(1, 0, 0, 1, 0.5, 0.5)" fill-opacity="1">1.200e+5</text><text fill="rgb(68,68,68)" stroke="none" font-family="helvetica" font-size="20px" font-style="normal" font-weight="normal" text-decoration="normal" x="35.05000305175781" y="31.38947105407715" text-anchor="start" dominant-baseline="alphabetic" transform="matrix(1, 0, 0, 1, 0.5, 0.5)" fill-opacity="1">1.400e+5</text><text fill="rgb(68,68,68)" stroke="none" font-family="helvetica" font-size="20px" font-style="italic" font-weight="normal" text-decoration="normal" x="-114.21665954589844" y="368" text-anchor="start" dominant-baseline="alphabetic" transform="matrix(6.123233995736766e-17, -1, 1, 6.123233995736766e-17, -344.4499969482422, 399.5500030517578)" fill-opacity="1">Total Number of Serviced Users</text><path fill="rgb(255,255,255)" stroke="rgb(229,229,229)" paint-order="fill" d="M 776.0166625976562 15.5 L 1190.5 15.5 L 1190.5 320.5 L 776.0166625976562 320.5 L 776.0166625976562 15.5" fill-opacity="0.9490196078431372" stroke-opacity="0.5019607843137255" stroke-linejoin="bevel" stroke-miterlimit="10" stroke-dasharray=""/><text fill="rgb(68,68,68)" stroke="none" font-family="helvetica" font-size="18px" font-style="normal" font-weight="normal" text-decoration="normal" x="810.5166625976562" y="35.5" text-anchor="start" dominant-baseline="central" transform="matrix(1, 0, 0, 1, 0.5, 0.5)" fill-opacity="1">No Policy - Epsilon Greedy</text><path fill="none" stroke="rgb(31,119,180)" paint-order="fill" d="M 786.0166625976562 35.5 L 806.0166625976562 35.5" stroke-opacity="1" stroke-linejoin="bevel" stroke-miterlimit="10" stroke-width="3" stroke-dasharray=""/><text fill="rgb(68,68,68)" stroke="none" font-family="helvetica" font-size="18px" font-style="normal" font-weight="normal" text-decoration="normal" x="810.5166625976562" y="59.5" text-anchor="start" dominant-baseline="central" transform="matrix(1, 0, 0, 1, 0.5, 0.5)" fill-opacity="1">Cheapest Users - Epsilon Greedy</text><path fill="none" stroke="rgb(174,199,232)" paint-order="fill" d="M 786.0166625976562 59.5 L 806.0166625976562 59.5" stroke-opacity="1" stroke-linejoin="bevel" stroke-miterlimit="10" stroke-width="3" stroke-dasharray=""/><text fill="rgb(68,68,68)" stroke="none" font-family="helvetica" font-size="18px" font-style="normal" font-weight="normal" text-decoration="normal" x="810.5166625976562" y="83.5" text-anchor="start" dominant-baseline="central" transform="matrix(1, 0, 0, 1, 0.5, 0.5)" fill-opacity="1">No Policy - UCB1</text><path fill="none" stroke="rgb(255,127,14)" paint-order="fill" d="M 786.0166625976562 83.5 L 806.0166625976562 83.5" stroke-opacity="1" stroke-linejoin="bevel" stroke-miterlimit="10" stroke-width="3" stroke-dasharray=""/><text fill="rgb(68,68,68)" stroke="none" font-family="helvetica" font-size="18px" font-style="normal" font-weight="normal" text-decoration="normal" x="810.5166625976562" y="107.5" text-anchor="start" dominant-baseline="central" transform="matrix(1, 0, 0, 1, 0.5, 0.5)" fill-opacity="1">Cheapest Users - UCB1</text><path fill="none" stroke="rgb(255,187,120)" paint-order="fill" d="M 786.0166625976562 107.5 L 806.0166625976562 107.5" stroke-opacity="1" stroke-linejoin="bevel" stroke-miterlimit="10" stroke-width="3" stroke-dasharray=""/><text fill="rgb(68,68,68)" stroke="none" font-family="helvetica" font-size="18px" font-style="normal" font-weight="normal" text-decoration="normal" x="810.5166625976562" y="131.5" text-anchor="start" dominant-baseline="central" transform="matrix(1, 0, 0, 1, 0.5, 0.5)" fill-opacity="1">No Transmission Policy - Shared Evenly</text><path fill="none" stroke="rgb(44,160,44)" paint-order="fill" d="M 786.0166625976562 131.5 L 806.0166625976562 131.5" stroke-opacity="1" stroke-linejoin="bevel" stroke-miterlimit="10" stroke-width="3" stroke-dasharray=""/><text fill="rgb(68,68,68)" stroke="none" font-family="helvetica" font-size="18px" font-style="normal" font-weight="normal" text-decoration="normal" x="810.5166625976562" y="155.5" text-anchor="start" dominant-baseline="central" transform="matrix(1, 0, 0, 1, 0.5, 0.5)" fill-opacity="1">Cheapest Users - Shared Evenly</text><path fill="none" stroke="rgb(152,223,138)" paint-order="fill" d="M 786.0166625976562 155.5 L 806.0166625976562 155.5" stroke-opacity="1" stroke-linejoin="bevel" stroke-miterlimit="10" stroke-width="3" stroke-dasharray=""/><text fill="rgb(68,68,68)" stroke="none" font-family="helvetica" font-size="18px" font-style="normal" font-weight="normal" text-decoration="normal" x="810.5166625976562" y="179.5" text-anchor="start" dominant-baseline="central" transform="matrix(1, 0, 0, 1, 0.5, 0.5)" fill-opacity="1">No Transmission Policy - AP Energy Arrival</text><path fill="none" stroke="rgb(214,39,40)" paint-order="fill" d="M 786.0166625976562 179.5 L 806.0166625976562 179.5" stroke-opacity="1" stroke-linejoin="bevel" stroke-miterlimit="10" stroke-width="3" stroke-dasharray=""/><text fill="rgb(68,68,68)" stroke="none" font-family="helvetica" font-size="18px" font-style="normal" font-weight="normal" text-decoration="normal" x="810.5166625976562" y="203.5" text-anchor="start" dominant-baseline="central" transform="matrix(1, 0, 0, 1, 0.5, 0.5)" fill-opacity="1">Cheapest Users - AP Energy Arrival</text><path fill="none" stroke="rgb(255,152,150)" paint-order="fill" d="M 786.0166625976562 203.5 L 806.0166625976562 203.5" stroke-opacity="1" stroke-linejoin="bevel" stroke-miterlimit="10" stroke-width="3" stroke-dasharray=""/><text fill="rgb(68,68,68)" stroke="none" font-family="helvetica" font-size="18px" font-style="normal" font-weight="normal" text-decoration="normal" x="810.5166625976562" y="227.5" text-anchor="start" dominant-baseline="central" transform="matrix(1, 0, 0, 1, 0.5, 0.5)" fill-opacity="1">No Transmission Policy - AP Energy Use</text><path fill="none" stroke="rgb(148,103,189)" paint-order="fill" d="M 786.0166625976562 227.5 L 806.0166625976562 227.5" stroke-opacity="1" stroke-linejoin="bevel" stroke-miterlimit="10" stroke-width="3" stroke-dasharray=""/><text fill="rgb(68,68,68)" stroke="none" font-family="helvetica" font-size="18px" font-style="normal" font-weight="normal" text-decoration="normal" x="810.5166625976562" y="251.5" text-anchor="start" dominant-baseline="central" transform="matrix(1, 0, 0, 1, 0.5, 0.5)" fill-opacity="1">Cheapest Users - AP Energy Use</text><path fill="none" stroke="rgb(197,176,213)" paint-order="fill" d="M 786.0166625976562 251.5 L 806.0166625976562 251.5" stroke-opacity="1" stroke-linejoin="bevel" stroke-miterlimit="10" stroke-width="3" stroke-dasharray=""/><text fill="rgb(68,68,68)" stroke="none" font-family="helvetica" font-size="18px" font-style="normal" font-weight="normal" text-decoration="normal" x="810.5166625976562" y="275.5" text-anchor="start" dominant-baseline="central" transform="matrix(1, 0, 0, 1, 0.5, 0.5)" fill-opacity="1">No Transmission Policy - AP Energy Efficiency</text><path fill="none" stroke="rgb(140,86,75)" paint-order="fill" d="M 786.0166625976562 275.5 L 806.0166625976562 275.5" stroke-opacity="1" stroke-linejoin="bevel" stroke-miterlimit="10" stroke-width="3" stroke-dasharray=""/><text fill="rgb(68,68,68)" stroke="none" font-family="helvetica" font-size="18px" font-style="normal" font-weight="normal" text-decoration="normal" x="810.5166625976562" y="299.5" text-anchor="start" dominant-baseline="central" transform="matrix(1, 0, 0, 1, 0.5, 0.5)" fill-opacity="1">Cheapest Users - AP Energy Efficiency</text><path fill="none" stroke="rgb(196,156,148)" paint-order="fill" d="M 786.0166625976562 299.5 L 806.0166625976562 299.5" stroke-opacity="1" stroke-linejoin="bevel" stroke-miterlimit="10" stroke-width="3" stroke-dasharray=""/><path fill="rgb(255,255,255)" stroke="rgb(229,229,229)" paint-order="fill" d="M 776.0166625976562 15.5 L 1190.5 15.5 L 1190.5 320.5 L 776.0166625976562 320.5 L 776.0166625976562 15.5" fill-opacity="0.9490196078431372" stroke-opacity="0.5019607843137255" stroke-linejoin="bevel" stroke-miterlimit="10" stroke-dasharray=""/><text fill="rgb(68,68,68)" stroke="none" font-family="helvetica" font-size="18px" font-style="normal" font-weight="normal" text-decoration="normal" x="810.5166625976562" y="35.5" text-anchor="start" dominant-baseline="central" transform="matrix(1, 0, 0, 1, 0.5, 0.5)" fill-opacity="1">No Policy - Epsilon Greedy</text><path fill="none" stroke="rgb(31,119,180)" paint-order="fill" d="M 786.0166625976562 35.5 L 806.0166625976562 35.5" stroke-opacity="1" stroke-linejoin="bevel" stroke-miterlimit="10" stroke-width="3" stroke-dasharray=""/><text fill="rgb(68,68,68)" stroke="none" font-family="helvetica" font-size="18px" font-style="normal" font-weight="normal" text-decoration="normal" x="810.5166625976562" y="59.5" text-anchor="start" dominant-baseline="central" transform="matrix(1, 0, 0, 1, 0.5, 0.5)" fill-opacity="1">Cheapest Users - Epsilon Greedy</text><path fill="none" stroke="rgb(174,199,232)" paint-order="fill" d="M 786.0166625976562 59.5 L 806.0166625976562 59.5" stroke-opacity="1" stroke-linejoin="bevel" stroke-miterlimit="10" stroke-width="3" stroke-dasharray=""/><text fill="rgb(68,68,68)" stroke="none" font-family="helvetica" font-size="18px" font-style="normal" font-weight="normal" text-decoration="normal" x="810.5166625976562" y="83.5" text-anchor="start" dominant-baseline="central" transform="matrix(1, 0, 0, 1, 0.5, 0.5)" fill-opacity="1">No Policy - UCB1</text><path fill="none" stroke="rgb(255,127,14)" paint-order="fill" d="M 786.0166625976562 83.5 L 806.0166625976562 83.5" stroke-opacity="1" stroke-linejoin="bevel" stroke-miterlimit="10" stroke-width="3" stroke-dasharray=""/><text fill="rgb(68,68,68)" stroke="none" font-family="helvetica" font-size="18px" font-style="normal" font-weight="normal" text-decoration="normal" x="810.5166625976562" y="107.5" text-anchor="start" dominant-baseline="central" transform="matrix(1, 0, 0, 1, 0.5, 0.5)" fill-opacity="1">Cheapest Users - UCB1</text><path fill="none" stroke="rgb(255,187,120)" paint-order="fill" d="M 786.0166625976562 107.5 L 806.0166625976562 107.5" stroke-opacity="1" stroke-linejoin="bevel" stroke-miterlimit="10" stroke-width="3" stroke-dasharray=""/><text fill="rgb(68,68,68)" stroke="none" font-family="helvetica" font-size="18px" font-style="normal" font-weight="normal" text-decoration="normal" x="810.5166625976562" y="131.5" text-anchor="start" dominant-baseline="central" transform="matrix(1, 0, 0, 1, 0.5, 0.5)" fill-opacity="1">No Transmission Policy - Shared Evenly</text><path fill="none" stroke="rgb(44,160,44)" paint-order="fill" d="M 786.0166625976562 131.5 L 806.0166625976562 131.5" stroke-opacity="1" stroke-linejoin="bevel" stroke-miterlimit="10" stroke-width="3" stroke-dasharray=""/><text fill="rgb(68,68,68)" stroke="none" font-family="helvetica" font-size="18px" font-style="normal" font-weight="normal" text-decoration="normal" x="810.5166625976562" y="155.5" text-anchor="start" dominant-baseline="central" transform="matrix(1, 0, 0, 1, 0.5, 0.5)" fill-opacity="1">Cheapest Users - Shared Evenly</text><path fill="none" stroke="rgb(152,223,138)" paint-order="fill" d="M 786.0166625976562 155.5 L 806.0166625976562 155.5" stroke-opacity="1" stroke-linejoin="bevel" stroke-miterlimit="10" stroke-width="3" stroke-dasharray=""/><text fill="rgb(68,68,68)" stroke="none" font-family="helvetica" font-size="18px" font-style="normal" font-weight="normal" text-decoration="normal" x="810.5166625976562" y="179.5" text-anchor="start" dominant-baseline="central" transform="matrix(1, 0, 0, 1, 0.5, 0.5)" fill-opacity="1">No Transmission Policy - AP Energy Arrival</text><path fill="none" stroke="rgb(214,39,40)" paint-order="fill" d="M 786.0166625976562 179.5 L 806.0166625976562 179.5" stroke-opacity="1" stroke-linejoin="bevel" stroke-miterlimit="10" stroke-width="3" stroke-dasharray=""/><text fill="rgb(68,68,68)" stroke="none" font-family="helvetica" font-size="18px" font-style="normal" font-weight="normal" text-decoration="normal" x="810.5166625976562" y="203.5" text-anchor="start" dominant-baseline="central" transform="matrix(1, 0, 0, 1, 0.5, 0.5)" fill-opacity="1">Cheapest Users - AP Energy Arrival</text><path fill="none" stroke="rgb(255,152,150)" paint-order="fill" d="M 786.0166625976562 203.5 L 806.0166625976562 203.5" stroke-opacity="1" stroke-linejoin="bevel" stroke-miterlimit="10" stroke-width="3" stroke-dasharray=""/><text fill="rgb(68,68,68)" stroke="none" font-family="helvetica" font-size="18px" font-style="normal" font-weight="normal" text-decoration="normal" x="810.5166625976562" y="227.5" text-anchor="start" dominant-baseline="central" transform="matrix(1, 0, 0, 1, 0.5, 0.5)" fill-opacity="1">No Transmission Policy - AP Energy Use</text><path fill="none" stroke="rgb(148,103,189)" paint-order="fill" d="M 786.0166625976562 227.5 L 806.0166625976562 227.5" stroke-opacity="1" stroke-linejoin="bevel" stroke-miterlimit="10" stroke-width="3" stroke-dasharray=""/><text fill="rgb(68,68,68)" stroke="none" font-family="helvetica" font-size="18px" font-style="normal" font-weight="normal" text-decoration="normal" x="810.5166625976562" y="251.5" text-anchor="start" dominant-baseline="central" transform="matrix(1, 0, 0, 1, 0.5, 0.5)" fill-opacity="1">Cheapest Users - AP Energy Use</text><path fill="none" stroke="rgb(197,176,213)" paint-order="fill" d="M 786.0166625976562 251.5 L 806.0166625976562 251.5" stroke-opacity="1" stroke-linejoin="bevel" stroke-miterlimit="10" stroke-width="3" stroke-dasharray=""/><text fill="rgb(68,68,68)" stroke="none" font-family="helvetica" font-size="18px" font-style="normal" font-weight="normal" text-decoration="normal" x="810.5166625976562" y="275.5" text-anchor="start" dominant-baseline="central" transform="matrix(1, 0, 0, 1, 0.5, 0.5)" fill-opacity="1">No Transmission Policy - AP Energy Efficiency</text><path fill="none" stroke="rgb(140,86,75)" paint-order="fill" d="M 786.0166625976562 275.5 L 806.0166625976562 275.5" stroke-opacity="1" stroke-linejoin="bevel" stroke-miterlimit="10" stroke-width="3" stroke-dasharray=""/><text fill="rgb(68,68,68)" stroke="none" font-family="helvetica" font-size="18px" font-style="normal" font-weight="normal" text-decoration="normal" x="810.5166625976562" y="299.5" text-anchor="start" dominant-baseline="central" transform="matrix(1, 0, 0, 1, 0.5, 0.5)" fill-opacity="1">Cheapest Users - AP Energy Efficiency</text><path fill="none" stroke="rgb(196,156,148)" paint-order="fill" d="M 786.0166625976562 299.5 L 806.0166625976562 299.5" stroke-opacity="1" stroke-linejoin="bevel" stroke-miterlimit="10" stroke-width="3" stroke-dasharray=""/></svg>