<svg version="1.1" xmlns="http://www.w3.org/2000/svg" width="1200" height="800"><defs><clipPath id="scibSAEngzvA"><path fill="none" stroke="none" d="M 102.5 5.5 L 792.5 5.5 L 792.5 739.5 L 102.5 739.5 L 102.5 5.5"/></clipPath><clipPath id="JalpTBHNiaBA"><path fill="none" stroke="none" d="M 102.5 5.5 L 792.5 5.5 L 792.5 739.5 L 102.5 739.5 L 102.5 5.5"/></clipPath><clipPath id="WfSMMDtoTWAM"><path fill="none" stroke="none" d="M 102.5 5.5 L 792.5 5.5 L 792.5 739.5 L 102.5 739.5 L 102.5 5.5"/></clipPath><clipPath id="mhJVsWnQTgyF"><path fill="none" stroke="none" d="M 102.5 5.5 L 792.5 5.5 L 792.5 739.5 L 102.5 739.5 L 102.5 5.5"/></clipPath><clipPath id="MCvmMyPXaWfQ"><path fill="none" stroke="none" d="M 102.5 5.5 L 792.5 5.5 L 792.5 739.5 L 102.5 739.5 L 102.5 5.5"/></clipPath><clipPath id="AcDebByhcGeR"><path fill="none" stroke="none" d="M 102.5 5.5 L 792.5 5.5 L 792.5 739.5 L 102.5 739.5 L 102.5 5.5"/></clipPath><clipPath id="bgZCIvsIfPPu"><path fill="none" stroke="none" d="M 102.5 5.5 L 792.5 5.5 L 792.5 739.5 L 102.5 739.5 L 102.5 5.5"/></clipPath><clipPath id="NqSPFDUfzrQO"><path fill="none" stroke="none" d="M 102.5 5.5 L 792.5 5.5 L 792.5 739.5 L 102.5 739.5 L 102.5 5.5"/></clipPath><clipPath id="vdPhSHnJuUHB"><path fill="none" stroke="none" d="M 102.5 5.5 L 792.5 5.5 L 792.5 739.5 L 102.5 739.5 L 102.5 5.5"/></clipPath><clipPath id="UWdDWeOiWOOh"><path fill="none" stroke="none" d="M 102.5 5.5 L 792.5 5.5 L 792.5 739.5 L 102.5 739.5 L 102.5 5.5"/></clipPath><clipPath id="lIgaOfwIqqKH"><path fill="none" stroke="none" d="M 102.5 5.5 L 792.5 5.5 L 792.5 739.5 L 102.5 739.5 L 102.5 5.5"/></clipPath></defs><path fill="rgb(255,255,255)" stroke="none" paint-order="stroke" d="M 0.5 0.5 L 1200.5 0.5 L 1200.5 800.5 L 0.5 800.5 L 0.5 0.5" fill-opacity="1"/><rect fill="#FFFFFF" stroke="none" x="102" y="5" width="690" height="734" transform="matrix(1, 0, 0, 1, 0.5, 0.5)"/><path fill="rgb(255,255,255)" stroke="none" paint-order="stroke" d="M 102.5 5.5 L 792.5 5.5 L 792.5 739.5 L 102.5 739.5 L 102.5 5.5" fill-opacity="1"/><path fill="none" stroke="rgb(229,229,229)" paint-order="fill" d="M 102.5 5.5 L 792.5 5.5 L 792.5 739.5 L 102.5 739.5 L 102.5 5.5" stroke-opacity="1" stroke-linejoin="bevel" stroke-miterlimit="10" stroke-dasharray=""/><path fill="none" stroke="rgb(229,229,229)" paint-order="fill" d="M 127.5 739.5 L 127.5 5.5 M 256.5 739.5 L 256.5 5.5 M 386.5 739.5 L 386.5 5.5 M 515.5 739.5 L 515.5 5.5 M 644.5 739.5 L 644.5 5.5 M 774.5 739.5 L 774.5 5.5" stroke-opacity="1" stroke-linejoin="bevel" stroke-miterlimit="10" stroke-dasharray="" clip-path="url(#scibSAEngzvA)"/><path fill="none" stroke="rgb(229,229,229)" paint-order="fill" d="M 102.5 703.5 L 792.5 703.5 M 102.5 555.5 L 792.5 555.5 M 102.5 407.5 L 792.5 407.5 M 102.5 258.5 L 792.5 258.5 M 102.5 110.5 L 792.5 110.5" stroke-opacity="1" stroke-linejoin="bevel" stroke-miterlimit="10" stroke-dasharray="" clip-path="url(#JalpTBHNiaBA)"/><path fill="none" stroke="rgb(31,119,180)" paint-order="fill" d="M 133.86363220214844 706.1363525390625 L 140.3303680419922 706.1363525390625 L 146.79708862304688 706.1363525390625 L 153.26382446289062 706.1363525390625 L 159.73056030273438 706.1363525390625 L 166.19728088378906 706.1363525390625 L 172.6640167236328 706.1363525390625 L 179.1307373046875 706.1363525390625 L 185.59747314453125 706.1363525390625 L 192.06419372558594 706.1363525390625 L 198.5309295654297 706.1363525390625 L 204.99765014648438 706.1363525390625 L 211.46438598632812 706.1363525390625 L 217.93112182617188 706.1363525390625 L 224.39784240722656 706.1363525390625 L 230.8645782470703 706.1363525390625 L 237.331298828125 706.1363525390625 L 243.79803466796875 706.1363525390625 L 250.26475524902344 706.1363525390625 L 256.7314758300781 706.1363525390625 L 263.1982116699219 706.1363525390625 L 269.6649475097656 706.1363525390625 L 276.1316833496094 706.1363525390625 L 282.5984191894531 706.1363525390625 L 289.06512451171875 706.1363525390625 L 295.5318603515625 706.1363525390625 L 301.99859619140625 706.1363525390625 L 308.46533203125 706.1363525390625 L 314.9320373535156 706.1363525390625 L 321.3987731933594 706.1363525390625 L 327.8655090332031 706.1363525390625 L 334.3322448730469 706.1363525390625 L 340.7989807128906 706.1363525390625 L 347.26568603515625 706.1363525390625 L 353.732421875 706.1363525390625 L 360.19915771484375 706.1363525390625 L 366.6658935546875 706.1363525390625 L 373.13262939453125 706.1363525390625 L 379.5993347167969 706.1363525390625 L 386.0660705566406 706.1363525390625 L 392.5328063964844 706.1363525390625 L 398.9995422363281 706.1363525390625 L 405.46624755859375 706.1363525390625 L 411.9329833984375 706.1363525390625 L 418.39971923828125 706.1363525390625 L 424.866455078125 706.1363525390625 L 431.33319091796875 706.1363525390625 L 437.7998962402344 706.1363525390625 L 444.2666320800781 706.1363525390625 L 450.7333679199219 706.1363525390625 L 457.2001037597656 706.1363525390625 L 463.66680908203125 706.1363525390625 L 470.133544921875 706.1363525390625 L 476.60028076171875 706.1363525390625 L 483.0670166015625 706.1363525390625 L 489.53375244140625 706.1363525390625 L 496.0004577636719 706.1363525390625 L 502.4671936035156 706.1363525390625 L 508.9339294433594 706.1363525390625 L 515.400634765625 706.1363525390625 L 521.8673706054688 706.1363525390625 L 528.3341064453125 706.1363525390625 L 534.8008422851562 706.1363525390625 L 541.267578125 706.1363525390625 L 547.7343139648438 706.1363525390625 L 554.2010498046875 706.1363525390625 L 560.6677856445312 706.1363525390625 L 567.1344604492188 706.1363525390625 L 573.6011962890625 706.1363525390625 L 580.0679321289062 706.1363525390625 L 586.53466796875 706.1363525390625 L 593.0014038085938 706.1363525390625 L 599.4681396484375 706.1363525390625 L 605.9348754882812 706.1363525390625 L 612.401611328125 706.1363525390625 L 618.8683471679688 706.1363525390625 L 625.3350219726562 706.1363525390625 L 631.8017578125 706.1363525390625 L 638.2684936523438 706.1363525390625 L 644.7352294921875 706.1363525390625 L 651.2019653320312 706.1363525390625 L 657.668701171875 706.1363525390625 L 664.1354370117188 706.1363525390625 L 670.6021728515625 706.1363525390625 L 677.0689086914062 706.1363525390625 L 683.5355834960938 706.1363525390625 L 690.0023193359375 706.1363525390625 L 696.4690551757812 706.1363525390625 L 702.935791015625 706.1363525390625 L 709.4025268554688 706.1363525390625 L 715.8692626953125 706.1363525390625 L 722.3359985351562 706.1363525390625 L 728.802734375 706.1363525390625 L 735.2694702148438 706.1363525390625 L 741.7362060546875 706.1363525390625 L 748.202880859375 706.1363525390625 L 754.6696166992188 706.1363525390625 L 761.1363525390625 706.1363525390625" stroke-opacity="1" stroke-linejoin="bevel" stroke-miterlimit="10" stroke-width="3" stroke-dasharray="" clip-path="url(#WfSMMDtoTWAM)"/><path fill="none" stroke="rgb(255,127,14)" paint-order="fill" d="M 133.86363220214844 701.453125 L 140.3303680419922 701.453125 L 146.79708862304688 701.453125 L 153.26382446289062 701.453125 L 159.73056030273438 701.453125 L 166.19728088378906 701.453125 L 172.6640167236328 701.453125 L 179.1307373046875 701.453125 L 185.59747314453125 701.453125 L 192.06419372558594 701.453125 L 198.5309295654297 701.453125 L 204.99765014648438 701.453125 L 211.46438598632812 701.453125 L 217.93112182617188 701.453125 L 224.39784240722656 701.453125 L 230.8645782470703 701.453125 L 237.331298828125 701.453125 L 243.79803466796875 701.453125 L 250.26475524902344 701.453125 L 256.7314758300781 701.453125 L 263.1982116699219 701.453125 L 269.6649475097656 701.453125 L 276.1316833496094 701.453125 L 282.5984191894531 701.453125 L 289.06512451171875 701.453125 L 295.5318603515625 701.453125 L 301.99859619140625 701.453125 L 308.46533203125 701.453125 L 314.9320373535156 701.453125 L 321.3987731933594 701.453125 L 327.8655090332031 701.453125 L 334.3322448730469 701.453125 L 340.7989807128906 701.453125 L 347.26568603515625 701.453125 L 353.732421875 701.453125 L 360.19915771484375 701.453125 L 366.6658935546875 701.453125 L 373.13262939453125 701.453125 L 379.5993347167969 701.453125 L 386.0660705566406 701.453125 L 392.5328063964844 701.453125 L 398.9995422363281 701.453125 L 405.46624755859375 701.453125 L 411.9329833984375 701.453125 L 418.39971923828125 701.453125 L 424.866455078125 701.453125 L 431.33319091796875 701.453125 L 437.7998962402344 701.453125 L 444.2666320800781 701.453125 L 450.7333679199219 701.453125 L 457.2001037597656 701.453125 L 463.66680908203125 701.453125 L 470.133544921875 701.453125 L 476.60028076171875 701.453125 L 483.0670166015625 701.453125 L 489.53375244140625 701.453125 L 496.0004577636719 701.453125 L 502.4671936035156 701.453125 L 508.9339294433594 701.453125 L 515.400634765625 701.453125 L 521.8673706054688 701.453125 L 528.3341064453125 701.453125 L 534.8008422851562 701.453125 L 541.267578125 701.453125 L 547.7343139648438 701.453125 L 554.2010498046875 701.453125 L 560.6677856445312 701.453125 L 567.1344604492188 701.453125 L 573.6011962890625 701.453125 L 580.0679321289062 701.453125 L 586.53466796875 701.453125 L 593.0014038085938 701.453125 L 599.4681396484375 701.453125 L 605.9348754882812 701.453125 L 612.401611328125 701.453125 L 618.8683471679688 701.453125 L 625.3350219726562 701.453125 L 631.8017578125 701.453125 L 638.2684936523438 701.453125 L 644.7352294921875 701.453125 L 651.2019653320312 701.453125 L 657.668701171875 701.453125 L 664.1354370117188 701.453125 L 670.6021728515625 701.453125 L 677.0689086914062 701.453125 L 683.5355834960938 701.453125 L 690.0023193359375 701.453125 L 696.4690551757812 701.453125 L 702.935791015625 701.453125 L 709.4025268554688 701.453125 L 715.8692626953125 701.453125 L 722.3359985351562 701.453125 L 728.802734375 701.453125 L 735.2694702148438 701.453125 L 741.7362060546875 701.453125 L 748.202880859375 701.453125 L 754.6696166992188 701.453125 L 761.1363525390625 701.453125" stroke-opacity="1" stroke-linejoin="bevel" stroke-miterlimit="10" stroke-width="3" stroke-dasharray="" clip-path="url(#mhJVsWnQTgyF)"/><path fill="none" stroke="rgb(44,160,44)" paint-order="fill" d="M 133.86363220214844 304.5633850097656 L 140.3303680419922 307.61639404296875 L 146.79708862304688 307.4089050292969 L 153.26382446289062 313.12957763671875 L 159.73056030273438 324.0966491699219 L 166.19728088378906 317.16070556640625 L 172.6640167236328 314.1669921875 L 179.1307373046875 320.332275390625 L 185.59747314453125 340.1322937011719 L 192.06419372558594 317.2792663574219 L 198.5309295654297 310.9361572265625 L 204.99765014648438 310.75830078125 L 211.46438598632812 313.75201416015625 L 217.93112182617188 309.36517333984375 L 224.39784240722656 304.8894348144531 L 230.8645782470703 306.3714599609375 L 237.331298828125 308.09063720703125 L 243.79803466796875 311.3807678222656 L 250.26475524902344 299.02056884765625 L 256.7314758300781 292.05499267578125 L 263.1982116699219 293.35919189453125 L 269.6649475097656 295.0487060546875 L 276.1316833496094 279.2798156738281 L 282.5984191894531 281.3250427246094 L 289.06512451171875 285.2079772949219 L 295.5318603515625 292.9738464355469 L 301.99859619140625 299.31695556640625 L 308.46533203125 306.60858154296875 L 314.9320373535156 306.6678771972656 L 321.3987731933594 308.41668701171875 L 327.8655090332031 288.0831298828125 L 334.3322448730469 296.1454162597656 L 340.7989807128906 299.1094970703125 L 347.26568603515625 299.1094970703125 L 353.732421875 294.72265625 L 360.19915771484375 305.33404541015625 L 366.6658935546875 309.6319580078125 L 373.13262939453125 313.60382080078125 L 379.5993347167969 294.9894104003906 L 386.0660705566406 318.0202941894531 L 392.5328063964844 298.427734375 L 398.9995422363281 309.0984191894531 L 405.46624755859375 305.3044128417969 L 411.9329833984375 302.6367492675781 L 418.39971923828125 312.3292541503906 L 424.866455078125 299.31695556640625 L 431.33319091796875 306.4900207519531 L 437.7998962402344 314.315185546875 L 444.2666320800781 305.66009521484375 L 450.7333679199219 308.2981262207031 L 457.2001037597656 317.30889892578125 L 463.66680908203125 318.61309814453125 L 470.133544921875 338.23529052734375 L 476.60028076171875 327.2978515625 L 483.0670166015625 329.254150390625 L 489.53375244140625 324.3930358886719 L 496.0004577636719 312.3589172363281 L 502.4671936035156 312.44781494140625 L 508.9339294433594 306.401123046875 L 515.400634765625 303.40740966796875 L 521.8673706054688 305.4229736328125 L 528.3341064453125 331.9514465332031 L 534.8008422851562 334.91552734375 L 541.267578125 332.21820068359375 L 547.7343139648438 328.83917236328125 L 554.2010498046875 319.7987365722656 L 560.6677856445312 328.6909484863281 L 567.1344604492188 318.7613220214844 L 573.6011962890625 320.2729797363281 L 580.0679321289062 286.4232482910156 L 586.53466796875 298.427734375 L 593.0014038085938 305.6007995605469 L 599.4681396484375 302.3106994628906 L 605.9348754882812 299.31695556640625 L 612.401611328125 298.6055908203125 L 618.8683471679688 305.3044128417969 L 625.3350219726562 282.80706787109375 L 631.8017578125 277.47174072265625 L 638.2684936523438 282.48101806640625 L 644.7352294921875 287.9349060058594 L 651.2019653320312 290.89898681640625 L 657.668701171875 284.58551025390625 L 664.1354370117188 296.88641357421875 L 670.6021728515625 319.6505432128906 L 677.0689086914062 291.5214538574219 L 683.5355834960938 329.13555908203125 L 690.0023193359375 332.3367614746094 L 696.4690551757812 308.4463195800781 L 702.935791015625 320.2729797363281 L 709.4025268554688 319.6208801269531 L 715.8692626953125 324.60052490234375 L 722.3359985351562 325.48974609375 L 728.802734375 333.2259826660156 L 735.2694702148438 353.5892028808594 L 741.7362060546875 356.70147705078125 L 748.202880859375 401.57757568359375 L 754.6696166992188 403.4449462890625 L 761.1363525390625 479.71063232421875" stroke-opacity="1" stroke-linejoin="bevel" stroke-miterlimit="10" stroke-width="3" stroke-dasharray="" clip-path="url(#MCvmMyPXaWfQ)"/><path fill="none" stroke="rgb(214,39,40)" paint-order="fill" d="M 133.86363220214844 304.5633850097656 L 140.3303680419922 307.61639404296875 L 146.79708862304688 307.4089050292969 L 153.26382446289062 313.12957763671875 L 159.73056030273438 324.0966491699219 L 166.19728088378906 317.16070556640625 L 172.6640167236328 314.1669921875 L 179.1307373046875 320.332275390625 L 185.59747314453125 340.1322937011719 L 192.06419372558594 317.2792663574219 L 198.5309295654297 310.9361572265625 L 204.99765014648438 310.75830078125 L 211.46438598632812 313.75201416015625 L 217.93112182617188 309.36517333984375 L 224.39784240722656 304.8894348144531 L 230.8645782470703 306.3714599609375 L 237.331298828125 308.09063720703125 L 243.79803466796875 311.3807678222656 L 250.26475524902344 299.02056884765625 L 256.7314758300781 292.05499267578125 L 263.1982116699219 293.35919189453125 L 269.6649475097656 295.0487060546875 L 276.1316833496094 279.2798156738281 L 282.5984191894531 281.3250427246094 L 289.06512451171875 285.2079772949219 L 295.5318603515625 292.9738464355469 L 301.99859619140625 299.31695556640625 L 308.46533203125 306.60858154296875 L 314.9320373535156 306.6678771972656 L 321.3987731933594 308.41668701171875 L 327.8655090332031 288.0831298828125 L 334.3322448730469 296.1454162597656 L 340.7989807128906 299.1094970703125 L 347.26568603515625 299.1094970703125 L 353.732421875 294.72265625 L 360.19915771484375 305.0376281738281 L 366.6658935546875 309.6319580078125 L 373.13262939453125 313.60382080078125 L 379.5993347167969 294.9894104003906 L 386.0660705566406 318.0202941894531 L 392.5328063964844 298.427734375 L 398.9995422363281 309.0984191894531 L 405.46624755859375 305.3044128417969 L 411.9329833984375 302.6367492675781 L 418.39971923828125 312.0921325683594 L 424.866455078125 299.31695556640625 L 431.33319091796875 304.53375244140625 L 437.7998962402344 314.315185546875 L 444.2666320800781 305.66009521484375 L 450.7333679199219 308.2981262207031 L 457.2001037597656 317.30889892578125 L 463.66680908203125 318.61309814453125 L 470.133544921875 338.23529052734375 L 476.60028076171875 327.2978515625 L 483.0670166015625 329.254150390625 L 489.53375244140625 324.3930358886719 L 496.0004577636719 312.3589172363281 L 502.4671936035156 312.44781494140625 L 508.9339294433594 306.401123046875 L 515.400634765625 303.40740966796875 L 521.8673706054688 305.4229736328125 L 528.3341064453125 331.9514465332031 L 534.8008422851562 334.91552734375 L 541.267578125 332.21820068359375 L 547.7343139648438 328.83917236328125 L 554.2010498046875 319.7987365722656 L 560.6677856445312 328.6909484863281 L 567.1344604492188 318.7613220214844 L 573.6011962890625 320.2729797363281 L 580.0679321289062 285.6229553222656 L 586.53466796875 297.479248046875 L 593.0014038085938 305.3636779785156 L 599.4681396484375 302.3106994628906 L 605.9348754882812 299.31695556640625 L 612.401611328125 298.2499084472656 L 618.8683471679688 305.3044128417969 L 625.3350219726562 282.80706787109375 L 631.8017578125 276.6714172363281 L 638.2684936523438 280.8211364746094 L 644.7352294921875 286.9271240234375 L 651.2019653320312 290.89898681640625 L 657.668701171875 284.58551025390625 L 664.1354370117188 296.88641357421875 L 670.6021728515625 317.2792663574219 L 677.0689086914062 290.1579895019531 L 683.5355834960938 328.1277770996094 L 690.0023193359375 332.3367614746094 L 696.4690551757812 308.4463195800781 L 702.935791015625 320.2729797363281 L 709.4025268554688 317.8720703125 L 715.8692626953125 320.09515380859375 L 722.3359985351562 322.99993896484375 L 728.802734375 331.7735900878906 L 735.2694702148438 352.6703186035156 L 741.7362060546875 353.8855895996094 L 748.202880859375 398.5542297363281 L 754.6696166992188 397.4278869628906 L 761.1363525390625 476.2426452636719" stroke-opacity="1" stroke-linejoin="bevel" stroke-miterlimit="10" stroke-width="3" stroke-dasharray="" clip-path="url(#AcDebByhcGeR)"/><path fill="none" stroke="rgb(148,103,189)" paint-order="fill" d="M 133.86363220214844 41.85735321044922 L 140.3303680419922 38.8636360168457 L 146.79708862304688 58.6043815612793 L 153.26382446289062 61.42025375366211 L 159.73056030273438 68.2079849243164 L 166.19728088378906 72.53553771972656 L 172.6640167236328 74.28433990478516 L 179.1307373046875 75.94422149658203 L 185.59747314453125 78.9083023071289 L 192.06419372558594 76.38883209228516 L 198.5309295654297 79.32327270507812 L 204.99765014648438 82.34662628173828 L 211.46438598632812 84.74752807617188 L 217.93112182617188 88.18585968017578 L 224.39784240722656 89.49005126953125 L 230.8645782470703 91.83167266845703 L 237.331298828125 95.71460723876953 L 243.79803466796875 94.11400604248047 L 250.26475524902344 97.07808685302734 L 256.7314758300781 99.12329864501953 L 263.1982116699219 101.49456024169922 L 269.6649475097656 104.2807846069336 L 276.1316833496094 103.56941223144531 L 282.5984191894531 105.37749481201172 L 289.06512451171875 102.1762924194336 L 295.5318603515625 108.60833740234375 L 301.99859619140625 113.67691040039062 L 308.46533203125 115.3367919921875 L 314.9320373535156 114.7143325805664 L 321.3987731933594 123.28050994873047 L 327.8655090332031 114.09188079833984 L 334.3322448730469 120.96853637695312 L 340.7989807128906 120.5535659790039 L 347.26568603515625 123.19158935546875 L 353.732421875 124.16973876953125 L 360.19915771484375 126.45207214355469 L 366.6658935546875 126.8670425415039 L 373.13262939453125 130.36465454101562 L 379.5993347167969 129.41615295410156 L 386.0660705566406 131.90597534179688 L 392.5328063964844 132.05418395996094 L 398.9995422363281 135.40357971191406 L 405.46624755859375 134.89968872070312 L 411.9329833984375 135.01824951171875 L 418.39971923828125 137.77484130859375 L 424.866455078125 137.5377197265625 L 431.33319091796875 140.41287231445312 L 437.7998962402344 143.99940490722656 L 444.2666320800781 146.81527709960938 L 450.7333679199219 142.28024291992188 L 457.2001037597656 147.37844848632812 L 463.66680908203125 144.9182586669922 L 470.133544921875 145.2443084716797 L 476.60028076171875 146.3410186767578 L 483.0670166015625 146.16317749023438 L 489.53375244140625 146.45957946777344 L 496.0004577636719 144.94790649414062 L 502.4671936035156 144.9182586669922 L 508.9339294433594 148.238037109375 L 515.400634765625 149.33473205566406 L 521.8673706054688 150.7574920654297 L 528.3341064453125 151.0539093017578 L 534.8008422851562 150.7574920654297 L 541.267578125 148.1787567138672 L 547.7343139648438 152.447021484375 L 554.2010498046875 150.46109008789062 L 560.6677856445312 154.90719604492188 L 567.1344604492188 150.8167724609375 L 573.6011962890625 150.78713989257812 L 580.0679321289062 153.9586944580078 L 586.53466796875 153.72157287597656 L 593.0014038085938 153.72157287597656 L 599.4681396484375 159.76828002929688 L 605.9348754882812 160.03504943847656 L 612.401611328125 161.48744201660156 L 618.8683471679688 158.99761962890625 L 625.3350219726562 159.59043884277344 L 631.8017578125 155.6778564453125 L 638.2684936523438 158.87905883789062 L 644.7352294921875 161.81349182128906 L 651.2019653320312 165.7853546142578 L 657.668701171875 165.04434204101562 L 664.1354370117188 168.03805541992188 L 670.6021728515625 168.0677032470703 L 677.0689086914062 170.8539276123047 L 683.5355834960938 167.59344482421875 L 690.0023193359375 167.59344482421875 L 696.4690551757812 164.5997314453125 L 702.935791015625 167.59344482421875 L 709.4025268554688 170.9724884033203 L 715.8692626953125 170.9724884033203 L 722.3359985351562 170.587158203125 L 728.802734375 170.587158203125 L 735.2694702148438 170.67608642578125 L 741.7362060546875 176.39674377441406 L 748.202880859375 188.54945373535156 L 754.6696166992188 233.633056640625 L 761.1363525390625 304.7412414550781" stroke-opacity="1" stroke-linejoin="bevel" stroke-miterlimit="10" stroke-width="3" stroke-dasharray="" clip-path="url(#bgZCIvsIfPPu)"/><path fill="none" stroke="rgb(140,86,75)" paint-order="fill" d="M 133.86363220214844 41.85735321044922 L 140.3303680419922 38.8636360168457 L 146.79708862304688 58.6043815612793 L 153.26382446289062 61.42025375366211 L 159.73056030273438 68.2079849243164 L 166.19728088378906 72.53553771972656 L 172.6640167236328 74.28433990478516 L 179.1307373046875 75.94422149658203 L 185.59747314453125 78.9083023071289 L 192.06419372558594 76.38883209228516 L 198.5309295654297 79.32327270507812 L 204.99765014648438 82.34662628173828 L 211.46438598632812 84.74752807617188 L 217.93112182617188 88.18585968017578 L 224.39784240722656 89.49005126953125 L 230.8645782470703 91.83167266845703 L 237.331298828125 95.71460723876953 L 243.79803466796875 94.11400604248047 L 250.26475524902344 97.07808685302734 L 256.7314758300781 99.12329864501953 L 263.1982116699219 101.49456024169922 L 269.6649475097656 104.2807846069336 L 276.1316833496094 103.56941223144531 L 282.5984191894531 105.37749481201172 L 289.06512451171875 102.1762924194336 L 295.5318603515625 108.60833740234375 L 301.99859619140625 113.67691040039062 L 308.46533203125 115.3367919921875 L 314.9320373535156 114.7143325805664 L 321.3987731933594 123.28050994873047 L 327.8655090332031 114.09188079833984 L 334.3322448730469 120.96853637695312 L 340.7989807128906 120.5535659790039 L 347.26568603515625 123.19158935546875 L 353.732421875 124.16973876953125 L 360.19915771484375 126.45207214355469 L 366.6658935546875 126.8670425415039 L 373.13262939453125 130.36465454101562 L 379.5993347167969 129.41615295410156 L 386.0660705566406 131.90597534179688 L 392.5328063964844 132.05418395996094 L 398.9995422363281 135.40357971191406 L 405.46624755859375 134.89968872070312 L 411.9329833984375 135.01824951171875 L 418.39971923828125 137.77484130859375 L 424.866455078125 137.5377197265625 L 431.33319091796875 140.41287231445312 L 437.7998962402344 143.99940490722656 L 444.2666320800781 146.81527709960938 L 450.7333679199219 142.28024291992188 L 457.2001037597656 147.37844848632812 L 463.66680908203125 144.9182586669922 L 470.133544921875 145.2443084716797 L 476.60028076171875 146.3410186767578 L 483.0670166015625 146.16317749023438 L 489.53375244140625 146.45957946777344 L 496.0004577636719 144.94790649414062 L 502.4671936035156 144.9182586669922 L 508.9339294433594 148.238037109375 L 515.400634765625 149.33473205566406 L 521.8673706054688 150.7574920654297 L 528.3341064453125 151.0539093017578 L 534.8008422851562 150.7574920654297 L 541.267578125 148.1787567138672 L 547.7343139648438 152.447021484375 L 554.2010498046875 150.46109008789062 L 560.6677856445312 154.90719604492188 L 567.1344604492188 150.8167724609375 L 573.6011962890625 150.78713989257812 L 580.0679321289062 153.9586944580078 L 586.53466796875 153.72157287597656 L 593.0014038085938 153.72157287597656 L 599.4681396484375 159.76828002929688 L 605.9348754882812 160.03504943847656 L 612.401611328125 161.48744201660156 L 618.8683471679688 158.99761962890625 L 625.3350219726562 159.59043884277344 L 631.8017578125 155.6778564453125 L 638.2684936523438 158.87905883789062 L 644.7352294921875 161.81349182128906 L 651.2019653320312 165.7853546142578 L 657.668701171875 165.04434204101562 L 664.1354370117188 168.03805541992188 L 670.6021728515625 168.0677032470703 L 677.0689086914062 170.8539276123047 L 683.5355834960938 167.59344482421875 L 690.0023193359375 167.59344482421875 L 696.4690551757812 164.5997314453125 L 702.935791015625 167.59344482421875 L 709.4025268554688 170.9724884033203 L 715.8692626953125 170.9724884033203 L 722.3359985351562 170.587158203125 L 728.802734375 170.587158203125 L 735.2694702148438 170.61680603027344 L 741.7362060546875 176.01141357421875 L 748.202880859375 188.54945373535156 L 754.6696166992188 233.51449584960938 L 761.1363525390625 303.22955322265625" stroke-opacity="1" stroke-linejoin="bevel" stroke-miterlimit="10" stroke-width="3" stroke-dasharray="" clip-path="url(#NqSPFDUfzrQO)"/><path fill="none" stroke="rgb(227,119,194)" paint-order="fill" d="M 133.86363220214844 65.80708312988281 L 140.3303680419922 83.73974609375 L 146.79708862304688 89.66789245605469 L 153.26382446289062 87.02986907958984 L 159.73056030273438 78.2562026977539 L 166.19728088378906 89.43077087402344 L 172.6640167236328 89.46041107177734 L 179.1307373046875 78.40440368652344 L 185.59747314453125 79.56039428710938 L 192.06419372558594 83.50261688232422 L 198.5309295654297 74.99571990966797 L 204.99765014648438 76.4777603149414 L 211.46438598632812 80.59782409667969 L 217.93112182617188 85.66638946533203 L 224.39784240722656 86.67417907714844 L 230.8645782470703 89.99394226074219 L 237.331298828125 92.24664306640625 L 243.79803466796875 90.0235824584961 L 250.26475524902344 87.5930404663086 L 256.7314758300781 100.66461181640625 L 263.1982116699219 95.65532684326172 L 269.6649475097656 91.35741424560547 L 276.1316833496094 97.3152084350586 L 282.5984191894531 94.5882568359375 L 289.06512451171875 92.57268524169922 L 295.5318603515625 92.66161346435547 L 301.99859619140625 101.13887023925781 L 308.46533203125 97.3744888305664 L 314.9320373535156 90.91280364990234 L 321.3987731933594 95.80352783203125 L 327.8655090332031 89.43077087402344 L 334.3322448730469 99.21221923828125 L 340.7989807128906 94.26221466064453 L 347.26568603515625 100.57569122314453 L 353.732421875 99.00473022460938 L 360.19915771484375 100.1310806274414 L 366.6658935546875 94.32149505615234 L 373.13262939453125 98.91580963134766 L 379.5993347167969 98.3526382446289 L 386.0660705566406 90.3496322631836 L 392.5328063964844 97.90802764892578 L 398.9995422363281 95.74424743652344 L 405.46624755859375 98.56011962890625 L 411.9329833984375 95.98137664794922 L 418.39971923828125 97.49305725097656 L 424.866455078125 94.70682525634766 L 431.33319091796875 95.80352783203125 L 437.7998962402344 91.47598266601562 L 444.2666320800781 97.13736724853516 L 450.7333679199219 93.66939544677734 L 457.2001037597656 90.88316345214844 L 463.66680908203125 95.8628158569336 L 470.133544921875 100.19036102294922 L 476.60028076171875 98.20442962646484 L 483.0670166015625 95.32927703857422 L 489.53375244140625 96.90023803710938 L 496.0004577636719 97.90802764892578 L 502.4671936035156 101.34635162353516 L 508.9339294433594 101.34635162353516 L 515.400634765625 93.22478485107422 L 521.8673706054688 97.61161804199219 L 528.3341064453125 100.22000122070312 L 534.8008422851562 100.01251983642578 L 541.267578125 99.03437042236328 L 547.7343139648438 105.85174560546875 L 554.2010498046875 106.05923461914062 L 560.6677856445312 98.2933578491211 L 567.1344604492188 105.49605560302734 L 573.6011962890625 103.03587341308594 L 580.0679321289062 105.05144500732422 L 586.53466796875 115.18858337402344 L 593.0014038085938 103.71761322021484 L 599.4681396484375 104.3104248046875 L 605.9348754882812 115.18858337402344 L 612.401611328125 116.49278259277344 L 618.8683471679688 113.32122039794922 L 625.3350219726562 114.358642578125 L 631.8017578125 114.83290100097656 L 638.2684936523438 118.03409576416016 L 644.7352294921875 121.05745697021484 L 651.2019653320312 129.68292236328125 L 657.668701171875 127.69698333740234 L 664.1354370117188 134.21795654296875 L 670.6021728515625 137.83412170410156 L 677.0689086914062 138.9901123046875 L 683.5355834960938 137.65628051757812 L 690.0023193359375 141.06497192382812 L 696.4690551757812 140.64999389648438 L 702.935791015625 140.64999389648438 L 709.4025268554688 149.3050994873047 L 715.8692626953125 153.66229248046875 L 722.3359985351562 152.9212646484375 L 728.802734375 152.8619842529297 L 735.2694702148438 160.2721710205078 L 741.7362060546875 161.60601806640625 L 748.202880859375 164.6590118408203 L 754.6696166992188 174.20333862304688 L 761.1363525390625 256.33787536621094" stroke-opacity="1" stroke-linejoin="bevel" stroke-miterlimit="10" stroke-width="3" stroke-dasharray="" clip-path="url(#vdPhSHnJuUHB)"/><path fill="none" stroke="rgb(127,127,127)" paint-order="fill" d="M 133.86363220214844 65.80708312988281 L 140.3303680419922 83.73974609375 L 146.79708862304688 89.66789245605469 L 153.26382446289062 87.02986907958984 L 159.73056030273438 78.2562026977539 L 166.19728088378906 89.43077087402344 L 172.6640167236328 89.46041107177734 L 179.1307373046875 78.40440368652344 L 185.59747314453125 79.56039428710938 L 192.06419372558594 83.50261688232422 L 198.5309295654297 74.99571990966797 L 204.99765014648438 76.4777603149414 L 211.46438598632812 80.59782409667969 L 217.93112182617188 85.66638946533203 L 224.39784240722656 86.67417907714844 L 230.8645782470703 89.6975326538086 L 237.331298828125 92.24664306640625 L 243.79803466796875 90.0235824584961 L 250.26475524902344 87.5930404663086 L 256.7314758300781 100.66461181640625 L 263.1982116699219 95.65532684326172 L 269.6649475097656 91.35741424560547 L 276.1316833496094 97.3152084350586 L 282.5984191894531 94.5882568359375 L 289.06512451171875 92.57268524169922 L 295.5318603515625 92.66161346435547 L 301.99859619140625 101.13887023925781 L 308.46533203125 97.3744888305664 L 314.9320373535156 90.91280364990234 L 321.3987731933594 95.80352783203125 L 327.8655090332031 89.43077087402344 L 334.3322448730469 99.21221923828125 L 340.7989807128906 94.26221466064453 L 347.26568603515625 100.57569122314453 L 353.732421875 99.00473022460938 L 360.19915771484375 100.1310806274414 L 366.6658935546875 94.32149505615234 L 373.13262939453125 98.91580963134766 L 379.5993347167969 98.3526382446289 L 386.0660705566406 90.3496322631836 L 392.5328063964844 97.90802764892578 L 398.9995422363281 95.74424743652344 L 405.46624755859375 98.56011962890625 L 411.9329833984375 95.98137664794922 L 418.39971923828125 97.49305725097656 L 424.866455078125 94.70682525634766 L 431.33319091796875 95.80352783203125 L 437.7998962402344 91.47598266601562 L 444.2666320800781 97.13736724853516 L 450.7333679199219 93.66939544677734 L 457.2001037597656 90.88316345214844 L 463.66680908203125 95.8628158569336 L 470.133544921875 100.19036102294922 L 476.60028076171875 98.20442962646484 L 483.0670166015625 95.32927703857422 L 489.53375244140625 96.90023803710938 L 496.0004577636719 97.90802764892578 L 502.4671936035156 101.34635162353516 L 508.9339294433594 101.34635162353516 L 515.400634765625 93.22478485107422 L 521.8673706054688 97.61161804199219 L 528.3341064453125 100.22000122070312 L 534.8008422851562 100.01251983642578 L 541.267578125 99.03437042236328 L 547.7343139648438 105.85174560546875 L 554.2010498046875 106.05923461914062 L 560.6677856445312 98.2933578491211 L 567.1344604492188 105.49605560302734 L 573.6011962890625 103.03587341308594 L 580.0679321289062 105.05144500732422 L 586.53466796875 115.18858337402344 L 593.0014038085938 103.71761322021484 L 599.4681396484375 104.3104248046875 L 605.9348754882812 115.18858337402344 L 612.401611328125 113.38050079345703 L 618.8683471679688 113.32122039794922 L 625.3350219726562 114.358642578125 L 631.8017578125 114.83290100097656 L 638.2684936523438 118.03409576416016 L 644.7352294921875 121.05745697021484 L 651.2019653320312 129.68292236328125 L 657.668701171875 127.69698333740234 L 664.1354370117188 134.21795654296875 L 670.6021728515625 137.83412170410156 L 677.0689086914062 138.9901123046875 L 683.5355834960938 137.65628051757812 L 690.0023193359375 140.8278350830078 L 696.4690551757812 140.64999389648438 L 702.935791015625 140.64999389648438 L 709.4025268554688 149.3050994873047 L 715.8692626953125 153.0398406982422 L 722.3359985351562 152.80270385742188 L 728.802734375 152.74342346191406 L 735.2694702148438 159.3533172607422 L 741.7362060546875 161.60601806640625 L 748.202880859375 164.5997314453125 L 754.6696166992188 174.02548217773438 L 761.1363525390625 259.1833801269531" stroke-opacity="1" stroke-linejoin="bevel" stroke-miterlimit="10" stroke-width="3" stroke-dasharray="" clip-path="url(#UWdDWeOiWOOh)"/><path fill="none" stroke="rgb(0,0,0)" paint-order="fill" d="M 102.5 739.5 L 792.5 739.5" stroke-opacity="1" stroke-linejoin="bevel" stroke-miterlimit="10" stroke-dasharray=""/><path fill="none" stroke="rgb(0,0,0)" paint-order="fill" d="M 127.5 745.5 L 127.5 737.5 M 256.5 745.5 L 256.5 737.5 M 386.5 745.5 L 386.5 737.5 M 515.5 745.5 L 515.5 737.5 M 644.5 745.5 L 644.5 737.5 M 774.5 745.5 L 774.5 737.5" stroke-opacity="1" stroke-linejoin="bevel" stroke-miterlimit="10" stroke-dasharray=""/><path fill="none" stroke="rgb(0,0,0)" paint-order="fill" d="M 127.5 743.5 L 127.5 739.5 M 153.5 743.5 L 153.5 739.5 M 179.5 743.5 L 179.5 739.5 M 204.5 743.5 L 204.5 739.5 M 230.5 743.5 L 230.5 739.5 M 256.5 743.5 L 256.5 739.5 M 282.5 743.5 L 282.5 739.5 M 308.5 743.5 L 308.5 739.5 M 334.5 743.5 L 334.5 739.5 M 360.5 743.5 L 360.5 739.5 M 386.5 743.5 L 386.5 739.5 M 411.5 743.5 L 411.5 739.5 M 437.5 743.5 L 437.5 739.5 M 463.5 743.5 L 463.5 739.5 M 489.5 743.5 L 489.5 739.5 M 515.5 743.5 L 515.5 739.5 M 541.5 743.5 L 541.5 739.5 M 567.5 743.5 L 567.5 739.5 M 593.5 743.5 L 593.5 739.5 M 618.5 743.5 L 618.5 739.5 M 644.5 743.5 L 644.5 739.5 M 670.5 743.5 L 670.5 739.5 M 696.5 743.5 L 696.5 739.5 M 722.5 743.5 L 722.5 739.5 M 748.5 743.5 L 748.5 739.5 M 774.5 743.5 L 774.5 739.5" stroke-opacity="1" stroke-linejoin="bevel" stroke-miterlimit="10" stroke-dasharray=""/><text fill="rgb(68,68,68)" stroke="none" font-family="helvetica" font-size="20px" font-style="normal" font-weight="normal" text-decoration="normal" x="121.3385705947876" y="765" text-anchor="start" dominant-baseline="alphabetic" transform="matrix(1, 0, 0, 1, 0.5, 0.5)" fill-opacity="1">0</text><text fill="rgb(68,68,68)" stroke="none" font-family="helvetica" font-size="20px" font-style="normal" font-weight="normal" text-decoration="normal" x="242.33147621154785" y="765" text-anchor="start" dominant-baseline="alphabetic" transform="matrix(1, 0, 0, 1, 0.5, 0.5)" fill-opacity="1">0.2</text><text fill="rgb(68,68,68)" stroke="none" font-family="helvetica" font-size="20px" font-style="normal" font-weight="normal" text-decoration="normal" x="371.66607093811035" y="765" text-anchor="start" dominant-baseline="alphabetic" transform="matrix(1, 0, 0, 1, 0.5, 0.5)" fill-opacity="1">0.4</text><text fill="rgb(68,68,68)" stroke="none" font-family="helvetica" font-size="20px" font-style="normal" font-weight="normal" text-decoration="normal" x="501.0006351470947" y="765" text-anchor="start" dominant-baseline="alphabetic" transform="matrix(1, 0, 0, 1, 0.5, 0.5)" fill-opacity="1">0.6</text><text fill="rgb(68,68,68)" stroke="none" font-family="helvetica" font-size="20px" font-style="normal" font-weight="normal" text-decoration="normal" x="630.3352298736572" y="765" text-anchor="start" dominant-baseline="alphabetic" transform="matrix(1, 0, 0, 1, 0.5, 0.5)" fill-opacity="1">0.8</text><text fill="rgb(68,68,68)" stroke="none" font-family="helvetica" font-size="20px" font-style="normal" font-weight="normal" text-decoration="normal" x="768.0114908218384" y="765" text-anchor="start" dominant-baseline="alphabetic" transform="matrix(1, 0, 0, 1, 0.5, 0.5)" fill-opacity="1">1</text><text fill="rgb(68,68,68)" stroke="none" font-family="helvetica" font-size="20px" font-style="italic" font-weight="normal" text-decoration="normal" x="375.18333435058594" y="793" text-anchor="start" dominant-baseline="alphabetic" transform="matrix(1, 0, 0, 1, 0.5, 0.5)" fill-opacity="1">Geometric Ratio</text><path fill="none" stroke="rgb(0,0,0)" paint-order="fill" d="M 102.5 739.5 L 102.5 5.5" stroke-opacity="1" stroke-linejoin="bevel" stroke-miterlimit="10" stroke-dasharray=""/><path fill="none" stroke="rgb(0,0,0)" paint-order="fill" d="M 96.5 703.5 L 104.5 703.5 M 96.5 555.5 L 104.5 555.5 M 96.5 407.5 L 104.5 407.5 M 96.5 258.5 L 104.5 258.5 M 96.5 110.5 L 104.5 110.5" stroke-opacity="1" stroke-linejoin="bevel" stroke-miterlimit="10" stroke-dasharray=""/><path fill="none" stroke="rgb(0,0,0)" paint-order="fill" d="M 98.5 733.5 L 102.5 733.5 M 98.5 703.5 L 102.5 703.5 M 98.5 673.5 L 102.5 673.5 M 98.5 644.5 L 102.5 644.5 M 98.5 614.5 L 102.5 614.5 M 98.5 584.5 L 102.5 584.5 M 98.5 555.5 L 102.5 555.5 M 98.5 525.5 L 102.5 525.5 M 98.5 495.5 L 102.5 495.5 M 98.5 466.5 L 102.5 466.5 M 98.5 436.5 L 102.5 436.5 M 98.5 407.5 L 102.5 407.5 M 98.5 377.5 L 102.5 377.5 M 98.5 347.5 L 102.5 347.5 M 98.5 318.5 L 102.5 318.5 M 98.5 288.5 L 102.5 288.5 M 98.5 258.5 L 102.5 258.5 M 98.5 229.5 L 102.5 229.5 M 98.5 199.5 L 102.5 199.5 M 98.5 169.5 L 102.5 169.5 M 98.5 140.5 L 102.5 140.5 M 98.5 110.5 L 102.5 110.5 M 98.5 80.5 L 102.5 80.5 M 98.5 51.5 L 102.5 51.5 M 98.5 21.5 L 102.5 21.5" stroke-opacity="1" stroke-linejoin="bevel" stroke-miterlimit="10" stroke-dasharray=""/><text fill="rgb(68,68,68)" stroke="none" font-family="helvetica" font-size="20px" font-style="normal" font-weight="normal" text-decoration="normal" x="35.41666793823242" y="710.4390258789062" text-anchor="start" dominant-baseline="alphabetic" transform="matrix(1, 0, 0, 1, 0.5, 0.5)" fill-opacity="1">10000</text><text fill="rgb(68,68,68)" stroke="none" font-family="helvetica" font-size="20px" font-style="normal" font-weight="normal" text-decoration="normal" x="35.41666793823242" y="562.2352905273438" text-anchor="start" dominant-baseline="alphabetic" transform="matrix(1, 0, 0, 1, 0.5, 0.5)" fill-opacity="1">15000</text><text fill="rgb(68,68,68)" stroke="none" font-family="helvetica" font-size="20px" font-style="normal" font-weight="normal" text-decoration="normal" x="35.41666793823242" y="414.031494140625" text-anchor="start" dominant-baseline="alphabetic" transform="matrix(1, 0, 0, 1, 0.5, 0.5)" fill-opacity="1">20000</text><text fill="rgb(68,68,68)" stroke="none" font-family="helvetica" font-size="20px" font-style="normal" font-weight="normal" text-decoration="normal" x="35.41666793823242" y="265.82769775390625" text-anchor="start" dominant-baseline="alphabetic" transform="matrix(1, 0, 0, 1, 0.5, 0.5)" fill-opacity="1">25000</text><text fill="rgb(68,68,68)" stroke="none" font-family="helvetica" font-size="20px" font-style="normal" font-weight="normal" text-decoration="normal" x="35.41666793823242" y="117.62390899658203" text-anchor="start" dominant-baseline="alphabetic" transform="matrix(1, 0, 0, 1, 0.5, 0.5)" fill-opacity="1">30000</text><text fill="rgb(68,68,68)" stroke="none" font-family="helvetica" font-size="20px" font-style="italic" font-weight="normal" text-decoration="normal" x="-113.84999465942383" y="368" text-anchor="start" dominant-baseline="alphabetic" transform="matrix(6.123233995736766e-17, -1, 1, 6.123233995736766e-17, -344.0833320617676, 399.9166679382324)" fill-opacity="1">Total Number of Serviced Users</text><path fill="rgb(255,255,255)" stroke="rgb(229,229,229)" paint-order="fill" d="M 802.2166748046875 15.5 L 1190.5 15.5 L 1190.5 224.5 L 802.2166748046875 224.5 L 802.2166748046875 15.5" fill-opacity="0.9490196078431372" stroke-opacity="0.5019607843137255" stroke-linejoin="bevel" stroke-miterlimit="10" stroke-dasharray=""/><text fill="rgb(68,68,68)" stroke="none" font-family="helvetica" font-size="18px" font-style="normal" font-weight="normal" text-decoration="normal" x="836.7166748046875" y="35.5" text-anchor="start" dominant-baseline="central" transform="matrix(1, 0, 0, 1, 0.5, 0.5)" fill-opacity="1">No Transmission Policy - Share Evenly</text><path fill="none" stroke="rgb(31,119,180)" paint-order="fill" d="M 812.2166748046875 35.5 L 832.2166748046875 35.5" stroke-opacity="1" stroke-linejoin="bevel" stroke-miterlimit="10" stroke-width="3" stroke-dasharray=""/><text fill="rgb(68,68,68)" stroke="none" font-family="helvetica" font-size="18px" font-style="normal" font-weight="normal" text-decoration="normal" x="836.7166748046875" y="59.5" text-anchor="start" dominant-baseline="central" transform="matrix(1, 0, 0, 1, 0.5, 0.5)" fill-opacity="1">Cheapest Users - Share Evenly</text><path fill="none" stroke="rgb(255,127,14)" paint-order="fill" d="M 812.2166748046875 59.5 L 832.2166748046875 59.5" stroke-opacity="1" stroke-linejoin="bevel" stroke-miterlimit="10" stroke-width="3" stroke-dasharray=""/><text fill="rgb(68,68,68)" stroke="none" font-family="helvetica" font-size="18px" font-style="normal" font-weight="normal" text-decoration="normal" x="836.7166748046875" y="83.5" text-anchor="start" dominant-baseline="central" transform="matrix(1, 0, 0, 1, 0.5, 0.5)" fill-opacity="1">No Transmission Policy - AP Energy Arrival</text><path fill="none" stroke="rgb(44,160,44)" paint-order="fill" d="M 812.2166748046875 83.5 L 832.2166748046875 83.5" stroke-opacity="1" stroke-linejoin="bevel" stroke-miterlimit="10" stroke-width="3" stroke-dasharray=""/><text fill="rgb(68,68,68)" stroke="none" font-family="helvetica" font-size="18px" font-style="normal" font-weight="normal" text-decoration="normal" x="836.7166748046875" y="107.5" text-anchor="start" dominant-baseline="central" transform="matrix(1, 0, 0, 1, 0.5, 0.5)" fill-opacity="1">Cheapest Users - AP Energy Arrival</text><path fill="none" stroke="rgb(214,39,40)" paint-order="fill" d="M 812.2166748046875 107.5 L 832.2166748046875 107.5" stroke-opacity="1" stroke-linejoin="bevel" stroke-miterlimit="10" stroke-width="3" stroke-dasharray=""/><text fill="rgb(68,68,68)" stroke="none" font-family="helvetica" font-size="18px" font-style="normal" font-weight="normal" text-decoration="normal" x="836.7166748046875" y="131.5" text-anchor="start" dominant-baseline="central" transform="matrix(1, 0, 0, 1, 0.5, 0.5)" fill-opacity="1">No Transmission Policy - AP Energy Use</text><path fill="none" stroke="rgb(148,103,189)" paint-order="fill" d="M 812.2166748046875 131.5 L 832.2166748046875 131.5" stroke-opacity="1" stroke-linejoin="bevel" stroke-miterlimit="10" stroke-width="3" stroke-dasharray=""/><text fill="rgb(68,68,68)" stroke="none" font-family="helvetica" font-size="18px" font-style="normal" font-weight="normal" text-decoration="normal" x="836.7166748046875" y="155.5" text-anchor="start" dominant-baseline="central" transform="matrix(1, 0, 0, 1, 0.5, 0.5)" fill-opacity="1">Cheapest Users - AP Energy Use</text><path fill="none" stroke="rgb(140,86,75)" paint-order="fill" d="M 812.2166748046875 155.5 L 832.2166748046875 155.5" stroke-opacity="1" stroke-linejoin="bevel" stroke-miterlimit="10" stroke-width="3" stroke-dasharray=""/><text fill="rgb(68,68,68)" stroke="none" font-family="helvetica" font-size="18px" font-style="normal" font-weight="normal" text-decoration="normal" x="836.7166748046875" y="179.5" text-anchor="start" dominant-baseline="central" transform="matrix(1, 0, 0, 1, 0.5, 0.5)" fill-opacity="1">No Transmission Policy - AP Efficiency</text><path fill="none" stroke="rgb(227,119,194)" paint-order="fill" d="M 812.2166748046875 179.5 L 832.2166748046875 179.5" stroke-opacity="1" stroke-linejoin="bevel" stroke-miterlimit="10" stroke-width="3" stroke-dasharray=""/><text fill="rgb(68,68,68)" stroke="none" font-family="helvetica" font-size="18px" font-style="normal" font-weight="normal" text-decoration="normal" x="836.7166748046875" y="203.5" text-anchor="start" dominant-baseline="central" transform="matrix(1, 0, 0, 1, 0.5, 0.5)" fill-opacity="1">Cheapest Users - AP Efficiency</text><path fill="none" stroke="rgb(127,127,127)" paint-order="fill" d="M 812.2166748046875 203.5 L 832.2166748046875 203.5" stroke-opacity="1" stroke-linejoin="bevel" stroke-miterlimit="10" stroke-width="3" stroke-dasharray=""/><path fill="rgb(255,255,255)" stroke="rgb(229,229,229)" paint-order="fill" d="M 802.2166748046875 15.5 L 1190.5 15.5 L 1190.5 224.5 L 802.2166748046875 224.5 L 802.2166748046875 15.5" fill-opacity="0.9490196078431372" stroke-opacity="0.5019607843137255" stroke-linejoin="bevel" stroke-miterlimit="10" stroke-dasharray=""/><text fill="rgb(68,68,68)" stroke="none" font-family="helvetica" font-size="18px" font-style="normal" font-weight="normal" text-decoration="normal" x="836.7166748046875" y="35.5" text-anchor="start" dominant-baseline="central" transform="matrix(1, 0, 0, 1, 0.5, 0.5)" fill-opacity="1">No Transmission Policy - Share Evenly</text><path fill="none" stroke="rgb(31,119,180)" paint-order="fill" d="M 812.2166748046875 35.5 L 832.2166748046875 35.5" stroke-opacity="1" stroke-linejoin="bevel" stroke-miterlimit="10" stroke-width="3" stroke-dasharray=""/><text fill="rgb(68,68,68)" stroke="none" font-family="helvetica" font-size="18px" font-style="normal" font-weight="normal" text-decoration="normal" x="836.7166748046875" y="59.5" text-anchor="start" dominant-baseline="central" transform="matrix(1, 0, 0, 1, 0.5, 0.5)" fill-opacity="1">Cheapest Users - Share Evenly</text><path fill="none" stroke="rgb(255,127,14)" paint-order="fill" d="M 812.2166748046875 59.5 L 832.2166748046875 59.5" stroke-opacity="1" stroke-linejoin="bevel" stroke-miterlimit="10" stroke-width="3" stroke-dasharray=""/><text fill="rgb(68,68,68)" stroke="none" font-family="helvetica" font-size="18px" font-style="normal" font-weight="normal" text-decoration="normal" x="836.7166748046875" y="83.5" text-anchor="start" dominant-baseline="central" transform="matrix(1, 0, 0, 1, 0.5, 0.5)" fill-opacity="1">No Transmission Policy - AP Energy Arrival</text><path fill="none" stroke="rgb(44,160,44)" paint-order="fill" d="M 812.2166748046875 83.5 L 832.2166748046875 83.5" stroke-opacity="1" stroke-linejoin="bevel" stroke-miterlimit="10" stroke-width="3" stroke-dasharray=""/><text fill="rgb(68,68,68)" stroke="none" font-family="helvetica" font-size="18px" font-style="normal" font-weight="normal" text-decoration="normal" x="836.7166748046875" y="107.5" text-anchor="start" dominant-baseline="central" transform="matrix(1, 0, 0, 1, 0.5, 0.5)" fill-opacity="1">Cheapest Users - AP Energy Arrival</text><path fill="none" stroke="rgb(214,39,40)" paint-order="fill" d="M 812.2166748046875 107.5 L 832.2166748046875 107.5" stroke-opacity="1" stroke-linejoin="bevel" stroke-miterlimit="10" stroke-width="3" stroke-dasharray=""/><text fill="rgb(68,68,68)" stroke="none" font-family="helvetica" font-size="18px" font-style="normal" font-weight="normal" text-decoration="normal" x="836.7166748046875" y="131.5" text-anchor="start" dominant-baseline="central" transform="matrix(1, 0, 0, 1, 0.5, 0.5)" fill-opacity="1">No Transmission Policy - AP Energy Use</text><path fill="none" stroke="rgb(148,103,189)" paint-order="fill" d="M 812.2166748046875 131.5 L 832.2166748046875 131.5" stroke-opacity="1" stroke-linejoin="bevel" stroke-miterlimit="10" stroke-width="3" stroke-dasharray=""/><text fill="rgb(68,68,68)" stroke="none" font-family="helvetica" font-size="18px" font-style="normal" font-weight="normal" text-decoration="normal" x="836.7166748046875" y="155.5" text-anchor="start" dominant-baseline="central" transform="matrix(1, 0, 0, 1, 0.5, 0.5)" fill-opacity="1">Cheapest Users - AP Energy Use</text><path fill="none" stroke="rgb(140,86,75)" paint-order="fill" d="M 812.2166748046875 155.5 L 832.2166748046875 155.5" stroke-opacity="1" stroke-linejoin="bevel" stroke-miterlimit="10" stroke-width="3" stroke-dasharray=""/><text fill="rgb(68,68,68)" stroke="none" font-family="helvetica" font-size="18px" font-style="normal" font-weight="normal" text-decoration="normal" x="836.7166748046875" y="179.5" text-anchor="start" dominant-baseline="central" transform="matrix(1, 0, 0, 1, 0.5, 0.5)" fill-opacity="1">No Transmission Policy - AP Efficiency</text><path fill="none" stroke="rgb(227,119,194)" paint-order="fill" d="M 812.2166748046875 179.5 L 832.2166748046875 179.5" stroke-opacity="1" stroke-linejoin="bevel" stroke-miterlimit="10" stroke-width="3" stroke-dasharray=""/><text fill="rgb(68,68,68)" stroke="none" font-family="helvetica" font-size="18px" font-style="normal" font-weight="normal" text-decoration="normal" x="836.7166748046875" y="203.5" text-anchor="start" dominant-baseline="central" transform="matrix(1, 0, 0, 1, 0.5, 0.5)" fill-opacity="1">Cheapest Users - AP Efficiency</text><path fill="none" stroke="rgb(127,127,127)" paint-order="fill" d="M 812.2166748046875 203.5 L 832.2166748046875 203.5" stroke-opacity="1" stroke-linejoin="bevel" stroke-miterlimit="10" stroke-width="3" stroke-dasharray=""/></svg>