<svg version="1.1" xmlns="http://www.w3.org/2000/svg" width="1200" height="800"><defs><clipPath id="lmNTGHixKewo"><path fill="none" stroke="none" d="M 102.5 5.5 L 766.5 5.5 L 766.5 739.5 L 102.5 739.5 L 102.5 5.5"/></clipPath><clipPath id="yBQfuAldQFET"><path fill="none" stroke="none" d="M 102.5 5.5 L 766.5 5.5 L 766.5 739.5 L 102.5 739.5 L 102.5 5.5"/></clipPath><clipPath id="LxRmoIHOQupd"><path fill="none" stroke="none" d="M 102.5 5.5 L 766.5 5.5 L 766.5 739.5 L 102.5 739.5 L 102.5 5.5"/></clipPath><clipPath id="oXSyImyPMoHe"><path fill="none" stroke="none" d="M 102.5 5.5 L 766.5 5.5 L 766.5 739.5 L 102.5 739.5 L 102.5 5.5"/></clipPath><clipPath id="mhpAtBiIuhFK"><path fill="none" stroke="none" d="M 102.5 5.5 L 766.5 5.5 L 766.5 739.5 L 102.5 739.5 L 102.5 5.5"/></clipPath><clipPath id="dXKhEZyazyNQ"><path fill="none" stroke="none" d="M 102.5 5.5 L 766.5 5.5 L 766.5 739.5 L 102.5 739.5 L 102.5 5.5"/></clipPath><clipPath id="UeNRiGmOVlcw"><path fill="none" stroke="none" d="M 102.5 5.5 L 766.5 5.5 L 766.5 739.5 L 102.5 739.5 L 102.5 5.5"/></clipPath><clipPath id="BpyGFWQxvSEq"><path fill="none" stroke="none" d="M 102.5 5.5 L 766.5 5.5 L 766.5 739.5 L 102.5 739.5 L 102.5 5.5"/></clipPath><clipPath id="XgvarPzvsUyL"><path fill="none" stroke="none" d="M 102.5 5.5 L 766.5 5.5 L 766.5 739.5 L 102.5 739.5 L 102.5 5.5"/></clipPath><clipPath id="WbIvRNxWpcoS"><path fill="none" stroke="none" d="M 102.5 5.5 L 766.5 5.5 L 766.5 739.5 L 102.5 739.5 L 102.5 5.5"/></clipPath><clipPath id="NXvtwSfQXQFp"><path fill="none" stroke="none" d="M 102.5 5.5 L 766.5 5.5 L 766.5 739.5 L 102.5 739.5 L 102.5 5.5"/></clipPath><clipPath id="VoTTWEwisFes"><path fill="none" stroke="none" d="M 102.5 5.5 L 766.5 5.5 L 766.5 739.5 L 102.5 739.5 L 102.5 5.5"/></clipPath><clipPath id="aWAncTeXcGUx"><path fill="none" stroke="none" d="M 102.5 5.5 L 766.5 5.5 L 766.5 739.5 L 102.5 739.5 L 102.5 5.5"/></clipPath><clipPath id="IIiZpRUSUqDE"><path fill="none" stroke="none" d="M 102.5 5.5 L 766.5 5.5 L 766.5 739.5 L 102.5 739.5 L 102.5 5.5"/></clipPath><clipPath id="rPHKrRucVCZX"><path fill="none" stroke="none" d="M 102.5 5.5 L 766.5 5.5 L 766.5 739.5 L 102.5 739.5 L 102.5 5.5"/></clipPath></defs><path fill="rgb(255,255,255)" stroke="none" paint-order="stroke" d="M 0.5 0.5 L 1200.5 0.5 L 1200.5 800.5 L 0.5 800.5 L 0.5 0.5" fill-opacity="1"/><rect fill="#FFFFFF" stroke="none" x="102" y="5" width="664" height="734" transform="matrix(1, 0, 0, 1, 0.5, 0.5)"/><path fill="rgb(255,255,255)" stroke="none" paint-order="stroke" d="M 102.5 5.5 L 766.5 5.5 L 766.5 739.5 L 102.5 739.5 L 102.5 5.5" fill-opacity="1"/><path fill="none" stroke="rgb(229,229,229)" paint-order="fill" d="M 102.5 5.5 L 766.5 5.5 L 766.5 739.5 L 102.5 739.5 L 102.5 5.5" stroke-opacity="1" stroke-linejoin="bevel" stroke-miterlimit="10" stroke-dasharray=""/><path fill="none" stroke="rgb(229,229,229)" paint-order="fill" d="M 259.5 739.5 L 259.5 5.5 M 418.5 739.5 L 418.5 5.5 M 577.5 739.5 L 577.5 5.5 M 736.5 739.5 L 736.5 5.5" stroke-opacity="1" stroke-linejoin="bevel" stroke-miterlimit="10" stroke-dasharray="" clip-path="url(#lmNTGHixKewo)"/><path fill="none" stroke="rgb(229,229,229)" paint-order="fill" d="M 102.5 716.5 L 766.5 716.5 M 102.5 614.5 L 766.5 614.5 M 102.5 512.5 L 766.5 512.5 M 102.5 410.5 L 766.5 410.5 M 102.5 309.5 L 766.5 309.5 M 102.5 207.5 L 766.5 207.5 M 102.5 105.5 L 766.5 105.5" stroke-opacity="1" stroke-linejoin="bevel" stroke-miterlimit="10" stroke-dasharray="" clip-path="url(#yBQfuAldQFET)"/><path fill="none" stroke="rgb(31,119,180)" paint-order="fill" d="M 132.68182373046875 683.76611328125 L 164.4521484375 650.33349609375 L 196.2224884033203 618.213134765625 L 227.99282836914062 583.1204833984375 L 259.7631530761719 554.0650634765625 L 291.5334777832031 517.3353271484375 L 323.3038330078125 483.9372863769531 L 355.07415771484375 452.1666259765625 L 386.844482421875 421.3458557128906 L 418.6148376464844 389.3018493652344 L 450.3851623535156 350.10687255859375 L 482.155517578125 318.7210388183594 L 513.9258422851562 298.9469299316406 L 545.6961669921875 252.70225524902344 L 577.4664916992188 227.1607208251953 L 609.23681640625 188.7231903076172 L 641.0072021484375 153.85452270507812 L 672.7775268554688 123.46133422851562 L 704.5478515625 104.77298736572266 L 736.3181762695312 52.341461181640625" stroke-opacity="1" stroke-linejoin="bevel" stroke-miterlimit="10" stroke-width="3" stroke-dasharray="" clip-path="url(#LxRmoIHOQupd)"/><path fill="none" stroke="rgb(174,199,232)" paint-order="fill" d="M 132.68182373046875 682.694091796875 L 164.4521484375 650.7625732421875 L 196.2224884033203 617.7921142578125 L 227.99282836914062 581.2625122070312 L 259.7631530761719 552.1719360351562 L 291.5334777832031 517.5679931640625 L 323.3038330078125 488.30126953125 L 355.07415771484375 451.7013854980469 L 386.844482421875 418.33538818359375 L 418.6148376464844 395.64703369140625 L 450.3851623535156 349.74749755859375 L 482.155517578125 323.9295349121094 L 513.9258422851562 279.83148193359375 L 545.6961669921875 259.08917236328125 L 577.4664916992188 219.57908630371094 L 609.23681640625 200.2142333984375 L 641.0072021484375 154.39105224609375 L 672.7775268554688 122.56135559082031 L 704.5478515625 75.49357604980469 L 736.3181762695312 43.125308990478516" stroke-opacity="1" stroke-linejoin="bevel" stroke-miterlimit="10" stroke-width="3" stroke-dasharray="" clip-path="url(#oXSyImyPMoHe)"/><path fill="none" stroke="rgb(255,127,14)" paint-order="fill" d="M 132.68182373046875 686.2935180664062 L 164.4521484375 651.0863647460938 L 196.2224884033203 617.17822265625 L 227.99282836914062 582.2703857421875 L 259.7631530761719 547.2662963867188 L 291.5334777832031 511.9501953125 L 323.3038330078125 478.4101257324219 L 355.07415771484375 444.3513488769531 L 386.844482421875 411.13299560546875 L 418.6148376464844 377.05133056640625 L 450.3851623535156 343.5336608886719 L 482.155517578125 308.9683837890625 L 513.9258422851562 274.6474304199219 L 545.6961669921875 243.0554656982422 L 577.4664916992188 208.3028564453125 L 609.23681640625 173.50698852539062 L 641.0072021484375 142.14968872070312 L 672.7775268554688 108.2380142211914 L 704.5478515625 70.6246109008789 L 736.3181762695312 42.59234619140625" stroke-opacity="1" stroke-linejoin="bevel" stroke-miterlimit="10" stroke-width="3" stroke-dasharray="" clip-path="url(#mhpAtBiIuhFK)"/><path fill="none" stroke="rgb(255,187,120)" paint-order="fill" d="M 132.68182373046875 686.60400390625 L 164.4521484375 651.4426879882812 L 196.2224884033203 616.1484375 L 227.99282836914062 580.1522827148438 L 259.7631530761719 546.2782592773438 L 291.5334777832031 513.261474609375 L 323.3038330078125 478.129150390625 L 355.07415771484375 443.2431945800781 L 386.844482421875 411.4898376464844 L 418.6148376464844 379.03656005859375 L 450.3851623535156 343.0291748046875 L 482.155517578125 309.3374328613281 L 513.9258422851562 275.01904296875 L 545.6961669921875 243.377685546875 L 577.4664916992188 209.24813842773438 L 609.23681640625 172.8554229736328 L 641.0072021484375 140.63375854492188 L 672.7775268554688 103.88013458251953 L 704.5478515625 70.66584777832031 L 736.3181762695312 38.8636360168457" stroke-opacity="1" stroke-linejoin="bevel" stroke-miterlimit="10" stroke-width="3" stroke-dasharray="" clip-path="url(#dXKhEZyazyNQ)"/><path fill="none" stroke="rgb(44,160,44)" paint-order="fill" d="M 132.68182373046875 706.1363525390625 L 164.4521484375 695.9962768554688 L 196.2224884033203 685.9946899414062 L 227.99282836914062 675.9152221679688 L 259.7631530761719 666.0113525390625 L 291.5334777832031 656.5651245117188 L 323.3038330078125 645.77197265625 L 355.07415771484375 637.203857421875 L 386.844482421875 627.1864624023438 L 418.6148376464844 617.5345458984375 L 450.3851623535156 607.7635498046875 L 482.155517578125 598.7708740234375 L 513.9258422851562 589.4865112304688 L 545.6961669921875 580.160400390625 L 577.4664916992188 570.0855102539062 L 609.23681640625 559.4481201171875 L 641.0072021484375 550.3480224609375 L 672.7775268554688 540.3922729492188 L 704.5478515625 533.0641479492188 L 736.3181762695312 524.9826049804688" stroke-opacity="1" stroke-linejoin="bevel" stroke-miterlimit="10" stroke-width="3" stroke-dasharray="" clip-path="url(#UeNRiGmOVlcw)"/><path fill="none" stroke="rgb(152,223,138)" paint-order="fill" d="M 132.68182373046875 706.102783203125 L 164.4521484375 695.9382934570312 L 196.2224884033203 685.7722778320312 L 227.99282836914062 675.6607055664062 L 259.7631530761719 665.2691650390625 L 291.5334777832031 655.2869262695312 L 323.3038330078125 645.5240478515625 L 355.07415771484375 635.4888916015625 L 386.844482421875 624.978759765625 L 418.6148376464844 615.7564697265625 L 450.3851623535156 605.940185546875 L 482.155517578125 596.5081787109375 L 513.9258422851562 586.1258544921875 L 545.6961669921875 576.0418090820312 L 577.4664916992188 565.7510375976562 L 609.23681640625 556.4259643554688 L 641.0072021484375 547.7015380859375 L 672.7775268554688 537.3741455078125 L 704.5478515625 527.3603515625 L 736.3181762695312 517.3994750976562" stroke-opacity="1" stroke-linejoin="bevel" stroke-miterlimit="10" stroke-width="3" stroke-dasharray="" clip-path="url(#BpyGFWQxvSEq)"/><path fill="none" stroke="rgb(214,39,40)" paint-order="fill" d="M 132.68182373046875 691.8771362304688 L 164.4521484375 668.2923583984375 L 196.2224884033203 644.4174194335938 L 227.99282836914062 619.5076293945312 L 259.7631530761719 596.1111450195312 L 291.5334777832031 571.191162109375 L 323.3038330078125 548.6346435546875 L 355.07415771484375 525.785888671875 L 386.844482421875 500.32171630859375 L 418.6148376464844 475.05657958984375 L 450.3851623535156 450.83294677734375 L 482.155517578125 428.96514892578125 L 513.9258422851562 405.0835876464844 L 545.6961669921875 372.1614990234375 L 577.4664916992188 356.30084228515625 L 609.23681640625 334.3261413574219 L 641.0072021484375 307.1765441894531 L 672.7775268554688 282.4571228027344 L 704.5478515625 262.63970947265625 L 736.3181762695312 235.63978576660156" stroke-opacity="1" stroke-linejoin="bevel" stroke-miterlimit="10" stroke-width="3" stroke-dasharray="" clip-path="url(#XgvarPzvsUyL)"/><path fill="none" stroke="rgb(255,152,150)" paint-order="fill" d="M 132.68182373046875 692.3678588867188 L 164.4521484375 667.6473999023438 L 196.2224884033203 644.6871948242188 L 227.99282836914062 619.2505493164062 L 259.7631530761719 596.4970092773438 L 291.5334777832031 571.2588500976562 L 323.3038330078125 546.7929077148438 L 355.07415771484375 524.1655883789062 L 386.844482421875 499.1117248535156 L 418.6148376464844 476.7822265625 L 450.3851623535156 453.9991760253906 L 482.155517578125 429.6126403808594 L 513.9258422851562 402.2828674316406 L 545.6961669921875 378.1192932128906 L 577.4664916992188 354.3105163574219 L 609.23681640625 337.3594970703125 L 641.0072021484375 307.6794738769531 L 672.7775268554688 284.1695251464844 L 704.5478515625 258.9415588378906 L 736.3181762695312 236.65225219726562" stroke-opacity="1" stroke-linejoin="bevel" stroke-miterlimit="10" stroke-width="3" stroke-dasharray="" clip-path="url(#WbIvRNxWpcoS)"/><path fill="none" stroke="rgb(148,103,189)" paint-order="fill" d="M 132.68182373046875 685.9829711914062 L 164.4521484375 655.75830078125 L 196.2224884033203 625.3936157226562 L 227.99282836914062 594.9520874023438 L 259.7631530761719 564.8128662109375 L 291.5334777832031 534.442626953125 L 323.3038330078125 503.9175720214844 L 355.07415771484375 473.2428894042969 L 386.844482421875 443.0482177734375 L 418.6148376464844 412.88818359375 L 450.3851623535156 382.5138244628906 L 482.155517578125 352.0834655761719 L 513.9258422851562 322.538330078125 L 545.6961669921875 292.0036315917969 L 577.4664916992188 261.54376220703125 L 609.23681640625 231.25390625 L 641.0072021484375 200.4000244140625 L 672.7775268554688 169.9091033935547 L 704.5478515625 140.7559356689453 L 736.3181762695312 110.14691162109375" stroke-opacity="1" stroke-linejoin="bevel" stroke-miterlimit="10" stroke-width="3" stroke-dasharray="" clip-path="url(#NXvtwSfQXQFp)"/><path fill="none" stroke="rgb(197,176,213)" paint-order="fill" d="M 132.68182373046875 686.0593872070312 L 164.4521484375 655.7012939453125 L 196.2224884033203 625.4852294921875 L 227.99282836914062 594.912353515625 L 259.7631530761719 564.569580078125 L 291.5334777832031 534.143798828125 L 323.3038330078125 503.8427429199219 L 355.07415771484375 472.6310119628906 L 386.844482421875 443.38470458984375 L 418.6148376464844 413.588623046875 L 450.3851623535156 382.4002990722656 L 482.155517578125 352.6729431152344 L 513.9258422851562 322.1585998535156 L 545.6961669921875 291.5337829589844 L 577.4664916992188 261.3202819824219 L 609.23681640625 230.95559692382812 L 641.0072021484375 200.5328826904297 L 672.7775268554688 170.8879852294922 L 704.5478515625 140.60372924804688 L 736.3181762695312 110.1005859375" stroke-opacity="1" stroke-linejoin="bevel" stroke-miterlimit="10" stroke-width="3" stroke-dasharray="" clip-path="url(#VoTTWEwisFes)"/><path fill="none" stroke="rgb(140,86,75)" paint-order="fill" d="M 132.68182373046875 684.8621215820312 L 164.4521484375 653.8392333984375 L 196.2224884033203 623.0612182617188 L 227.99282836914062 592.0994262695312 L 259.7631530761719 560.8648071289062 L 291.5334777832031 529.522216796875 L 323.3038330078125 498.9859924316406 L 355.07415771484375 467.3130798339844 L 386.844482421875 437.3271179199219 L 418.6148376464844 405.93621826171875 L 450.3851623535156 375.8677978515625 L 482.155517578125 343.4532165527344 L 513.9258422851562 313.23919677734375 L 545.6961669921875 282.6444396972656 L 577.4664916992188 253.25914001464844 L 609.23681640625 220.92041015625 L 641.0072021484375 190.69825744628906 L 672.7775268554688 159.30836486816406 L 704.5478515625 129.34532165527344 L 736.3181762695312 96.9505844116211" stroke-opacity="1" stroke-linejoin="bevel" stroke-miterlimit="10" stroke-width="3" stroke-dasharray="" clip-path="url(#aWAncTeXcGUx)"/><path fill="none" stroke="rgb(196,156,148)" paint-order="fill" d="M 132.68182373046875 684.85498046875 L 164.4521484375 653.932373046875 L 196.2224884033203 622.680419921875 L 227.99282836914062 591.7339477539062 L 259.7631530761719 561.2857666015625 L 291.5334777832031 530.0394287109375 L 323.3038330078125 499.42071533203125 L 355.07415771484375 468.3097839355469 L 386.844482421875 437.3551330566406 L 418.6148376464844 406.7165832519531 L 450.3851623535156 375.2875061035156 L 482.155517578125 343.7133483886719 L 513.9258422851562 313.41229248046875 L 545.6961669921875 282.4352111816406 L 577.4664916992188 251.21331787109375 L 609.23681640625 220.81808471679688 L 641.0072021484375 189.74380493164062 L 672.7775268554688 159.1622772216797 L 704.5478515625 128.02944946289062 L 736.3181762695312 97.59248352050781" stroke-opacity="1" stroke-linejoin="bevel" stroke-miterlimit="10" stroke-width="3" stroke-dasharray="" clip-path="url(#IIiZpRUSUqDE)"/><path fill="none" stroke="rgb(0,0,0)" paint-order="fill" d="M 102.5 739.5 L 766.5 739.5" stroke-opacity="1" stroke-linejoin="bevel" stroke-miterlimit="10" stroke-dasharray=""/><path fill="none" stroke="rgb(0,0,0)" paint-order="fill" d="M 259.5 745.5 L 259.5 737.5 M 418.5 745.5 L 418.5 737.5 M 577.5 745.5 L 577.5 737.5 M 736.5 745.5 L 736.5 737.5" stroke-opacity="1" stroke-linejoin="bevel" stroke-miterlimit="10" stroke-dasharray=""/><path fill="none" stroke="rgb(0,0,0)" paint-order="fill" d="M 227.5 743.5 L 227.5 739.5 M 196.5 743.5 L 196.5 739.5 M 164.5 743.5 L 164.5 739.5 M 132.5 743.5 L 132.5 739.5 M 259.5 743.5 L 259.5 739.5 M 291.5 743.5 L 291.5 739.5 M 323.5 743.5 L 323.5 739.5 M 355.5 743.5 L 355.5 739.5 M 386.5 743.5 L 386.5 739.5 M 418.5 743.5 L 418.5 739.5 M 450.5 743.5 L 450.5 739.5 M 482.5 743.5 L 482.5 739.5 M 513.5 743.5 L 513.5 739.5 M 545.5 743.5 L 545.5 739.5 M 577.5 743.5 L 577.5 739.5 M 609.5 743.5 L 609.5 739.5 M 641.5 743.5 L 641.5 739.5 M 672.5 743.5 L 672.5 739.5 M 704.5 743.5 L 704.5 739.5 M 736.5 743.5 L 736.5 739.5" stroke-opacity="1" stroke-linejoin="bevel" stroke-miterlimit="10" stroke-dasharray=""/><text fill="rgb(68,68,68)" stroke="none" font-family="helvetica" font-size="20px" font-style="normal" font-weight="normal" text-decoration="normal" x="248.14648628234863" y="765" text-anchor="start" dominant-baseline="alphabetic" transform="matrix(1, 0, 0, 1, 0.5, 0.5)" fill-opacity="1">50</text><text fill="rgb(68,68,68)" stroke="none" font-family="helvetica" font-size="20px" font-style="normal" font-weight="normal" text-decoration="normal" x="401.4398384094238" y="765" text-anchor="start" dominant-baseline="alphabetic" transform="matrix(1, 0, 0, 1, 0.5, 0.5)" fill-opacity="1">100</text><text fill="rgb(68,68,68)" stroke="none" font-family="helvetica" font-size="20px" font-style="normal" font-weight="normal" text-decoration="normal" x="560.2914924621582" y="765" text-anchor="start" dominant-baseline="alphabetic" transform="matrix(1, 0, 0, 1, 0.5, 0.5)" fill-opacity="1">150</text><text fill="rgb(68,68,68)" stroke="none" font-family="helvetica" font-size="20px" font-style="normal" font-weight="normal" text-decoration="normal" x="719.1431770324707" y="765" text-anchor="start" dominant-baseline="alphabetic" transform="matrix(1, 0, 0, 1, 0.5, 0.5)" fill-opacity="1">200</text><text fill="rgb(68,68,68)" stroke="none" font-family="helvetica" font-size="20px" font-style="italic" font-weight="normal" text-decoration="normal" x="334.46666717529297" y="793" text-anchor="start" dominant-baseline="alphabetic" transform="matrix(1, 0, 0, 1, 0.5, 0.5)" fill-opacity="1">Total Number of Users</text><path fill="none" stroke="rgb(0,0,0)" paint-order="fill" d="M 102.5 739.5 L 102.5 5.5" stroke-opacity="1" stroke-linejoin="bevel" stroke-miterlimit="10" stroke-dasharray=""/><path fill="none" stroke="rgb(0,0,0)" paint-order="fill" d="M 96.5 716.5 L 104.5 716.5 M 96.5 614.5 L 104.5 614.5 M 96.5 512.5 L 104.5 512.5 M 96.5 410.5 L 104.5 410.5 M 96.5 309.5 L 104.5 309.5 M 96.5 207.5 L 104.5 207.5 M 96.5 105.5 L 104.5 105.5" stroke-opacity="1" stroke-linejoin="bevel" stroke-miterlimit="10" stroke-dasharray=""/><path fill="none" stroke="rgb(0,0,0)" paint-order="fill" d="M 98.5 736.5 L 102.5 736.5 M 98.5 716.5 L 102.5 716.5 M 98.5 696.5 L 102.5 696.5 M 98.5 675.5 L 102.5 675.5 M 98.5 655.5 L 102.5 655.5 M 98.5 634.5 L 102.5 634.5 M 98.5 614.5 L 102.5 614.5 M 98.5 594.5 L 102.5 594.5 M 98.5 573.5 L 102.5 573.5 M 98.5 553.5 L 102.5 553.5 M 98.5 533.5 L 102.5 533.5 M 98.5 512.5 L 102.5 512.5 M 98.5 492.5 L 102.5 492.5 M 98.5 472.5 L 102.5 472.5 M 98.5 451.5 L 102.5 451.5 M 98.5 431.5 L 102.5 431.5 M 98.5 410.5 L 102.5 410.5 M 98.5 390.5 L 102.5 390.5 M 98.5 370.5 L 102.5 370.5 M 98.5 349.5 L 102.5 349.5 M 98.5 329.5 L 102.5 329.5 M 98.5 309.5 L 102.5 309.5 M 98.5 288.5 L 102.5 288.5 M 98.5 268.5 L 102.5 268.5 M 98.5 248.5 L 102.5 248.5 M 98.5 227.5 L 102.5 227.5 M 98.5 207.5 L 102.5 207.5 M 98.5 187.5 L 102.5 187.5 M 98.5 166.5 L 102.5 166.5 M 98.5 146.5 L 102.5 146.5 M 98.5 125.5 L 102.5 125.5 M 98.5 105.5 L 102.5 105.5 M 98.5 85.5 L 102.5 85.5 M 98.5 64.5 L 102.5 64.5 M 98.5 44.5 L 102.5 44.5 M 98.5 24.5 L 102.5 24.5" stroke-opacity="1" stroke-linejoin="bevel" stroke-miterlimit="10" stroke-dasharray=""/><text fill="rgb(68,68,68)" stroke="none" font-family="helvetica" font-size="20px" font-style="normal" font-weight="normal" text-decoration="normal" x="79.88333320617676" y="723.40673828125" text-anchor="start" dominant-baseline="alphabetic" transform="matrix(1, 0, 0, 1, 0.5, 0.5)" fill-opacity="1">0</text><text fill="rgb(68,68,68)" stroke="none" font-family="helvetica" font-size="20px" font-style="normal" font-weight="normal" text-decoration="normal" x="35.41666793823242" y="621.5989379882812" text-anchor="start" dominant-baseline="alphabetic" transform="matrix(1, 0, 0, 1, 0.5, 0.5)" fill-opacity="1">10000</text><text fill="rgb(68,68,68)" stroke="none" font-family="helvetica" font-size="20px" font-style="normal" font-weight="normal" text-decoration="normal" x="35.41666793823242" y="519.7911376953125" text-anchor="start" dominant-baseline="alphabetic" transform="matrix(1, 0, 0, 1, 0.5, 0.5)" fill-opacity="1">20000</text><text fill="rgb(68,68,68)" stroke="none" font-family="helvetica" font-size="20px" font-style="normal" font-weight="normal" text-decoration="normal" x="35.41666793823242" y="417.98333740234375" text-anchor="start" dominant-baseline="alphabetic" transform="matrix(1, 0, 0, 1, 0.5, 0.5)" fill-opacity="1">30000</text><text fill="rgb(68,68,68)" stroke="none" font-family="helvetica" font-size="20px" font-style="normal" font-weight="normal" text-decoration="normal" x="35.41666793823242" y="316.175537109375" text-anchor="start" dominant-baseline="alphabetic" transform="matrix(1, 0, 0, 1, 0.5, 0.5)" fill-opacity="1">40000</text><text fill="rgb(68,68,68)" stroke="none" font-family="helvetica" font-size="20px" font-style="normal" font-weight="normal" text-decoration="normal" x="35.41666793823242" y="214.3677520751953" text-anchor="start" dominant-baseline="alphabetic" transform="matrix(1, 0, 0, 1, 0.5, 0.5)" fill-opacity="1">50000</text><text fill="rgb(68,68,68)" stroke="none" font-family="helvetica" font-size="20px" font-style="normal" font-weight="normal" text-decoration="normal" x="35.41666793823242" y="112.5599594116211" text-anchor="start" dominant-baseline="alphabetic" transform="matrix(1, 0, 0, 1, 0.5, 0.5)" fill-opacity="1">60000</text><text fill="rgb(68,68,68)" stroke="none" font-family="helvetica" font-size="20px" font-style="italic" font-weight="normal" text-decoration="normal" x="-113.84999465942383" y="368" text-anchor="start" dominant-baseline="alphabetic" transform="matrix(6.123233995736766e-17, -1, 1, 6.123233995736766e-17, -344.0833320617676, 399.9166679382324)" fill-opacity="1">Total Number of Serviced Users</text><path fill="rgb(255,255,255)" stroke="rgb(229,229,229)" paint-order="fill" d="M 776.0166625976562 15.5 L 1190.5 15.5 L 1190.5 320.5 L 776.0166625976562 320.5 L 776.0166625976562 15.5" fill-opacity="0.9490196078431372" stroke-opacity="0.5019607843137255" stroke-linejoin="bevel" stroke-miterlimit="10" stroke-dasharray=""/><text fill="rgb(68,68,68)" stroke="none" font-family="helvetica" font-size="18px" font-style="normal" font-weight="normal" text-decoration="normal" x="810.5166625976562" y="35.5" text-anchor="start" dominant-baseline="central" transform="matrix(1, 0, 0, 1, 0.5, 0.5)" fill-opacity="1">No Policy - Epsilon Greedy</text><path fill="none" stroke="rgb(31,119,180)" paint-order="fill" d="M 786.0166625976562 35.5 L 806.0166625976562 35.5" stroke-opacity="1" stroke-linejoin="bevel" stroke-miterlimit="10" stroke-width="3" stroke-dasharray=""/><text fill="rgb(68,68,68)" stroke="none" font-family="helvetica" font-size="18px" font-style="normal" font-weight="normal" text-decoration="normal" x="810.5166625976562" y="59.5" text-anchor="start" dominant-baseline="central" transform="matrix(1, 0, 0, 1, 0.5, 0.5)" fill-opacity="1">Cheapest Users - Epsilon Greedy</text><path fill="none" stroke="rgb(174,199,232)" paint-order="fill" d="M 786.0166625976562 59.5 L 806.0166625976562 59.5" stroke-opacity="1" stroke-linejoin="bevel" stroke-miterlimit="10" stroke-width="3" stroke-dasharray=""/><text fill="rgb(68,68,68)" stroke="none" font-family="helvetica" font-size="18px" font-style="normal" font-weight="normal" text-decoration="normal" x="810.5166625976562" y="83.5" text-anchor="start" dominant-baseline="central" transform="matrix(1, 0, 0, 1, 0.5, 0.5)" fill-opacity="1">No Policy - UCB1</text><path fill="none" stroke="rgb(255,127,14)" paint-order="fill" d="M 786.0166625976562 83.5 L 806.0166625976562 83.5" stroke-opacity="1" stroke-linejoin="bevel" stroke-miterlimit="10" stroke-width="3" stroke-dasharray=""/><text fill="rgb(68,68,68)" stroke="none" font-family="helvetica" font-size="18px" font-style="normal" font-weight="normal" text-decoration="normal" x="810.5166625976562" y="107.5" text-anchor="start" dominant-baseline="central" transform="matrix(1, 0, 0, 1, 0.5, 0.5)" fill-opacity="1">Cheapest Users - UCB1</text><path fill="none" stroke="rgb(255,187,120)" paint-order="fill" d="M 786.0166625976562 107.5 L 806.0166625976562 107.5" stroke-opacity="1" stroke-linejoin="bevel" stroke-miterlimit="10" stroke-width="3" stroke-dasharray=""/><text fill="rgb(68,68,68)" stroke="none" font-family="helvetica" font-size="18px" font-style="normal" font-weight="normal" text-decoration="normal" x="810.5166625976562" y="131.5" text-anchor="start" dominant-baseline="central" transform="matrix(1, 0, 0, 1, 0.5, 0.5)" fill-opacity="1">No Transmission Policy - Shared Evenly</text><path fill="none" stroke="rgb(44,160,44)" paint-order="fill" d="M 786.0166625976562 131.5 L 806.0166625976562 131.5" stroke-opacity="1" stroke-linejoin="bevel" stroke-miterlimit="10" stroke-width="3" stroke-dasharray=""/><text fill="rgb(68,68,68)" stroke="none" font-family="helvetica" font-size="18px" font-style="normal" font-weight="normal" text-decoration="normal" x="810.5166625976562" y="155.5" text-anchor="start" dominant-baseline="central" transform="matrix(1, 0, 0, 1, 0.5, 0.5)" fill-opacity="1">Cheapest Users - Shared Evenly</text><path fill="none" stroke="rgb(152,223,138)" paint-order="fill" d="M 786.0166625976562 155.5 L 806.0166625976562 155.5" stroke-opacity="1" stroke-linejoin="bevel" stroke-miterlimit="10" stroke-width="3" stroke-dasharray=""/><text fill="rgb(68,68,68)" stroke="none" font-family="helvetica" font-size="18px" font-style="normal" font-weight="normal" text-decoration="normal" x="810.5166625976562" y="179.5" text-anchor="start" dominant-baseline="central" transform="matrix(1, 0, 0, 1, 0.5, 0.5)" fill-opacity="1">No Transmission Policy - AP Energy Arrival</text><path fill="none" stroke="rgb(214,39,40)" paint-order="fill" d="M 786.0166625976562 179.5 L 806.0166625976562 179.5" stroke-opacity="1" stroke-linejoin="bevel" stroke-miterlimit="10" stroke-width="3" stroke-dasharray=""/><text fill="rgb(68,68,68)" stroke="none" font-family="helvetica" font-size="18px" font-style="normal" font-weight="normal" text-decoration="normal" x="810.5166625976562" y="203.5" text-anchor="start" dominant-baseline="central" transform="matrix(1, 0, 0, 1, 0.5, 0.5)" fill-opacity="1">Cheapest Users - AP Energy Arrival</text><path fill="none" stroke="rgb(255,152,150)" paint-order="fill" d="M 786.0166625976562 203.5 L 806.0166625976562 203.5" stroke-opacity="1" stroke-linejoin="bevel" stroke-miterlimit="10" stroke-width="3" stroke-dasharray=""/><text fill="rgb(68,68,68)" stroke="none" font-family="helvetica" font-size="18px" font-style="normal" font-weight="normal" text-decoration="normal" x="810.5166625976562" y="227.5" text-anchor="start" dominant-baseline="central" transform="matrix(1, 0, 0, 1, 0.5, 0.5)" fill-opacity="1">No Transmission Policy - AP Energy Use</text><path fill="none" stroke="rgb(148,103,189)" paint-order="fill" d="M 786.0166625976562 227.5 L 806.0166625976562 227.5" stroke-opacity="1" stroke-linejoin="bevel" stroke-miterlimit="10" stroke-width="3" stroke-dasharray=""/><text fill="rgb(68,68,68)" stroke="none" font-family="helvetica" font-size="18px" font-style="normal" font-weight="normal" text-decoration="normal" x="810.5166625976562" y="251.5" text-anchor="start" dominant-baseline="central" transform="matrix(1, 0, 0, 1, 0.5, 0.5)" fill-opacity="1">Cheapest Users - AP Energy Use</text><path fill="none" stroke="rgb(197,176,213)" paint-order="fill" d="M 786.0166625976562 251.5 L 806.0166625976562 251.5" stroke-opacity="1" stroke-linejoin="bevel" stroke-miterlimit="10" stroke-width="3" stroke-dasharray=""/><text fill="rgb(68,68,68)" stroke="none" font-family="helvetica" font-size="18px" font-style="normal" font-weight="normal" text-decoration="normal" x="810.5166625976562" y="275.5" text-anchor="start" dominant-baseline="central" transform="matrix(1, 0, 0, 1, 0.5, 0.5)" fill-opacity="1">No Transmission Policy - AP Energy Efficiency</text><path fill="none" stroke="rgb(140,86,75)" paint-order="fill" d="M 786.0166625976562 275.5 L 806.0166625976562 275.5" stroke-opacity="1" stroke-linejoin="bevel" stroke-miterlimit="10" stroke-width="3" stroke-dasharray=""/><text fill="rgb(68,68,68)" stroke="none" font-family="helvetica" font-size="18px" font-style="normal" font-weight="normal" text-decoration="normal" x="810.5166625976562" y="299.5" text-anchor="start" dominant-baseline="central" transform="matrix(1, 0, 0, 1, 0.5, 0.5)" fill-opacity="1">Cheapest Users - AP Energy Efficiency</text><path fill="none" stroke="rgb(196,156,148)" paint-order="fill" d="M 786.0166625976562 299.5 L 806.0166625976562 299.5" stroke-opacity="1" stroke-linejoin="bevel" stroke-miterlimit="10" stroke-width="3" stroke-dasharray=""/><path fill="rgb(255,255,255)" stroke="rgb(229,229,229)" paint-order="fill" d="M 776.0166625976562 15.5 L 1190.5 15.5 L 1190.5 320.5 L 776.0166625976562 320.5 L 776.0166625976562 15.5" fill-opacity="0.9490196078431372" stroke-opacity="0.5019607843137255" stroke-linejoin="bevel" stroke-miterlimit="10" stroke-dasharray=""/><text fill="rgb(68,68,68)" stroke="none" font-family="helvetica" font-size="18px" font-style="normal" font-weight="normal" text-decoration="normal" x="810.5166625976562" y="35.5" text-anchor="start" dominant-baseline="central" transform="matrix(1, 0, 0, 1, 0.5, 0.5)" fill-opacity="1">No Policy - Epsilon Greedy</text><path fill="none" stroke="rgb(31,119,180)" paint-order="fill" d="M 786.0166625976562 35.5 L 806.0166625976562 35.5" stroke-opacity="1" stroke-linejoin="bevel" stroke-miterlimit="10" stroke-width="3" stroke-dasharray=""/><text fill="rgb(68,68,68)" stroke="none" font-family="helvetica" font-size="18px" font-style="normal" font-weight="normal" text-decoration="normal" x="810.5166625976562" y="59.5" text-anchor="start" dominant-baseline="central" transform="matrix(1, 0, 0, 1, 0.5, 0.5)" fill-opacity="1">Cheapest Users - Epsilon Greedy</text><path fill="none" stroke="rgb(174,199,232)" paint-order="fill" d="M 786.0166625976562 59.5 L 806.0166625976562 59.5" stroke-opacity="1" stroke-linejoin="bevel" stroke-miterlimit="10" stroke-width="3" stroke-dasharray=""/><text fill="rgb(68,68,68)" stroke="none" font-family="helvetica" font-size="18px" font-style="normal" font-weight="normal" text-decoration="normal" x="810.5166625976562" y="83.5" text-anchor="start" dominant-baseline="central" transform="matrix(1, 0, 0, 1, 0.5, 0.5)" fill-opacity="1">No Policy - UCB1</text><path fill="none" stroke="rgb(255,127,14)" paint-order="fill" d="M 786.0166625976562 83.5 L 806.0166625976562 83.5" stroke-opacity="1" stroke-linejoin="bevel" stroke-miterlimit="10" stroke-width="3" stroke-dasharray=""/><text fill="rgb(68,68,68)" stroke="none" font-family="helvetica" font-size="18px" font-style="normal" font-weight="normal" text-decoration="normal" x="810.5166625976562" y="107.5" text-anchor="start" dominant-baseline="central" transform="matrix(1, 0, 0, 1, 0.5, 0.5)" fill-opacity="1">Cheapest Users - UCB1</text><path fill="none" stroke="rgb(255,187,120)" paint-order="fill" d="M 786.0166625976562 107.5 L 806.0166625976562 107.5" stroke-opacity="1" stroke-linejoin="bevel" stroke-miterlimit="10" stroke-width="3" stroke-dasharray=""/><text fill="rgb(68,68,68)" stroke="none" font-family="helvetica" font-size="18px" font-style="normal" font-weight="normal" text-decoration="normal" x="810.5166625976562" y="131.5" text-anchor="start" dominant-baseline="central" transform="matrix(1, 0, 0, 1, 0.5, 0.5)" fill-opacity="1">No Transmission Policy - Shared Evenly</text><path fill="none" stroke="rgb(44,160,44)" paint-order="fill" d="M 786.0166625976562 131.5 L 806.0166625976562 131.5" stroke-opacity="1" stroke-linejoin="bevel" stroke-miterlimit="10" stroke-width="3" stroke-dasharray=""/><text fill="rgb(68,68,68)" stroke="none" font-family="helvetica" font-size="18px" font-style="normal" font-weight="normal" text-decoration="normal" x="810.5166625976562" y="155.5" text-anchor="start" dominant-baseline="central" transform="matrix(1, 0, 0, 1, 0.5, 0.5)" fill-opacity="1">Cheapest Users - Shared Evenly</text><path fill="none" stroke="rgb(152,223,138)" paint-order="fill" d="M 786.0166625976562 155.5 L 806.0166625976562 155.5" stroke-opacity="1" stroke-linejoin="bevel" stroke-miterlimit="10" stroke-width="3" stroke-dasharray=""/><text fill="rgb(68,68,68)" stroke="none" font-family="helvetica" font-size="18px" font-style="normal" font-weight="normal" text-decoration="normal" x="810.5166625976562" y="179.5" text-anchor="start" dominant-baseline="central" transform="matrix(1, 0, 0, 1, 0.5, 0.5)" fill-opacity="1">No Transmission Policy - AP Energy Arrival</text><path fill="none" stroke="rgb(214,39,40)" paint-order="fill" d="M 786.0166625976562 179.5 L 806.0166625976562 179.5" stroke-opacity="1" stroke-linejoin="bevel" stroke-miterlimit="10" stroke-width="3" stroke-dasharray=""/><text fill="rgb(68,68,68)" stroke="none" font-family="helvetica" font-size="18px" font-style="normal" font-weight="normal" text-decoration="normal" x="810.5166625976562" y="203.5" text-anchor="start" dominant-baseline="central" transform="matrix(1, 0, 0, 1, 0.5, 0.5)" fill-opacity="1">Cheapest Users - AP Energy Arrival</text><path fill="none" stroke="rgb(255,152,150)" paint-order="fill" d="M 786.0166625976562 203.5 L 806.0166625976562 203.5" stroke-opacity="1" stroke-linejoin="bevel" stroke-miterlimit="10" stroke-width="3" stroke-dasharray=""/><text fill="rgb(68,68,68)" stroke="none" font-family="helvetica" font-size="18px" font-style="normal" font-weight="normal" text-decoration="normal" x="810.5166625976562" y="227.5" text-anchor="start" dominant-baseline="central" transform="matrix(1, 0, 0, 1, 0.5, 0.5)" fill-opacity="1">No Transmission Policy - AP Energy Use</text><path fill="none" stroke="rgb(148,103,189)" paint-order="fill" d="M 786.0166625976562 227.5 L 806.0166625976562 227.5" stroke-opacity="1" stroke-linejoin="bevel" stroke-miterlimit="10" stroke-width="3" stroke-dasharray=""/><text fill="rgb(68,68,68)" stroke="none" font-family="helvetica" font-size="18px" font-style="normal" font-weight="normal" text-decoration="normal" x="810.5166625976562" y="251.5" text-anchor="start" dominant-baseline="central" transform="matrix(1, 0, 0, 1, 0.5, 0.5)" fill-opacity="1">Cheapest Users - AP Energy Use</text><path fill="none" stroke="rgb(197,176,213)" paint-order="fill" d="M 786.0166625976562 251.5 L 806.0166625976562 251.5" stroke-opacity="1" stroke-linejoin="bevel" stroke-miterlimit="10" stroke-width="3" stroke-dasharray=""/><text fill="rgb(68,68,68)" stroke="none" font-family="helvetica" font-size="18px" font-style="normal" font-weight="normal" text-decoration="normal" x="810.5166625976562" y="275.5" text-anchor="start" dominant-baseline="central" transform="matrix(1, 0, 0, 1, 0.5, 0.5)" fill-opacity="1">No Transmission Policy - AP Energy Efficiency</text><path fill="none" stroke="rgb(140,86,75)" paint-order="fill" d="M 786.0166625976562 275.5 L 806.0166625976562 275.5" stroke-opacity="1" stroke-linejoin="bevel" stroke-miterlimit="10" stroke-width="3" stroke-dasharray=""/><text fill="rgb(68,68,68)" stroke="none" font-family="helvetica" font-size="18px" font-style="normal" font-weight="normal" text-decoration="normal" x="810.5166625976562" y="299.5" text-anchor="start" dominant-baseline="central" transform="matrix(1, 0, 0, 1, 0.5, 0.5)" fill-opacity="1">Cheapest Users - AP Energy Efficiency</text><path fill="none" stroke="rgb(196,156,148)" paint-order="fill" d="M 786.0166625976562 299.5 L 806.0166625976562 299.5" stroke-opacity="1" stroke-linejoin="bevel" stroke-miterlimit="10" stroke-width="3" stroke-dasharray=""/></svg>