<svg version="1.1" xmlns="http://www.w3.org/2000/svg" width="1200" height="800"><defs><clipPath id="SpdQqdpsFoCX"><path fill="none" stroke="none" d="M 130.5 5.5 L 766.5 5.5 L 766.5 739.5 L 130.5 739.5 L 130.5 5.5"/></clipPath><clipPath id="DdhtNJpBqHoI"><path fill="none" stroke="none" d="M 130.5 5.5 L 766.5 5.5 L 766.5 739.5 L 130.5 739.5 L 130.5 5.5"/></clipPath><clipPath id="FLTMbKxfFhyZ"><path fill="none" stroke="none" d="M 130.5 5.5 L 766.5 5.5 L 766.5 739.5 L 130.5 739.5 L 130.5 5.5"/></clipPath><clipPath id="fSnBtZsNcybJ"><path fill="none" stroke="none" d="M 130.5 5.5 L 766.5 5.5 L 766.5 739.5 L 130.5 739.5 L 130.5 5.5"/></clipPath><clipPath id="ybfPNIoVpMsu"><path fill="none" stroke="none" d="M 130.5 5.5 L 766.5 5.5 L 766.5 739.5 L 130.5 739.5 L 130.5 5.5"/></clipPath><clipPath id="KNfDxhVJRCDb"><path fill="none" stroke="none" d="M 130.5 5.5 L 766.5 5.5 L 766.5 739.5 L 130.5 739.5 L 130.5 5.5"/></clipPath><clipPath id="AKMtuJSguvuM"><path fill="none" stroke="none" d="M 130.5 5.5 L 766.5 5.5 L 766.5 739.5 L 130.5 739.5 L 130.5 5.5"/></clipPath><clipPath id="FHQdXywLdKKa"><path fill="none" stroke="none" d="M 130.5 5.5 L 766.5 5.5 L 766.5 739.5 L 130.5 739.5 L 130.5 5.5"/></clipPath><clipPath id="FTVVeonExbDn"><path fill="none" stroke="none" d="M 130.5 5.5 L 766.5 5.5 L 766.5 739.5 L 130.5 739.5 L 130.5 5.5"/></clipPath><clipPath id="BWxovuSiuWgp"><path fill="none" stroke="none" d="M 130.5 5.5 L 766.5 5.5 L 766.5 739.5 L 130.5 739.5 L 130.5 5.5"/></clipPath><clipPath id="cJRlsBObWFwC"><path fill="none" stroke="none" d="M 130.5 5.5 L 766.5 5.5 L 766.5 739.5 L 130.5 739.5 L 130.5 5.5"/></clipPath><clipPath id="riFgysHlTpsy"><path fill="none" stroke="none" d="M 130.5 5.5 L 766.5 5.5 L 766.5 739.5 L 130.5 739.5 L 130.5 5.5"/></clipPath><clipPath id="gxpelOPbddbT"><path fill="none" stroke="none" d="M 130.5 5.5 L 766.5 5.5 L 766.5 739.5 L 130.5 739.5 L 130.5 5.5"/></clipPath><clipPath id="HIrInCrIBfnN"><path fill="none" stroke="none" d="M 130.5 5.5 L 766.5 5.5 L 766.5 739.5 L 130.5 739.5 L 130.5 5.5"/></clipPath><clipPath id="ZTccvHHNkSda"><path fill="none" stroke="none" d="M 130.5 5.5 L 766.5 5.5 L 766.5 739.5 L 130.5 739.5 L 130.5 5.5"/></clipPath></defs><path fill="rgb(255,255,255)" stroke="none" paint-order="stroke" d="M 0.5 0.5 L 1200.5 0.5 L 1200.5 800.5 L 0.5 800.5 L 0.5 0.5" fill-opacity="1"/><rect fill="#FFFFFF" stroke="none" x="130" y="5" width="636" height="734" transform="matrix(1, 0, 0, 1, 0.5, 0.5)"/><path fill="rgb(255,255,255)" stroke="none" paint-order="stroke" d="M 130.5 5.5 L 766.5 5.5 L 766.5 739.5 L 130.5 739.5 L 130.5 5.5" fill-opacity="1"/><path fill="none" stroke="rgb(229,229,229)" paint-order="fill" d="M 130.5 5.5 L 766.5 5.5 L 766.5 739.5 L 130.5 739.5 L 130.5 5.5" stroke-opacity="1" stroke-linejoin="bevel" stroke-miterlimit="10" stroke-dasharray=""/><path fill="none" stroke="rgb(229,229,229)" paint-order="fill" d="M 207.5 739.5 L 207.5 5.5 M 287.5 739.5 L 287.5 5.5 M 368.5 739.5 L 368.5 5.5 M 448.5 739.5 L 448.5 5.5 M 528.5 739.5 L 528.5 5.5 M 609.5 739.5 L 609.5 5.5 M 689.5 739.5 L 689.5 5.5" stroke-opacity="1" stroke-linejoin="bevel" stroke-miterlimit="10" stroke-dasharray="" clip-path="url(#SpdQqdpsFoCX)"/><path fill="none" stroke="rgb(229,229,229)" paint-order="fill" d="M 130.5 534.5 L 766.5 534.5 M 130.5 324.5 L 766.5 324.5 M 130.5 114.5 L 766.5 114.5" stroke-opacity="1" stroke-linejoin="bevel" stroke-miterlimit="10" stroke-dasharray="" clip-path="url(#DdhtNJpBqHoI)"/><path fill="none" stroke="rgb(31,119,180)" paint-order="fill" d="M 159.40908813476562 673.4070434570312 L 191.53030395507812 632.99462890625 L 223.65151977539062 586.4739990234375 L 255.77272033691406 550.8325805664062 L 287.8939514160156 520.5520629882812 L 320.01513671875 490.8558654785156 L 352.1363525390625 464.0167541503906 L 384.257568359375 430.4703674316406 L 416.3787841796875 400.383056640625 L 448.5 379.1824645996094 L 480.6212158203125 356.0881042480469 L 512.742431640625 331.2851867675781 L 544.8636474609375 308.7301940917969 L 576.98486328125 285.4488830566406 L 609.1060791015625 254.70706176757812 L 641.227294921875 242.6028289794922 L 673.3485107421875 219.10641479492188 L 705.4697265625 154.0725555419922 L 737.5908813476562 136.6809844970703" stroke-opacity="1" stroke-linejoin="bevel" stroke-miterlimit="10" stroke-width="3" stroke-dasharray="" clip-path="url(#FLTMbKxfFhyZ)"/><path fill="none" stroke="rgb(174,199,232)" paint-order="fill" d="M 159.40908813476562 667.52490234375 L 191.53030395507812 628.0702514648438 L 223.65151977539062 585.0431518554688 L 255.77272033691406 554.5609741210938 L 287.8939514160156 515.5999755859375 L 320.01513671875 490.2273864746094 L 352.1363525390625 457.71697998046875 L 384.257568359375 429.6944580078125 L 416.3787841796875 401.8874206542969 L 448.5 372.1954345703125 L 480.6212158203125 348.7481689453125 L 512.742431640625 325.0954895019531 L 544.8636474609375 304.9720153808594 L 576.98486328125 294.6817626953125 L 609.1060791015625 261.14337158203125 L 641.227294921875 248.5938262939453 L 673.3485107421875 215.96998596191406 L 705.4697265625 152.7845458984375 L 737.5908813476562 152.47366333007812" stroke-opacity="1" stroke-linejoin="bevel" stroke-miterlimit="10" stroke-width="3" stroke-dasharray="" clip-path="url(#fSnBtZsNcybJ)"/><path fill="none" stroke="rgb(255,127,14)" paint-order="fill" d="M 159.40908813476562 668.7515869140625 L 191.53030395507812 623.6151733398438 L 223.65151977539062 584.913330078125 L 255.77272033691406 547.2239990234375 L 287.8939514160156 515.2017211914062 L 320.01513671875 484.2893371582031 L 352.1363525390625 456.9250793457031 L 384.257568359375 428.457275390625 L 416.3787841796875 395.2877197265625 L 448.5 372.52227783203125 L 480.6212158203125 346.8001708984375 L 512.742431640625 326.4288635253906 L 544.8636474609375 309.0452880859375 L 576.98486328125 297.73712158203125 L 609.1060791015625 255.84889221191406 L 641.227294921875 247.0924072265625 L 673.3485107421875 230.49649047851562 L 705.4697265625 122.96063232421875 L 737.5908813476562 136.88893127441406" stroke-opacity="1" stroke-linejoin="bevel" stroke-miterlimit="10" stroke-width="3" stroke-dasharray="" clip-path="url(#ybfPNIoVpMsu)"/><path fill="none" stroke="rgb(255,187,120)" paint-order="fill" d="M 159.40908813476562 669.7686157226562 L 191.53030395507812 623.1366577148438 L 223.65151977539062 584.2537841796875 L 255.77272033691406 549.0518188476562 L 287.8939514160156 514.1245727539062 L 320.01513671875 486.46124267578125 L 352.1363525390625 456.22479248046875 L 384.257568359375 428.9357604980469 L 416.3787841796875 395.4502868652344 L 448.5 374.6063537597656 L 480.6212158203125 348.3053894042969 L 512.742431640625 324.14605712890625 L 544.8636474609375 308.36767578125 L 576.98486328125 297.908935546875 L 609.1060791015625 254.69740295410156 L 641.227294921875 248.18296813964844 L 673.3485107421875 225.90106201171875 L 705.4697265625 123.16942596435547 L 737.5908813476562 137.0414276123047" stroke-opacity="1" stroke-linejoin="bevel" stroke-miterlimit="10" stroke-width="3" stroke-dasharray="" clip-path="url(#KNfDxhVJRCDb)"/><path fill="none" stroke="rgb(44,160,44)" paint-order="fill" d="M 159.40908813476562 703.8573608398438 L 191.53030395507812 702.9058227539062 L 223.65151977539062 703.3817749023438 L 255.77272033691406 704.0993041992188 L 287.8939514160156 702.828125 L 320.01513671875 705.2260131835938 L 352.1363525390625 704.7227172851562 L 384.257568359375 703.81787109375 L 416.3787841796875 705.3621215820312 L 448.5 705.0205688476562 L 480.6212158203125 704.5416870117188 L 512.742431640625 704.7584228515625 L 544.8636474609375 705.04833984375 L 576.98486328125 705.58056640625 L 609.1060791015625 704.9042358398438 L 641.227294921875 704.6034545898438 L 673.3485107421875 705.1936645507812 L 705.4697265625 706.1363525390625 L 737.5908813476562 705.86962890625" stroke-opacity="1" stroke-linejoin="bevel" stroke-miterlimit="10" stroke-width="3" stroke-dasharray="" clip-path="url(#AKMtuJSguvuM)"/><path fill="none" stroke="rgb(152,223,138)" paint-order="fill" d="M 159.40908813476562 701.55224609375 L 191.53030395507812 702.9923706054688 L 223.65151977539062 703.1981811523438 L 255.77272033691406 703.7069702148438 L 287.8939514160156 704.2291259765625 L 320.01513671875 703.6090698242188 L 352.1363525390625 703.509521484375 L 384.257568359375 703.66748046875 L 416.3787841796875 704.3286743164062 L 448.5 704.12744140625 L 480.6212158203125 704.8685302734375 L 512.742431640625 704.4647827148438 L 544.8636474609375 704.4312133789062 L 576.98486328125 704.4244995117188 L 609.1060791015625 704.7735595703125 L 641.227294921875 704.2308349609375 L 673.3485107421875 704.19970703125 L 705.4697265625 705.0814819335938 L 737.5908813476562 705.4793090820312" stroke-opacity="1" stroke-linejoin="bevel" stroke-miterlimit="10" stroke-width="3" stroke-dasharray="" clip-path="url(#FHQdXywLdKKa)"/><path fill="none" stroke="rgb(214,39,40)" paint-order="fill" d="M 159.40908813476562 684.82568359375 L 191.53030395507812 655.8058471679688 L 223.65151977539062 631.8179321289062 L 255.77272033691406 608.1631469726562 L 287.8939514160156 586.3546752929688 L 320.01513671875 562.6104125976562 L 352.1363525390625 542.4046020507812 L 384.257568359375 520.3638305664062 L 416.3787841796875 500.4235534667969 L 448.5 476.8334655761719 L 480.6212158203125 454.2583312988281 L 512.742431640625 429.7469482421875 L 544.8636474609375 404.0841064453125 L 576.98486328125 378.25909423828125 L 609.1060791015625 351.1708679199219 L 641.227294921875 317.9933166503906 L 673.3485107421875 284.1264343261719 L 705.4697265625 250.91864013671875 L 737.5908813476562 216.38880920410156" stroke-opacity="1" stroke-linejoin="bevel" stroke-miterlimit="10" stroke-width="3" stroke-dasharray="" clip-path="url(#FTVVeonExbDn)"/><path fill="none" stroke="rgb(255,152,150)" paint-order="fill" d="M 159.40908813476562 682.8226928710938 L 191.53030395507812 656.6112060546875 L 223.65151977539062 632.713623046875 L 255.77272033691406 608.4034423828125 L 287.8939514160156 587.6044921875 L 320.01513671875 563.9954833984375 L 352.1363525390625 543.0285034179688 L 384.257568359375 522.3202514648438 L 416.3787841796875 497.33416748046875 L 448.5 477.3669738769531 L 480.6212158203125 453.3567810058594 L 512.742431640625 429.0445556640625 L 544.8636474609375 406.7819519042969 L 576.98486328125 378.3851318359375 L 609.1060791015625 350.7713623046875 L 641.227294921875 318.00762939453125 L 673.3485107421875 290.6564025878906 L 705.4697265625 249.26556396484375 L 737.5908813476562 213.96401977539062" stroke-opacity="1" stroke-linejoin="bevel" stroke-miterlimit="10" stroke-width="3" stroke-dasharray="" clip-path="url(#BWxovuSiuWgp)"/><path fill="none" stroke="rgb(148,103,189)" paint-order="fill" d="M 159.40908813476562 677.6021728515625 L 191.53030395507812 637.72998046875 L 223.65151977539062 599.9082641601562 L 255.77272033691406 563.3754272460938 L 287.8939514160156 529.1614990234375 L 320.01513671875 499.201904296875 L 352.1363525390625 472.14813232421875 L 384.257568359375 443.5765380859375 L 416.3787841796875 411.2085266113281 L 448.5 387.6066589355469 L 480.6212158203125 360.27056884765625 L 512.742431640625 339.046875 L 544.8636474609375 323.73773193359375 L 576.98486328125 307.7450866699219 L 609.1060791015625 269.3927917480469 L 641.227294921875 258.0413818359375 L 673.3485107421875 240.9312744140625 L 705.4697265625 139.97496032714844 L 737.5908813476562 141.41043090820312" stroke-opacity="1" stroke-linejoin="bevel" stroke-miterlimit="10" stroke-width="3" stroke-dasharray="" clip-path="url(#cJRlsBObWFwC)"/><path fill="none" stroke="rgb(197,176,213)" paint-order="fill" d="M 159.40908813476562 678.8666381835938 L 191.53030395507812 637.180908203125 L 223.65151977539062 598.6832885742188 L 255.77272033691406 563.6447143554688 L 287.8939514160156 529.1589965820312 L 320.01513671875 499.71612548828125 L 352.1363525390625 472.15191650390625 L 384.257568359375 443.318603515625 L 416.3787841796875 411.6185302734375 L 448.5 387.9939880371094 L 480.6212158203125 359.8265380859375 L 512.742431640625 339.48211669921875 L 544.8636474609375 323.7705078125 L 576.98486328125 308.1252746582031 L 609.1060791015625 268.8399658203125 L 641.227294921875 256.9024963378906 L 673.3485107421875 240.47335815429688 L 705.4697265625 139.86782836914062 L 737.5908813476562 140.37069702148438" stroke-opacity="1" stroke-linejoin="bevel" stroke-miterlimit="10" stroke-width="3" stroke-dasharray="" clip-path="url(#riFgysHlTpsy)"/><path fill="none" stroke="rgb(140,86,75)" paint-order="fill" d="M 159.40908813476562 678.8523559570312 L 191.53030395507812 634.3624877929688 L 223.65151977539062 594.9847412109375 L 255.77272033691406 555.4368896484375 L 287.8939514160156 518.184814453125 L 320.01513671875 476.8116149902344 L 352.1363525390625 439.3608703613281 L 384.257568359375 404.1042785644531 L 416.3787841796875 371.5484924316406 L 448.5 337.82147216796875 L 480.6212158203125 302.5741271972656 L 512.742431640625 270.5291442871094 L 544.8636474609375 235.03646850585938 L 576.98486328125 199.6483917236328 L 609.1060791015625 182.20599365234375 L 641.227294921875 153.6062469482422 L 673.3485107421875 120.04264831542969 L 705.4697265625 78.29556274414062 L 737.5908813476562 39.2366828918457" stroke-opacity="1" stroke-linejoin="bevel" stroke-miterlimit="10" stroke-width="3" stroke-dasharray="" clip-path="url(#gxpelOPbddbT)"/><path fill="none" stroke="rgb(196,156,148)" paint-order="fill" d="M 159.40908813476562 678.9846801757812 L 191.53030395507812 634.9859008789062 L 223.65151977539062 593.7555541992188 L 255.77272033691406 555.3414916992188 L 287.8939514160156 517.8966064453125 L 320.01513671875 477.7198791503906 L 352.1363525390625 437.6825866699219 L 384.257568359375 404.5550231933594 L 416.3787841796875 373.8829650878906 L 448.5 337.4677429199219 L 480.6212158203125 302.5283203125 L 512.742431640625 272.0570373535156 L 544.8636474609375 235.41162109375 L 576.98486328125 200.56167602539062 L 609.1060791015625 182.74790954589844 L 641.227294921875 152.66229248046875 L 673.3485107421875 120.45559692382812 L 705.4697265625 77.6805419921875 L 737.5908813476562 38.8636360168457" stroke-opacity="1" stroke-linejoin="bevel" stroke-miterlimit="10" stroke-width="3" stroke-dasharray="" clip-path="url(#HIrInCrIBfnN)"/><path fill="none" stroke="rgb(0,0,0)" paint-order="fill" d="M 130.5 739.5 L 766.5 739.5" stroke-opacity="1" stroke-linejoin="bevel" stroke-miterlimit="10" stroke-dasharray=""/><path fill="none" stroke="rgb(0,0,0)" paint-order="fill" d="M 207.5 745.5 L 207.5 737.5 M 287.5 745.5 L 287.5 737.5 M 368.5 745.5 L 368.5 737.5 M 448.5 745.5 L 448.5 737.5 M 528.5 745.5 L 528.5 737.5 M 609.5 745.5 L 609.5 737.5 M 689.5 745.5 L 689.5 737.5" stroke-opacity="1" stroke-linejoin="bevel" stroke-miterlimit="10" stroke-dasharray=""/><path fill="none" stroke="rgb(0,0,0)" paint-order="fill" d="M 191.5 743.5 L 191.5 739.5 M 175.5 743.5 L 175.5 739.5 M 159.5 743.5 L 159.5 739.5 M 143.5 743.5 L 143.5 739.5 M 207.5 743.5 L 207.5 739.5 M 223.5 743.5 L 223.5 739.5 M 239.5 743.5 L 239.5 739.5 M 255.5 743.5 L 255.5 739.5 M 271.5 743.5 L 271.5 739.5 M 287.5 743.5 L 287.5 739.5 M 303.5 743.5 L 303.5 739.5 M 320.5 743.5 L 320.5 739.5 M 336.5 743.5 L 336.5 739.5 M 352.5 743.5 L 352.5 739.5 M 368.5 743.5 L 368.5 739.5 M 384.5 743.5 L 384.5 739.5 M 400.5 743.5 L 400.5 739.5 M 416.5 743.5 L 416.5 739.5 M 432.5 743.5 L 432.5 739.5 M 448.5 743.5 L 448.5 739.5 M 464.5 743.5 L 464.5 739.5 M 480.5 743.5 L 480.5 739.5 M 496.5 743.5 L 496.5 739.5 M 512.5 743.5 L 512.5 739.5 M 528.5 743.5 L 528.5 739.5 M 544.5 743.5 L 544.5 739.5 M 560.5 743.5 L 560.5 739.5 M 576.5 743.5 L 576.5 739.5 M 593.5 743.5 L 593.5 739.5 M 609.5 743.5 L 609.5 739.5 M 625.5 743.5 L 625.5 739.5 M 641.5 743.5 L 641.5 739.5 M 657.5 743.5 L 657.5 739.5 M 673.5 743.5 L 673.5 739.5 M 689.5 743.5 L 689.5 739.5 M 705.5 743.5 L 705.5 739.5 M 721.5 743.5 L 721.5 739.5 M 737.5 743.5 L 737.5 739.5 M 753.5 743.5 L 753.5 739.5" stroke-opacity="1" stroke-linejoin="bevel" stroke-miterlimit="10" stroke-dasharray=""/><text fill="rgb(68,68,68)" stroke="none" font-family="helvetica" font-size="20px" font-style="normal" font-weight="normal" text-decoration="normal" x="201.53257846832275" y="765" text-anchor="start" dominant-baseline="alphabetic" transform="matrix(1, 0, 0, 1, 0.5, 0.5)" fill-opacity="1">5</text><text fill="rgb(68,68,68)" stroke="none" font-family="helvetica" font-size="20px" font-style="normal" font-weight="normal" text-decoration="normal" x="276.2772846221924" y="765" text-anchor="start" dominant-baseline="alphabetic" transform="matrix(1, 0, 0, 1, 0.5, 0.5)" fill-opacity="1">10</text><text fill="rgb(68,68,68)" stroke="none" font-family="helvetica" font-size="20px" font-style="normal" font-weight="normal" text-decoration="normal" x="356.5802936553955" y="765" text-anchor="start" dominant-baseline="alphabetic" transform="matrix(1, 0, 0, 1, 0.5, 0.5)" fill-opacity="1">15</text><text fill="rgb(68,68,68)" stroke="none" font-family="helvetica" font-size="20px" font-style="normal" font-weight="normal" text-decoration="normal" x="436.88333320617676" y="765" text-anchor="start" dominant-baseline="alphabetic" transform="matrix(1, 0, 0, 1, 0.5, 0.5)" fill-opacity="1">20</text><text fill="rgb(68,68,68)" stroke="none" font-family="helvetica" font-size="20px" font-style="normal" font-weight="normal" text-decoration="normal" x="517.186372756958" y="765" text-anchor="start" dominant-baseline="alphabetic" transform="matrix(1, 0, 0, 1, 0.5, 0.5)" fill-opacity="1">25</text><text fill="rgb(68,68,68)" stroke="none" font-family="helvetica" font-size="20px" font-style="normal" font-weight="normal" text-decoration="normal" x="597.4894123077393" y="765" text-anchor="start" dominant-baseline="alphabetic" transform="matrix(1, 0, 0, 1, 0.5, 0.5)" fill-opacity="1">30</text><text fill="rgb(68,68,68)" stroke="none" font-family="helvetica" font-size="20px" font-style="normal" font-weight="normal" text-decoration="normal" x="677.7924518585205" y="765" text-anchor="start" dominant-baseline="alphabetic" transform="matrix(1, 0, 0, 1, 0.5, 0.5)" fill-opacity="1">35</text><text fill="rgb(68,68,68)" stroke="none" font-family="helvetica" font-size="20px" font-style="italic" font-weight="normal" text-decoration="normal" x="356.21666717529297" y="793" text-anchor="start" dominant-baseline="alphabetic" transform="matrix(1, 0, 0, 1, 0.5, 0.5)" fill-opacity="1">Total Number of APs</text><path fill="none" stroke="rgb(0,0,0)" paint-order="fill" d="M 130.5 739.5 L 130.5 5.5" stroke-opacity="1" stroke-linejoin="bevel" stroke-miterlimit="10" stroke-dasharray=""/><path fill="none" stroke="rgb(0,0,0)" paint-order="fill" d="M 124.5 534.5 L 132.5 534.5 M 124.5 324.5 L 132.5 324.5 M 124.5 114.5 L 132.5 114.5" stroke-opacity="1" stroke-linejoin="bevel" stroke-miterlimit="10" stroke-dasharray=""/><path fill="none" stroke="rgb(0,0,0)" paint-order="fill" d="M 126.5 576.5 L 130.5 576.5 M 126.5 618.5 L 130.5 618.5 M 126.5 660.5 L 130.5 660.5 M 126.5 702.5 L 130.5 702.5 M 126.5 534.5 L 130.5 534.5 M 126.5 492.5 L 130.5 492.5 M 126.5 450.5 L 130.5 450.5 M 126.5 408.5 L 130.5 408.5 M 126.5 366.5 L 130.5 366.5 M 126.5 324.5 L 130.5 324.5 M 126.5 282.5 L 130.5 282.5 M 126.5 240.5 L 130.5 240.5 M 126.5 198.5 L 130.5 198.5 M 126.5 156.5 L 130.5 156.5 M 126.5 114.5 L 130.5 114.5 M 126.5 72.5 L 130.5 72.5 M 126.5 30.5 L 130.5 30.5" stroke-opacity="1" stroke-linejoin="bevel" stroke-miterlimit="10" stroke-dasharray=""/><text fill="rgb(68,68,68)" stroke="none" font-family="helvetica" font-size="20px" font-style="normal" font-weight="normal" text-decoration="normal" x="35.05000305175781" y="541.5114135742188" text-anchor="start" dominant-baseline="alphabetic" transform="matrix(1, 0, 0, 1, 0.5, 0.5)" fill-opacity="1">5.000e+4</text><text fill="rgb(68,68,68)" stroke="none" font-family="helvetica" font-size="20px" font-style="normal" font-weight="normal" text-decoration="normal" x="35.05000305175781" y="331.4632263183594" text-anchor="start" dominant-baseline="alphabetic" transform="matrix(1, 0, 0, 1, 0.5, 0.5)" fill-opacity="1">1.000e+5</text><text fill="rgb(68,68,68)" stroke="none" font-family="helvetica" font-size="20px" font-style="normal" font-weight="normal" text-decoration="normal" x="35.05000305175781" y="121.41503143310547" text-anchor="start" dominant-baseline="alphabetic" transform="matrix(1, 0, 0, 1, 0.5, 0.5)" fill-opacity="1">1.500e+5</text><text fill="rgb(68,68,68)" stroke="none" font-family="helvetica" font-size="20px" font-style="italic" font-weight="normal" text-decoration="normal" x="-114.21665954589844" y="368" text-anchor="start" dominant-baseline="alphabetic" transform="matrix(6.123233995736766e-17, -1, 1, 6.123233995736766e-17, -344.4499969482422, 399.5500030517578)" fill-opacity="1">Total Number of Serviced Users</text><path fill="rgb(255,255,255)" stroke="rgb(229,229,229)" paint-order="fill" d="M 776.0166625976562 15.5 L 1190.5 15.5 L 1190.5 320.5 L 776.0166625976562 320.5 L 776.0166625976562 15.5" fill-opacity="0.9490196078431372" stroke-opacity="0.5019607843137255" stroke-linejoin="bevel" stroke-miterlimit="10" stroke-dasharray=""/><text fill="rgb(68,68,68)" stroke="none" font-family="helvetica" font-size="18px" font-style="normal" font-weight="normal" text-decoration="normal" x="810.5166625976562" y="35.5" text-anchor="start" dominant-baseline="central" transform="matrix(1, 0, 0, 1, 0.5, 0.5)" fill-opacity="1">No Policy - Epsilon Greedy</text><path fill="none" stroke="rgb(31,119,180)" paint-order="fill" d="M 786.0166625976562 35.5 L 806.0166625976562 35.5" stroke-opacity="1" stroke-linejoin="bevel" stroke-miterlimit="10" stroke-width="3" stroke-dasharray=""/><text fill="rgb(68,68,68)" stroke="none" font-family="helvetica" font-size="18px" font-style="normal" font-weight="normal" text-decoration="normal" x="810.5166625976562" y="59.5" text-anchor="start" dominant-baseline="central" transform="matrix(1, 0, 0, 1, 0.5, 0.5)" fill-opacity="1">Cheapest Users - Epsilon Greedy</text><path fill="none" stroke="rgb(174,199,232)" paint-order="fill" d="M 786.0166625976562 59.5 L 806.0166625976562 59.5" stroke-opacity="1" stroke-linejoin="bevel" stroke-miterlimit="10" stroke-width="3" stroke-dasharray=""/><text fill="rgb(68,68,68)" stroke="none" font-family="helvetica" font-size="18px" font-style="normal" font-weight="normal" text-decoration="normal" x="810.5166625976562" y="83.5" text-anchor="start" dominant-baseline="central" transform="matrix(1, 0, 0, 1, 0.5, 0.5)" fill-opacity="1">No Policy - UCB1</text><path fill="none" stroke="rgb(255,127,14)" paint-order="fill" d="M 786.0166625976562 83.5 L 806.0166625976562 83.5" stroke-opacity="1" stroke-linejoin="bevel" stroke-miterlimit="10" stroke-width="3" stroke-dasharray=""/><text fill="rgb(68,68,68)" stroke="none" font-family="helvetica" font-size="18px" font-style="normal" font-weight="normal" text-decoration="normal" x="810.5166625976562" y="107.5" text-anchor="start" dominant-baseline="central" transform="matrix(1, 0, 0, 1, 0.5, 0.5)" fill-opacity="1">Cheapest Users - UCB1</text><path fill="none" stroke="rgb(255,187,120)" paint-order="fill" d="M 786.0166625976562 107.5 L 806.0166625976562 107.5" stroke-opacity="1" stroke-linejoin="bevel" stroke-miterlimit="10" stroke-width="3" stroke-dasharray=""/><text fill="rgb(68,68,68)" stroke="none" font-family="helvetica" font-size="18px" font-style="normal" font-weight="normal" text-decoration="normal" x="810.5166625976562" y="131.5" text-anchor="start" dominant-baseline="central" transform="matrix(1, 0, 0, 1, 0.5, 0.5)" fill-opacity="1">No Transmission Policy - Shared Evenly</text><path fill="none" stroke="rgb(44,160,44)" paint-order="fill" d="M 786.0166625976562 131.5 L 806.0166625976562 131.5" stroke-opacity="1" stroke-linejoin="bevel" stroke-miterlimit="10" stroke-width="3" stroke-dasharray=""/><text fill="rgb(68,68,68)" stroke="none" font-family="helvetica" font-size="18px" font-style="normal" font-weight="normal" text-decoration="normal" x="810.5166625976562" y="155.5" text-anchor="start" dominant-baseline="central" transform="matrix(1, 0, 0, 1, 0.5, 0.5)" fill-opacity="1">Cheapest Users - Shared Evenly</text><path fill="none" stroke="rgb(152,223,138)" paint-order="fill" d="M 786.0166625976562 155.5 L 806.0166625976562 155.5" stroke-opacity="1" stroke-linejoin="bevel" stroke-miterlimit="10" stroke-width="3" stroke-dasharray=""/><text fill="rgb(68,68,68)" stroke="none" font-family="helvetica" font-size="18px" font-style="normal" font-weight="normal" text-decoration="normal" x="810.5166625976562" y="179.5" text-anchor="start" dominant-baseline="central" transform="matrix(1, 0, 0, 1, 0.5, 0.5)" fill-opacity="1">No Transmission Policy - AP Energy Arrival</text><path fill="none" stroke="rgb(214,39,40)" paint-order="fill" d="M 786.0166625976562 179.5 L 806.0166625976562 179.5" stroke-opacity="1" stroke-linejoin="bevel" stroke-miterlimit="10" stroke-width="3" stroke-dasharray=""/><text fill="rgb(68,68,68)" stroke="none" font-family="helvetica" font-size="18px" font-style="normal" font-weight="normal" text-decoration="normal" x="810.5166625976562" y="203.5" text-anchor="start" dominant-baseline="central" transform="matrix(1, 0, 0, 1, 0.5, 0.5)" fill-opacity="1">Cheapest Users - AP Energy Arrival</text><path fill="none" stroke="rgb(255,152,150)" paint-order="fill" d="M 786.0166625976562 203.5 L 806.0166625976562 203.5" stroke-opacity="1" stroke-linejoin="bevel" stroke-miterlimit="10" stroke-width="3" stroke-dasharray=""/><text fill="rgb(68,68,68)" stroke="none" font-family="helvetica" font-size="18px" font-style="normal" font-weight="normal" text-decoration="normal" x="810.5166625976562" y="227.5" text-anchor="start" dominant-baseline="central" transform="matrix(1, 0, 0, 1, 0.5, 0.5)" fill-opacity="1">No Transmission Policy - AP Energy Use</text><path fill="none" stroke="rgb(148,103,189)" paint-order="fill" d="M 786.0166625976562 227.5 L 806.0166625976562 227.5" stroke-opacity="1" stroke-linejoin="bevel" stroke-miterlimit="10" stroke-width="3" stroke-dasharray=""/><text fill="rgb(68,68,68)" stroke="none" font-family="helvetica" font-size="18px" font-style="normal" font-weight="normal" text-decoration="normal" x="810.5166625976562" y="251.5" text-anchor="start" dominant-baseline="central" transform="matrix(1, 0, 0, 1, 0.5, 0.5)" fill-opacity="1">Cheapest Users - AP Energy Use</text><path fill="none" stroke="rgb(197,176,213)" paint-order="fill" d="M 786.0166625976562 251.5 L 806.0166625976562 251.5" stroke-opacity="1" stroke-linejoin="bevel" stroke-miterlimit="10" stroke-width="3" stroke-dasharray=""/><text fill="rgb(68,68,68)" stroke="none" font-family="helvetica" font-size="18px" font-style="normal" font-weight="normal" text-decoration="normal" x="810.5166625976562" y="275.5" text-anchor="start" dominant-baseline="central" transform="matrix(1, 0, 0, 1, 0.5, 0.5)" fill-opacity="1">No Transmission Policy - AP Energy Efficiency</text><path fill="none" stroke="rgb(140,86,75)" paint-order="fill" d="M 786.0166625976562 275.5 L 806.0166625976562 275.5" stroke-opacity="1" stroke-linejoin="bevel" stroke-miterlimit="10" stroke-width="3" stroke-dasharray=""/><text fill="rgb(68,68,68)" stroke="none" font-family="helvetica" font-size="18px" font-style="normal" font-weight="normal" text-decoration="normal" x="810.5166625976562" y="299.5" text-anchor="start" dominant-baseline="central" transform="matrix(1, 0, 0, 1, 0.5, 0.5)" fill-opacity="1">Cheapest Users - AP Energy Efficiency</text><path fill="none" stroke="rgb(196,156,148)" paint-order="fill" d="M 786.0166625976562 299.5 L 806.0166625976562 299.5" stroke-opacity="1" stroke-linejoin="bevel" stroke-miterlimit="10" stroke-width="3" stroke-dasharray=""/><path fill="rgb(255,255,255)" stroke="rgb(229,229,229)" paint-order="fill" d="M 776.0166625976562 15.5 L 1190.5 15.5 L 1190.5 320.5 L 776.0166625976562 320.5 L 776.0166625976562 15.5" fill-opacity="0.9490196078431372" stroke-opacity="0.5019607843137255" stroke-linejoin="bevel" stroke-miterlimit="10" stroke-dasharray=""/><text fill="rgb(68,68,68)" stroke="none" font-family="helvetica" font-size="18px" font-style="normal" font-weight="normal" text-decoration="normal" x="810.5166625976562" y="35.5" text-anchor="start" dominant-baseline="central" transform="matrix(1, 0, 0, 1, 0.5, 0.5)" fill-opacity="1">No Policy - Epsilon Greedy</text><path fill="none" stroke="rgb(31,119,180)" paint-order="fill" d="M 786.0166625976562 35.5 L 806.0166625976562 35.5" stroke-opacity="1" stroke-linejoin="bevel" stroke-miterlimit="10" stroke-width="3" stroke-dasharray=""/><text fill="rgb(68,68,68)" stroke="none" font-family="helvetica" font-size="18px" font-style="normal" font-weight="normal" text-decoration="normal" x="810.5166625976562" y="59.5" text-anchor="start" dominant-baseline="central" transform="matrix(1, 0, 0, 1, 0.5, 0.5)" fill-opacity="1">Cheapest Users - Epsilon Greedy</text><path fill="none" stroke="rgb(174,199,232)" paint-order="fill" d="M 786.0166625976562 59.5 L 806.0166625976562 59.5" stroke-opacity="1" stroke-linejoin="bevel" stroke-miterlimit="10" stroke-width="3" stroke-dasharray=""/><text fill="rgb(68,68,68)" stroke="none" font-family="helvetica" font-size="18px" font-style="normal" font-weight="normal" text-decoration="normal" x="810.5166625976562" y="83.5" text-anchor="start" dominant-baseline="central" transform="matrix(1, 0, 0, 1, 0.5, 0.5)" fill-opacity="1">No Policy - UCB1</text><path fill="none" stroke="rgb(255,127,14)" paint-order="fill" d="M 786.0166625976562 83.5 L 806.0166625976562 83.5" stroke-opacity="1" stroke-linejoin="bevel" stroke-miterlimit="10" stroke-width="3" stroke-dasharray=""/><text fill="rgb(68,68,68)" stroke="none" font-family="helvetica" font-size="18px" font-style="normal" font-weight="normal" text-decoration="normal" x="810.5166625976562" y="107.5" text-anchor="start" dominant-baseline="central" transform="matrix(1, 0, 0, 1, 0.5, 0.5)" fill-opacity="1">Cheapest Users - UCB1</text><path fill="none" stroke="rgb(255,187,120)" paint-order="fill" d="M 786.0166625976562 107.5 L 806.0166625976562 107.5" stroke-opacity="1" stroke-linejoin="bevel" stroke-miterlimit="10" stroke-width="3" stroke-dasharray=""/><text fill="rgb(68,68,68)" stroke="none" font-family="helvetica" font-size="18px" font-style="normal" font-weight="normal" text-decoration="normal" x="810.5166625976562" y="131.5" text-anchor="start" dominant-baseline="central" transform="matrix(1, 0, 0, 1, 0.5, 0.5)" fill-opacity="1">No Transmission Policy - Shared Evenly</text><path fill="none" stroke="rgb(44,160,44)" paint-order="fill" d="M 786.0166625976562 131.5 L 806.0166625976562 131.5" stroke-opacity="1" stroke-linejoin="bevel" stroke-miterlimit="10" stroke-width="3" stroke-dasharray=""/><text fill="rgb(68,68,68)" stroke="none" font-family="helvetica" font-size="18px" font-style="normal" font-weight="normal" text-decoration="normal" x="810.5166625976562" y="155.5" text-anchor="start" dominant-baseline="central" transform="matrix(1, 0, 0, 1, 0.5, 0.5)" fill-opacity="1">Cheapest Users - Shared Evenly</text><path fill="none" stroke="rgb(152,223,138)" paint-order="fill" d="M 786.0166625976562 155.5 L 806.0166625976562 155.5" stroke-opacity="1" stroke-linejoin="bevel" stroke-miterlimit="10" stroke-width="3" stroke-dasharray=""/><text fill="rgb(68,68,68)" stroke="none" font-family="helvetica" font-size="18px" font-style="normal" font-weight="normal" text-decoration="normal" x="810.5166625976562" y="179.5" text-anchor="start" dominant-baseline="central" transform="matrix(1, 0, 0, 1, 0.5, 0.5)" fill-opacity="1">No Transmission Policy - AP Energy Arrival</text><path fill="none" stroke="rgb(214,39,40)" paint-order="fill" d="M 786.0166625976562 179.5 L 806.0166625976562 179.5" stroke-opacity="1" stroke-linejoin="bevel" stroke-miterlimit="10" stroke-width="3" stroke-dasharray=""/><text fill="rgb(68,68,68)" stroke="none" font-family="helvetica" font-size="18px" font-style="normal" font-weight="normal" text-decoration="normal" x="810.5166625976562" y="203.5" text-anchor="start" dominant-baseline="central" transform="matrix(1, 0, 0, 1, 0.5, 0.5)" fill-opacity="1">Cheapest Users - AP Energy Arrival</text><path fill="none" stroke="rgb(255,152,150)" paint-order="fill" d="M 786.0166625976562 203.5 L 806.0166625976562 203.5" stroke-opacity="1" stroke-linejoin="bevel" stroke-miterlimit="10" stroke-width="3" stroke-dasharray=""/><text fill="rgb(68,68,68)" stroke="none" font-family="helvetica" font-size="18px" font-style="normal" font-weight="normal" text-decoration="normal" x="810.5166625976562" y="227.5" text-anchor="start" dominant-baseline="central" transform="matrix(1, 0, 0, 1, 0.5, 0.5)" fill-opacity="1">No Transmission Policy - AP Energy Use</text><path fill="none" stroke="rgb(148,103,189)" paint-order="fill" d="M 786.0166625976562 227.5 L 806.0166625976562 227.5" stroke-opacity="1" stroke-linejoin="bevel" stroke-miterlimit="10" stroke-width="3" stroke-dasharray=""/><text fill="rgb(68,68,68)" stroke="none" font-family="helvetica" font-size="18px" font-style="normal" font-weight="normal" text-decoration="normal" x="810.5166625976562" y="251.5" text-anchor="start" dominant-baseline="central" transform="matrix(1, 0, 0, 1, 0.5, 0.5)" fill-opacity="1">Cheapest Users - AP Energy Use</text><path fill="none" stroke="rgb(197,176,213)" paint-order="fill" d="M 786.0166625976562 251.5 L 806.0166625976562 251.5" stroke-opacity="1" stroke-linejoin="bevel" stroke-miterlimit="10" stroke-width="3" stroke-dasharray=""/><text fill="rgb(68,68,68)" stroke="none" font-family="helvetica" font-size="18px" font-style="normal" font-weight="normal" text-decoration="normal" x="810.5166625976562" y="275.5" text-anchor="start" dominant-baseline="central" transform="matrix(1, 0, 0, 1, 0.5, 0.5)" fill-opacity="1">No Transmission Policy - AP Energy Efficiency</text><path fill="none" stroke="rgb(140,86,75)" paint-order="fill" d="M 786.0166625976562 275.5 L 806.0166625976562 275.5" stroke-opacity="1" stroke-linejoin="bevel" stroke-miterlimit="10" stroke-width="3" stroke-dasharray=""/><text fill="rgb(68,68,68)" stroke="none" font-family="helvetica" font-size="18px" font-style="normal" font-weight="normal" text-decoration="normal" x="810.5166625976562" y="299.5" text-anchor="start" dominant-baseline="central" transform="matrix(1, 0, 0, 1, 0.5, 0.5)" fill-opacity="1">Cheapest Users - AP Energy Efficiency</text><path fill="none" stroke="rgb(196,156,148)" paint-order="fill" d="M 786.0166625976562 299.5 L 806.0166625976562 299.5" stroke-opacity="1" stroke-linejoin="bevel" stroke-miterlimit="10" stroke-width="3" stroke-dasharray=""/></svg>