<svg version="1.1" xmlns="http://www.w3.org/2000/svg" width="1200" height="800"><defs><clipPath id="pJaebTTBseoa"><path fill="none" stroke="none" d="M 102.5 5.5 L 766.5 5.5 L 766.5 739.5 L 102.5 739.5 L 102.5 5.5"/></clipPath><clipPath id="IyaxdZLmEBwS"><path fill="none" stroke="none" d="M 102.5 5.5 L 766.5 5.5 L 766.5 739.5 L 102.5 739.5 L 102.5 5.5"/></clipPath><clipPath id="xZHgxEbCuIee"><path fill="none" stroke="none" d="M 102.5 5.5 L 766.5 5.5 L 766.5 739.5 L 102.5 739.5 L 102.5 5.5"/></clipPath><clipPath id="kFIiyKpwXFXE"><path fill="none" stroke="none" d="M 102.5 5.5 L 766.5 5.5 L 766.5 739.5 L 102.5 739.5 L 102.5 5.5"/></clipPath><clipPath id="aJrlBCdROwQq"><path fill="none" stroke="none" d="M 102.5 5.5 L 766.5 5.5 L 766.5 739.5 L 102.5 739.5 L 102.5 5.5"/></clipPath><clipPath id="atQhTTPHlqPs"><path fill="none" stroke="none" d="M 102.5 5.5 L 766.5 5.5 L 766.5 739.5 L 102.5 739.5 L 102.5 5.5"/></clipPath><clipPath id="bKzVtdwHCpeS"><path fill="none" stroke="none" d="M 102.5 5.5 L 766.5 5.5 L 766.5 739.5 L 102.5 739.5 L 102.5 5.5"/></clipPath><clipPath id="gezUUEvMQZXa"><path fill="none" stroke="none" d="M 102.5 5.5 L 766.5 5.5 L 766.5 739.5 L 102.5 739.5 L 102.5 5.5"/></clipPath><clipPath id="UKPGEpDFuQoc"><path fill="none" stroke="none" d="M 102.5 5.5 L 766.5 5.5 L 766.5 739.5 L 102.5 739.5 L 102.5 5.5"/></clipPath><clipPath id="mzAKBCrQJXID"><path fill="none" stroke="none" d="M 102.5 5.5 L 766.5 5.5 L 766.5 739.5 L 102.5 739.5 L 102.5 5.5"/></clipPath><clipPath id="dRHkEeVTkRkb"><path fill="none" stroke="none" d="M 102.5 5.5 L 766.5 5.5 L 766.5 739.5 L 102.5 739.5 L 102.5 5.5"/></clipPath><clipPath id="ILlKRVFJziFM"><path fill="none" stroke="none" d="M 102.5 5.5 L 766.5 5.5 L 766.5 739.5 L 102.5 739.5 L 102.5 5.5"/></clipPath><clipPath id="DiTUmsHTimDs"><path fill="none" stroke="none" d="M 102.5 5.5 L 766.5 5.5 L 766.5 739.5 L 102.5 739.5 L 102.5 5.5"/></clipPath><clipPath id="QHJLenBAnSpT"><path fill="none" stroke="none" d="M 102.5 5.5 L 766.5 5.5 L 766.5 739.5 L 102.5 739.5 L 102.5 5.5"/></clipPath><clipPath id="SwtbCUGvynbU"><path fill="none" stroke="none" d="M 102.5 5.5 L 766.5 5.5 L 766.5 739.5 L 102.5 739.5 L 102.5 5.5"/></clipPath></defs><path fill="rgb(255,255,255)" stroke="none" paint-order="stroke" d="M 0.5 0.5 L 1200.5 0.5 L 1200.5 800.5 L 0.5 800.5 L 0.5 0.5" fill-opacity="1"/><rect fill="#FFFFFF" stroke="none" x="102" y="5" width="664" height="734" transform="matrix(1, 0, 0, 1, 0.5, 0.5)"/><path fill="rgb(255,255,255)" stroke="none" paint-order="stroke" d="M 102.5 5.5 L 766.5 5.5 L 766.5 739.5 L 102.5 739.5 L 102.5 5.5" fill-opacity="1"/><path fill="none" stroke="rgb(229,229,229)" paint-order="fill" d="M 102.5 5.5 L 766.5 5.5 L 766.5 739.5 L 102.5 739.5 L 102.5 5.5" stroke-opacity="1" stroke-linejoin="bevel" stroke-miterlimit="10" stroke-dasharray=""/><path fill="none" stroke="rgb(229,229,229)" paint-order="fill" d="M 175.5 739.5 L 175.5 5.5 M 262.5 739.5 L 262.5 5.5 M 348.5 739.5 L 348.5 5.5 M 434.5 739.5 L 434.5 5.5 M 520.5 739.5 L 520.5 5.5 M 606.5 739.5 L 606.5 5.5 M 693.5 739.5 L 693.5 5.5" stroke-opacity="1" stroke-linejoin="bevel" stroke-miterlimit="10" stroke-dasharray="" clip-path="url(#pJaebTTBseoa)"/><path fill="none" stroke="rgb(229,229,229)" paint-order="fill" d="M 102.5 698.5 L 766.5 698.5 M 102.5 559.5 L 766.5 559.5 M 102.5 419.5 L 766.5 419.5 M 102.5 279.5 L 766.5 279.5 M 102.5 140.5 L 766.5 140.5" stroke-opacity="1" stroke-linejoin="bevel" stroke-miterlimit="10" stroke-dasharray="" clip-path="url(#IyaxdZLmEBwS)"/><path fill="none" stroke="rgb(31,119,180)" paint-order="fill" d="M 132.68182373046875 56.33106994628906 L 175.7987060546875 52.966041564941406 L 218.91558837890625 52.966041564941406 L 262.032470703125 52.966041564941406 L 305.14935302734375 49.321754455566406 L 348.2662353515625 52.966041564941406 L 391.38311767578125 52.966041564941406 L 434.5 51.55580139160156 L 477.61688232421875 52.966041564941406 L 520.7337646484375 52.966041564941406 L 563.8506469726562 52.966041564941406 L 606.967529296875 52.966041564941406 L 650.0844116210938 52.966041564941406 L 693.2012939453125 52.966041564941406 L 736.3181762695312 52.966041564941406" stroke-opacity="1" stroke-linejoin="bevel" stroke-miterlimit="10" stroke-width="3" stroke-dasharray="" clip-path="url(#xZHgxEbCuIee)"/><path fill="none" stroke="rgb(174,199,232)" paint-order="fill" d="M 132.68182373046875 56.33106994628906 L 175.7987060546875 52.966041564941406 L 218.91558837890625 52.966041564941406 L 262.032470703125 52.966041564941406 L 305.14935302734375 49.321754455566406 L 348.2662353515625 52.966041564941406 L 391.38311767578125 52.966041564941406 L 434.5 51.55580139160156 L 477.61688232421875 52.966041564941406 L 520.7337646484375 52.966041564941406 L 563.8506469726562 52.966041564941406 L 606.967529296875 52.966041564941406 L 650.0844116210938 52.966041564941406 L 693.2012939453125 52.966041564941406 L 736.3181762695312 52.966041564941406" stroke-opacity="1" stroke-linejoin="bevel" stroke-miterlimit="10" stroke-width="3" stroke-dasharray="" clip-path="url(#kFIiyKpwXFXE)"/><path fill="none" stroke="rgb(255,127,14)" paint-order="fill" d="M 132.68182373046875 43.094356536865234 L 175.7987060546875 43.094356536865234 L 218.91558837890625 43.094356536865234 L 262.032470703125 43.094356536865234 L 305.14935302734375 43.094356536865234 L 348.2662353515625 43.094356536865234 L 391.38311767578125 43.094356536865234 L 434.5 38.8636360168457 L 477.61688232421875 40.27387619018555 L 520.7337646484375 40.27387619018555 L 563.8506469726562 40.27387619018555 L 606.967529296875 40.27387619018555 L 650.0844116210938 41.19541931152344 L 693.2012939453125 38.8636360168457 L 736.3181762695312 43.932125091552734" stroke-opacity="1" stroke-linejoin="bevel" stroke-miterlimit="10" stroke-width="3" stroke-dasharray="" clip-path="url(#aJrlBCdROwQq)"/><path fill="none" stroke="rgb(255,187,120)" paint-order="fill" d="M 132.68182373046875 43.094356536865234 L 175.7987060546875 43.094356536865234 L 218.91558837890625 43.094356536865234 L 262.032470703125 43.094356536865234 L 305.14935302734375 43.094356536865234 L 348.2662353515625 43.094356536865234 L 391.38311767578125 43.094356536865234 L 434.5 38.8636360168457 L 477.61688232421875 40.27387619018555 L 520.7337646484375 40.27387619018555 L 563.8506469726562 40.27387619018555 L 606.967529296875 40.27387619018555 L 650.0844116210938 41.19541931152344 L 693.2012939453125 38.8636360168457 L 736.3181762695312 43.932125091552734" stroke-opacity="1" stroke-linejoin="bevel" stroke-miterlimit="10" stroke-width="3" stroke-dasharray="" clip-path="url(#atQhTTPHlqPs)"/><path fill="none" stroke="rgb(44,160,44)" paint-order="fill" d="M 132.68182373046875 703.1427612304688 L 175.7987060546875 703.2125854492188 L 218.91558837890625 704.4217529296875 L 262.032470703125 705.725830078125 L 305.14935302734375 705.279052734375 L 348.2662353515625 705.2510986328125 L 391.38311767578125 703.8129272460938 L 434.5 706.1363525390625 L 477.61688232421875 705.3209228515625 L 520.7337646484375 703.7766723632812 L 563.8506469726562 703.7208251953125 L 606.967529296875 704.6563110351562 L 650.0844116210938 704.6256103515625 L 693.2012939453125 704.64794921875 L 736.3181762695312 704.6758422851562" stroke-opacity="1" stroke-linejoin="bevel" stroke-miterlimit="10" stroke-width="3" stroke-dasharray="" clip-path="url(#bKzVtdwHCpeS)"/><path fill="none" stroke="rgb(152,223,138)" paint-order="fill" d="M 132.68182373046875 696.4406127929688 L 175.7987060546875 696.384765625 L 218.91558837890625 698.7025756835938 L 262.032470703125 700.098876953125 L 305.14935302734375 698.34375 L 348.2662353515625 698.1719970703125 L 391.38311767578125 696.6640014648438 L 434.5 698.0323486328125 L 477.61688232421875 698.0184326171875 L 520.7337646484375 696.5941772460938 L 563.8506469726562 697.11083984375 L 606.967529296875 696.6919555664062 L 650.0844116210938 697.1722412109375 L 693.2012939453125 697.1387329101562 L 736.3181762695312 697.7698974609375" stroke-opacity="1" stroke-linejoin="bevel" stroke-miterlimit="10" stroke-width="3" stroke-dasharray="" clip-path="url(#gezUUEvMQZXa)"/><path fill="none" stroke="rgb(214,39,40)" paint-order="fill" d="M 132.68182373046875 295.9588623046875 L 175.7987060546875 293.9775390625 L 218.91558837890625 298.0239562988281 L 262.032470703125 294.0473327636719 L 305.14935302734375 296.0063171386719 L 348.2662353515625 294.03338623046875 L 391.38311767578125 294.10321044921875 L 434.5 298.0993347167969 L 477.61688232421875 298.01837158203125 L 520.7337646484375 294.03338623046875 L 563.8506469726562 294.03338623046875 L 606.967529296875 297.92620849609375 L 650.0844116210938 295.8694763183594 L 693.2012939453125 293.92169189453125 L 736.3181762695312 293.9356384277344" stroke-opacity="1" stroke-linejoin="bevel" stroke-miterlimit="10" stroke-width="3" stroke-dasharray="" clip-path="url(#UKPGEpDFuQoc)"/><path fill="none" stroke="rgb(255,152,150)" paint-order="fill" d="M 132.68182373046875 293.9496154785156 L 175.7987060546875 293.9775390625 L 218.91558837890625 294.0194091796875 L 262.032470703125 294.0473327636719 L 305.14935302734375 294.0054626464844 L 348.2662353515625 294.03338623046875 L 391.38311767578125 294.10321044921875 L 434.5 294.1311340332031 L 477.61688232421875 298.01837158203125 L 520.7337646484375 294.03338623046875 L 563.8506469726562 296.02587890625 L 606.967529296875 293.92169189453125 L 650.0844116210938 295.8694763183594 L 693.2012939453125 297.9317932128906 L 736.3181762695312 297.9429626464844" stroke-opacity="1" stroke-linejoin="bevel" stroke-miterlimit="10" stroke-width="3" stroke-dasharray="" clip-path="url(#mzAKBCrQJXID)"/><path fill="none" stroke="rgb(148,103,189)" paint-order="fill" d="M 132.68182373046875 134.52261352539062 L 175.7987060546875 137.10572814941406 L 218.91558837890625 138.13897705078125 L 262.032470703125 137.68099975585938 L 305.14935302734375 137.33612060546875 L 348.2662353515625 134.75999450683594 L 391.38311767578125 128.74203491210938 L 434.5 121.61543273925781 L 477.61688232421875 129.52394104003906 L 520.7337646484375 130.36170959472656 L 563.8506469726562 131.3251495361328 L 606.967529296875 135.23472595214844 L 650.0844116210938 135.08950805664062 L 693.2012939453125 135.33245849609375 L 736.3181762695312 134.57847595214844" stroke-opacity="1" stroke-linejoin="bevel" stroke-miterlimit="10" stroke-width="3" stroke-dasharray="" clip-path="url(#dRHkEeVTkRkb)"/><path fill="none" stroke="rgb(197,176,213)" paint-order="fill" d="M 132.68182373046875 134.54356384277344 L 175.7987060546875 137.10572814941406 L 218.91558837890625 138.07196044921875 L 262.032470703125 136.82647705078125 L 305.14935302734375 136.82647705078125 L 348.2662353515625 134.75999450683594 L 391.38311767578125 128.74203491210938 L 434.5 121.34175872802734 L 477.61688232421875 129.52394104003906 L 520.7337646484375 131.7831268310547 L 563.8506469726562 131.3251495361328 L 606.967529296875 135.23472595214844 L 650.0844116210938 135.33245849609375 L 693.2012939453125 135.06576538085938 L 736.3181762695312 134.57847595214844" stroke-opacity="1" stroke-linejoin="bevel" stroke-miterlimit="10" stroke-width="3" stroke-dasharray="" clip-path="url(#ILlKRVFJziFM)"/><path fill="none" stroke="rgb(140,86,75)" paint-order="fill" d="M 132.68182373046875 113.0059814453125 L 175.7987060546875 118.49335479736328 L 218.91558837890625 117.85106658935547 L 262.032470703125 122.09574890136719 L 305.14935302734375 119.65225982666016 L 348.2662353515625 120.46210479736328 L 391.38311767578125 116.90718078613281 L 434.5 123.67354583740234 L 477.61688232421875 119.69415283203125 L 520.7337646484375 123.7377700805664 L 563.8506469726562 118.78656768798828 L 606.967529296875 118.42353820800781 L 650.0844116210938 121.53723907470703 L 693.2012939453125 123.2406997680664 L 736.3181762695312 114.89095306396484" stroke-opacity="1" stroke-linejoin="bevel" stroke-miterlimit="10" stroke-width="3" stroke-dasharray="" clip-path="url(#DiTUmsHTimDs)"/><path fill="none" stroke="rgb(196,156,148)" paint-order="fill" d="M 132.68182373046875 112.84261322021484 L 175.7987060546875 118.49335479736328 L 218.91558837890625 117.85106658935547 L 262.032470703125 122.09574890136719 L 305.14935302734375 119.65225982666016 L 348.2662353515625 120.46210479736328 L 391.38311767578125 116.76197052001953 L 434.5 123.67354583740234 L 477.61688232421875 119.69415283203125 L 520.7337646484375 124.16223907470703 L 563.8506469726562 118.78656768798828 L 606.967529296875 118.42353820800781 L 650.0844116210938 121.53723907470703 L 693.2012939453125 123.2406997680664 L 736.3181762695312 114.89095306396484" stroke-opacity="1" stroke-linejoin="bevel" stroke-miterlimit="10" stroke-width="3" stroke-dasharray="" clip-path="url(#QHJLenBAnSpT)"/><path fill="none" stroke="rgb(0,0,0)" paint-order="fill" d="M 102.5 739.5 L 766.5 739.5" stroke-opacity="1" stroke-linejoin="bevel" stroke-miterlimit="10" stroke-dasharray=""/><path fill="none" stroke="rgb(0,0,0)" paint-order="fill" d="M 175.5 745.5 L 175.5 737.5 M 262.5 745.5 L 262.5 737.5 M 348.5 745.5 L 348.5 737.5 M 434.5 745.5 L 434.5 737.5 M 520.5 745.5 L 520.5 737.5 M 606.5 745.5 L 606.5 737.5 M 693.5 745.5 L 693.5 737.5" stroke-opacity="1" stroke-linejoin="bevel" stroke-miterlimit="10" stroke-dasharray=""/><path fill="none" stroke="rgb(0,0,0)" paint-order="fill" d="M 158.5 743.5 L 158.5 739.5 M 141.5 743.5 L 141.5 739.5 M 124.5 743.5 L 124.5 739.5 M 106.5 743.5 L 106.5 739.5 M 175.5 743.5 L 175.5 739.5 M 193.5 743.5 L 193.5 739.5 M 210.5 743.5 L 210.5 739.5 M 227.5 743.5 L 227.5 739.5 M 244.5 743.5 L 244.5 739.5 M 262.5 743.5 L 262.5 739.5 M 279.5 743.5 L 279.5 739.5 M 296.5 743.5 L 296.5 739.5 M 313.5 743.5 L 313.5 739.5 M 331.5 743.5 L 331.5 739.5 M 348.5 743.5 L 348.5 739.5 M 365.5 743.5 L 365.5 739.5 M 382.5 743.5 L 382.5 739.5 M 400.5 743.5 L 400.5 739.5 M 417.5 743.5 L 417.5 739.5 M 434.5 743.5 L 434.5 739.5 M 451.5 743.5 L 451.5 739.5 M 468.5 743.5 L 468.5 739.5 M 486.5 743.5 L 486.5 739.5 M 503.5 743.5 L 503.5 739.5 M 520.5 743.5 L 520.5 739.5 M 537.5 743.5 L 537.5 739.5 M 555.5 743.5 L 555.5 739.5 M 572.5 743.5 L 572.5 739.5 M 589.5 743.5 L 589.5 739.5 M 606.5 743.5 L 606.5 739.5 M 624.5 743.5 L 624.5 739.5 M 641.5 743.5 L 641.5 739.5 M 658.5 743.5 L 658.5 739.5 M 675.5 743.5 L 675.5 739.5 M 693.5 743.5 L 693.5 739.5 M 710.5 743.5 L 710.5 739.5 M 727.5 743.5 L 727.5 739.5 M 744.5 743.5 L 744.5 739.5 M 762.5 743.5 L 762.5 739.5" stroke-opacity="1" stroke-linejoin="bevel" stroke-miterlimit="10" stroke-dasharray=""/><text fill="rgb(68,68,68)" stroke="none" font-family="helvetica" font-size="20px" font-style="normal" font-weight="normal" text-decoration="normal" x="169.74037265777588" y="765" text-anchor="start" dominant-baseline="alphabetic" transform="matrix(1, 0, 0, 1, 0.5, 0.5)" fill-opacity="1">2</text><text fill="rgb(68,68,68)" stroke="none" font-family="helvetica" font-size="20px" font-style="normal" font-weight="normal" text-decoration="normal" x="255.97413730621338" y="765" text-anchor="start" dominant-baseline="alphabetic" transform="matrix(1, 0, 0, 1, 0.5, 0.5)" fill-opacity="1">4</text><text fill="rgb(68,68,68)" stroke="none" font-family="helvetica" font-size="20px" font-style="normal" font-weight="normal" text-decoration="normal" x="342.2079019546509" y="765" text-anchor="start" dominant-baseline="alphabetic" transform="matrix(1, 0, 0, 1, 0.5, 0.5)" fill-opacity="1">6</text><text fill="rgb(68,68,68)" stroke="none" font-family="helvetica" font-size="20px" font-style="normal" font-weight="normal" text-decoration="normal" x="428.4416666030884" y="765" text-anchor="start" dominant-baseline="alphabetic" transform="matrix(1, 0, 0, 1, 0.5, 0.5)" fill-opacity="1">8</text><text fill="rgb(68,68,68)" stroke="none" font-family="helvetica" font-size="20px" font-style="normal" font-weight="normal" text-decoration="normal" x="509.11709785461426" y="765" text-anchor="start" dominant-baseline="alphabetic" transform="matrix(1, 0, 0, 1, 0.5, 0.5)" fill-opacity="1">10</text><text fill="rgb(68,68,68)" stroke="none" font-family="helvetica" font-size="20px" font-style="normal" font-weight="normal" text-decoration="normal" x="595.3508625030518" y="765" text-anchor="start" dominant-baseline="alphabetic" transform="matrix(1, 0, 0, 1, 0.5, 0.5)" fill-opacity="1">12</text><text fill="rgb(68,68,68)" stroke="none" font-family="helvetica" font-size="20px" font-style="normal" font-weight="normal" text-decoration="normal" x="681.5846271514893" y="765" text-anchor="start" dominant-baseline="alphabetic" transform="matrix(1, 0, 0, 1, 0.5, 0.5)" fill-opacity="1">14</text><text fill="rgb(68,68,68)" stroke="none" font-family="helvetica" font-size="20px" font-style="italic" font-weight="normal" text-decoration="normal" x="276.09165954589844" y="793" text-anchor="start" dominant-baseline="alphabetic" transform="matrix(1, 0, 0, 1, 0.5, 0.5)" fill-opacity="1">Maximum User Movement Distance</text><path fill="none" stroke="rgb(0,0,0)" paint-order="fill" d="M 102.5 739.5 L 102.5 5.5" stroke-opacity="1" stroke-linejoin="bevel" stroke-miterlimit="10" stroke-dasharray=""/><path fill="none" stroke="rgb(0,0,0)" paint-order="fill" d="M 96.5 698.5 L 104.5 698.5 M 96.5 559.5 L 104.5 559.5 M 96.5 419.5 L 104.5 419.5 M 96.5 279.5 L 104.5 279.5 M 96.5 140.5 L 104.5 140.5" stroke-opacity="1" stroke-linejoin="bevel" stroke-miterlimit="10" stroke-dasharray=""/><path fill="none" stroke="rgb(0,0,0)" paint-order="fill" d="M 98.5 726.5 L 102.5 726.5 M 98.5 698.5 L 102.5 698.5 M 98.5 670.5 L 102.5 670.5 M 98.5 642.5 L 102.5 642.5 M 98.5 615.5 L 102.5 615.5 M 98.5 587.5 L 102.5 587.5 M 98.5 559.5 L 102.5 559.5 M 98.5 531.5 L 102.5 531.5 M 98.5 503.5 L 102.5 503.5 M 98.5 475.5 L 102.5 475.5 M 98.5 447.5 L 102.5 447.5 M 98.5 419.5 L 102.5 419.5 M 98.5 391.5 L 102.5 391.5 M 98.5 363.5 L 102.5 363.5 M 98.5 335.5 L 102.5 335.5 M 98.5 307.5 L 102.5 307.5 M 98.5 279.5 L 102.5 279.5 M 98.5 252.5 L 102.5 252.5 M 98.5 224.5 L 102.5 224.5 M 98.5 196.5 L 102.5 196.5 M 98.5 168.5 L 102.5 168.5 M 98.5 140.5 L 102.5 140.5 M 98.5 112.5 L 102.5 112.5 M 98.5 84.5 L 102.5 84.5 M 98.5 56.5 L 102.5 56.5 M 98.5 28.5 L 102.5 28.5" stroke-opacity="1" stroke-linejoin="bevel" stroke-miterlimit="10" stroke-dasharray=""/><text fill="rgb(68,68,68)" stroke="none" font-family="helvetica" font-size="20px" font-style="normal" font-weight="normal" text-decoration="normal" x="35.41666793823242" y="705.8282470703125" text-anchor="start" dominant-baseline="alphabetic" transform="matrix(1, 0, 0, 1, 0.5, 0.5)" fill-opacity="1">10000</text><text fill="rgb(68,68,68)" stroke="none" font-family="helvetica" font-size="20px" font-style="normal" font-weight="normal" text-decoration="normal" x="35.41666793823242" y="566.2005004882812" text-anchor="start" dominant-baseline="alphabetic" transform="matrix(1, 0, 0, 1, 0.5, 0.5)" fill-opacity="1">15000</text><text fill="rgb(68,68,68)" stroke="none" font-family="helvetica" font-size="20px" font-style="normal" font-weight="normal" text-decoration="normal" x="35.41666793823242" y="426.5727233886719" text-anchor="start" dominant-baseline="alphabetic" transform="matrix(1, 0, 0, 1, 0.5, 0.5)" fill-opacity="1">20000</text><text fill="rgb(68,68,68)" stroke="none" font-family="helvetica" font-size="20px" font-style="normal" font-weight="normal" text-decoration="normal" x="35.41666793823242" y="286.9449462890625" text-anchor="start" dominant-baseline="alphabetic" transform="matrix(1, 0, 0, 1, 0.5, 0.5)" fill-opacity="1">25000</text><text fill="rgb(68,68,68)" stroke="none" font-family="helvetica" font-size="20px" font-style="normal" font-weight="normal" text-decoration="normal" x="35.41666793823242" y="147.31716918945312" text-anchor="start" dominant-baseline="alphabetic" transform="matrix(1, 0, 0, 1, 0.5, 0.5)" fill-opacity="1">30000</text><text fill="rgb(68,68,68)" stroke="none" font-family="helvetica" font-size="20px" font-style="italic" font-weight="normal" text-decoration="normal" x="-113.84999465942383" y="368" text-anchor="start" dominant-baseline="alphabetic" transform="matrix(6.123233995736766e-17, -1, 1, 6.123233995736766e-17, -344.0833320617676, 399.9166679382324)" fill-opacity="1">Total Number of Serviced Users</text><path fill="rgb(255,255,255)" stroke="rgb(229,229,229)" paint-order="fill" d="M 776.0166625976562 15.5 L 1190.5 15.5 L 1190.5 320.5 L 776.0166625976562 320.5 L 776.0166625976562 15.5" fill-opacity="0.9490196078431372" stroke-opacity="0.5019607843137255" stroke-linejoin="bevel" stroke-miterlimit="10" stroke-dasharray=""/><text fill="rgb(68,68,68)" stroke="none" font-family="helvetica" font-size="18px" font-style="normal" font-weight="normal" text-decoration="normal" x="810.5166625976562" y="35.5" text-anchor="start" dominant-baseline="central" transform="matrix(1, 0, 0, 1, 0.5, 0.5)" fill-opacity="1">No Policy - Epsilon Greedy</text><path fill="none" stroke="rgb(31,119,180)" paint-order="fill" d="M 786.0166625976562 35.5 L 806.0166625976562 35.5" stroke-opacity="1" stroke-linejoin="bevel" stroke-miterlimit="10" stroke-width="3" stroke-dasharray=""/><text fill="rgb(68,68,68)" stroke="none" font-family="helvetica" font-size="18px" font-style="normal" font-weight="normal" text-decoration="normal" x="810.5166625976562" y="59.5" text-anchor="start" dominant-baseline="central" transform="matrix(1, 0, 0, 1, 0.5, 0.5)" fill-opacity="1">Cheapest Users - Epsilon Greedy</text><path fill="none" stroke="rgb(174,199,232)" paint-order="fill" d="M 786.0166625976562 59.5 L 806.0166625976562 59.5" stroke-opacity="1" stroke-linejoin="bevel" stroke-miterlimit="10" stroke-width="3" stroke-dasharray=""/><text fill="rgb(68,68,68)" stroke="none" font-family="helvetica" font-size="18px" font-style="normal" font-weight="normal" text-decoration="normal" x="810.5166625976562" y="83.5" text-anchor="start" dominant-baseline="central" transform="matrix(1, 0, 0, 1, 0.5, 0.5)" fill-opacity="1">No Policy - UCB1</text><path fill="none" stroke="rgb(255,127,14)" paint-order="fill" d="M 786.0166625976562 83.5 L 806.0166625976562 83.5" stroke-opacity="1" stroke-linejoin="bevel" stroke-miterlimit="10" stroke-width="3" stroke-dasharray=""/><text fill="rgb(68,68,68)" stroke="none" font-family="helvetica" font-size="18px" font-style="normal" font-weight="normal" text-decoration="normal" x="810.5166625976562" y="107.5" text-anchor="start" dominant-baseline="central" transform="matrix(1, 0, 0, 1, 0.5, 0.5)" fill-opacity="1">Cheapest Users - UCB1</text><path fill="none" stroke="rgb(255,187,120)" paint-order="fill" d="M 786.0166625976562 107.5 L 806.0166625976562 107.5" stroke-opacity="1" stroke-linejoin="bevel" stroke-miterlimit="10" stroke-width="3" stroke-dasharray=""/><text fill="rgb(68,68,68)" stroke="none" font-family="helvetica" font-size="18px" font-style="normal" font-weight="normal" text-decoration="normal" x="810.5166625976562" y="131.5" text-anchor="start" dominant-baseline="central" transform="matrix(1, 0, 0, 1, 0.5, 0.5)" fill-opacity="1">No Transmission Policy - Shared Evenly</text><path fill="none" stroke="rgb(44,160,44)" paint-order="fill" d="M 786.0166625976562 131.5 L 806.0166625976562 131.5" stroke-opacity="1" stroke-linejoin="bevel" stroke-miterlimit="10" stroke-width="3" stroke-dasharray=""/><text fill="rgb(68,68,68)" stroke="none" font-family="helvetica" font-size="18px" font-style="normal" font-weight="normal" text-decoration="normal" x="810.5166625976562" y="155.5" text-anchor="start" dominant-baseline="central" transform="matrix(1, 0, 0, 1, 0.5, 0.5)" fill-opacity="1">Cheapest Users - Shared Evenly</text><path fill="none" stroke="rgb(152,223,138)" paint-order="fill" d="M 786.0166625976562 155.5 L 806.0166625976562 155.5" stroke-opacity="1" stroke-linejoin="bevel" stroke-miterlimit="10" stroke-width="3" stroke-dasharray=""/><text fill="rgb(68,68,68)" stroke="none" font-family="helvetica" font-size="18px" font-style="normal" font-weight="normal" text-decoration="normal" x="810.5166625976562" y="179.5" text-anchor="start" dominant-baseline="central" transform="matrix(1, 0, 0, 1, 0.5, 0.5)" fill-opacity="1">No Transmission Policy - AP Energy Arrival</text><path fill="none" stroke="rgb(214,39,40)" paint-order="fill" d="M 786.0166625976562 179.5 L 806.0166625976562 179.5" stroke-opacity="1" stroke-linejoin="bevel" stroke-miterlimit="10" stroke-width="3" stroke-dasharray=""/><text fill="rgb(68,68,68)" stroke="none" font-family="helvetica" font-size="18px" font-style="normal" font-weight="normal" text-decoration="normal" x="810.5166625976562" y="203.5" text-anchor="start" dominant-baseline="central" transform="matrix(1, 0, 0, 1, 0.5, 0.5)" fill-opacity="1">Cheapest Users - AP Energy Arrival</text><path fill="none" stroke="rgb(255,152,150)" paint-order="fill" d="M 786.0166625976562 203.5 L 806.0166625976562 203.5" stroke-opacity="1" stroke-linejoin="bevel" stroke-miterlimit="10" stroke-width="3" stroke-dasharray=""/><text fill="rgb(68,68,68)" stroke="none" font-family="helvetica" font-size="18px" font-style="normal" font-weight="normal" text-decoration="normal" x="810.5166625976562" y="227.5" text-anchor="start" dominant-baseline="central" transform="matrix(1, 0, 0, 1, 0.5, 0.5)" fill-opacity="1">No Transmission Policy - AP Energy Use</text><path fill="none" stroke="rgb(148,103,189)" paint-order="fill" d="M 786.0166625976562 227.5 L 806.0166625976562 227.5" stroke-opacity="1" stroke-linejoin="bevel" stroke-miterlimit="10" stroke-width="3" stroke-dasharray=""/><text fill="rgb(68,68,68)" stroke="none" font-family="helvetica" font-size="18px" font-style="normal" font-weight="normal" text-decoration="normal" x="810.5166625976562" y="251.5" text-anchor="start" dominant-baseline="central" transform="matrix(1, 0, 0, 1, 0.5, 0.5)" fill-opacity="1">Cheapest Users - AP Energy Use</text><path fill="none" stroke="rgb(197,176,213)" paint-order="fill" d="M 786.0166625976562 251.5 L 806.0166625976562 251.5" stroke-opacity="1" stroke-linejoin="bevel" stroke-miterlimit="10" stroke-width="3" stroke-dasharray=""/><text fill="rgb(68,68,68)" stroke="none" font-family="helvetica" font-size="18px" font-style="normal" font-weight="normal" text-decoration="normal" x="810.5166625976562" y="275.5" text-anchor="start" dominant-baseline="central" transform="matrix(1, 0, 0, 1, 0.5, 0.5)" fill-opacity="1">No Transmission Policy - AP Energy Efficiency</text><path fill="none" stroke="rgb(140,86,75)" paint-order="fill" d="M 786.0166625976562 275.5 L 806.0166625976562 275.5" stroke-opacity="1" stroke-linejoin="bevel" stroke-miterlimit="10" stroke-width="3" stroke-dasharray=""/><text fill="rgb(68,68,68)" stroke="none" font-family="helvetica" font-size="18px" font-style="normal" font-weight="normal" text-decoration="normal" x="810.5166625976562" y="299.5" text-anchor="start" dominant-baseline="central" transform="matrix(1, 0, 0, 1, 0.5, 0.5)" fill-opacity="1">Cheapest Users - AP Energy Efficiency</text><path fill="none" stroke="rgb(196,156,148)" paint-order="fill" d="M 786.0166625976562 299.5 L 806.0166625976562 299.5" stroke-opacity="1" stroke-linejoin="bevel" stroke-miterlimit="10" stroke-width="3" stroke-dasharray=""/><path fill="rgb(255,255,255)" stroke="rgb(229,229,229)" paint-order="fill" d="M 776.0166625976562 15.5 L 1190.5 15.5 L 1190.5 320.5 L 776.0166625976562 320.5 L 776.0166625976562 15.5" fill-opacity="0.9490196078431372" stroke-opacity="0.5019607843137255" stroke-linejoin="bevel" stroke-miterlimit="10" stroke-dasharray=""/><text fill="rgb(68,68,68)" stroke="none" font-family="helvetica" font-size="18px" font-style="normal" font-weight="normal" text-decoration="normal" x="810.5166625976562" y="35.5" text-anchor="start" dominant-baseline="central" transform="matrix(1, 0, 0, 1, 0.5, 0.5)" fill-opacity="1">No Policy - Epsilon Greedy</text><path fill="none" stroke="rgb(31,119,180)" paint-order="fill" d="M 786.0166625976562 35.5 L 806.0166625976562 35.5" stroke-opacity="1" stroke-linejoin="bevel" stroke-miterlimit="10" stroke-width="3" stroke-dasharray=""/><text fill="rgb(68,68,68)" stroke="none" font-family="helvetica" font-size="18px" font-style="normal" font-weight="normal" text-decoration="normal" x="810.5166625976562" y="59.5" text-anchor="start" dominant-baseline="central" transform="matrix(1, 0, 0, 1, 0.5, 0.5)" fill-opacity="1">Cheapest Users - Epsilon Greedy</text><path fill="none" stroke="rgb(174,199,232)" paint-order="fill" d="M 786.0166625976562 59.5 L 806.0166625976562 59.5" stroke-opacity="1" stroke-linejoin="bevel" stroke-miterlimit="10" stroke-width="3" stroke-dasharray=""/><text fill="rgb(68,68,68)" stroke="none" font-family="helvetica" font-size="18px" font-style="normal" font-weight="normal" text-decoration="normal" x="810.5166625976562" y="83.5" text-anchor="start" dominant-baseline="central" transform="matrix(1, 0, 0, 1, 0.5, 0.5)" fill-opacity="1">No Policy - UCB1</text><path fill="none" stroke="rgb(255,127,14)" paint-order="fill" d="M 786.0166625976562 83.5 L 806.0166625976562 83.5" stroke-opacity="1" stroke-linejoin="bevel" stroke-miterlimit="10" stroke-width="3" stroke-dasharray=""/><text fill="rgb(68,68,68)" stroke="none" font-family="helvetica" font-size="18px" font-style="normal" font-weight="normal" text-decoration="normal" x="810.5166625976562" y="107.5" text-anchor="start" dominant-baseline="central" transform="matrix(1, 0, 0, 1, 0.5, 0.5)" fill-opacity="1">Cheapest Users - UCB1</text><path fill="none" stroke="rgb(255,187,120)" paint-order="fill" d="M 786.0166625976562 107.5 L 806.0166625976562 107.5" stroke-opacity="1" stroke-linejoin="bevel" stroke-miterlimit="10" stroke-width="3" stroke-dasharray=""/><text fill="rgb(68,68,68)" stroke="none" font-family="helvetica" font-size="18px" font-style="normal" font-weight="normal" text-decoration="normal" x="810.5166625976562" y="131.5" text-anchor="start" dominant-baseline="central" transform="matrix(1, 0, 0, 1, 0.5, 0.5)" fill-opacity="1">No Transmission Policy - Shared Evenly</text><path fill="none" stroke="rgb(44,160,44)" paint-order="fill" d="M 786.0166625976562 131.5 L 806.0166625976562 131.5" stroke-opacity="1" stroke-linejoin="bevel" stroke-miterlimit="10" stroke-width="3" stroke-dasharray=""/><text fill="rgb(68,68,68)" stroke="none" font-family="helvetica" font-size="18px" font-style="normal" font-weight="normal" text-decoration="normal" x="810.5166625976562" y="155.5" text-anchor="start" dominant-baseline="central" transform="matrix(1, 0, 0, 1, 0.5, 0.5)" fill-opacity="1">Cheapest Users - Shared Evenly</text><path fill="none" stroke="rgb(152,223,138)" paint-order="fill" d="M 786.0166625976562 155.5 L 806.0166625976562 155.5" stroke-opacity="1" stroke-linejoin="bevel" stroke-miterlimit="10" stroke-width="3" stroke-dasharray=""/><text fill="rgb(68,68,68)" stroke="none" font-family="helvetica" font-size="18px" font-style="normal" font-weight="normal" text-decoration="normal" x="810.5166625976562" y="179.5" text-anchor="start" dominant-baseline="central" transform="matrix(1, 0, 0, 1, 0.5, 0.5)" fill-opacity="1">No Transmission Policy - AP Energy Arrival</text><path fill="none" stroke="rgb(214,39,40)" paint-order="fill" d="M 786.0166625976562 179.5 L 806.0166625976562 179.5" stroke-opacity="1" stroke-linejoin="bevel" stroke-miterlimit="10" stroke-width="3" stroke-dasharray=""/><text fill="rgb(68,68,68)" stroke="none" font-family="helvetica" font-size="18px" font-style="normal" font-weight="normal" text-decoration="normal" x="810.5166625976562" y="203.5" text-anchor="start" dominant-baseline="central" transform="matrix(1, 0, 0, 1, 0.5, 0.5)" fill-opacity="1">Cheapest Users - AP Energy Arrival</text><path fill="none" stroke="rgb(255,152,150)" paint-order="fill" d="M 786.0166625976562 203.5 L 806.0166625976562 203.5" stroke-opacity="1" stroke-linejoin="bevel" stroke-miterlimit="10" stroke-width="3" stroke-dasharray=""/><text fill="rgb(68,68,68)" stroke="none" font-family="helvetica" font-size="18px" font-style="normal" font-weight="normal" text-decoration="normal" x="810.5166625976562" y="227.5" text-anchor="start" dominant-baseline="central" transform="matrix(1, 0, 0, 1, 0.5, 0.5)" fill-opacity="1">No Transmission Policy - AP Energy Use</text><path fill="none" stroke="rgb(148,103,189)" paint-order="fill" d="M 786.0166625976562 227.5 L 806.0166625976562 227.5" stroke-opacity="1" stroke-linejoin="bevel" stroke-miterlimit="10" stroke-width="3" stroke-dasharray=""/><text fill="rgb(68,68,68)" stroke="none" font-family="helvetica" font-size="18px" font-style="normal" font-weight="normal" text-decoration="normal" x="810.5166625976562" y="251.5" text-anchor="start" dominant-baseline="central" transform="matrix(1, 0, 0, 1, 0.5, 0.5)" fill-opacity="1">Cheapest Users - AP Energy Use</text><path fill="none" stroke="rgb(197,176,213)" paint-order="fill" d="M 786.0166625976562 251.5 L 806.0166625976562 251.5" stroke-opacity="1" stroke-linejoin="bevel" stroke-miterlimit="10" stroke-width="3" stroke-dasharray=""/><text fill="rgb(68,68,68)" stroke="none" font-family="helvetica" font-size="18px" font-style="normal" font-weight="normal" text-decoration="normal" x="810.5166625976562" y="275.5" text-anchor="start" dominant-baseline="central" transform="matrix(1, 0, 0, 1, 0.5, 0.5)" fill-opacity="1">No Transmission Policy - AP Energy Efficiency</text><path fill="none" stroke="rgb(140,86,75)" paint-order="fill" d="M 786.0166625976562 275.5 L 806.0166625976562 275.5" stroke-opacity="1" stroke-linejoin="bevel" stroke-miterlimit="10" stroke-width="3" stroke-dasharray=""/><text fill="rgb(68,68,68)" stroke="none" font-family="helvetica" font-size="18px" font-style="normal" font-weight="normal" text-decoration="normal" x="810.5166625976562" y="299.5" text-anchor="start" dominant-baseline="central" transform="matrix(1, 0, 0, 1, 0.5, 0.5)" fill-opacity="1">Cheapest Users - AP Energy Efficiency</text><path fill="none" stroke="rgb(196,156,148)" paint-order="fill" d="M 786.0166625976562 299.5 L 806.0166625976562 299.5" stroke-opacity="1" stroke-linejoin="bevel" stroke-miterlimit="10" stroke-width="3" stroke-dasharray=""/></svg>